<?xml version="1.0" encoding="UTF-8"?>
<svg id="Layer_1" data-name="Layer 1" xmlns="http://www.w3.org/2000/svg" xmlns:xlink="http://www.w3.org/1999/xlink" viewBox="0 0 1158.4 868.8">
  <defs>
    <style>
      .cls-1 {
        fill: url(#linear-gradient);
      }

      .cls-1, .cls-2 {
        stroke-width: 0px;
      }

      .cls-3 {
        stroke: #fff;
      }

      .cls-3, .cls-4 {
        fill: none;
        stroke-miterlimit: 10;
      }

      .cls-4 {
        stroke: #4b9cbf;
      }

      .cls-2 {
        fill: #fff;
      }
    </style>
    <linearGradient id="linear-gradient" x1="487.99" y1="415.43" x2="732.51" y2="415.43" gradientUnits="userSpaceOnUse">
      <stop offset=".06" stop-color="#9b8153"/>
      <stop offset=".08" stop-color="#927e55"/>
      <stop offset=".23" stop-color="#697161"/>
      <stop offset=".37" stop-color="#47666b"/>
      <stop offset=".52" stop-color="#2c5e73"/>
      <stop offset=".67" stop-color="#195878"/>
      <stop offset=".83" stop-color="#0e557b"/>
      <stop offset=".99" stop-color="#0b547d"/>
    </linearGradient>
  </defs>
  <g>
    <g>
      <path class="cls-3" d="M585.81,496.88c-1.35-2.19-2.07-4.72-2.07-7.31,0-7.68,6.25-13.94,13.94-13.94s13.94,6.25,13.94,13.94c0,2.59-.72,5.12-2.07,7.31"/>
      <path class="cls-3" d="M589.39,494.67c-.91-1.48-1.44-3.23-1.44-5.1,0-5.37,4.36-9.73,9.73-9.73s9.73,4.36,9.73,9.73c0,1.87-.53,3.62-1.44,5.1"/>
      <g>
        <g>
          <path class="cls-3" d="M621.48,556.3c-.03-4.63-.39-7.55,1.51-10.84,1.94-3.36,3.24-6.67,3.43-10.69,0-4.44-.02-7.33-.05-10.15-.03-2.22-.06-4.38-.09-7.2-.01-1.01-.02-2.11-.04-3.32,0-2.33-1.83-4.08-4.08-4.08s-4.08,1.83-4.08,4.08v3.32"/>
          <path class="cls-3" d="M618.06,517.42v-8.2c0-1.13-.46-2.15-1.2-2.89s-1.76-1.2-2.89-1.2c-2.26,0-4.09,1.83-4.09,4.09v8.2"/>
          <path class="cls-3" d="M601.72,511.27v-5.93c0-2.26,1.83-4.09,4.09-4.09h0c2.26,0,4.09,1.83,4.09,4.09v5.93"/>
          <path class="cls-3" d="M601.72,517.42v-12.07h0v-11.57c0-1.13-.46-2.15-1.2-2.89-.74-.74-1.76-1.2-2.89-1.2-2.26,0-4.09,1.83-4.09,4.09v34.13c-3.48-1.54-3.68-4.21-7.95-9.61-2.07-2.62-4.32-3.12-6.09-2.95-1.95.19-2.64,2.3-1.66,4.08,2.93,5.32,3.74,8.78,5.97,13.9,3.21,7.39,6.47,9.89,6.48,9.89,2.8,2.48,4.64,5.89,5.08,9.61.13,1.13.18,2.28.18,3.46"/>
        </g>
        <path class="cls-3" d="M622.79,566.11h-28.61c-1.53,0-2.73-1.33-2.57-2.85l.49-4.65c.14-1.32,1.25-2.31,2.57-2.31h27.63c1.32,0,2.43,1,2.57,2.31l.49,4.65c.16,1.53-1.04,2.85-2.57,2.85Z"/>
      </g>
    </g>
    <rect class="cls-1" x="487.99" y="391.14" width="244.52" height="48.57" rx="22" ry="22"/>
    <g>
      <path class="cls-2" d="M543.36,423.05c-1.43,0-2.56-.43-3.39-1.29-.83-.86-1.25-2.03-1.25-3.51,0-.55.06-1.18.18-1.9.12-.72.26-1.33.44-1.83h1.98c-.25,1.19-.38,2.37-.38,3.54,0,.9.21,1.64.64,2.2.43.56.99.85,1.69.85h8.89v-10.07h2.1v12.01h-10.92ZM544.35,411.03c-.39,0-.72-.12-.99-.35-.27-.23-.4-.61-.4-1.14s.13-.9.4-1.14c.27-.23.6-.35.99-.35.42,0,.75.13,1,.38s.38.62.38,1.11-.12.84-.37,1.1c-.25.26-.58.39-1.01.39ZM548.63,411.03c-.43,0-.77-.13-1.02-.39-.25-.26-.38-.62-.38-1.1s.12-.84.37-1.1c.25-.26.59-.39,1.02-.39s.79.14,1.03.41c.24.27.36.63.36,1.08s-.12.81-.36,1.08c-.24.27-.58.41-1.03.41Z"/>
      <path class="cls-2" d="M558.86,404.23h2.2v18.82h-2.2v-18.82Z"/>
      <path class="cls-2" d="M565.15,421.47c.34-.04.6-.09.8-.15l1.4-.25c-.46-.31-.84-.77-1.14-1.38-.3-.61-.45-1.28-.45-2.01,0-1,.21-1.85.63-2.56.42-.71,1.02-1.25,1.8-1.63s1.67-.57,2.69-.57c1.18,0,2.18.24,3,.73l-.54,1.85c-.81-.43-1.62-.64-2.41-.64-.96,0-1.69.25-2.19.76-.5.51-.75,1.25-.75,2.21,0,.62.14,1.19.43,1.69.29.51.66.87,1.13,1.1l.54-.06c2.5-.32,4.03-.48,4.58-.48v2.01c-.81,0-2.39.15-4.76.46-2.37.31-3.96.55-4.78.73v-1.8Z"/>
      <path class="cls-2" d="M578.17,404.23h2.2v16.88h3.26c.09,0,.13.03.13.1v1.72c0,.08-.04.12-.13.12h-5.47v-18.82Z"/>
      <path class="cls-2" d="M583.39,423.05c-.08,0-.12-.04-.12-.12v-1.72c0-.06.04-.1.12-.1h3.76c-.42-.48-.74-1.05-.96-1.73s-.33-1.35-.33-2.01c0-1.97.61-3.52,1.83-4.64,1.22-1.13,2.87-1.69,4.95-1.69h3.24v10.07h2.62s.08.02.11.06v.06s.01,1.72.01,1.72c0,.06-.04.1-.12.1h-15.13ZM593.79,421.12v-8.15h-1.06c-1.48,0-2.62.39-3.43,1.17-.81.78-1.22,1.86-1.22,3.25,0,2.49,1.13,3.74,3.39,3.74h2.33ZM591.41,408.68c-.43,0-.77-.13-1.02-.39-.25-.26-.38-.62-.38-1.1s.12-.84.37-1.1c.25-.26.59-.39,1.02-.39s.79.14,1.03.41c.24.27.36.63.36,1.08s-.12.81-.36,1.08c-.24.27-.58.41-1.03.41Z"/>
      <path class="cls-2" d="M598.28,423.05c-.08,0-.12-.04-.12-.12v-1.72c0-.06.04-.1.12-.1h10.42v-4.56c0-1.23-.37-2.14-1.11-2.72s-1.89-.87-3.45-.87h-4.21v-2.02c.53-1.11,1.27-2.21,2.2-3.28.93-1.08,1.98-2.04,3.14-2.88,1.16-.84,2.28-1.47,3.38-1.89l.79,1.89c-1.52.6-3,1.5-4.45,2.71-1.45,1.21-2.45,2.4-3,3.55h2.15c2.16,0,3.81.44,4.95,1.33,1.14.89,1.71,2.16,1.71,3.82v6.86h-12.53Z"/>
      <path class="cls-2" d="M627.35,431c-1.6,0-2.85-.42-3.77-1.25s-1.38-2.01-1.38-3.53c0-1.05.31-2.01.93-2.89.62-.88,1.59-1.68,2.92-2.41,1.32-.73,3.14-1.43,5.47-2.1-.18-.56-.34-1.31-.5-2.24-.22-1.31-.62-2.28-1.22-2.91s-1.39-.95-2.4-.95c-.59,0-1.3.12-2.13.36-.83.24-1.56.53-2.2.88l-.87-1.71c.64-.41,1.44-.76,2.39-1.04.96-.28,1.9-.42,2.83-.42,3.16,0,5.01,1.74,5.55,5.22.26,1.58.51,2.67.76,3.28s.58,1.06.98,1.37.93.46,1.57.46h.13c.08,0,.12.03.12.1v1.72c0,.08-.04.12-.12.12h-.13c-.9,0-1.69-.2-2.36-.59-.67-.39-1.24-1.02-1.71-1.89-1.98.54-3.51,1.08-4.6,1.61-1.09.54-1.89,1.12-2.4,1.76-.51.64-.76,1.33-.76,2.08,0,1.06.31,1.83.92,2.33.61.5,1.57.74,2.87.74.83,0,2.04-.13,3.64-.4l.27,1.71c-1.17.25-2.1.41-2.78.48s-1.36.11-2.02.11ZM628.51,427.27c-.43,0-.77-.13-1.02-.39-.25-.26-.38-.62-.38-1.1s.12-.84.37-1.1c.25-.26.59-.39,1.02-.39s.79.13,1.03.41c.24.27.36.63.36,1.08s-.12.81-.36,1.08c-.24.27-.58.41-1.03.41Z"/>
      <path class="cls-2" d="M636.17,423.05c-.08,0-.12-.04-.12-.12v-1.72c0-.06.04-.1.12-.1h3.07c-.61-1.6-.92-3.01-.92-4.23,0-1.48.3-2.79.89-3.94.6-.51,1.3-.91,2.08-1.21s1.6-.45,2.44-.45c1.03,0,1.94.23,2.72.68s1.38,1.1,1.8,1.94c.42.84.63,1.79.63,2.85,0,1.3-.24,2.42-.71,3.36s-1.14,1.67-2,2.17c-.86.5-1.84.76-2.95.76h-7.08ZM640.55,416.46c0,.77.07,1.52.21,2.26.14.74.38,1.54.74,2.4h1.75c1.1,0,1.95-.38,2.54-1.12.59-.75.88-1.83.88-3.25,0-1.04-.28-1.89-.85-2.55s-1.26-.99-2.07-.99c-.52,0-1.04.09-1.54.28-.5.19-.95.43-1.35.74-.14.35-.22.7-.25,1.06-.03.36-.05.76-.05,1.19Z"/>
      <path class="cls-2" d="M652.99,404.23h2.2v18.82h-2.2v-18.82Z"/>
      <path class="cls-2" d="M663.62,423.05v.59c0,1.67-.38,2.98-1.14,3.93-.76.95-1.85,1.43-3.28,1.43-.79,0-1.63-.23-2.53-.7l.64-1.66c.4.18.73.29.99.34.26.05.54.08.85.08.74,0,1.32-.3,1.74-.91.42-.6.63-1.4.63-2.4v-12.72h2.09v10.07h3.06c.09,0,.13.03.13.1v1.72c0,.08-.04.12-.13.12h-3.06Z"/>
      <path class="cls-2" d="M666.44,423.05c-.08,0-.12-.04-.12-.12v-1.72c0-.06.04-.1.12-.1h3.27v-10.07h2.2v12.01h-5.47ZM670.7,428.01c-.43,0-.77-.13-1.02-.39-.25-.26-.38-.62-.38-1.1s.12-.84.37-1.1c.25-.26.59-.39,1.02-.39s.79.13,1.03.41c.24.27.36.63.36,1.08s-.12.81-.36,1.08-.58.41-1.03.41Z"/>
    </g>
    <g>
      <path class="cls-3" d="M479.36,410.58h-17.44c-13.18,0-23.86,10.68-23.86,23.86v177.36c0,13.18,10.68,23.86,23.86,23.86h124.92c13.18,0,23.86-10.68,23.86-23.86v-21.59"/>
      <path class="cls-2" d="M614.45,590.39c0-2.08-1.68-3.76-3.76-3.76s-3.76,1.68-3.76,3.76,1.68,3.76,3.76,3.76,3.76-1.68,3.76-3.76Z"/>
    </g>
  </g>
  <line class="cls-4" x1="379.61" y1="322.1" x2="379.61" y2="680.87"/>
</svg>