<?xml version="1.0" encoding="UTF-8"?>
<svg id="Layer_1" data-name="Layer 1" xmlns="http://www.w3.org/2000/svg" xmlns:xlink="http://www.w3.org/1999/xlink" viewBox="0 0 873 69">
  <defs>
    <style>
      .cls-1 {
        fill: url(#linear-gradient);
      }

      .cls-1, .cls-2 {
        stroke-width: 0px;
      }

      .cls-2 {
        fill: #fff;
      }
    </style>
    <linearGradient id="linear-gradient" x1="0" y1="34.5" x2="873" y2="34.5" gradientUnits="userSpaceOnUse">
      <stop offset="0" stop-color="#047aa3"/>
      <stop offset=".17" stop-color="#0379a2" stop-opacity=".98"/>
      <stop offset=".32" stop-color="#03769f" stop-opacity=".91"/>
      <stop offset=".48" stop-color="#03719b" stop-opacity=".79"/>
      <stop offset=".63" stop-color="#026b95" stop-opacity=".62"/>
      <stop offset=".78" stop-color="#01638e" stop-opacity=".41"/>
      <stop offset=".92" stop-color="#005985" stop-opacity=".15"/>
      <stop offset="1" stop-color="#005380" stop-opacity="0"/>
    </linearGradient>
  </defs>
  <rect class="cls-1" width="873" height="69"/>
  <g>
    <path class="cls-2" d="M149.24,45.91c-2.68,0-4.74-.87-6.19-2.6-1.2-1.48-1.8-3.36-1.8-5.62v-20.6l3.17-1.65v22.16c0,3.59,1.73,5.39,5.2,5.39h1.65v2.93h-2.03Z"/>
    <path class="cls-2" d="M150.33,45.91v-2.93h8.03c-1.73-1.73-2.6-4.22-2.6-7.47s.88-6.03,2.65-7.89c1.54-1.67,3.59-2.5,6.14-2.5s4.63.82,6.05,2.46c1.23,1.42,1.84,3.31,1.84,5.67v4.58c-.03,2.55-.8,4.55-2.32,6-1.39,1.39-3.28,2.08-5.67,2.08h-14.13ZM169.32,33.53c0-3.69-1.59-5.53-4.77-5.53-1.76,0-3.14.65-4.13,1.96-.99,1.31-1.49,3.14-1.49,5.51s.48,4.13,1.44,5.48c.96,1.36,2.24,2.03,3.85,2.03,3.4,0,5.1-1.76,5.1-5.29v-4.16ZM161.9,19.59c-1.29,0-1.94-.66-1.94-1.98s.64-1.89,1.94-1.89,1.84.63,1.84,1.89c0,1.32-.61,1.98-1.84,1.98ZM167.29,19.59c-1.29,0-1.94-.66-1.94-1.98s.65-1.89,1.94-1.89,1.84.63,1.84,1.89c0,1.32-.61,1.98-1.84,1.98Z"/>
    <path class="cls-2" d="M184.02,11.89c.88.22,1.6.68,2.15,1.39.55.71.84,1.5.87,2.39,0,1.95-1.01,2.93-3.02,2.93-.88,0-1.6-.26-2.15-.78-.55-.52-.83-1.21-.83-2.06s.28-1.69.85-2.41c.57-.72,1.28-1.21,2.13-1.46ZM184.02,13.83c-.82.19-1.23.77-1.23,1.75s.41,1.42,1.23,1.42,1.28-.47,1.28-1.42-.42-1.56-1.28-1.75Z"/>
    <path class="cls-2" d="M191.91,42.98h1.65v2.93h-2.03c-1.95,0-3.58-.47-4.87-1.42-.25,5.23-2.36,8.54-6.33,9.92-1.01.35-2.08.52-3.21.52-1.83,0-3.59-.44-5.29-1.32v-2.79c1.61.88,3.25,1.32,4.91,1.32,1.32,0,2.49-.3,3.5-.9,2.21-1.32,3.31-3.8,3.31-7.42v-16.49l3.12-1.65v.05l.05-.05v11.91c0,3.59,1.73,5.39,5.2,5.39Z"/>
    <path class="cls-2" d="M202.59,9.86l1.09-2.27,8.88-1.65-1.04,2.27-8.93,1.65Z"/>
    <path class="cls-2" d="M192.62,45.91v-2.93h8.03c-1.73-1.73-2.6-4.22-2.6-7.47s.88-6.03,2.65-7.89c1.54-1.67,3.59-2.5,6.14-2.5s4.63.82,6.05,2.46c1.23,1.42,1.84,3.31,1.84,5.67v4.58c-.03,2.55-.8,4.55-2.32,6-1.39,1.39-3.28,2.08-5.67,2.08h-14.13ZM211.62,33.53c0-3.69-1.59-5.53-4.77-5.53-1.76,0-3.14.65-4.13,1.96-.99,1.31-1.49,3.14-1.49,5.51s.48,4.13,1.44,5.48c.96,1.36,2.24,2.03,3.85,2.03,3.4,0,5.1-1.76,5.1-5.29v-4.16ZM206.98,19.54c-1.29,0-1.94-.66-1.94-1.99s.64-1.89,1.94-1.89,1.84.63,1.84,1.89c0,1.32-.61,1.99-1.84,1.99Z"/>
    <path class="cls-2" d="M244.65,44.73c-.32.19-.83.49-1.56.9l-.09.05c-2.58,1.45-4.31,2.69-5.17,3.73-.87,1.04-1.3,2.43-1.3,4.16,0,2.08.72,3.79,2.15,5.13,1.43,1.34,3.28,2.01,5.55,2.01h.09c3.59,0,6.47-.8,8.65-2.41v2.88c-2.58,1.64-5.5,2.46-8.74,2.46s-6.11-1.12-8.13-3.36c-1.67-1.89-2.5-4.16-2.5-6.8,0-2.24.55-4.03,1.65-5.39s3.32-2.96,6.66-4.82c-2.74-1.86-5.64-4.96-8.69-9.31v-1.94c3.28-4.6,7.14-6.9,11.58-6.9,2.08,0,4.14.61,6.19,1.84s3.86,2.95,5.43,5.15v1.84c-2.17,2.99-5.09,5.91-8.74,8.74.82.19,1.67.28,2.55.28h11.44v2.93h-11.62c-1.86,0-3.65-.39-5.39-1.18ZM235.95,33.06c3.31,4.35,6.22,7.18,8.74,8.51,3.25-2.27,6.24-5.13,8.98-8.6-2.52-3.31-5.48-4.96-8.88-4.96h-.14c-3.25,0-6.14,1.69-8.7,5.06Z"/>
    <path class="cls-2" d="M275.93,42.98h1.65v2.93h-2.03c-2.83,0-4.96-.96-6.38-2.88-1.48,1.92-3.62,2.88-6.43,2.88h-2.03v-2.93h1.65c3.46,0,5.2-1.8,5.2-5.39v-10.25l3.17-1.65v11.91c0,3.59,1.73,5.39,5.2,5.39ZM268.61,19.45c-1.29,0-1.94-.66-1.94-1.99s.65-1.89,1.94-1.89,1.84.63,1.84,1.89c0,1.32-.61,1.99-1.84,1.99Z"/>
    <path class="cls-2" d="M323.89,42.98h1.65v2.93h-2.03c-2.84,0-4.96-.96-6.38-2.88-1.42,1.92-3.56,2.88-6.43,2.88h-19.23c-2.83,0-4.96-.96-6.38-2.88-1.48,1.92-3.62,2.88-6.43,2.88h-2.03v-2.93h1.65c3.46,0,5.2-1.8,5.2-5.39v-6.8l3.17-1.65v8.46c0,2.96,1.15,4.7,3.45,5.2,1.17-4.85,3.2-8.92,6.1-12.19,3.25-3.65,7.06-5.48,11.44-5.48,3.53,0,6.33,1.21,8.41,3.64,1.76,2.08,2.65,4.65,2.65,7.7v1.23c0,3.53,1.73,5.29,5.2,5.29ZM310.47,42.98c3.37,0,5.06-1.86,5.06-5.58v-.95c0-2.65-.83-4.77-2.5-6.38-1.42-1.39-3.2-2.08-5.34-2.08-3.69,0-6.96,1.73-9.83,5.2-2.17,2.65-3.81,5.91-4.91,9.78h17.53Z"/>
    <path class="cls-2" d="M324.6,45.91v-2.93h1.65c3.46,0,5.2-1.8,5.2-5.39v-10.25l3.17-1.65v12c0,2.65-.77,4.71-2.32,6.19-1.42,1.36-3.31,2.03-5.67,2.03h-2.03ZM327.44,19.45c-1.29,0-1.94-.66-1.94-1.99s.64-1.89,1.94-1.89,1.84.63,1.84,1.89c0,1.32-.61,1.99-1.84,1.99ZM332.83,19.45c-1.29,0-1.94-.66-1.94-1.99s.65-1.89,1.94-1.89,1.84.63,1.84,1.89c0,1.32-.61,1.99-1.84,1.99Z"/>
    <path class="cls-2" d="M358.44,44.02v.09c0,1.36-.65,2.03-1.94,2.03-1.36,0-2.03-.69-2.03-2.08.06-1.29.74-1.94,2.03-1.94s1.94.63,1.94,1.89Z"/>
    <path class="cls-2" d="M370.91,44.02v.09c0,1.36-.65,2.03-1.94,2.03-1.36,0-2.03-.69-2.03-2.08.06-1.29.74-1.94,2.03-1.94s1.94.63,1.94,1.89Z"/>
    <path class="cls-2" d="M387.08,45.91c-2.33,0-4.19-.73-5.58-2.2-1.39-1.46-2.08-3.44-2.08-5.93v-6.19l3.17-1.65v7.47c0,3.72,1.73,5.58,5.2,5.58h15.83c3.46,0,5.2-1.86,5.2-5.58v-10.07l3.17-1.65v12.1c0,2.68-.82,4.76-2.46,6.24-1.42,1.26-3.28,1.89-5.58,1.89h-16.87ZM391.94,23.94c-1.26,0-1.89-.66-1.89-1.99s.63-1.89,1.89-1.89,1.89.63,1.89,1.89c0,1.32-.63,1.99-1.89,1.99ZM397.38,23.94c-1.29,0-1.94-.66-1.94-1.99s.65-1.89,1.94-1.89,1.84.63,1.84,1.89c0,1.32-.61,1.99-1.84,1.99Z"/>
    <path class="cls-2" d="M420.49,45.91v-28.83l3.17-1.65v30.48h-3.17Z"/>
    <path class="cls-2" d="M429.56,48.46v-3.02c1.17-.88,2.82-1.5,4.96-1.84-1.61-2.21-2.41-4.63-2.41-7.28s.62-4.67,1.87-6.36c1.24-1.68,2.94-2.72,5.08-3.09.47-.09.95-.14,1.42-.14,2.74,0,4.99,1.12,6.76,3.35v3.17c-1.95-2.43-4.16-3.64-6.62-3.64-.38,0-.74.03-1.09.09-2.84.57-4.25,2.71-4.25,6.43,0,2.9.99,5.23,2.98,6.99.41-.03.98-.05,1.7-.05,4.13-.06,7.4-.96,9.83-2.69v2.93c-2.65,1.73-6.1,2.6-10.35,2.6s-7.45.85-9.88,2.55Z"/>
    <path class="cls-2" d="M464.39,45.91c-2.68,0-4.74-.87-6.19-2.6-1.2-1.48-1.8-3.36-1.8-5.62v-20.6l3.17-1.65v22.16c0,3.59,1.73,5.39,5.2,5.39h1.65v2.93h-2.03Z"/>
    <path class="cls-2" d="M465.47,45.91v-2.93h6.43v2.93h-6.43Z"/>
    <path class="cls-2" d="M470.95,45.91v-2.93h6.43v2.93h-6.43Z"/>
    <path class="cls-2" d="M476.44,45.91v-2.93h6.43v2.93h-6.43Z"/>
    <path class="cls-2" d="M481.92,45.91v-2.93h6.43v2.93h-6.43Z"/>
    <path class="cls-2" d="M487.4,45.91v-2.93h6.43v2.93h-6.43Z"/>
    <path class="cls-2" d="M492.88,45.91v-2.93h6.43v2.93h-6.43Z"/>
    <path class="cls-2" d="M498.36,45.91v-2.93h6.43v2.93h-6.43Z"/>
    <path class="cls-2" d="M503.84,45.91v-2.93h6.43v2.93h-6.43Z"/>
    <path class="cls-2" d="M509.33,45.91v-2.93h6.43v2.93h-6.43Z"/>
    <path class="cls-2" d="M514.81,45.91v-2.93h6.43v2.93h-6.43Z"/>
    <path class="cls-2" d="M520.29,45.91v-2.93h6.43v2.93h-6.43Z"/>
    <path class="cls-2" d="M525.77,45.91v-2.93h6.43v2.93h-6.43Z"/>
    <path class="cls-2" d="M531.25,45.91v-2.93h6.43v2.93h-6.43Z"/>
    <path class="cls-2" d="M536.73,45.91v-2.93h6.43v2.93h-6.43Z"/>
    <path class="cls-2" d="M542.22,45.91v-2.93h6.43v2.93h-6.43Z"/>
    <path class="cls-2" d="M547.7,45.91v-2.93h6.43v2.93h-6.43Z"/>
    <path class="cls-2" d="M553.18,45.91v-2.93h6.43v2.93h-6.43Z"/>
    <path class="cls-2" d="M558.66,45.91v-2.93h6.43v2.93h-6.43Z"/>
    <path class="cls-2" d="M564.14,45.91v-2.93h6.43v2.93h-6.43Z"/>
    <path class="cls-2" d="M569.62,45.91v-2.93h6.43v2.93h-6.43Z"/>
    <path class="cls-2" d="M575.11,45.91v-2.93h6.43v2.93h-6.43Z"/>
    <path class="cls-2" d="M580.59,45.91v-2.93h6.43v2.93h-6.43Z"/>
    <path class="cls-2" d="M586.07,45.91v-2.93h6.43v2.93h-6.43Z"/>
    <path class="cls-2" d="M591.55,45.91v-2.93h6.43v2.93h-6.43Z"/>
    <path class="cls-2" d="M597.03,45.91v-2.93h6.43v2.93h-6.43Z"/>
    <path class="cls-2" d="M602.51,45.91v-2.93h6.43v2.93h-6.43Z"/>
    <path class="cls-2" d="M626.57,42.98h8.65v2.93h-10.68c-1.07,0-2.05-.11-2.93-.33-.88.22-1.86.33-2.93.33h-10.68v-2.93h8.7c-2.49-2.3-3.73-5.02-3.73-8.18s.85-5.48,2.55-7.28c1.54-1.61,3.58-2.41,6.1-2.41,2.87,0,5.09,1.04,6.66,3.12,1.32,1.73,1.99,3.92,1.99,6.57,0,3.18-1.23,5.91-3.69,8.18ZM621.79,42.56c1.61-.57,2.92-1.58,3.95-3.05s1.54-3.05,1.54-4.75c0-2.08-.51-3.72-1.54-4.94-1.02-1.21-2.4-1.82-4.13-1.82s-3.1.61-4.11,1.82c-1.01,1.21-1.51,2.84-1.51,4.89,0,1.73.5,3.33,1.51,4.8,1.01,1.46,2.32,2.48,3.92,3.05l.19.05.09-.05h.09ZM621.75,19.59c-1.29,0-1.94-.66-1.94-1.98s.64-1.89,1.94-1.89,1.84.63,1.84,1.89c0,1.32-.61,1.98-1.84,1.98Z"/>
    <path class="cls-2" d="M641.74,26.39c.31-.03.65-.05.99-.05,2.83,0,5.26.69,7.28,2.08,2.77,1.98,4.16,4.82,4.16,8.51v.9c0,2.65-.82,4.71-2.46,6.19-1.42,1.26-3.26,1.89-5.53,1.89h-11.91v-2.93h11.58c3.43,0,5.15-1.84,5.15-5.53v-.47c0-2.55-.91-4.46-2.74-5.72-1.51-1.13-3.43-1.7-5.76-1.7-1.7,0-3.39.3-5.06.9v-3.12l10.73-11.91h3.26l-9.69,10.96Z"/>
  </g>
</svg>