<?xml version="1.0" encoding="utf-8"?>
<!-- Generator: Adobe Illustrator 28.3.0, SVG Export Plug-In . SVG Version: 6.00 Build 0)  -->
<svg version="1.1" id="Layer_1" xmlns="http://www.w3.org/2000/svg" xmlns:xlink="http://www.w3.org/1999/xlink" x="0px" y="0px"
	 viewBox="0 0 229.5 92" style="enable-background:new 0 0 229.5 92;" xml:space="preserve">
<style type="text/css">
	.st0{fill:#FFFFFF;}
</style>
<g>
	<path class="st0" d="M120.99,60.12l0.81-1.69l6.62-1.23l-0.77,1.69L120.99,60.12z M121.45,57.23l0.81-1.69l6.65-1.2l-0.81,1.69
		L121.45,57.23z"/>
	<path class="st0" d="M129.05,85.04c-2,0-3.53-0.65-4.61-1.94c-0.89-1.1-1.34-2.5-1.34-4.19V63.57l2.36-1.23v16.51
		c0,2.68,1.29,4.01,3.87,4.01h1.23v2.18H129.05z"/>
	<path class="st0" d="M162.25,82.85v2.18h-1.51c-1.97,0-3.5-0.63-4.58-1.9c-0.84,1.27-2.21,1.9-4.08,1.9h-22.21v-2.18h5.95V63.57
		l2.18-1.23v14.78c2.75-5.04,6.38-7.57,10.91-7.57c2.63,0,4.72,0.9,6.26,2.71c1.31,1.55,1.97,3.46,1.97,5.74v0.92
		c0,2.63,1.3,3.94,3.91,3.94H162.25z M154.79,78c0-1.97-0.62-3.55-1.87-4.75c-1.06-1.03-2.38-1.55-3.98-1.55
		c-2.75,0-5.19,1.33-7.32,3.98c-1.62,1.99-2.82,4.39-3.59,7.18h13.8c1.13,0,1.9-0.26,2.32-0.79c0.42-0.53,0.63-1.5,0.63-2.9V78z"/>
	<path class="st0" d="M161.54,85.04v-2.18h2.15c2.6,0,3.91-1.34,3.91-4.01v-5.07l2.36-1.23v6.3c0,2.68,1.29,4.01,3.87,4.01h1.3
		c2.58,0,3.87-1.34,3.87-4.01v-6.33l2.36-1.27v7.6c0,2.68,1.3,4.01,3.91,4.01h1.27c2.6,0,3.91-1.34,3.91-4.01V71.2l2.36-1.23v8.73
		c0,2.77,1.34,4.15,4.01,4.15h2.04v2.18h-2.29c-2.23,0-3.86-0.79-4.89-2.36c-1.03,1.57-2.63,2.36-4.79,2.36h-1.94
		c-2.18,0-3.77-0.77-4.75-2.32c-1.01,1.55-2.58,2.32-4.72,2.32h-1.94c-2.18,0-3.78-0.77-4.79-2.32c-0.99,1.55-2.57,2.32-4.75,2.32
		H161.54z M178.19,66.49c-0.96,0-1.44-0.48-1.44-1.44s0.48-1.44,1.44-1.44c0.92,0,1.37,0.48,1.37,1.44S179.11,66.49,178.19,66.49z
		 M180.16,62.83c-0.84,0-1.27-0.45-1.27-1.34c0-0.84,0.42-1.27,1.27-1.27s1.27,0.42,1.27,1.27
		C181.43,62.38,181.01,62.83,180.16,62.83z M182.2,66.49c-0.94,0-1.41-0.48-1.41-1.44s0.47-1.44,1.41-1.44
		c0.94,0,1.41,0.48,1.41,1.44S183.14,66.49,182.2,66.49z"/>
	<path class="st0" d="M209.48,82.85h1.23v2.18h-1.51c-2.11,0-3.7-0.72-4.75-2.15c-1.1,1.43-2.7,2.15-4.79,2.15h-1.51v-2.18h1.23
		c2.58,0,3.87-1.34,3.87-4.01V71.2l2.36-1.23v8.87C205.61,81.52,206.9,82.85,209.48,82.85z M204.03,65.33
		c-0.96,0-1.44-0.49-1.44-1.48c0-0.94,0.48-1.41,1.44-1.41c0.92,0,1.37,0.47,1.37,1.41C205.4,64.83,204.94,65.33,204.03,65.33z"/>
	<path class="st0" d="M215.12,75.6c0-2,0.6-3.54,1.79-4.65c1.03-0.94,2.39-1.41,4.08-1.41c2.18,0,3.86,0.8,5.03,2.39
		c1.01,1.36,1.51,3.14,1.51,5.35c0,2.51-0.65,4.47-1.94,5.88c-1.13,1.24-2.59,1.87-4.4,1.87c-2.21,0-3.85-0.7-4.93-2.11
		c-1.06,1.41-2.64,2.11-4.75,2.11h-1.51v-2.18h1.23c2.58,0,3.87-1.34,3.87-4.01V75.6z M217.47,78.98c0,2.58,1.27,3.87,3.8,3.87
		c1.22,0,2.18-0.49,2.89-1.48c0.7-0.99,1.06-2.36,1.06-4.12c0-1.74-0.37-3.1-1.11-4.08c-0.74-0.99-1.78-1.48-3.12-1.48
		c-2.35,0-3.52,1.37-3.52,4.12V78.98z"/>
</g>
<g>
	<g>
		<g>
			<g>
				<g>
					<path class="st0" d="M88.5,71.54H11.59c-2.74,0-4.97-2.23-4.97-4.97V19.72c0-2.74,2.23-4.97,4.97-4.97h12.17
						c0.69,0,1.26,0.56,1.26,1.26c0,0.69-0.56,1.26-1.26,1.26H11.59c-1.36,0-2.46,1.1-2.46,2.46v46.85c0,1.36,1.1,2.46,2.46,2.46
						H88.5c1.36,0,2.46-1.1,2.46-2.46V26.04c0-0.69,0.56-1.26,1.26-1.26s1.26,0.56,1.26,1.26v40.52
						C93.48,69.31,91.25,71.54,88.5,71.54z"/>
				</g>
			</g>
			<g>
				<g>
					<path class="st0" d="M60.52,82.89H39.58c-0.37,0-0.72-0.16-0.96-0.44c-0.24-0.28-0.34-0.65-0.29-1.01l1.8-11.35
						c0.1-0.61,0.62-1.06,1.24-1.06h17.36c0.62,0,1.14,0.45,1.24,1.06l1.8,11.35c0.06,0.36-0.05,0.73-0.29,1.01
						C61.24,82.72,60.89,82.89,60.52,82.89z M41.05,80.37h18.01l-1.4-8.84H42.44L41.05,80.37z"/>
				</g>
			</g>
			<g>
				<path class="st0" d="M72.58,82.89H27.52c-0.69,0-1.26-0.56-1.26-1.26c0-0.69,0.56-1.26,1.26-1.26h45.06
					c0.69,0,1.26,0.56,1.26,1.26C73.83,82.32,73.27,82.89,72.58,82.89z"/>
			</g>
		</g>
		<g>
			<g>
				<g>
					<g>
						<g>
							<g>
								<path class="st0" d="M60.23,47.44c-0.33,0-0.65-0.13-0.89-0.37c-0.31-0.31-0.44-0.77-0.33-1.2l0.04-0.17
									c0.98-3.79,2.96-7.26,5.73-10.03L81.7,18.77c0.95-0.95,2.61-0.95,3.56,0l2.39,2.39c0.98,0.98,0.98,2.58,0,3.56L70.74,41.63
									c-2.77,2.77-6.23,4.75-10.03,5.73l-0.17,0.04C60.44,47.43,60.34,47.44,60.23,47.44z M83.48,20.54L66.57,37.45
									c-1.94,1.94-3.44,4.27-4.42,6.82c2.55-0.97,4.88-2.48,6.82-4.42l16.91-16.91L83.48,20.54z"/>
							</g>
							<g>
								<path class="st0" d="M67.8,38.33c-0.32,0-0.64-0.12-0.89-0.37l-1.16-1.16c-0.49-0.49-0.49-1.29,0-1.78
									c0.49-0.49,1.29-0.49,1.78,0l1.16,1.16c0.49,0.49,0.49,1.29,0,1.78C68.44,38.21,68.12,38.33,67.8,38.33z"/>
							</g>
						</g>
						<g>
							<path class="st0" d="M76.03,63.25c-0.69,0-1.26-0.56-1.26-1.26c0-0.69,0.56-1.26,1.26-1.26c2.64,0,4.78-2.14,4.78-4.78v-0.84
								H42.44v0.84c0,4.02-3.27,7.29-7.29,7.29s-7.29-3.27-7.29-7.29V9.94c0-0.69,0.56-1.26,1.26-1.26H70
								c0.69,0,1.26,0.56,1.26,1.26v16.31c0,0.69-0.56,1.26-1.26,1.26c-0.69,0-1.26-0.56-1.26-1.26V11.2H30.37v44.77
								c0,2.64,2.14,4.78,4.78,4.78s4.78-2.14,4.78-4.78v-2.1c0-0.69,0.56-1.26,1.26-1.26h40.89c0.69,0,1.26,0.56,1.26,1.26v2.1
								C83.33,59.98,80.05,63.25,76.03,63.25z"/>
						</g>
						<g>
							<path class="st0" d="M76.03,63.25H35.15c-0.69,0-1.26-0.56-1.26-1.26c0-0.69,0.56-1.26,1.26-1.26h40.89
								c0.69,0,1.26,0.56,1.26,1.26C77.29,62.69,76.73,63.25,76.03,63.25z"/>
						</g>
					</g>
				</g>
			</g>
		</g>
		<g>
			<path class="st0" d="M61.67,19.23H37.51c-0.69,0-1.26-0.56-1.26-1.26c0-0.69,0.56-1.26,1.26-1.26h24.16
				c0.69,0,1.26,0.56,1.26,1.26C62.93,18.67,62.37,19.23,61.67,19.23z"/>
		</g>
		<g>
			<path class="st0" d="M61.67,27.91H37.51c-0.69,0-1.26-0.56-1.26-1.26c0-0.69,0.56-1.26,1.26-1.26h24.16
				c0.69,0,1.26,0.56,1.26,1.26C62.93,27.35,62.37,27.91,61.67,27.91z"/>
		</g>
		<g>
			<path class="st0" d="M57.58,36.6H37.51c-0.69,0-1.26-0.56-1.26-1.26c0-0.69,0.56-1.26,1.26-1.26h20.07
				c0.69,0,1.26,0.56,1.26,1.26C58.83,36.03,58.27,36.6,57.58,36.6z"/>
		</g>
		<g>
			<path class="st0" d="M54.17,45.28H37.51c-0.69,0-1.26-0.56-1.26-1.26c0-0.69,0.56-1.26,1.26-1.26h16.66
				c0.69,0,1.26,0.56,1.26,1.26C55.42,44.72,54.86,45.28,54.17,45.28z"/>
		</g>
	</g>
	<g>
		<path class="st0" d="M85.48,22.02c-0.32,0-0.64-0.12-0.89-0.37c-0.49-0.49-0.49-1.29,0-1.78l1.75-1.75c0.49-0.49,1.29-0.49,1.78,0
			c0.49,0.49,0.49,1.29,0,1.78l-1.75,1.75C86.12,21.9,85.8,22.02,85.48,22.02z"/>
	</g>
</g>
</svg>
