<?xml version="1.0" encoding="utf-8"?>
<!-- Generator: Adobe Illustrator 28.3.0, SVG Export Plug-In . SVG Version: 6.00 Build 0)  -->
<svg version="1.1" id="Layer_1" xmlns="http://www.w3.org/2000/svg" xmlns:xlink="http://www.w3.org/1999/xlink" x="0px" y="0px"
	 viewBox="0 0 260 92" style="enable-background:new 0 0 260 92;" xml:space="preserve">
<style type="text/css">
	.st0{fill:#FFFFFF;}
</style>
<g>
	<path class="st0" d="M133.9,60.12l0.81-1.69l6.62-1.23l-0.77,1.69L133.9,60.12z M134.36,57.23l0.81-1.69l6.65-1.2l-0.81,1.69
		L134.36,57.23z"/>
	<path class="st0" d="M136.01,85.04V63.57l2.36-1.23v22.7H136.01z"/>
	<path class="st0" d="M141.89,85.04l1.13-2.18h6.62c1.08,0,1.84-0.27,2.27-0.81c0.43-0.54,0.65-1.48,0.65-2.82
		c0-3.45-1.51-6.02-4.54-7.71l1.16-1.94c3.73,2.16,5.63,5.2,5.7,9.12c0.02,2.77,1.37,4.15,4.05,4.15h1.09v2.18h-1.34
		c-2.04,0-3.6-0.68-4.68-2.04c-0.8,1.36-2.12,2.04-3.98,2.04H141.89z"/>
	<path class="st0" d="M170.65,82.85h1.23v2.18h-1.51c-2.11,0-3.7-0.72-4.75-2.15c-1.1,1.43-2.7,2.15-4.79,2.15h-1.51v-2.18h1.23
		c2.58,0,3.87-1.34,3.87-4.01V71.2l2.36-1.23v8.87C166.77,81.52,168.06,82.85,170.65,82.85z M162.66,88.73
		c0.94,0,1.41,0.48,1.41,1.44s-0.47,1.44-1.41,1.44c-0.94,0-1.41-0.48-1.41-1.44S161.72,88.73,162.66,88.73z M166.67,88.73
		c0.94,0,1.41,0.48,1.41,1.44s-0.47,1.44-1.41,1.44c-0.94,0-1.41-0.48-1.41-1.44S165.73,88.73,166.67,88.73z"/>
	<path class="st0" d="M185.01,82.85h6.44v2.18h-7.95c-0.8,0-1.53-0.08-2.18-0.25c-0.66,0.16-1.38,0.25-2.18,0.25h-7.95v-2.18h6.48
		c-1.85-1.71-2.78-3.74-2.78-6.09c0-2.28,0.63-4.08,1.9-5.42c1.15-1.2,2.66-1.79,4.54-1.79c2.13,0,3.79,0.77,4.96,2.32
		c0.99,1.29,1.48,2.92,1.48,4.89C187.75,79.14,186.84,81.17,185.01,82.85z M181.45,82.54c1.2-0.42,2.18-1.18,2.94-2.27
		c0.76-1.09,1.14-2.27,1.14-3.54c0-1.55-0.38-2.77-1.14-3.68c-0.76-0.9-1.79-1.35-3.08-1.35c-1.29,0-2.31,0.45-3.06,1.35
		c-0.75,0.9-1.13,2.12-1.13,3.64c0,1.29,0.38,2.48,1.13,3.57c0.75,1.09,1.72,1.85,2.92,2.27l0.14,0.04l0.07-0.04H181.45z
		 M181.42,65.43c-0.96,0-1.44-0.49-1.44-1.48c0-0.94,0.48-1.41,1.44-1.41c0.92,0,1.37,0.47,1.37,1.41
		C182.79,64.94,182.33,65.43,181.42,65.43z"/>
	<path class="st0" d="M202.08,82.85h1.23v2.18h-1.51c-2.11,0-3.7-0.72-4.75-2.15c-1.1,1.43-2.7,2.15-4.79,2.15h-1.51v-2.18h1.23
		c2.58,0,3.87-1.34,3.87-4.01V71.2l2.36-1.23v8.87C198.21,81.52,199.5,82.85,202.08,82.85z M194.3,65.43
		c-0.94,0-1.41-0.48-1.41-1.44c0-0.96,0.47-1.44,1.41-1.44s1.41,0.48,1.41,1.44C195.71,64.95,195.24,65.43,194.3,65.43z
		 M198.31,65.43c-0.94,0-1.41-0.48-1.41-1.44c0-0.96,0.47-1.44,1.41-1.44c0.94,0,1.41,0.48,1.41,1.44
		C199.72,64.95,199.25,65.43,198.31,65.43z"/>
	<path class="st0" d="M202.61,85.04v-2.18h2.15c2.6,0,3.91-1.34,3.91-4.01v-5.07l2.36-1.23v6.3c0,2.68,1.29,4.01,3.87,4.01h1.3
		c2.58,0,3.87-1.34,3.87-4.01v-6.33l2.36-1.27v7.6c0,2.68,1.3,4.01,3.91,4.01h1.27c2.6,0,3.91-1.34,3.91-4.01V71.2l2.36-1.23v8.73
		c0,2.77,1.34,4.15,4.01,4.15h2.04v2.18h-2.29c-2.23,0-3.86-0.79-4.89-2.36c-1.03,1.57-2.63,2.36-4.79,2.36h-1.94
		c-2.18,0-3.77-0.77-4.75-2.32c-1.01,1.55-2.58,2.32-4.72,2.32h-1.94c-2.18,0-3.78-0.77-4.79-2.32c-0.99,1.55-2.57,2.32-4.75,2.32
		H202.61z"/>
	<path class="st0" d="M244.32,75.6c0-2,0.6-3.54,1.79-4.65c1.03-0.94,2.39-1.41,4.08-1.41c2.18,0,3.86,0.8,5.03,2.39
		c1.01,1.36,1.51,3.14,1.51,5.35c0,2.51-0.65,4.47-1.94,5.88c-1.13,1.24-2.59,1.87-4.4,1.87c-2.21,0-3.85-0.7-4.93-2.11
		c-1.06,1.41-2.64,2.11-4.75,2.11h-1.51v-2.18h1.23c2.58,0,3.87-1.34,3.87-4.01V75.6z M246.67,78.98c0,2.58,1.27,3.87,3.8,3.87
		c1.22,0,2.18-0.49,2.89-1.48c0.7-0.99,1.06-2.36,1.06-4.12c0-1.74-0.37-3.1-1.11-4.08c-0.74-0.99-1.78-1.48-3.12-1.48
		c-2.35,0-3.52,1.37-3.52,4.12V78.98z"/>
</g>
<g>
	<g>
		<g>
			<g>
				<path class="st0" d="M45.61,82.41c-0.37,0-0.71-0.16-0.95-0.44l-4.2-4.84c-0.27-0.31-0.37-0.73-0.27-1.12l0.75-3.12
					c0.16-0.68,0.84-1.1,1.52-0.93c0.68,0.16,1.09,0.84,0.93,1.52l-0.6,2.49l2.82,3.25l2.82-3.25L45.6,64.49l-0.97,3.91
					c-0.17,0.68-0.85,1.09-1.53,0.92c-0.68-0.17-1.09-0.85-0.92-1.53l2.2-8.87c0.14-0.56,0.65-0.96,1.23-0.96h0
					c0.58,0,1.09,0.4,1.22,0.96L51.03,76c0.1,0.4,0,0.82-0.27,1.13l-4.2,4.84C46.32,82.25,45.97,82.41,45.61,82.41z"/>
			</g>
			<g>
				<g>
					<path class="st0" d="M73.56,82.89c-0.64,0-1.19-0.48-1.25-1.14L70.67,65.5c-0.41-4.06-3.51-7.36-7.54-8.02l-9.77-1.6
						l-7.13,3.97c-0.38,0.21-0.85,0.21-1.23,0l-7.13-3.97l-9.77,1.6c-4.03,0.66-7.13,3.96-7.54,8.02l-1.64,16.25
						c-0.07,0.69-0.69,1.2-1.38,1.13c-0.69-0.07-1.2-0.69-1.13-1.38l1.64-16.25c0.52-5.2,4.49-9.42,9.65-10.26l10.21-1.67
						c0.28-0.04,0.57,0,0.82,0.14l6.9,3.84l6.9-3.84c0.25-0.14,0.54-0.19,0.82-0.14l10.21,1.67c5.16,0.84,9.12,5.06,9.65,10.26
						l1.64,16.25c0.07,0.69-0.44,1.31-1.13,1.38C73.65,82.88,73.6,82.89,73.56,82.89z"/>
				</g>
				<g>
					<path class="st0" d="M38.1,55.83c-0.2,0-0.41-0.05-0.6-0.15c-0.61-0.33-0.84-1.1-0.51-1.71l1.08-2
						c0.33-0.61,1.1-0.84,1.71-0.51c0.61,0.33,0.84,1.1,0.51,1.71l-1.08,2C38.98,55.59,38.54,55.83,38.1,55.83z"/>
				</g>
				<g>
					<path class="st0" d="M53.12,55.83c-0.45,0-0.88-0.24-1.11-0.66l-1.08-2c-0.33-0.61-0.1-1.38,0.51-1.71
						c0.61-0.33,1.38-0.1,1.71,0.51l1.08,2c0.33,0.61,0.1,1.38-0.51,1.71C53.53,55.78,53.32,55.83,53.12,55.83z"/>
				</g>
			</g>
			<g>
				<path class="st0" d="M45.61,51.22c-6.09,0-9.83-5.56-11.26-10.52c-1.23-1.03-1.72-3.46-1.91-4.96c0-0.03-0.01-0.05-0.01-0.08
					c-0.11-1.68,0.36-2.9,1.38-3.64c-0.06-2.42,0.13-9.04,3.74-10.79c0.03-0.03,0.04-0.07,0.07-0.12c0.54-1.13,1.38-1.81,4.23-2.14
					c3.58-0.41,8.56,0.29,11.14,2.41l0.1,0.08c1.65,1.35,4.37,3.57,4.31,10.56c1.03,0.74,1.49,1.97,1.39,3.65
					c-0.18,1.53-0.64,3.93-1.82,4.98C55.59,45.85,51.94,51.22,45.61,51.22z M35.92,38.73c0.36,0.15,0.63,0.46,0.73,0.84
					c1.1,4.21,4.11,9.12,8.96,9.12c6.36,0,8.51-6.98,9.02-9.12c0.09-0.38,0.36-0.7,0.71-0.86c0.32-0.36,0.77-1.92,0.93-3.28
					c0.08-1.24-0.31-1.39-0.62-1.52c-0.49-0.2-0.81-0.69-0.79-1.22c0.23-6.35-1.93-8.12-3.36-9.29l-0.1-0.08
					c-1.72-1.41-5.87-2.24-9.26-1.85c-2.01,0.23-2.16,0.55-2.24,0.72c-0.16,0.34-0.44,0.91-1.24,1.3c-2.1,1.02-2.45,6.61-2.29,9.16
					c0.03,0.54-0.28,1.05-0.79,1.25c-0.31,0.12-0.69,0.28-0.62,1.55C35.13,36.87,35.58,38.38,35.92,38.73z M35.95,38.76L35.95,38.76
					L35.95,38.76z M35.83,38.7C35.83,38.7,35.83,38.7,35.83,38.7S35.83,38.7,35.83,38.7z M55.43,38.68
					C55.43,38.68,55.43,38.68,55.43,38.68C55.43,38.68,55.43,38.68,55.43,38.68z"/>
			</g>
			<g>
				<path class="st0" d="M55.73,29.1c-0.57,0-1.09-0.39-1.23-0.97c-0.11-0.48-0.36-0.8-0.79-1.05c-1.46-0.83-4.68-0.59-8.62,0.64
					c-3.7,1.15-6.47,1.08-8.23-0.21c-1.7-1.25-1.75-3.1-1.75-3.3c0-0.7,0.56-1.26,1.26-1.26l0,0c0.69,0,1.25,0.55,1.26,1.24
					c0,0.06,0.05,0.82,0.75,1.31c0.61,0.43,2.2,0.98,5.95-0.19c3.35-1.04,7.91-1.96,10.62-0.42c1.04,0.59,1.73,1.51,2,2.66
					c0.16,0.68-0.26,1.36-0.94,1.52C55.93,29.09,55.83,29.1,55.73,29.1z M37.64,24.2L37.64,24.2L37.64,24.2z"/>
			</g>
		</g>
		<g>
			<g>
				<g>
					<g>
						<g>
							<g>
								<path class="st0" d="M106.19,63.19H80c-0.7,0-1.26-0.56-1.26-1.26c0-0.7,0.56-1.26,1.26-1.26h24.94V11.21H36.38
									c-0.7,0-1.26-0.56-1.26-1.26s0.56-1.26,1.26-1.26h69.82c0.7,0,1.26,0.56,1.26,1.26v51.98
									C107.46,62.62,106.89,63.19,106.19,63.19z"/>
							</g>
						</g>
					</g>
				</g>
			</g>
		</g>
		<g>
			<path class="st0" d="M36.38,16.48c-0.7,0-1.26-0.56-1.26-1.26V9.95c0-0.7,0.56-1.26,1.26-1.26c0.7,0,1.26,0.56,1.26,1.26v5.27
				C37.64,15.91,37.07,16.48,36.38,16.48z"/>
		</g>
	</g>
	<g>
		<g>
			<path class="st0" d="M73.7,36.58c-0.39,0-0.79-0.1-1.15-0.29c-0.78-0.42-1.27-1.24-1.27-2.12v-7.04c0-0.89,0.49-1.7,1.27-2.12
				c0.78-0.42,1.73-0.38,2.47,0.1l5.39,3.52c0.69,0.45,1.09,1.2,1.09,2.02c0,0.82-0.41,1.57-1.09,2.02l-5.39,3.52
				C74.62,36.45,74.16,36.58,73.7,36.58z M73.81,27.32v6.64l5.08-3.32L73.81,27.32z"/>
		</g>
		<g>
			<path class="st0" d="M75.78,43.61c-7.15,0-12.97-5.82-12.97-12.97s5.82-12.97,12.97-12.97c3.12,0,6.13,1.12,8.49,3.16
				c0.53,0.46,0.58,1.25,0.13,1.78c-0.46,0.53-1.25,0.58-1.78,0.13c-1.9-1.64-4.32-2.55-6.84-2.55c-5.76,0-10.45,4.69-10.45,10.45
				s4.69,10.45,10.45,10.45s10.45-4.69,10.45-10.45c0-1.18-0.19-2.33-0.57-3.43c-0.23-0.66,0.12-1.38,0.78-1.61
				c0.66-0.23,1.38,0.12,1.61,0.78c0.47,1.37,0.71,2.8,0.71,4.25C88.75,37.8,82.93,43.61,75.78,43.61z"/>
		</g>
	</g>
	<g>
		<g>
			<path class="st0" d="M105.79,53.82H66.9c-0.7,0-1.26-0.56-1.26-1.26c0-0.7,0.56-1.26,1.26-1.26h38.89c0.7,0,1.26,0.56,1.26,1.26
				C107.05,53.26,106.48,53.82,105.79,53.82z"/>
		</g>
		<g>
			<path class="st0" d="M75.76,55.89c-0.7,0-1.26-0.56-1.26-1.26v-4.12c0-0.7,0.56-1.26,1.26-1.26c0.7,0,1.26,0.56,1.26,1.26v4.12
				C77.02,55.33,76.45,55.89,75.76,55.89z"/>
		</g>
	</g>
	<g>
		<g>
			<path class="st0" d="M99.35,44.34h-9.16c-0.7,0-1.26-0.56-1.26-1.26c0-0.7,0.56-1.26,1.26-1.26h9.16c0.7,0,1.26,0.56,1.26,1.26
				C100.61,43.77,100.04,44.34,99.35,44.34z"/>
		</g>
		<g>
			<path class="st0" d="M99.35,37.95h-4.99c-0.7,0-1.26-0.56-1.26-1.26c0-0.7,0.56-1.26,1.26-1.26h4.99c0.7,0,1.26,0.56,1.26,1.26
				C100.61,37.39,100.04,37.95,99.35,37.95z"/>
		</g>
	</g>
</g>
</svg>
