<?xml version="1.0" encoding="utf-8"?>
<!-- Generator: Adobe Illustrator 28.1.0, SVG Export Plug-In . SVG Version: 6.00 Build 0)  -->
<svg version="1.1" id="Layer_1" xmlns="http://www.w3.org/2000/svg" xmlns:xlink="http://www.w3.org/1999/xlink" x="0px" y="0px"
	 viewBox="0 0 961 109.7" style="enable-background:new 0 0 961 109.7;" xml:space="preserve">
<style type="text/css">
	.st0{fill:#4B9CBF;}
	.st1{fill:#FFFFFF;}
	.st2{fill-rule:evenodd;clip-rule:evenodd;fill:#FFFFFF;}
	.st3{enable-background:new    ;}
	.st4{opacity:0.4;}
	.st5{clip-path:url(#SVGID_00000135667589517950351710000008556564344346707624_);}
	.st6{fill:none;stroke:#54B4D6;stroke-width:0.75;stroke-miterlimit:9.9998;}
	.st7{fill:none;stroke:#54B4D6;stroke-width:0.75;stroke-miterlimit:10;}
	.st8{fill:#3D7EA2;stroke:#54B4D6;stroke-width:0.75;stroke-miterlimit:10;}
</style>
<g>
	<path class="st0" d="M29.1,105.1l-0.4-0.2c-7.5-4.6-25.2-17.1-26.6-33.2c-0.9-10,3.2-20.7,7-31.1C13.6,28.5,17.9,17,14,7.9
		l-0.1-0.1V7.7l-0.2-0.3c-1-1.4-2.2-2.9-3.4-4.5L9.1,1.3l1.7,1.1c0.4,0.2,36.6,22.6,40,54.3c1.8,16.5-5.5,32.6-21.6,47.9
		c0,0,0,0,0,0.1L29.1,105.1L29.1,105.1z M14.9,7.9c3.8,9.4-0.5,20.8-5,33C6,51.1,2,61.8,2.9,71.6c1.4,15.6,18.3,27.8,25.9,32.5
		C44.7,88.9,51.9,73,50.1,56.8C47.2,29.6,19.6,9.2,12.2,4.2c0.8,1.1,1.6,2.1,2.3,3.1L14.9,7.9L14.9,7.9L14.9,7.9z"/>
	<path class="st0" d="M27.5,91C20,85.2,13.4,77.8,12.7,70.7c-0.3-3.8,0.4-8,1.6-12.5s3-9.2,4.7-13.8c2-5.5,4.1-11,5.5-16.5
		c7.4,8,14.4,18.4,15.7,30.1C41.4,68.9,37.1,80,27.5,91"/>
</g>
<g>
	<g>
		<g>
			<g>
				<path class="st1" d="M131.7,68c-6.9,0-12.6-5.6-12.6-12.6s5.6-12.6,12.6-12.6c0.9,0,1.7,0.1,2.5,0.2c0.4,0.1,0.9,0.2,1.4,0.4
					c0.2,0.1,0.3,0.3,0.3,0.5c-0.1,0.2-0.3,0.3-0.5,0.3c-0.4-0.1-0.8-0.2-1.2-0.3c-0.8-0.2-1.6-0.2-2.4-0.2
					c-6.4,0-11.7,5.2-11.7,11.7s5.2,11.7,11.7,11.7s11.7-5.2,11.7-11.7c0-1.9-0.5-3.8-1.4-5.5c-0.1-0.2,0-0.5,0.2-0.6s0.5,0,0.6,0.2
					c1,1.8,1.5,3.9,1.5,5.9C144.2,62.4,138.6,68,131.7,68L131.7,68z"/>
				<path class="st1" d="M140.2,47.2c-0.1,0-0.2,0-0.3-0.1c-0.3-0.3-0.6-0.6-0.9-0.8c-0.2-0.2-0.5-0.4-0.8-0.6
					c-0.2-0.1-0.2-0.4-0.1-0.6s0.4-0.2,0.6-0.1c0.3,0.2,0.6,0.4,0.8,0.6c0.4,0.3,0.7,0.6,1,0.9c0.2,0.2,0.2,0.4,0,0.6
					C140.4,47.2,140.3,47.3,140.2,47.2L140.2,47.2z"/>
			</g>
			<path class="st1" d="M134.2,49.2h-5c-2.1,0-3.8,1.7-3.8,3.8v5c0,2.1,1.7,3.8,3.8,3.8h5c2.1,0,3.8-1.7,3.8-3.8v-5
				C138,50.9,136.3,49.2,134.2,49.2z M131.7,58.8c-1.8,0-3.3-1.5-3.3-3.3s1.5-3.3,3.3-3.3s3.3,1.5,3.3,3.3S133.5,58.8,131.7,58.8z
				 M135,53c-0.4,0-0.8-0.4-0.8-0.8s0.4-0.8,0.8-0.8s0.8,0.4,0.8,0.8S135.4,53,135,53z"/>
		</g>
		<g>
			<path class="st2" d="M106.3,55.3l-3.1,1.7v-3.4l1.4,0.8L106.3,55.3L106.3,55.3z M110,53.2c0,0-0.1-0.8-0.5-1.2
				c-0.4-0.5-0.9-0.5-1.2-0.5c-1.6-0.1-4.1-0.1-4.1-0.1l0,0c0,0-2.5,0-4.1,0.1c-0.2,0-0.7,0-1.2,0.5c-0.3,0.4-0.5,1.2-0.5,1.2
				s-0.1,1-0.1,1.9V56c0,1,0.1,1.9,0.1,1.9s0.1,0.8,0.5,1.2c0.4,0.5,1,0.5,1.3,0.5c0.9,0.1,4,0.1,4,0.1s2.5,0,4.1-0.1
				c0.2,0,0.7,0,1.2-0.5c0.3-0.4,0.5-1.2,0.5-1.2s0.1-1,0.1-1.9v-0.9C110.2,54.2,110,53.2,110,53.2L110,53.2L110,53.2z"/>
			<g>
				<path class="st1" d="M104.4,68c-6.9,0-12.6-5.6-12.6-12.6s5.6-12.6,12.6-12.6c0.8,0,1.7,0.1,2.5,0.2c0.4,0.1,0.9,0.2,1.3,0.4
					c0.2,0.1,0.3,0.3,0.3,0.5s-0.3,0.3-0.5,0.3c-0.4-0.1-0.8-0.2-1.2-0.3c-0.8-0.2-1.6-0.2-2.3-0.2c-6.4,0-11.7,5.2-11.7,11.7
					s5.2,11.7,11.7,11.7s11.7-5.2,11.7-11.7c0-1.9-0.5-3.8-1.4-5.5c-0.1-0.2,0-0.5,0.2-0.6s0.5,0,0.6,0.2c1,1.8,1.5,3.9,1.5,5.9
					C117,62.4,111.3,68,104.4,68L104.4,68z"/>
				<path class="st1" d="M112.9,47.2c-0.1,0-0.2,0-0.3-0.1c-0.3-0.3-0.6-0.6-0.9-0.8c-0.2-0.2-0.5-0.4-0.8-0.6
					c-0.2-0.1-0.2-0.4-0.1-0.6s0.4-0.2,0.6-0.1c0.3,0.2,0.6,0.4,0.8,0.6c0.3,0.3,0.7,0.6,1,0.9c0.2,0.2,0.2,0.4,0,0.6
					C113.1,47.2,113,47.3,112.9,47.2L112.9,47.2z"/>
			</g>
		</g>
		<g>
			<path class="st2" d="M165.4,51.5c-0.5,0.2-1,0.4-1.5,0.4c0.6-0.3,1-0.8,1.2-1.5c-0.5,0.3-1.1,0.5-1.7,0.6c-0.5-0.5-1.2-0.8-2-0.8
				c-1.5,0-2.7,1.2-2.7,2.6c0,0.2,0,0.4,0.1,0.6c-2.2-0.1-4.2-1.2-5.5-2.8c-0.2,0.4-0.4,0.8-0.4,1.3c0,0.9,0.5,1.7,1.2,2.2
				c-0.4,0-0.9-0.1-1.2-0.3l0,0c0,0.3,0.1,0.7,0.2,0.9c0.3,0.8,1.1,1.5,2,1.6c-0.2,0.1-0.5,0.1-0.7,0.1s-0.3,0-0.5,0
				c0.3,1.1,1.3,1.8,2.5,1.8c-0.9,0.7-2.1,1.1-3.3,1.1c-0.2,0-0.4,0-0.6,0c1.2,0.8,2.6,1.2,4.1,1.2c4.2,0,6.8-2.9,7.4-5.9
				c0.1-0.5,0.2-1.1,0.2-1.6c0-0.1,0-0.2,0-0.3C164.6,52.5,165.1,52,165.4,51.5L165.4,51.5L165.4,51.5z"/>
			<g>
				<path class="st1" d="M158.9,68c-6.9,0-12.6-5.6-12.6-12.6s5.6-12.6,12.6-12.6c0.9,0,1.7,0.1,2.5,0.2c0.4,0.1,0.9,0.2,1.4,0.4
					c0.2,0.1,0.3,0.3,0.3,0.5c-0.1,0.2-0.3,0.3-0.5,0.3c-0.4-0.1-0.8-0.2-1.2-0.3c-0.8-0.2-1.6-0.2-2.4-0.2
					c-6.4,0-11.7,5.2-11.7,11.7s5.2,11.7,11.7,11.7s11.7-5.2,11.7-11.7c0-1.9-0.5-3.8-1.4-5.5c-0.1-0.2,0-0.5,0.2-0.6s0.5,0,0.6,0.2
					c1,1.8,1.5,3.9,1.5,5.9C171.5,62.4,165.9,68,158.9,68L158.9,68z"/>
				<path class="st1" d="M167.4,47.2c-0.1,0-0.2,0-0.3-0.1c-0.3-0.3-0.6-0.6-0.9-0.8c-0.2-0.2-0.5-0.4-0.8-0.6
					c-0.2-0.1-0.2-0.4-0.1-0.6s0.4-0.2,0.6-0.1c0.3,0.2,0.6,0.4,0.8,0.6c0.4,0.3,0.7,0.6,1,0.9c0.2,0.2,0.2,0.4,0,0.6
					C167.6,47.2,167.5,47.3,167.4,47.2L167.4,47.2z"/>
			</g>
		</g>
		<g>
			<path class="st2" d="M78.1,52.8v-1.2c0-0.5,0.3-0.6,0.6-0.6h1.5v-2.1h-2c-2.3,0-2.8,1.6-2.8,2.6v1.3h-1.2v2.7h1.2v6.6h2.4v-6.6
				h2.1l0.1-1.1l0.2-1.6L78.1,52.8L78.1,52.8z"/>
			<g>
				<path class="st1" d="M77.1,68c-6.9,0-12.6-5.6-12.6-12.6s5.6-12.6,12.6-12.6c0.8,0,1.7,0.1,2.5,0.2c0.4,0.1,0.9,0.2,1.3,0.4
					c0.2,0.1,0.3,0.3,0.3,0.5s-0.3,0.3-0.5,0.3c-0.4-0.1-0.8-0.2-1.2-0.3c-0.8-0.2-1.6-0.2-2.3-0.2c-6.4,0-11.7,5.2-11.7,11.7
					s5.2,11.7,11.7,11.7s11.7-5.2,11.7-11.7c0-1.9-0.5-3.8-1.4-5.5c-0.1-0.2,0-0.5,0.2-0.6s0.5,0,0.6,0.2c1,1.8,1.5,3.9,1.5,5.9
					C89.7,62.4,84.1,68,77.1,68L77.1,68z"/>
				<path class="st1" d="M85.6,47.2c-0.1,0-0.2,0-0.3-0.1c-0.3-0.3-0.6-0.6-0.9-0.8c-0.2-0.2-0.5-0.4-0.8-0.6
					c-0.2-0.1-0.2-0.4-0.1-0.6s0.4-0.2,0.6-0.1c0.3,0.2,0.6,0.4,0.8,0.6c0.3,0.3,0.7,0.6,1,0.9c0.2,0.2,0.2,0.4,0,0.6
					C85.8,47.2,85.7,47.3,85.6,47.2L85.6,47.2z"/>
			</g>
		</g>
		<g class="st3">
			<path class="st1" d="M78.3,84.9l-5.7,5l6.3,7.8h-2.3L71,90.6v7.1h-1.9V80.5l1.9-1v9.7l4.6-4.3C75.6,84.9,78.3,84.9,78.3,84.9z"/>
			<path class="st1" d="M88.8,84.9h1.8V83c0-1.1,0.3-2,0.8-2.6s1.3-0.9,2.3-0.9s2,0.3,2.9,1l-0.7,1c-0.6-0.3-1.2-0.5-1.8-0.5
				c-1.1,0-1.7,0.7-1.7,2.1v1.8h3.2v1.5h-3.2v11.3h-1.9V86.4h-1.8L88.8,84.9L88.8,84.9z"/>
			<path class="st1" d="M111.1,86.5v8c0,1.4,0.6,2.1,1.7,2.1c0.6,0,1.2-0.2,1.8-0.5l0.7,1c-0.9,0.6-1.9,1-2.9,1s-1.8-0.3-2.3-0.9
				s-0.8-1.5-0.8-2.6v-8.1h-1.9V85h2v-2.8l1.9-1v3.7h3.7v1.5h-3.9V86.5z"/>
			<path class="st1" d="M135.2,97.7h-1.4l-0.3-1.4c-1.1,1.1-2.6,1.7-4.3,1.7c-1.3,0-2.3-0.4-3.1-1.1c-0.8-0.7-1.2-1.7-1.2-2.9
				c0-2.9,2.1-4.4,6.4-4.4h1.9v-0.2c0-2.2-1.1-3.4-3.3-3.4c-1.2,0-2.4,0.4-3.6,1.2l-0.6-1c1.3-1.2,2.9-1.8,4.7-1.8
				c1.5,0,2.6,0.5,3.4,1.4s1.2,2.2,1.2,4v7.9C135,97.7,135.2,97.7,135.2,97.7z M133.3,91.1h-1.7c-3.1,0-4.6,0.9-4.6,2.8
				c0,0.8,0.2,1.4,0.7,1.9c0.5,0.5,1.2,0.7,2,0.7s1.5-0.2,2.2-0.6s1.2-0.8,1.4-1.4V91.1z"/>
			<path class="st1" d="M147.7,79.6v18.2h-1.9V80.6L147.7,79.6z"/>
			<path class="st1" d="M177,97.7h-1.9v-7.3c0-2.8-1.2-4.2-3.5-4.2c-1.3,0-2.4,0.5-3.5,1.6c0.2,0.7,0.3,1.4,0.3,2.2v7.7h-1.9v-7.4
				c0-2.7-1.1-4.1-3.4-4.1c-0.6,0-1.2,0.2-1.9,0.5c-0.6,0.3-1.2,0.7-1.5,1.2v9.8h-1.9V84.9h1.6l0.2,1.3h0.1c1.2-1.1,2.5-1.7,4.1-1.7
				c1.8,0,3.1,0.7,3.9,2.1c1.2-1.4,2.8-2.1,4.6-2.1c1.5,0,2.7,0.5,3.6,1.5c0.8,0.9,1.2,2.3,1.2,4v7.7C177.1,97.7,177,97.7,177,97.7z
				"/>
			<path class="st1" d="M197.3,97.7h-1.4l-0.3-1.4c-1.1,1.1-2.6,1.7-4.3,1.7c-1.3,0-2.3-0.4-3.1-1.1S187,95.2,187,94
				c0-2.9,2.1-4.4,6.4-4.4h1.9v-0.2c0-2.2-1.1-3.4-3.3-3.4c-1.2,0-2.4,0.4-3.6,1.2l-0.6-1c1.3-1.2,2.9-1.8,4.7-1.8
				c1.5,0,2.6,0.5,3.4,1.4c0.8,0.9,1.2,2.2,1.2,4v7.9C197.1,97.7,197.3,97.7,197.3,97.7z M195.4,91.1h-1.7c-3.1,0-4.6,0.9-4.6,2.8
				c0,0.8,0.2,1.4,0.7,1.9s1.2,0.7,2,0.7s1.5-0.2,2.2-0.6s1.2-0.8,1.4-1.4L195.4,91.1L195.4,91.1z"/>
			<path class="st1" d="M210.7,84.9v14.7c0,1.1-0.3,2-0.8,2.6c-0.6,0.6-1.3,0.9-2.3,0.9s-2-0.3-2.9-1l0.7-1c0.6,0.3,1.2,0.5,1.8,0.5
				c1.1,0,1.7-0.7,1.7-2.1V84.9H210.7L210.7,84.9z M208.5,80.8c0-0.3,0.1-0.6,0.4-0.8c0.2-0.2,0.5-0.4,0.9-0.4s0.6,0.1,0.9,0.4
				c0.2,0.2,0.4,0.5,0.4,0.8c0,0.4-0.1,0.7-0.4,0.9c-0.2,0.2-0.5,0.4-0.9,0.4s-0.7-0.1-0.9-0.4S208.5,81.1,208.5,80.8z"/>
			<path class="st1" d="M229.2,92h-9.1c0.1,1.4,0.5,2.5,1.4,3.3s2,1.2,3.4,1.2c1.2,0,2.3-0.3,3.4-1l0.6,1.1c-1.2,1-2.7,1.5-4.5,1.5
				c-2,0-3.6-0.7-4.8-2c-1.1-1.2-1.7-2.8-1.7-4.7c0-2,0.6-3.7,1.8-5c1.1-1.2,2.4-1.8,4-1.8c1.9,0,3.3,0.8,4.3,2.3
				c0.8,1.2,1.2,2.7,1.2,4.5L229.2,92L229.2,92z M220.1,90.5h7.2c-0.1-1.4-0.4-2.4-1-3.2s-1.5-1.2-2.5-1.2s-1.9,0.4-2.5,1.2
				C220.5,88.1,220.1,89.2,220.1,90.5z"/>
			<path class="st1" d="M246.5,97.7l-0.3-1.4c-0.9,1.1-2.2,1.7-3.9,1.7c-1.9,0-3.3-0.7-4.4-2.1c-0.9-1.2-1.4-2.7-1.4-4.5
				c0-2.3,0.7-4,2-5.3c1.1-1.1,2.4-1.6,4-1.6c1.5,0,2.7,0.5,3.6,1.5v-5.5l1.9-1v18.1h-1.5L246.5,97.7L246.5,97.7z M246,94.3v-6.1
				c-0.2-0.6-0.7-1.1-1.3-1.5s-1.3-0.6-2-0.6c-1.2,0-2.3,0.5-3,1.5c-0.8,1-1.2,2.2-1.2,3.7c0,1.7,0.4,3.1,1.3,4
				c0.8,0.8,1.7,1.2,2.8,1.2c0.8,0,1.4-0.2,2.1-0.6C245.3,95.5,245.7,95,246,94.3z"/>
		</g>
		<g>
			<path class="st1" d="M193.3,59.4c-2-0.3-2.9-2.4-2.9-2.5l0,0c-0.1-0.2-0.1-0.4-0.1-0.5c0.1-0.3,0.5-0.4,0.8-0.5
				c0.1,0,0.2-0.1,0.2-0.1c0.3-0.1,0.5-0.2,0.6-0.4s0.2-0.3,0.2-0.4c0-0.2-0.2-0.5-0.5-0.6c-0.1,0-0.2-0.1-0.3-0.1s-0.2,0-0.3,0.1
				c-0.2,0.1-0.4,0.2-0.6,0.2c-0.1,0-0.2,0-0.2-0.1s0-0.2,0-0.3l0,0c0.1-1,0.1-2.3-0.2-3.1c-0.2-0.5-0.5-1-0.9-1.3
				c-0.3-0.3-0.7-0.6-1.1-0.7c-0.7-0.3-1.4-0.4-1.7-0.4l0,0c-0.1,0-0.2,0-0.3,0c-0.3,0-1,0.1-1.7,0.4c-0.4,0.2-0.8,0.4-1.1,0.7
				c-0.4,0.4-0.7,0.8-0.9,1.3c-0.3,0.8-0.2,2-0.2,3.1l0,0c0,0.1,0,0.2,0,0.3c-0.1,0-0.1,0.1-0.2,0.1c-0.2,0-0.4-0.1-0.7-0.2
				c-0.1,0-0.2-0.1-0.2-0.1c-0.1,0-0.3,0-0.4,0.1c-0.2,0.1-0.3,0.2-0.3,0.4c0,0.1,0,0.3,0.2,0.5c0.1,0.1,0.3,0.2,0.6,0.3
				c0.1,0,0.1,0.1,0.2,0.1c0.3,0.1,0.7,0.2,0.8,0.5c0.1,0.1,0,0.3-0.1,0.5l0,0c0,0.1-0.3,0.6-0.8,1.2c-0.3,0.3-0.6,0.6-0.9,0.8
				c-0.4,0.3-0.8,0.4-1.3,0.5c-0.1,0-0.3,0.1-0.3,0.3c0,0.1,0,0.2,0,0.3l0,0c0.1,0.2,0.2,0.3,0.5,0.4s0.8,0.3,1.5,0.4
				c0,0.1,0.1,0.2,0.1,0.3s0.1,0.2,0.1,0.4c0,0.1,0.1,0.3,0.4,0.3c0.1,0,0.2,0,0.3-0.1c0.2,0,0.5-0.1,0.8-0.1c0.2,0,0.4,0,0.6,0.1
				c0.4,0.1,0.7,0.3,1.1,0.6c0.5,0.4,1.1,0.8,2.1,0.8h0.1h0.1c0.9,0,1.5-0.4,2.1-0.8l0,0c0.4-0.3,0.7-0.5,1.1-0.6
				c0.2,0,0.4-0.1,0.6-0.1c0.3,0,0.6,0,0.8,0.1c0.1,0,0.3,0,0.3,0l0,0c0.2,0,0.3-0.1,0.4-0.3c0-0.1,0.1-0.2,0.1-0.4
				c0-0.1,0.1-0.3,0.1-0.3c0.6-0.1,1.1-0.2,1.5-0.4c0.3-0.1,0.4-0.3,0.5-0.4c0-0.1,0-0.1,0-0.2C193.6,59.6,193.5,59.4,193.3,59.4
				L193.3,59.4z"/>
			<g>
				<path class="st1" d="M186.2,68.6c-7.1,0-12.8-5.8-12.8-12.8S179.2,43,186.2,43c0.9,0,1.7,0.1,2.6,0.3c0.5,0.1,0.9,0.2,1.4,0.4
					c0.2,0.1,0.4,0.3,0.3,0.5c-0.1,0.2-0.3,0.4-0.5,0.3c-0.4-0.1-0.9-0.2-1.3-0.3c-0.8-0.2-1.6-0.2-2.4-0.2c-6.6,0-12,5.4-12,12
					s5.4,12,12,12s12-5.4,12-12c0-2-0.5-3.9-1.4-5.6c-0.1-0.2,0-0.5,0.2-0.6s0.5,0,0.6,0.2c1,1.9,1.5,3.9,1.5,6
					C199.1,62.8,193.3,68.6,186.2,68.6L186.2,68.6z"/>
				<path class="st1" d="M194.9,47.3c-0.1,0-0.2,0-0.3-0.1c-0.3-0.3-0.6-0.6-1-0.9c-0.3-0.2-0.5-0.4-0.8-0.6
					c-0.2-0.1-0.2-0.4-0.1-0.6c0.1-0.2,0.4-0.2,0.6-0.1c0.3,0.2,0.6,0.4,0.9,0.6c0.4,0.3,0.7,0.6,1,0.9c0.2,0.2,0.2,0.4,0,0.6
					C195.1,47.3,195,47.4,194.9,47.3L194.9,47.3z"/>
			</g>
		</g>
		<g>
			<g>
				<path class="st1" d="M213.5,68.6c-7.1,0-12.8-5.8-12.8-12.8S206.5,43,213.5,43c0.9,0,1.7,0.1,2.6,0.3c0.5,0.1,0.9,0.2,1.4,0.4
					c0.2,0.1,0.4,0.3,0.3,0.5c-0.1,0.2-0.3,0.4-0.5,0.3c-0.4-0.1-0.9-0.2-1.3-0.3c-0.8-0.2-1.6-0.2-2.4-0.2c-6.6,0-12,5.4-12,12
					s5.4,12,12,12s12-5.4,12-12c0-2-0.5-3.9-1.4-5.6c-0.1-0.2,0-0.5,0.2-0.6s0.5,0,0.6,0.2c1,1.9,1.5,3.9,1.5,6
					C226.3,62.8,220.6,68.6,213.5,68.6L213.5,68.6z"/>
				<path class="st1" d="M222.2,47.3c-0.1,0-0.2,0-0.3-0.1c-0.3-0.3-0.6-0.6-1-0.9c-0.3-0.2-0.5-0.4-0.8-0.6
					c-0.2-0.1-0.2-0.4-0.1-0.6c0.1-0.2,0.4-0.2,0.6-0.1c0.3,0.2,0.6,0.4,0.9,0.6c0.4,0.3,0.7,0.6,1,0.9c0.2,0.2,0.2,0.4,0,0.6
					C222.4,47.3,222.3,47.4,222.2,47.3L222.2,47.3z"/>
			</g>
			<path class="st1" d="M220.4,50.6c-0.1-0.2-0.4-0.2-0.6-0.1L207,55.1c-0.3,0.1-0.4,0.3-0.5,0.6c0,0.3,0.1,0.5,0.3,0.7l1.8,1.2
				c0.2,0.2,0.5,0.2,0.8,0l1.9-1c0.2-0.1,0.4,0.2,0.2,0.3l-1.2,0.9c-0.2,0.1-0.3,0.4-0.3,0.6v2.1c0,0.2,0.1,0.4,0.3,0.5
				s0.4,0.1,0.6,0l1.3-0.9c0.1,0,0.1,0,0.2,0l1.3,0.9c0.1,0.1,0.3,0.1,0.4,0.1c0.1,0,0.1,0,0.1,0c0.2,0,0.4-0.2,0.5-0.3l5.8-9.6
				C220.6,51,220.6,50.7,220.4,50.6L220.4,50.6z"/>
		</g>
		<g>
			<g>
				<path class="st1" d="M240.8,68.5c-7,0-12.8-5.7-12.8-12.8s5.7-12.8,12.8-12.8c0.9,0,1.7,0.1,2.6,0.3c0.5,0.1,0.9,0.2,1.4,0.4
					c0.2,0.1,0.4,0.3,0.3,0.5s-0.3,0.4-0.5,0.3c-0.4-0.1-0.9-0.2-1.3-0.3c-0.8-0.2-1.6-0.2-2.4-0.2c-6.6,0-11.9,5.3-11.9,11.9
					s5.3,11.9,11.9,11.9s11.9-5.3,11.9-11.9c0-1.9-0.5-3.9-1.4-5.6c-0.1-0.2,0-0.5,0.2-0.6s0.5,0,0.6,0.2c1,1.8,1.5,3.9,1.5,6
					C253.5,62.8,247.8,68.5,240.8,68.5L240.8,68.5z"/>
				<path class="st1" d="M249.4,47.4c-0.1,0-0.2,0-0.3-0.1c-0.3-0.3-0.6-0.6-1-0.9c-0.3-0.2-0.5-0.4-0.8-0.6
					c-0.2-0.1-0.2-0.4-0.1-0.6c0.1-0.2,0.4-0.2,0.6-0.1c0.3,0.2,0.6,0.4,0.9,0.6c0.4,0.3,0.7,0.6,1,0.9c0.2,0.2,0.2,0.4,0,0.6
					C249.6,47.3,249.5,47.4,249.4,47.4z"/>
			</g>
			<path id="Dribbble" class="st1" d="M240.8,49.9c-3.2,0-5.8,2.6-5.8,5.8s2.6,5.8,5.8,5.8s5.8-2.6,5.8-5.8S244,49.9,240.8,49.9z
				 M244.3,53.1c0.6,0.7,0.9,1.6,1,2.6c-0.7-0.1-1.3-0.2-1.9-0.2l0,0l0,0c-0.5,0-0.9,0-1.3,0.1c-0.1-0.2-0.2-0.5-0.3-0.7
				C242.7,54.5,243.6,53.9,244.3,53.1L244.3,53.1z M240.8,51.2c1.1,0,2.1,0.4,2.8,1c-0.6,0.7-1.4,1.2-2.2,1.6
				c-0.6-1.2-1.2-2-1.6-2.5C240.1,51.2,240.4,51.2,240.8,51.2L240.8,51.2z M238.7,51.6c0.3,0.4,0.9,1.2,1.6,2.5
				c-1.4,0.4-2.8,0.5-3.6,0.5h-0.1l0,0c-0.1,0-0.3,0-0.4,0C236.7,53.2,237.6,52.2,238.7,51.6L238.7,51.6z M236.2,55.8L236.2,55.8
				c0.1,0,0.3,0,0.5,0l0,0c0.9,0,2.5-0.1,4.1-0.6c0.1,0.2,0.2,0.4,0.3,0.6c-1.1,0.4-1.9,0.9-2.6,1.5c-0.6,0.6-1,1.1-1.3,1.5
				C236.6,58,236.2,56.9,236.2,55.8L236.2,55.8z M240.8,60.3c-1,0-1.9-0.3-2.7-0.9c0.2-0.3,0.5-0.8,1.1-1.3s1.4-1.1,2.4-1.4
				c0.4,1,0.7,2.1,0.9,3.3C241.9,60.2,241.3,60.3,240.8,60.3L240.8,60.3z M243.3,59.5c-0.2-1.1-0.5-2.1-0.8-3.1
				c0.3,0,0.6-0.1,0.9-0.1l0,0c0.5,0,1.1,0.1,1.8,0.2C245,57.8,244.3,58.8,243.3,59.5L243.3,59.5z"/>
		</g>
	</g>
	<g>
		<g>
			<path class="st2" d="M79.6,20.8c-0.2-0.1-0.9-0.4-1-0.5s-0.2-0.1-0.3,0.1c-0.1,0.1-0.4,0.5-0.5,0.6s-0.2,0.1-0.3,0
				c-0.2-0.1-0.6-0.2-1.2-0.7c-0.4-0.4-0.8-0.9-0.8-1s0-0.2,0.1-0.3s0.2-0.2,0.2-0.3c0,0,0-0.1,0.1-0.1c0-0.1,0.1-0.1,0.1-0.2
				c0.1-0.1,0-0.2,0-0.3s-0.3-0.8-0.5-1.1c-0.1-0.3-0.2-0.2-0.3-0.2s-0.2,0-0.3,0s-0.3,0-0.4,0.2c-0.1,0.1-0.5,0.5-0.5,1.2
				c0,0.2,0,0.4,0.1,0.5c0.2,0.5,0.5,1,0.5,1c0.1,0.1,1,1.7,2.6,2.3c1.5,0.6,1.5,0.4,1.8,0.4s0.9-0.4,1-0.7c0.1-0.4,0.1-0.6,0.1-0.7
				C79.8,20.9,79.7,20.9,79.6,20.8L79.6,20.8L79.6,20.8z M82.9,19.4c-0.1-3.3-2.8-6-6.2-6s-6,2.6-6.2,5.9c0,0.1,0,0.2,0,0.3
				c0,1.1,0.3,2.2,0.9,3.2l-1.1,3.3l3.4-1.1c0.9,0.5,1.9,0.8,3,0.8c3.4,0,6.2-2.7,6.2-6.1L82.9,19.4L82.9,19.4z"/>
			<g>
				<path class="st1" d="M76.6,32.7c-7.1,0-12.9-5.8-12.9-12.9s5.8-13,12.9-13c0.9,0,1.8,0.1,2.6,0.3c0.5,0.1,0.9,0.2,1.4,0.4
					c0.2,0.1,0.3,0.3,0.3,0.6s-0.3,0.4-0.6,0.3c-0.4-0.1-0.9-0.2-1.3-0.3c-0.8-0.2-1.6-0.2-2.4-0.2c-6.7,0-12.1,5.4-12.1,12.1
					S70,31.8,76.6,31.8s12.1-5.4,12.1-12.1c0-2-0.5-3.9-1.4-5.7c-0.1-0.2,0-0.5,0.2-0.6s0.5,0,0.6,0.2c1,1.9,1.5,4,1.5,6.1
					C89.6,26.9,83.8,32.7,76.6,32.7L76.6,32.7z"/>
				<path class="st1" d="M85.4,11.2c-0.1,0-0.2,0-0.3-0.1c-0.3-0.3-0.6-0.6-1-0.9c-0.3-0.2-0.5-0.4-0.8-0.6
					c-0.2-0.1-0.2-0.4-0.1-0.6c0.1-0.2,0.4-0.2,0.6-0.1c0.3,0.2,0.6,0.4,0.9,0.6c0.4,0.3,0.7,0.6,1.1,0.9c0.2,0.2,0.2,0.4,0,0.6
					S85.5,11.3,85.4,11.2L85.4,11.2z"/>
			</g>
		</g>
		<g class="st3">
			<path class="st1" d="M100.5,19.1h-3.2v-2h3.2v-3.6h2.4v3.6h3.2v2h-3.2v3.6h-2.4V19.1z"/>
			<path class="st1" d="M114.2,17.6c-0.5,0.4-1.1,0.6-2,0.6c-1.2,0-2.2-0.3-2.9-1c-0.8-0.7-1.1-1.8-1.1-3.2c0-1.2,0.4-2.2,1.2-3
				c0.8-0.9,1.9-1.3,3.2-1.3c1.8,0,3,0.8,3.7,2.3c0.5,1,0.7,2.2,0.7,3.7c0,4.8-1.6,7.2-4.9,7.2c-0.6,0-1.2-0.1-1.9-0.4
				c-0.6-0.2-1.1-0.5-1.5-0.9l0.9-1.7c0.9,0.4,1.7,0.6,2.4,0.6c0.7,0,1.2-0.3,1.7-0.8C113.9,19.3,114.2,18.6,114.2,17.6z
				 M114.2,15.8c-0.1-1.4-0.2-2.4-0.3-2.9c-0.3-0.8-0.7-1.2-1.4-1.2c-0.4,0-0.8,0.2-1.2,0.7c-0.3,0.5-0.5,1-0.5,1.6
				c0,1.5,0.6,2.3,1.9,2.3C113.3,16.4,113.8,16.2,114.2,15.8z"/>
			<path class="st1" d="M120.7,15c0.5-0.4,1.1-0.6,2-0.6c1.2,0,2.2,0.3,2.9,1c0.8,0.7,1.1,1.8,1.1,3.2c0,1.2-0.4,2.2-1.2,3
				c-0.8,0.9-1.9,1.3-3.2,1.3c-1.8,0-3-0.8-3.7-2.3c-0.5-1-0.7-2.2-0.7-3.7c0-4.8,1.6-7.2,4.9-7.2c0.6,0,1.2,0.1,1.9,0.4
				c0.7,0.3,1.1,0.5,1.5,0.9l-0.9,1.7c-0.9-0.4-1.7-0.6-2.4-0.6c-0.7,0-1.2,0.3-1.7,0.8C120.9,13.3,120.7,14,120.7,15z M120.7,16.8
				c0.1,1.4,0.2,2.4,0.3,2.9c0.3,0.8,0.7,1.2,1.4,1.2c0.4,0,0.8-0.2,1.2-0.7c0.3-0.5,0.5-1,0.5-1.6c0-1.5-0.6-2.3-1.9-2.3
				C121.6,16.2,121.1,16.4,120.7,16.8z"/>
			<path class="st1" d="M131.2,15c0.5-0.4,1.1-0.6,2-0.6c1.2,0,2.2,0.3,2.9,1c0.8,0.7,1.1,1.8,1.1,3.2c0,1.2-0.4,2.2-1.2,3
				c-0.8,0.9-1.9,1.3-3.2,1.3c-1.8,0-3-0.8-3.7-2.3c-0.5-1-0.7-2.2-0.7-3.7c0-4.8,1.6-7.2,4.9-7.2c0.6,0,1.2,0.1,1.9,0.4
				c0.7,0.3,1.1,0.5,1.5,0.9l-0.9,1.7c-0.9-0.4-1.7-0.6-2.4-0.6s-1.2,0.3-1.7,0.8C131.4,13.3,131.2,14,131.2,15z M131.1,16.8
				c0.1,1.4,0.2,2.4,0.3,2.9c0.3,0.8,0.7,1.2,1.4,1.2c0.4,0,0.8-0.2,1.2-0.7c0.3-0.5,0.5-1,0.5-1.6c0-1.5-0.6-2.3-1.9-2.3
				C132,16.2,131.5,16.4,131.1,16.8z"/>
			<path class="st1" d="M143.9,18.9h-5.4v-2h5.4V18.9z"/>
			<path class="st1" d="M157.4,12H153v2.6c0.2-0.1,0.4-0.1,0.7-0.1c1.5,0,2.6,0.4,3.5,1.1c0.8,0.7,1.2,1.7,1.2,2.9
				c0,1.3-0.5,2.4-1.5,3.2c-0.8,0.8-1.9,1.1-3.1,1.1c-1.6,0-3-0.6-4.2-1.8l1.1-1.7c1,0.7,1.9,1.1,2.8,1.1c1.4,0,2.1-0.6,2.1-1.9
				c0-1.4-0.9-2.1-2.7-2.1c-0.6,0-1.5,0.1-2.5,0.3v-7h7.1V12H157.4z"/>
			<path class="st1" d="M167.5,12H163v2.6c0.2-0.1,0.4-0.1,0.7-0.1c1.5,0,2.6,0.4,3.5,1.1c0.8,0.7,1.2,1.7,1.2,2.9
				c0,1.3-0.5,2.4-1.5,3.2c-0.8,0.8-1.9,1.1-3.1,1.1c-1.6,0-3-0.6-4.2-1.8l1.1-1.7c1,0.7,1.9,1.1,2.8,1.1c1.4,0,2.1-0.6,2.1-1.9
				c0-1.4-0.9-2.1-2.7-2.1c-0.6,0-1.5,0.1-2.5,0.3v-7h7.1L167.5,12L167.5,12z"/>
			<path class="st1" d="M179.6,9.7c1.6,0,2.8,0.7,3.8,2.2c0.8,1.2,1.2,2.7,1.2,4.4c0,2.1-0.5,3.7-1.5,4.9c-0.9,1.1-2,1.7-3.4,1.7
				c-1.6,0-2.9-0.7-3.8-2.1c-0.8-1.2-1.1-2.7-1.1-4.5c0-2,0.5-3.6,1.5-4.9C177.1,10.3,178.2,9.7,179.6,9.7z M179.6,11.9
				c-1.5,0-2.2,1.4-2.2,4.3c0,1.4,0.2,2.6,0.6,3.4c0.4,0.7,0.9,1.1,1.5,1.1c0.7,0,1.2-0.4,1.6-1.2s0.6-1.9,0.6-3.3
				C181.8,13.4,181,11.9,179.6,11.9z"/>
			<path class="st1" d="M191.1,9.9v12.8h-2.6v-9.8c-0.2,0.1-0.5,0.3-0.8,0.5c-0.5,0.3-0.9,0.5-1.1,0.7c-0.2-0.3-0.5-0.8-0.9-1.5
				l-0.1-0.2c-0.1-0.2-0.2-0.3-0.2-0.4c0.4-0.3,1.1-0.8,2-1.4c0.5-0.3,0.9-0.6,1.2-0.8L191.1,9.9L191.1,9.9z"/>
			<path class="st1" d="M196.2,15c0.5-0.4,1.1-0.6,2-0.6c1.2,0,2.2,0.3,2.9,1c0.8,0.7,1.1,1.8,1.1,3.2c0,1.2-0.4,2.2-1.2,3
				c-0.8,0.9-1.9,1.3-3.2,1.3c-1.8,0-3-0.8-3.7-2.3c-0.5-1-0.7-2.2-0.7-3.7c0-4.8,1.6-7.2,4.9-7.2c0.6,0,1.2,0.1,1.9,0.4
				c0.7,0.3,1.1,0.5,1.5,0.9l-0.9,1.7c-0.9-0.4-1.7-0.6-2.4-0.6s-1.2,0.3-1.7,0.8C196.4,13.3,196.2,14,196.2,15z M196.2,16.8
				c0.1,1.4,0.2,2.4,0.3,2.9c0.3,0.8,0.7,1.2,1.4,1.2c0.4,0,0.8-0.2,1.2-0.7c0.3-0.5,0.5-1,0.5-1.6c0-1.5-0.6-2.3-1.9-2.3
				C197.1,16.2,196.6,16.4,196.2,16.8z"/>
			<path class="st1" d="M206.7,15c0.5-0.4,1.1-0.6,2-0.6c1.2,0,2.2,0.3,2.9,1c0.8,0.7,1.1,1.8,1.1,3.2c0,1.2-0.4,2.2-1.2,3
				c-0.8,0.9-1.9,1.3-3.2,1.3c-1.8,0-3-0.8-3.7-2.3c-0.5-1-0.7-2.2-0.7-3.7c0-4.8,1.6-7.2,4.9-7.2c0.6,0,1.2,0.1,1.9,0.4
				c0.7,0.3,1.1,0.5,1.5,0.9l-0.9,1.7c-0.9-0.4-1.7-0.6-2.4-0.6s-1.2,0.3-1.7,0.8C206.9,13.3,206.7,14,206.7,15z M206.6,16.8
				c0.1,1.4,0.2,2.4,0.3,2.9c0.3,0.8,0.7,1.2,1.4,1.2c0.4,0,0.8-0.2,1.2-0.7c0.3-0.5,0.5-1,0.5-1.6c0-1.5-0.6-2.3-1.9-2.3
				C207.5,16.2,207,16.4,206.6,16.8z"/>
			<path class="st1" d="M219.1,18.1c1.8-2.8,3.6-5.5,5.4-8.2h2.6v8.2h2.1v2.1h-2.1v2.5h-2.6v-2.5h-5.4V18.1z M221.4,18.1h3.1v-4.8
				L221.4,18.1z"/>
			<path class="st1" d="M235.5,9.7c1.6,0,2.8,0.7,3.8,2.2c0.8,1.2,1.2,2.7,1.2,4.4c0,2.1-0.5,3.7-1.5,4.9c-0.9,1.1-2,1.7-3.4,1.7
				c-1.6,0-2.9-0.7-3.8-2.1c-0.8-1.2-1.1-2.7-1.1-4.5c0-2,0.5-3.6,1.5-4.9C233,10.3,234.2,9.7,235.5,9.7z M235.6,11.9
				c-1.5,0-2.2,1.4-2.2,4.3c0,1.4,0.2,2.6,0.6,3.4c0.4,0.7,0.9,1.1,1.5,1.1c0.7,0,1.2-0.4,1.6-1.2s0.6-1.9,0.6-3.3
				C237.7,13.4,237,11.9,235.6,11.9z"/>
			<path class="st1" d="M246.9,9.7c1.6,0,2.8,0.7,3.8,2.2c0.8,1.2,1.2,2.7,1.2,4.4c0,2.1-0.5,3.7-1.5,4.9c-0.9,1.1-2,1.7-3.4,1.7
				c-1.6,0-2.9-0.7-3.8-2.1c-0.8-1.2-1.1-2.7-1.1-4.5c0-2,0.5-3.6,1.5-4.9C244.4,10.3,245.5,9.7,246.9,9.7z M246.9,11.9
				c-1.5,0-2.2,1.4-2.2,4.3c0,1.4,0.2,2.6,0.6,3.4c0.4,0.7,0.9,1.1,1.5,1.1c0.7,0,1.2-0.4,1.6-1.2s0.6-1.9,0.6-3.3
				C249.1,13.4,248.4,11.9,246.9,11.9z"/>
		</g>
	</g>
</g>
<g class="st4">
	<g>
		<g>
			<g>
				<defs>
					<rect id="SVGID_1_" x="283.8" y="2.3" width="677.2" height="96.9"/>
				</defs>
				<clipPath id="SVGID_00000135676978140256091510000010328107526743329165_">
					<use xlink:href="#SVGID_1_"  style="overflow:visible;"/>
				</clipPath>
				<g style="clip-path:url(#SVGID_00000135676978140256091510000010328107526743329165_);">
					<g>
						
							<rect x="745.9" y="-84.2" transform="matrix(0.7071 -0.7071 0.7071 0.7071 288.824 541.3254)" class="st6" width="103.9" height="12.4"/>
						
							<rect x="278.8" y="60.7" transform="matrix(0.7071 -0.7071 0.7071 0.7071 36.18 221.1315)" class="st6" width="12.4" height="12.4"/>
						<polygon class="st7" points="818.2,-189 783.3,-154 792,-145.3 818.2,-171.5 830.1,-159.7 809.5,-139.1 818.2,-130.4 
							847.5,-159.7 						"/>
						<polygon class="st7" points="786.7,58.8 777.9,67.5 797.7,87.2 759.8,125.1 768.6,133.8 815.1,87.2 						"/>
						<polygon class="st7" points="844.3,-73.8 857.1,-86.6 848.4,-95.4 826.8,-73.8 845.8,-54.7 854.6,-63.5 						"/>
						
							<rect x="722.7" y="97.2" transform="matrix(0.7071 -0.7071 0.7071 0.7071 145.4854 558.0546)" class="st6" width="47.3" height="12.4"/>
						<polygon class="st7" points="696.3,-25.7 661.6,9.1 670.3,17.8 696.3,-8.2 708.2,3.6 641.8,70 660.8,89 669.6,80.3 659.3,70 
							716.9,12.3 750.9,46.3 722.1,75.1 710.2,63.2 725.7,47.8 716.9,39.1 692.7,63.2 722.1,92.6 768.4,46.3 						"/>
						<polygon class="st7" points="793,-22.8 822.7,-52.4 813.9,-61.2 775.5,-22.8 798.5,0.2 807.2,-8.5 						"/>
						<polygon class="st7" points="744.4,139.9 712.8,171.4 701,159.6 722.1,138.5 713.4,129.7 692.3,150.9 680.4,139 711.3,108.2 
							687.1,84 678.4,92.8 693.8,108.2 671.7,130.3 617,75.6 608.2,84.3 673.2,149.3 642.4,180.2 651.1,188.9 682,158.1 
							693.8,169.9 673.2,190.5 754.1,271.4 762.9,262.6 690.7,190.5 702.6,178.6 712.8,188.9 753.1,148.7 						"/>
						
							<rect x="734.1" y="-85.4" transform="matrix(0.7071 -0.7071 0.7071 0.7071 267.0094 502.6931)" class="st6" width="12.4" height="28.9"/>
						<polygon class="st7" points="550.9,288.3 572.1,267.2 615.4,310.6 624.2,301.8 580.8,258.5 596.2,243.1 587.4,234.4 
							542.2,279.6 						"/>
						<polygon class="st7" points="571.5,80.1 542.2,109.4 550.9,118.2 571.5,97.6 583.3,109.4 562.7,130 571.5,138.7 592,118.2 
							613.2,139.4 622,130.6 						"/>
						<polygon class="st7" points="490.4,-22 520.9,-52.5 540.7,-32.7 567.3,-59.3 558.6,-68.1 540.7,-50.2 520.9,-70 481.6,-30.7 
													"/>
						<polygon class="st7" points="618.4,173.7 596.8,152.1 563.9,185 608.6,229.8 635.5,202.8 626.8,194.1 608.6,212.3 581.3,185 
							596.8,169.6 609.6,182.5 						"/>
						
							<rect x="629.8" y="146.1" transform="matrix(0.7071 -0.7071 0.7071 0.7071 78.6036 494.3269)" class="st6" width="12.4" height="12.4"/>
						
							<rect x="580.7" y="-200.5" transform="matrix(0.7071 -0.7071 0.7071 0.7071 266.0831 375.9712)" class="st6" width="12.4" height="134.6"/>
						<polygon class="st7" points="627.3,276.6 636,267.9 625.7,257.6 658.4,225 688.1,254.7 696.9,246 658.4,207.5 608.2,257.6 
													"/>
						<polygon class="st7" points="511.9,32 501.2,21.3 523.3,-0.8 595.3,71.2 645.2,21.3 622.5,-1.3 613.7,7.4 627.7,21.3 
							595.3,53.7 523.3,-18.3 483.7,21.3 503.1,40.8 						"/>
						
							<rect x="585.2" y="-92.4" transform="matrix(0.7071 -0.7071 0.7071 0.7071 227.5561 395.6808)" class="st6" width="12.4" height="31.1"/>
						<polygon class="st7" points="659.9,-118.3 651.2,-109.6 671.8,-89 634.6,-51.9 624.3,-62.1 615.6,-53.4 634.6,-34.4 
							689.2,-89 						"/>
						
							<rect x="529" y="-103.4" transform="matrix(0.7071 -0.7071 0.7071 0.7071 230.1324 361.1533)" class="st6" width="44" height="12.4"/>
						
							<rect x="586.8" y="-191.9" transform="matrix(0.7071 -0.7071 0.7071 0.7071 299.4522 367.2323)" class="st6" width="12.4" height="28.1"/>
						<polygon class="st7" points="609.1,-144.2 617.8,-135.5 648.7,-166.3 660.5,-154.5 650.2,-144.2 659,-135.5 678,-154.5 
							648.7,-183.8 						"/>
						<polygon class="st7" points="513.3,195.7 554.1,236.5 562.8,227.8 530.8,195.7 546.2,180.3 524.6,158.7 515.9,167.4 
							528.7,180.3 						"/>
						<polygon class="st7" points="712.5,261 703.7,269.8 726.5,292.5 714.7,304.4 662.5,252.2 653.7,260.9 714.7,321.9 744,292.5 
													"/>
						<polygon class="st7" points="410.2,135.9 422,124.1 432.3,134.3 441.1,125.6 422,106.6 392.7,135.9 432.3,175.5 441.1,166.7 
													"/>
						<polygon class="st7" points="666.1,344 657.3,335.3 636.7,355.9 624.9,344 645.5,323.5 636.7,314.7 616.2,335.3 572.7,291.8 
							564,300.6 636.7,373.4 						"/>
						
							<rect x="544.8" y="318.7" transform="matrix(0.7071 -0.7071 0.7071 0.7071 -68.3822 484.757)" class="st6" width="12.4" height="12.4"/>
						<polygon class="st7" points="506.5,151.1 473.2,117.8 445.6,145.4 454.3,154.2 473.2,135.3 497.7,159.8 						"/>
						<polygon class="st7" points="528.3,46.6 519.5,55.3 532.4,68.2 494.8,105.8 550.2,161.2 559,152.5 512.3,105.8 549.9,68.2 
													"/>
						
							<rect x="369.6" y="103.7" transform="matrix(0.7071 -0.7071 0.7071 0.7071 32.3615 297.9196)" class="st6" width="12.4" height="12.4"/>
						
							<rect x="373.5" y="47.8" transform="matrix(0.7071 -0.7071 0.7071 0.7071 84.9994 313.2265)" class="st6" width="94.2" height="12.4"/>
						
							<rect x="368.4" y="90.2" transform="matrix(0.7071 -0.7071 0.7071 0.7071 1.0595 309.8897)" class="st6" width="12.4" height="126.9"/>
						<polygon class="st7" points="455.9,115.9 503.9,67.8 474.6,38.5 465.9,47.3 486.4,67.8 474.6,79.7 454,59.1 445.3,67.8 
							465.9,88.4 447.1,107.2 						"/>
						
							<rect x="303.5" y="-200.1" transform="matrix(0.7071 -0.7071 0.7071 0.7071 227.8214 162.2093)" class="st6" width="12.4" height="12.4"/>
						
							<rect x="355.3" y="-197.7" transform="matrix(0.7071 -0.7071 0.7071 0.7071 234.668 202.2588)" class="st6" width="12.4" height="31.1"/>
						<polygon class="st7" points="348.1,-75.1 356.8,-83.9 301.3,-139.4 333.8,-171.9 325,-180.6 283.8,-139.4 						"/>
						<polygon class="st7" points="373.9,26.6 358.5,42 380.1,63.6 388.8,54.9 376,42 391.4,26.6 333,-31.8 324.3,-23 						"/>
						
							<rect x="760.1" y="-111.2" transform="matrix(0.7071 -0.7071 0.7071 0.7071 303.9935 523.9189)" class="st6" width="48.7" height="12.4"/>
						
							<rect x="449.1" y="-184.1" transform="matrix(0.7071 -0.7071 0.7071 0.7071 253.4315 271.6973)" class="st6" width="11.2" height="28"/>
						<polygon class="st7" points="447.3,-185.6 437.8,-195 438.6,-195.8 429.8,-204.6 421.1,-195.8 430.6,-186.3 429.8,-185.6 
							438.5,-176.8 						"/>
						<polygon class="st7" points="440.9,-195 448.8,-187.1 449.6,-187.9 480.5,-157 489.2,-165.8 481.2,-173.7 480.5,-172.9 
							449.6,-203.8 						"/>
						<polygon class="st7" points="420.3,-176.1 459.9,-136.5 468.6,-145.2 460.7,-153.2 459.9,-152.4 428.2,-184 						"/>
						
							<rect x="469.7" y="-204.7" transform="matrix(0.7071 -0.7071 0.7071 0.7071 274.0482 280.2334)" class="st6" width="11.2" height="28"/>
						<polygon class="st7" points="458.3,-215.6 459.1,-216.4 450.4,-225.2 441.7,-216.4 451.1,-206.9 450.3,-206.1 459.1,-197.4 
							467.8,-206.1 						"/>
						<polygon class="st7" points="324.7,-53.7 296.4,-82 307.1,-92.7 298.3,-101.4 269,-72.1 277.7,-63.4 288.4,-74 316.7,-45.7 
													"/>
						<polygon class="st7" points="313.9,181.2 322.6,190 348.5,164 319.2,134.7 293.3,160.7 302,169.4 319.2,152.2 331.1,164 
													"/>
						<polygon class="st7" points="289.4,39 311,60.6 343.9,27.7 299.2,-17 272.2,9.9 281,18.6 299.2,0.4 326.4,27.7 311,43.1 
							298.1,30.3 						"/>
						<polygon class="st7" points="470.2,-224.4 461.4,-215.6 469.4,-207.7 470.2,-208.5 501,-177.6 530.3,-206.9 522.4,-214.9 
							501,-193.5 						"/>
						<polygon class="st7" points="367.6,-29 376.3,-20.3 407.2,-51.2 419,-39.3 388.1,-8.5 417.4,20.8 426.2,12.1 405.6,-8.5 
							427.7,-30.6 467,8.7 475.8,0 426.2,-49.6 448.4,-71.8 439.7,-80.6 417.4,-58.4 405.6,-70.2 436.5,-101 407.2,-130.4 
							398.4,-121.6 419,-101 396.9,-78.9 386.6,-89.2 347,-49.6 355.7,-40.9 386.6,-71.7 398.4,-59.9 						"/>
						<polygon class="st7" points="408.5,-224.4 387.9,-203.8 387.1,-204.6 379.1,-196.6 387.9,-187.9 408.5,-208.5 419.5,-197.4 
							427.5,-205.3 						"/>
						
							<rect x="473.5" y="-232.9" transform="matrix(0.7071 -0.7071 0.7071 0.7071 300.8168 272.8049)" class="st6" width="12.4" height="12.4"/>
						
							<rect x="614" y="-241.3" transform="matrix(0.7071 -0.7071 0.7071 0.7071 343.4488 371.0217)" class="st6" width="11.2" height="24.4"/>
						<polygon class="st7" points="501,-198.2 521.6,-218.7 522.4,-218 530.3,-225.9 521.6,-234.6 501,-214.1 489.9,-225.2 
							482,-217.2 						"/>
						<polygon class="st7" points="387.5,430.9 350.3,393.7 379.7,364.3 390,374.6 429.5,335 420.8,326.2 390,357.1 378.1,345.3 
							409,314.4 400.2,305.7 369.4,336.5 357.6,324.7 388.4,293.8 359.1,264.5 350.3,273.3 370.9,293.8 348.8,316 317.2,284.4 
							308.5,293.1 350.3,335 319.5,365.8 328.2,374.6 359.1,343.7 370.9,355.6 332.8,393.7 378.7,439.7 						"/>
						<polygon class="st7" points="578,-223.7 577.4,-223.1 585.3,-215.2 596,-225.8 624.3,-197.6 632.2,-205.5 624.3,-213.5 
							624.3,-213.4 596,-241.7 585.3,-231.1 584.5,-231.8 577.1,-224.5 						"/>
						<polygon class="st7" points="901.7,-152.6 872.4,-181.9 863.6,-173.1 873.9,-162.9 843.1,-132 851.8,-123.3 882.7,-154.1 
							893,-143.8 						"/>
						<polygon class="st7" points="892.2,-27.2 913.8,-5.6 924.1,-15.9 934.4,-5.6 943.1,-14.4 924.1,-33.4 913.8,-23.1 901,-36 
													"/>
						
							<rect x="917.6" y="167.9" transform="matrix(0.7071 -0.7071 0.7071 0.7071 147.4694 704.2324)" class="st6" width="12.4" height="12.4"/>
						<polygon class="st7" points="855.9,93.1 887.6,124.8 906.6,105.8 897.9,97.1 887.6,107.3 855.9,75.7 783.9,147.6 830.2,193.9 
							859.5,164.6 832.8,137.9 824,146.6 842,164.6 830.2,176.4 801.4,147.6 835.4,113.7 886.3,164.6 865.7,185.2 874.4,193.9 
							903.8,164.6 844.1,105 						"/>
						<polygon class="st7" points="963.1,47.7 923.5,8.1 894.2,37.4 902.9,46.1 923.5,25.5 945.6,47.7 910.6,82.7 939.9,112 
							961.5,90.4 952.7,81.7 939.9,94.6 928,82.7 						"/>
						<polygon class="st7" points="318.8,397.2 292.6,371.1 283.8,379.8 291.4,387.4 270.8,408 278.7,415.9 299.3,395.3 310,406 
													"/>
						<polygon class="st7" points="913.4,386 904.6,394.7 909.8,399.9 891.8,417.8 900.5,426.6 927.3,399.9 						"/>
						
							<rect x="845.9" y="397.2" transform="matrix(0.7071 -0.7071 0.7071 0.7071 -40.8249 722.7785)" class="st6" width="12.4" height="26.9"/>
						
							<rect x="819.1" y="377.7" transform="matrix(0.7071 -0.7071 0.7071 0.7071 -29.7232 696.0309)" class="st6" width="12.4" height="12.4"/>
						<polygon class="st7" points="785.8,375.5 739.5,329.2 730.8,337.9 832.1,439.3 840.8,430.5 794.5,384.2 826.9,351.8 
							873.2,398.1 882,389.4 826.9,334.3 						"/>
						<polygon class="st7" points="927.2,230.8 918.5,222 874.7,265.9 904,295.2 933.3,265.9 924.6,257.1 904,277.7 892.2,265.9 
													"/>
						<polygon class="st7" points="647,410.9 573.9,337.8 544.6,367.1 590.6,413.1 599.3,404.4 562.1,367.1 573.9,355.3 
							629.5,410.9 595.6,444.8 517.8,367.1 538.4,346.5 529.7,337.8 500.4,367.1 586.8,453.6 575,465.4 540.5,430.9 521.5,449.9 
							530.2,458.7 540.5,448.4 575,482.9 						"/>
						
							<rect x="772.7" y="474.4" transform="matrix(0.7071 -0.7071 0.7071 0.7071 -127.112 697.921)" class="st6" width="12.4" height="56"/>
						<polygon class="st7" points="882.8,512.2 849.5,478.9 816.2,512.2 825,520.9 849.5,496.4 874,520.9 						"/>
						<polygon class="st7" points="879.2,448.7 889.5,438.4 880.7,429.7 861.7,448.7 883.3,470.3 875.5,478 884.3,486.7 
							900.7,470.3 						"/>
						<polygon class="st7" points="818.5,455.5 809.7,446.8 803.5,453 788.1,437.6 768.6,457 777.4,465.8 788.1,455 803.5,470.5 
													"/>
						
							<rect x="834.9" y="454.2" transform="matrix(0.7071 -0.7071 0.7071 0.7071 -79.2135 729.5864)" class="st6" width="12.4" height="12.4"/>
						<polygon class="st7" points="734.2,-22.7 799.8,42.9 818.9,23.9 810.1,15.1 799.8,25.4 742.9,-31.5 						"/>
						<polygon class="st7" points="641.8,291.2 694.1,343.5 672.9,364.6 697.2,388.9 706,380.2 690.4,364.6 711.6,343.5 
							650.5,282.4 						"/>
						<polygon class="st7" points="805.7,201.3 769.6,237.5 778.3,246.2 805.7,218.8 827.9,240.9 754.6,314.2 783.9,343.5 
							813.2,314.2 804.5,305.4 783.9,326 772.1,314.2 845.4,240.9 						"/>
						
							<rect x="853.8" y="247" transform="matrix(0.7071 -0.7071 0.7071 0.7071 72.8485 682.2649)" class="st6" width="12.4" height="12.4"/>
						<polygon class="st7" points="762.9,178.7 754.2,169.9 728.1,196 757.4,225.3 797,185.7 788.3,177 757.4,207.8 745.6,196 
													"/>
						<polygon class="st7" points="735.7,-179.2 727.7,-171.2 736.5,-162.5 770.8,-196.8 762.9,-204.7 736.5,-178.4 						"/>
						
							<rect x="746.4" y="-212.5" transform="matrix(0.7071 -0.7071 0.7071 0.7071 366.3162 471.7332)" class="st6" width="12.4" height="12.4"/>
						
							<rect x="728.7" y="-199.1" transform="matrix(0.7071 -0.7071 0.7071 0.7071 353.2724 465.8658)" class="st6" width="20.6" height="11.2"/>
						<polygon class="st7" points="782.9,-133.9 764,-152.8 788.5,-177.4 779.8,-186.1 746.5,-152.8 774.2,-125.2 						"/>
						<polygon class="st7" points="694.8,-114.9 715.4,-135.5 727.2,-123.7 706.7,-103.1 715.4,-94.4 736,-114.9 749.9,-101 
							758.6,-109.7 715.4,-153 686.1,-123.7 						"/>
						
							<rect x="428.5" y="-148.7" transform="matrix(0.7071 -0.7071 0.7071 0.7071 221.4814 268.3949)" class="st6" width="12.4" height="31.1"/>
						<polygon class="st7" points="581.5,-45.7 553.7,-18 587,15.3 595.8,6.6 571.2,-18 590.3,-37 						"/>
						<polygon class="st7" points="729.9,-44.5 700.8,-73.6 638.5,-11.3 647.2,-2.5 700.8,-56.1 721.2,-35.8 						"/>
						<polygon class="st7" points="489,302.1 480.2,293.3 453.2,320.3 486.1,353.2 536.3,303.1 509.3,276.2 500.6,284.9 
							518.8,303.1 486.1,335.8 470.7,320.3 						"/>
						
							<rect x="715.3" y="358.4" transform="matrix(0.7071 -0.7071 0.7071 0.7071 -46.4736 616.9706)" class="st6" width="12.4" height="12.4"/>
						
							<rect x="654.8" y="384.3" transform="matrix(0.7071 -0.7071 0.7071 0.7071 -82.4995 581.7703)" class="st6" width="12.4" height="12.4"/>
						<polygon class="st7" points="465.8,-48.1 549.2,-131.5 519.8,-160.8 477.4,-118.3 486.1,-109.6 519.8,-143.3 531.7,-131.5 
							457,-56.8 						"/>
						
							<rect x="456.5" y="-101.4" transform="matrix(0.7071 -0.7071 0.7071 0.7071 202.8347 299.3109)" class="st6" width="12.4" height="12.4"/>
						<polygon class="st7" points="358,-149.6 349.3,-158.3 330.3,-139.3 359.6,-110 399.2,-149.6 390.4,-158.3 359.6,-127.5 
							347.8,-139.3 						"/>
						
							<rect x="652.7" y="-239.7" transform="matrix(0.7071 -0.7071 0.7071 0.7071 358.0706 397.5279)" class="st6" width="12.4" height="12.4"/>
						
							<rect x="602.1" y="-29.5" transform="matrix(0.7071 -0.7071 0.7071 0.7071 194.6527 423.3136)" class="st6" width="12.4" height="12.4"/>
						
							<rect x="702.2" y="-212.5" transform="matrix(0.7071 -0.7071 0.7071 0.7071 353.3796 440.4835)" class="st6" width="12.4" height="12.4"/>
						
							<rect x="689.1" y="-229.5" transform="matrix(0.7071 -0.7071 0.7071 0.7071 358.3915 427.0755)" class="st6" width="11.2" height="20.8"/>
						<polygon class="st7" points="648.6,-232 640.7,-224.1 697.3,-167.5 726.6,-196.8 718.6,-204.7 697.3,-183.4 						"/>
						<polygon class="st7" points="697.3,-188 706,-196.8 698.1,-204.7 697.3,-203.9 669.2,-232 661.3,-224.1 						"/>
						<polygon class="st7" points="315.9,-237.2 307.9,-229.3 337.3,-199.9 366.6,-229.3 358.6,-237.2 337.3,-215.8 						"/>
						<polygon class="st7" points="285.6,-33.6 246,-73.2 237.3,-64.4 268.1,-33.6 256.3,-21.7 225.5,-52.6 216.7,-43.9 256.3,-4.3 
													"/>
						
							<rect x="845.6" y="-199.9" transform="matrix(0.7071 -0.7071 0.7071 0.7071 386.451 545.5789)" class="st6" width="12.4" height="12.4"/>
						
							<rect x="242.1" y="-5" transform="matrix(0.7071 -0.7071 0.7071 0.7071 56.4619 182.3111)" class="st6" width="12.4" height="56"/>
						<polygon class="st7" points="240.9,269.4 263,247.3 273.3,257.6 302.6,228.3 293.9,219.5 273.3,240.1 261.5,228.3 
							297.5,192.3 288.7,183.5 252.7,219.5 240.9,207.7 261.5,187.1 232.2,157.8 223.4,166.6 244,187.1 232.2,198.9 218.6,185.4 
							209.8,194.1 233.7,218 213.1,238.5 221.9,247.3 242.4,226.7 254.3,238.5 223.4,269.4 247.6,293.6 256.3,284.8 						"/>
						<polygon class="st7" points="267.1,149.2 244,126 280,90 248.1,58.1 239.4,66.9 262.5,90 226.5,126 258.4,157.9 						"/>
						<polygon class="st7" points="293.6,-215.2 285.7,-223.1 284.9,-222.3 270.1,-237.2 262.1,-229.2 284.9,-206.4 						"/>
						<polygon class="st7" points="289.5,-173.3 256.2,-206.6 223,-173.3 231.7,-164.6 256.2,-189.1 280.8,-164.6 						"/>
						<polygon class="st7" points="273.5,361.6 282.2,352.8 249,319.6 215.7,352.8 224.4,361.6 249,337 						"/>
						<polygon class="st7" points="216.1,-103.1 243.3,-130.4 258.7,-114.9 245.9,-102.1 254.6,-93.3 276.2,-114.9 243.3,-147.9 
							198.6,-103.1 225.5,-76.2 234.3,-84.9 						"/>
						<polygon class="st7" points="913.7,-203.1 905.8,-195.1 914.5,-186.4 942.9,-214.8 943.7,-214 943.9,-214.1 935.1,-222.8 
							914.5,-202.3 						"/>
						
							<rect x="897.3" y="-210.8" transform="matrix(0.7071 -0.7071 0.7071 0.7071 409.3065 578.938)" class="st6" width="12.4" height="12.4"/>
						<polygon class="st7" points="893.2,-203.1 885.2,-195.1 914.5,-165.8 951.7,-202.9 943.7,-210.9 914.5,-181.7 						"/>
						<polygon class="st7" points="989.8,90 953.8,126 985.7,157.9 994.4,149.2 971.3,126 1007.3,90 975.4,58.1 966.7,66.9 						
							"/>
						
							<rect x="960.6" y="491.9" transform="matrix(0.7071 -0.7071 0.7071 0.7071 -69.0535 829.5473)" class="st6" width="12.4" height="12.4"/>
						<polygon class="st7" points="928.7,376.7 1019.7,467.7 1049,438.4 1030,419.4 1021.2,428.1 1031.5,438.4 1019.7,450.2 
							967.5,398 977.8,387.7 969,379 958.7,389.3 937.4,367.9 						"/>
						<polygon class="st7" points="927.8,295.2 943.2,310.6 931.4,322.4 916,307 907.2,315.7 922.6,331.2 887.7,366.2 896.4,374.9 
							960.7,310.6 936.5,286.4 						"/>
						<polygon class="st7" points="968.2,207.7 988.8,187.1 959.5,157.8 950.7,166.6 971.3,187.1 959.5,198.9 945.9,185.4 
							937.1,194.1 961,218 940.4,238.5 949.2,247.3 969.7,226.7 981.6,238.5 950.7,269.4 974.9,293.6 983.6,284.8 968.2,269.4 
							990.3,247.3 1000.6,257.6 1029.9,228.3 1021.2,219.5 1000.6,240.1 988.8,228.3 1024.8,192.3 1016,183.5 980,219.5 						"/>
						<polygon class="st7" points="902.7,532.2 974.7,460.2 935.1,420.6 905.8,449.9 914.5,458.6 935.1,438.1 957.2,460.2 
							885.2,532.2 914.5,561.5 943.9,532.2 935.1,523.4 914.5,544 						"/>
						<polygon class="st7" points="951.7,361.6 976.3,337 1000.8,361.6 1009.5,352.8 976.3,319.6 943,352.8 						"/>
						<polygon class="st7" points="337.3,468.7 328.5,477.5 349.1,498 337.3,509.9 316.7,489.3 307.9,498 337.3,527.4 366.6,498 
													"/>
						<polygon class="st7" points="692.1,469.3 753.3,530.5 727.7,556.1 736.5,564.8 770.8,530.5 700.9,460.6 712.7,448.7 
							730.7,466.7 749.7,447.7 741,439 730.7,449.3 712.7,431.3 640.7,503.3 697.3,559.8 726.6,530.5 692.1,496 683.4,504.8 
							709.1,530.5 697.3,542.3 658.2,503.3 						"/>
						
							<rect x="271.7" y="489" transform="matrix(0.7071 -0.7071 0.7071 0.7071 -275.7619 344.4387)" class="st6" width="12.4" height="32.2"/>
						<polygon class="st7" points="489.2,561.5 458.3,530.7 470.2,518.8 501,549.7 530.3,520.4 521.6,511.6 501,532.2 478.9,510.1 
							518.2,470.8 509.5,462.1 459.9,511.6 429,480.8 420.3,489.5 451.1,520.4 439.3,532.2 408.5,501.4 379.1,530.7 387.9,539.4 
							408.5,518.8 430.6,540.9 420.3,551.2 459.9,590.8 468.6,582.1 437.8,551.2 449.6,539.4 480.5,570.3 						"/>
						<polygon class="st7" points="959,-164.6 983.5,-189.1 1008.1,-164.6 1016.8,-173.3 983.5,-206.6 950.3,-173.3 						"/>
						<polygon class="st7" points="958.1,-229.2 966.8,-220.5 975.6,-229.2 967.6,-237.2 966.8,-236.4 966,-237.2 						"/>
						<polygon class="st7" points="302.7,419.4 293.9,428.1 304.2,438.4 292.4,450.2 240.2,398 250.5,387.7 241.7,379 231.4,389.3 
							210.1,367.9 201.4,376.7 292.4,467.7 321.7,438.4 						"/>
						<polygon class="st7" points="995.4,-33.6 983.6,-21.7 952.8,-52.6 944,-43.9 983.6,-4.3 1012.9,-33.6 973.3,-73.2 
							964.6,-64.4 						"/>
						
							<rect x="900" y="-145.6" transform="matrix(0.7071 -0.7071 0.7071 0.7071 369.4901 613.2618)" class="st6" width="50.1" height="12.4"/>
						
							<rect x="969.4" y="-5" transform="matrix(0.7071 -0.7071 0.7071 0.7071 269.4776 696.5852)" class="st6" width="12.4" height="56"/>
						<polygon class="st7" points="952.8,-76.2 961.6,-84.9 943.4,-103.1 970.6,-130.4 986.1,-114.9 973.2,-102.1 981.9,-93.3 
							1003.5,-114.9 970.6,-147.9 925.9,-103.1 						"/>
						<polygon class="st7" points="520.7,421.6 451.1,352 398.5,404.6 407.2,413.3 451.1,369.4 503.3,421.6 462.1,462.7 
							449.3,449.9 440.5,458.6 462.1,480.2 						"/>
						<polygon class="st7" points="876.8,-84.5 868.1,-75.8 882.9,-60.9 862.8,-40.8 871.5,-32 900.4,-60.9 						"/>
						
							<rect x="872.2" y="331.9" transform="matrix(0.7071 -0.7071 0.7071 0.7071 19.7014 723.7515)" class="st6" width="22.6" height="12.4"/>
						
							<rect x="922.5" y="115.1" transform="matrix(0.7071 -0.7071 0.7071 0.7071 174.6816 697.0222)" class="st6" width="12.4" height="45.1"/>
						<polygon class="st7" points="778,414.9 739.5,376.4 712.7,403.2 731.7,422.2 740.5,413.5 730.2,403.2 739.5,393.9 
							769.2,423.7 						"/>
						
							<rect x="375" y="449" transform="matrix(0.7071 -0.7071 0.7071 0.7071 -200.9411 425.3325)" class="st6" width="75.9" height="12.4"/>
						<polygon class="st7" points="841,-18.9 872.1,12.2 860.3,24 829.2,-7.1 820.4,1.7 851.5,32.8 820.7,63.6 829.4,72.3 
							889.6,12.2 849.7,-27.7 						"/>
						<polygon class="st7" points="845.7,266.8 836.9,275.6 866.8,305.4 855,317.3 838.2,300.4 829.4,309.2 855,334.7 884.3,305.4 
													"/>
						
							<rect x="877.7" y="52.4" transform="matrix(0.7071 -0.7071 0.7071 0.7071 213.8495 643.6716)" class="st6" width="12.4" height="22.6"/>
						
							<rect x="347" y="430.4" transform="matrix(0.7071 -0.7071 0.7071 0.7071 -213.6511 381.0678)" class="st6" width="12.4" height="36.1"/>
						<polygon class="st7" points="907.8,190.3 875.9,222.1 851.4,197.6 842.7,206.4 875.9,239.6 916.6,199 						"/>
						<polygon class="st7" points="603.9,493.5 614.6,482.8 605.9,474.1 576.6,503.4 585.3,512.1 596,501.5 624.3,529.7 
							632.2,521.8 						"/>
						<polygon class="st7" points="879,-125.9 869.4,-116.4 859.9,-106.9 868.7,-98.1 879,-108.4 933.3,-54 942.1,-62.8 						"/>
						
							<rect x="340.5" y="199.8" transform="matrix(0.7071 -0.7071 0.7071 0.7071 -48.645 307.3486)" class="st6" width="12.4" height="25.2"/>
						<polygon class="st7" points="299.4,330.1 308.1,321.4 281.9,295.2 339.6,237.5 330.9,228.8 264.5,295.2 						"/>
						<polygon class="st7" points="366.6,233.9 438.6,305.9 495.2,249.3 465.9,220 431.4,254.4 440.2,263.2 465.9,237.5 
							477.7,249.3 438.6,288.4 404.7,254.4 465.9,193.2 532.7,260 541.4,251.3 465.9,175.7 395.9,245.7 384.1,233.9 402.1,215.9 
							365.3,179.1 356.6,187.9 384.6,215.9 						"/>
						<polygon class="st7" points="304.6,108.4 340.4,72.6 352.8,85 361.5,76.2 340.4,55.1 295.9,99.6 						"/>
						
							<rect x="456.9" y="402.3" transform="matrix(0.7071 -0.7071 0.7071 0.7071 -159.173 449.5648)" class="st6" width="12.4" height="29.3"/>
						
							<rect x="619.4" y="436" transform="matrix(0.7071 -0.7071 0.7071 0.7071 -118.8207 597.5849)" class="st6" width="85.1" height="12.4"/>
						
							<rect x="373.4" y="390.5" transform="matrix(0.7071 -0.7071 0.7071 0.7071 -169.311 384.6138)" class="st6" width="12.4" height="12.4"/>
						
							<rect x="544.5" y="479.2" transform="matrix(0.7071 -0.7071 0.7071 0.7071 -197.349 537.9588)" class="st6" width="12.4" height="56"/>
						
							<rect x="276.7" y="114.6" transform="matrix(0.7071 -0.7071 0.7071 0.7071 -8.1045 237.7074)" class="st6" width="12.4" height="28.1"/>
						<path class="st8" d="M904.8-152.6L872.4-185l-11.8,11.8l10.3,10.3L840-132l11.8,11.8l30.9-30.9l10.3,10.3L904.8-152.6
							L904.8-152.6z M851.8-123.3l-8.7-8.7l30.9-30.9l-10.3-10.3l8.7-8.7l29.3,29.3l-8.7,8.8l-10.3-10.3L851.8-123.3L851.8-123.3z"
							/>
						<path class="st8" d="M899.9-126l11.8,11.8l38.5-38.5l-11.8-11.8L899.9-126z M911.7-117.3L903-126l35.4-35.4l8.7,8.7
							L911.7-117.3z"/>
						<path class="st8" d="M948.3,7.6L991,50.3l11.8-11.8L960.1-4.2L948.3,7.6z M991,47.2L951.4,7.6l8.7-8.7l39.6,39.6L991,47.2
							L991,47.2z"/>
						<path class="st8" d="M390.6,430.9l-37.2-37.2l26.3-26.3l10.3,10.3l42.7-42.7l-11.8-11.8L390,354l-8.7-8.7l30.9-30.9
							l-11.8-11.8l-30.9,30.9l-8.7-8.7l30.9-30.9l-32.4-32.4l-11.8,11.8l20.6,20.6l-19,19l-31.6-31.6l-11.8,11.8l41.9,41.9
							l-30.9,30.9l11.8,11.8l30.9-30.9l8.7,8.7l-38.2,38.2l49.1,49.1L390.6,430.9L390.6,430.9z M370.9,355.6l-11.8-11.8l-30.9,30.9
							l-8.7-8.7l30.9-30.9l-41.9-41.9l8.7-8.7l31.6,31.6l22.1-22.1l-20.6-20.6l8.7-8.7l29.3,29.3l-30.9,30.9l11.8,11.8l30.9-30.9
							l8.7,8.7l-30.9,30.9l11.8,11.8l30.9-30.9l8.7,8.7l-39.6,39.6l-10.3-10.3L350,393.7l37.2,37.2l-8.7,8.7l-46-46L370.9,355.6
							L370.9,355.6z"/>
						<path class="st8" d="M364.5-29l11.8,11.8l30.9-30.9l8.7,8.7L385-8.5l32.4,32.4l11.8-11.8L408.6-8.5l19-19L467,11.8L478.8,0
							l-49.6-49.6l22.2-22.2l-11.8-11.8l-22.2,22.2l-8.7-8.7l30.9-30.9l-32.4-32.4l-11.8,11.8L416-101l-19,19l-10.3-10.3L344-49.6
							l11.8,11.8l30.9-30.9l8.7,8.7L364.5-29L364.5-29z M355.7-40.9l-8.7-8.7l39.6-39.6l10.3,10.3L419-101l-20.6-20.6l8.7-8.7
							l29.3,29.3l-30.8,30.8l11.8,11.8l22.2-22.2l8.7,8.7l-22.2,22.2l49.6,49.6L467,8.6l-39.3-39.3L405.6-8.6L426.2,12l-8.7,8.7
							L388.2-8.6l30.9-30.9l-11.9-11.7l-30.9,30.9l-8.7-8.7l30.9-30.9l-11.8-11.8L355.7-40.9L355.7-40.9z"/>
						<path class="st8" d="M744.4,136.8l-31.5,31.5l-8.7-8.7l21.1-21.1l-11.8-11.8l-21.2,21.1l-8.7-8.7l30.9-30.9l-27.3-27.3
							l-11.9,11.9l15.4,15.4l-19,19L617,72.5l-11.8,11.8l65,65l-30.9,30.9l11.8,11.8l30.9-30.9l8.7,8.7l-20.6,20.6l84,84l11.8-11.8
							l-72.1-72.1l8.7-8.7l10.3,10.3l43.4-43.4L744.4,136.8L744.4,136.8z M702.6,178.6l-11.8,11.8l72.1,72.1l-8.7,8.7l-80.9-80.9
							l20.6-20.6L682,158.1L651.1,189l-8.7-8.7l30.9-30.9l-65-65l8.7-8.7l54.7,54.7l22.1-22.1l-15.4-15.4l8.7-8.7l24.2,24.2
							l-30.9,30.9l11.8,11.8l21.1-21.1l8.7,8.7l-21,20.9l11.8,11.8l31.5-31.5l8.7,8.7l-40.3,40.3L702.6,178.6L702.6,178.6z"/>
						<path class="st8" d="M971.3,207.7l20.6-20.6l-32.4-32.4l-11.8,11.8l20.6,20.6l-8.7,8.7L946,182.2L934.2,194l23.9,23.9
							l-20.6,20.6l11.8,11.8l20.6-20.6l8.7,8.7l-30.9,30.9l27.3,27.3l11.8-11.8l-15.4-15.4l19-19l10.3,10.3l32.4-32.4l-11.8-11.8
							l-20.6,20.6l-8.7-8.7l36-36l-11.8-11.8l-36,36L971.3,207.7L971.3,207.7z M1016,183.5l8.7,8.7l-36,36l11.8,11.8l20.6-20.6
							l8.7,8.7l-29.3,29.3l-10.3-10.3l-22.1,22.1l15.4,15.4l-8.7,8.7l-24.2-24.2l30.9-30.9l-11.8-11.8L949.1,247l-8.7-8.7l20.6-20.6
							l-23.9-23.9l8.7-8.7l13.6,13.6l11.8-11.8l-20.6-20.6l8.7-8.7l29.3,29.3L968,207.5l11.8,11.8L1016,183.5L1016,183.5z"/>
						<path class="st8" d="M286.3,39L311,63.7l36-36l-47.8-47.8l-30,30L281,21.7l18.2-18.2l24.2,24.2L311,40l-12.9-12.9L286.3,39
							L286.3,39z M326.4,27.7L299.1,0.4L281,18.6l-8.7-8.7L299.2-17l44.7,44.7L311,60.6L289.4,39l8.7-8.7L311,43.2L326.4,27.7
							L326.4,27.7z"/>
						<path class="st8" d="M492,302.1l-11.8-11.8l-30.1,30.1l36,36l53.2-53.2l-30-30L497.5,285l18.2,18.2l-29.6,29.6l-12.3-12.3
							L492,302.1L492,302.1z M518.8,303.1l-18.2-18.2l8.7-8.7l26.9,26.9l-50.1,50.1l-32.9-32.9l27-27l8.7,8.7l-18.3,18.3l15.4,15.4
							L518.8,303.1L518.8,303.1z"/>
						<path class="st8" d="M523.8,421.6l-72.7-72.7l-55.7,55.7l11.8,11.8l43.9-43.9l49,49L462,459.6l-12.7-12.8l-11.8,11.8
							l24.7,24.7L523.8,421.6L523.8,421.6z M449.3,449.9l12.9,12.9l41.1-41.1l-52.1-52.1l-43.9,43.9l-8.7-8.7l52.6-52.6l69.6,69.6
							l-58.6,58.6l-21.6-21.6L449.3,449.9L449.3,449.9z"/>
						<path class="st8" d="M621.5,173.7L596.8,149l-36,36l47.8,47.8l30-30L626.8,191l-18.2,18.2L584.4,185l12.3-12.3l12.9,12.9
							L621.5,173.7L621.5,173.7z M581.3,185l27.3,27.3l18.2-18.2l8.7,8.7l-26.9,27l-44.7-44.7l32.9-32.9l21.6,21.6l-8.7,8.7
							l-12.9-12.9L581.3,185L581.3,185z"/>
						<path class="st8" d="M952.8-73.1l11.8-11.8l-18.2-18.2l24.2-24.2l12.4,12.4L970.1-102l11.8,11.8l24.7-24.7l-36-36l-47.8,47.8
							L952.8-73.1L952.8-73.1z M1003.5-114.9l-21.6,21.6l-8.7-8.7l12.9-12.9l-15.4-15.4L943.4-103l18.2,18.2l-8.7,8.7L926-103
							l44.7-44.7L1003.5-114.9L1003.5-114.9z"/>
						<path class="st8" d="M337.3,465.6l-11.8,11.8l20.6,20.6l-8.7,8.7l-20.6-20.6L305,497.9l32.4,32.4l32.4-32.4L337.3,465.6
							L337.3,465.6z M307.9,498l8.7-8.7l20.6,20.6l11.8-11.8l-20.6-20.6l8.7-8.7l29.3,29.3l-29.3,29.3L307.9,498L307.9,498z"/>
						<path class="st8" d="M310.8,181.2l11.8,11.8l29-29l-32.4-32.4l-29,29l11.8,11.8l17.2-17.2l8.7,8.7L310.8,181.2L310.8,181.2z
							 M302,169.4l-8.7-8.7l25.9-25.9l29.3,29.3L322.6,190l-8.7-8.7l17.2-17.2l-11.8-11.8L302,169.4L302,169.4z"/>
						<path class="st8" d="M465.8-45l86.5-86.5l-32.4-32.4l-45.5,45.5l11.8,11.8l33.6-33.6l8.7,8.7l-74.7,74.7L465.8-45L465.8-45z
							 M519.8-143.3l-33.7,33.7l-8.7-8.7l42.5-42.5l29.3,29.3l-83.4,83.4l-8.7-8.7l74.7-74.7L519.8-143.3L519.8-143.3z"/>
						<path class="st8" d="M712.5,257.9l-11.9,11.9l22.8,22.8l-8.7,8.7l-52.2-52.2l-11.8,11.8l64,64l32.4-32.4L712.5,257.9
							L712.5,257.9z M653.7,260.9l8.7-8.7l52.2,52.2l11.8-11.8l-22.7-22.8l8.7-8.7l31.5,31.5l-29.3,29.3L653.7,260.9L653.7,260.9z"
							/>
						<path class="st8" d="M845.7,263.7l-11.8,11.8l29.9,29.9l-8.7,8.7l-16.8-16.8l-11.8,11.8l28.5,28.7l32.4-32.4L845.7,263.7
							L845.7,263.7z M829.4,309.2l8.7-8.7l16.8,16.8l11.8-11.8l-29.9-29.9l8.7-8.7l38.6,38.6L855,334.8L829.4,309.2L829.4,309.2z"/>
						<path class="st8" d="M930.3,230.8L918.5,219l-46.9,46.9l32.4,32.4l32.4-32.4l-11.8-11.8L904,274.6l-8.7-8.7L930.3,230.8
							L930.3,230.8z M924.6,257.1l8.7,8.7L904,295.2l-29.3-29.3l43.8-43.8l8.7,8.7l-35.1,35.1l11.8,11.8L924.6,257.1L924.6,257.1z"
							/>
						<path class="st8" d="M818.2-192.1l-38,38l11.8,11.9l26.2-26.2l8.7,8.7l-20.5,20.6l11.8,11.8l32.4-32.4L818.2-192.1
							L818.2-192.1z M809.5-139.1l20.6-20.6l-11.8-11.8L792-145.3l-8.7-8.7l34.9-34.9l29.3,29.3l-29.3,29.3L809.5-139.1L809.5-139.1
							z"/>
						<path class="st8" d="M992.4-33.6l-8.7,8.7l-30.9-30.9L941-44l42.7,42.7l32.4-32.4l-42.7-42.7l-11.8,11.8L992.4-33.6
							L992.4-33.6z M1012.9-33.6L983.6-4.3L944-43.9l8.7-8.7l30.9,30.9l11.8-11.8l-30.9-30.9l8.7-8.7L1012.9-33.6L1012.9-33.6z"/>
						<path class="st8" d="M321.8,397.2l-29.3-29.3l-11.7,11.9l7.5,7.5l-20.6,20.6l11,11l20.6-20.6L310,409L321.8,397.2z
							 M278.7,415.9l-7.9-7.9l20.6-20.6l-7.5-7.5l8.7-8.7l26.2,26.2l-8.7,8.7l-10.7-10.7L278.7,415.9z"/>
						<path class="st8" d="M327.7-53.7L299.4-82l10.7-10.7l-11.8-11.8l-32.4,32.4l11.8,11.8L288.4-71l28.3,28.3L327.7-53.7z
							 M277.7-63.4l-8.7-8.7l29.3-29.3l8.7,8.7L296.3-82l28.3,28.3l-7.9,7.9l-28.3-28.3L277.7-63.4z"/>
						<path class="st8" d="M304.6,111.4l35.8-35.8L352.8,88l11.8-11.8L340.4,52l-47.6,47.6L304.6,111.4z M361.5,76.2l-8.7,8.7
							l-12.4-12.4l-35.8,35.8l-8.7-8.7l44.5-44.5L361.5,76.2z"/>
						<path class="st8" d="M786.7,55.7l-11.8,11.8l19.7,19.7L756.8,125l11.8,11.8l49.7-49.7L786.7,55.7L786.7,55.7z M759.8,125.1
							l37.8-37.8l-19.7-19.7l8.7-8.7l28.5,28.5l-46.5,46.4L759.8,125.1L759.8,125.1z"/>
						<path class="st8" d="M733-44.5l-32.2-32.2l-65.4,65.4l11.8,11.8l53.6-53.6l20.4,20.4L733-44.5L733-44.5z M647.2-2.5l-8.7-8.7
							l62.3-62.3l29.1,29.1l-8.7,8.7l-20.4-20.4L647.2-2.5L647.2-2.5z"/>
						<path class="st8" d="M913.4,382.9l-11.8,11.8l5.1,5.1l-18,18l11.8,11.8l29.8-29.8L913.4,382.9L913.4,382.9z M891.8,417.8
							l18-18l-5.1-5.1l8.7-8.7l13.9,13.9l-26.7,26.7L891.8,417.8L891.8,417.8z"/>
						<path class="st8" d="M847.3-73.8l12.9-12.9l-11.8-11.8l-24.7,24.7l22.1,22.1l11.8-11.8L847.3-73.8L847.3-73.8z M826.8-73.8
							l21.6-21.6l8.7,8.7l-12.9,12.9l10.3,10.3l-8.7,8.7L826.8-73.8L826.8-73.8z"/>
						<path class="st8" d="M731.1-22.7L799.8,46l22.1-22.1l-11.8-11.8l-10.3,10.3l-56.8-57L731.1-22.7L731.1-22.7z M810.1,15.1
							l8.7,8.7l-19,19l-65.6-65.6l8.7-8.7l56.9,56.9L810.1,15.1L810.1,15.1z"/>
						<path class="st8" d="M876.8-87.6L865-75.8l14.9,14.9l-20.1,20.1L871.6-29l31.9-31.9L876.8-87.6L876.8-87.6z M862.8-40.8
							l20.1-20.1L868-75.8l8.7-8.7l23.6,23.6L871.4-32L862.8-40.8L862.8-40.8z"/>
						<path class="st8" d="M363.5,233.9l75.1,75.1l59.7-59.7l-32.4-32.4l-37.5,37.5l11.8,11.8l25.7-25.7l8.7,8.7l-36,36l-30.9-30.9
							l58.1-58.1l66.8,66.8l11.8-11.8l-78.6-78.6l-69.9,69.9l-8.7-8.7l18-18L365.4,176l-11.8,11.8l28,28L363.5,233.9L363.5,233.9z
							 M365.3,179.1l36.8,36.8l-18,18l11.8,11.8l69.9-69.9l75.5,75.5l-8.7,8.7l-66.8-66.8l-61.2,61.2l33.9,33.9l39.1-39.1
							l-11.8-11.8l-25.7,25.7l-8.7-8.7l34.5-34.5l29.3,29.3l-56.6,56.6l-72-72l18-18l-28-28L365.3,179.1L365.3,179.1z"/>
						<path class="st8" d="M650.1,410.9l-76.2-76.2l-32.4,32.4l49.1,49.1l11.8-11.8l-37.2-37.2l8.7-8.7l52.5,52.5l-30.8,30.8
							L521,367.2l20.6-20.6l-11.8-11.8l-32.4,32.4l86.5,86.5l-8.7,8.7l-34.7-34.6l-22.1,22.1l11.8,11.8l10.3-10.3l34.5,34.5
							L650.1,410.9L650.1,410.9z M530.2,458.7l-8.7-8.7l19-19l34.5,34.5l11.8-11.8l-86.5-86.5l29.3-29.3l8.7,8.7l-20.6,20.6
							l77.7,77.7l33.9-33.9l-55.6-55.6l-11.8,11.8l37.2,37.2l-8.7,8.7l-46-46l29.3-29.3l73.1,73.1l-72,72l-34.5-34.5L530.2,458.7
							L530.2,458.7z"/>
						<path class="st8" d="M696.3-28.8L658.4,9.1l11.8,11.8l26-26l8.7,8.7L638.5,70l22.1,22.1l11.8-11.8L662.1,70l54.6-54.6
							l30.9,30.9L721.9,72l-8.7-8.7l15.4-15.4l-11.8-11.8l-27.3,27.3l32.4,32.4l49.4-49.4L696.3-28.8L696.3-28.8z M692.7,63.2
							L716.9,39l8.7,8.7l-15.4,15.4L722,74.9l28.8-28.8l-33.9-33.9l-57.6,57.6l10.3,10.3l-8.7,8.7l-19-19l66.4-66.4l-12-11.6l-26,26
							l-8.7-8.7l34.8-34.8l72,72L722,92.6L692.7,63.2L692.7,63.2z"/>
						<path class="st8" d="M855.9,96.2l31.7,31.7l22.1-22.1L897.9,94l-10.3,10.3l-31.7-31.7l-75.1,75.1l49.4,49.4l32.4-32.4
							l-29.8-29.9L821,146.6l18,18l-8.7,8.7l-25.7-25.7l30.9-30.9l47.8,47.8l-20.6,20.6l11.8,11.8l32.4-32.4l-59.7-59.7L855.9,96.2
							L855.9,96.2z M874.4,193.9l-8.7-8.7l20.6-20.6l-50.9-50.9l-33.9,33.9l28.8,28.8l11.8-11.8l-18-18l8.7-8.7l26.7,26.7
							l-29.3,29.3l-46.3-46.3l72-72l31.7,31.7L897.9,97l8.7,8.7l-19,19L855.9,93l-11.8,11.8l59.7,59.7L874.4,193.9L874.4,193.9z"/>
						<path class="st8" d="M692.1,472.4l58.1,58.1l-25.6,25.6l11.8,11.8l37.4-37.4l-69.9-69.9l8.7-8.7l18,18l22.1-22.1L741,435.9
							l-10.3,10.3l-18-18l-75.1,75.1l59.7,59.7l32.4-32.4l-37.5-37.5l-11.9,11.7l25.7,25.7l-8.7,8.7l-36-36L692.1,472.4L692.1,472.4
							z M709.1,530.5l-25.7-25.7l8.7-8.7l34.5,34.5l-29.3,29.2l-56.6-56.6l72-72l18,18l10.3-10.3l8.7,8.7l-19,19l-18-18l-11.8,11.8
							l69.9,69.9l-34.3,34.3l-8.7-8.7l25.6-25.6l-61.2-61.2L658.3,503l39.1,39.1L709.1,530.5L709.1,530.5z"/>
						<path class="st8" d="M879-129l-22.1,22.1l11.8,11.8l10.3-10.3L933.4-51l11.8-11.8L879-129L879-129z M879-108.4l-10.3,10.3
							l-8.7-8.7l9.5-9.5l9.5-9.5l63.1,63.1l-8.7,8.7L879-108.4L879-108.4z"/>
						<path class="st8" d="M951.7,364.7l24.5-24.5l24.5,24.5l11.8-11.8l-36.4-36.4l-36.2,36.3L951.7,364.7z M1009.5,352.8l-8.7,8.7
							L976.3,337l-24.5,24.5l-8.8-8.7l33.3-33.3L1009.5,352.8z"/>
						<path class="st8" d="M796.1-22.8l29.7-29.7L814-64.3l-41.5,41.5l26.1,26.1l11.8-11.8L796.1-22.8z M775.5-22.8l38.4-38.4
							l8.7,8.7L793-22.8l14.2,14.2l-8.7,8.7L775.5-22.8L775.5-22.8z"/>
						<path class="st8" d="M273.5,364.7l11.8-11.8L249,316.5l-36.4,36.3l11.8,11.8l24.5-24.5L273.5,364.7L273.5,364.7z M224.4,361.6
							l-8.7-8.7l33.3-33.3l33.3,33.3l-8.7,8.7L249,337L224.4,361.6L224.4,361.6z"/>
						<path class="st8" d="M299.4,333.2l11.8-11.8L285,295.2l57.7-57.7l-11.8-11.8l-69.5,69.5L299.4,333.2z M339.6,237.5l-57.7,57.7
							l26.1,26.1l-8.7,8.7l-34.9-34.9l66.4-66.4L339.6,237.5z"/>
						<path class="st8" d="M348.1-72l11.8-11.8l-55.5-55.6l32.5-32.5L325-183.7l-44.3,44.3L348.1-72z M333.8-171.9l-32.5,32.5
							l55.5,55.5l-8.7,8.7l-64.3-64.2l41.2-41.2L333.8-171.9L333.8-171.9z"/>
						<path class="st8" d="M509.5,151.1l-36.4-36.4l-30.7,30.7l11.8,11.8l18.9-18.9l24.5,24.5L509.5,151.1L509.5,151.1z
							 M454.3,154.2l-8.7-8.7l27.6-27.6l33.3,33.3l-8.7,8.7l-24.5-24.5L454.3,154.2L454.3,154.2z"/>
						<path class="st8" d="M581.5-48.8L550.6-18L587,18.4l11.8-11.8l-24.5-24.5l19-19L581.5-48.8L581.5-48.8z M595.8,6.6l-8.7,8.7
							L553.8-18l27.8-27.8l8.7,8.7l-19,19L595.8,6.6L595.8,6.6z"/>
						<path class="st8" d="M907.8,187.2l-31.9,31.9l-24.5-24.5l-11.8,11.8l36.4,36.4l43.7-43.7L907.8,187.2L907.8,187.2z
							 M842.7,206.4l8.7-8.7l24.5,24.5l31.9-31.9l8.7,8.7l-40.6,40.6L842.7,206.4L842.7,206.4z"/>
						<path class="st8" d="M786-133.9l-18.9-18.9l24.5-24.5l-11.8-11.9l-36.4,36.4l30.7,30.7C774.2-122.1,786-133.9,786-133.9z
							 M779.8-186.1l8.7,8.7L764-152.8l18.9,18.9l-8.7,8.7l-27.7-27.6L779.8-186.1L779.8-186.1z"/>
						<path class="st8" d="M959-161.5l24.5-24.5l24.5,24.5l11.8-11.8l-36.4-36.4L947-173.3L959-161.5z M1016.8-173.3l-8.7,8.7
							l-24.5-24.5L959-164.6l-8.7-8.7l33.3-33.3C983.5-206.6,1016.8-173.3,1016.8-173.3z"/>
						<path class="st8" d="M966.8,509.9l11.8-11.8l-11.8-11.8L955,498.1L966.8,509.9z M975.6,498.1l-8.7,8.7l-8.7-8.7l8.7-8.7
							L975.6,498.1z"/>
						<path class="st8" d="M450.8-95.2l11.8,11.8l11.9-11.8L462.7-107L450.8-95.2z M462.7-86.5l-8.7-8.7l8.7-8.7l8.7,8.7L462.7-86.5
							z"/>
						<path class="st8" d="M284.9,78.7l11.8-11.8l-11.8-11.8l-11.8,11.8L284.9,78.7z M293.7,66.9l-8.7,8.7l-8.7-8.7l8.7-8.7
							L293.7,66.9z"/>
						<path class="st8" d="M387.6,109.9l-11.8-11.8L364,109.9l11.8,11.8L387.6,109.9z M375.8,101.1l8.7,8.7l-8.7,8.7l-8.7-8.7
							L375.8,101.1z"/>
						<path class="st8" d="M379.6,408.5l11.8-11.8l-11.8-11.8l-11.8,11.8L379.6,408.5z M388.3,396.7l-8.7,8.7l-8.7-8.7l8.7-8.7
							L388.3,396.7z"/>
						<path class="st8" d="M297.8-193.9l11.8,11.8l11.8-11.8l-11.8-11.8L297.8-193.9z M309.7-185.2l-8.7-8.7l8.7-8.7l8.7,8.7
							L309.7-185.2z"/>
						<path class="st8" d="M562.1-120.2L527.9-86l11.9,11.8l34.2-34.2L562.1-120.2L562.1-120.2z M531-86l31.1-31.1l8.7,8.7
							l-31.1,31.1L531-86z"/>
						<path class="st8" d="M609.8-70.3l-25.1-25.1l-11.8,11.8L598-58.4L609.8-70.3z M584.7-92.3l22,22l-8.7,8.7l-22-22L584.7-92.3
							L584.7-92.3z"/>
						<path class="st8" d="M351.3,228.8l11.8-11.8l-20.9-20.9l-11.8,11.8L351.3,228.8z M360,216.9l-8.7,8.7l-17.9-17.8l8.7-8.7
							L360,216.9z"/>
						<path class="st8" d="M368.1-163.7l11.9-11.8l-25.1-25.1L343-188.8L368.1-163.7L368.1-163.7z M376.9-175.5l-8.7,8.7l-22-22
							l8.7-8.7L376.9-175.5z"/>
						<path class="st8" d="M453.1-126.5L428-151.6l-11.8,11.8l25.1,25.1L453.1-126.5L453.1-126.5z M428-148.5l22,22l-8.7,8.7l-22-22
							L428-148.5z"/>
						<path class="st8" d="M575.6-183.4l23,23l11.8-11.8l-23-23L575.6-183.4z M598.5-163.6l-19.9-19.9l8.7-8.7l19.9,19.9
							L598.5-163.6z"/>
						<path class="st8" d="M270.9,486.3l-11.8,11.8L285,524l11.8-11.8L270.9,486.3L270.9,486.3z M262.1,498.1l8.7-8.7l22.8,22.8
							l-8.7,8.7L262.1,498.1L262.1,498.1z"/>
						<path class="st8" d="M288.5,146.1l11.8-11.8l-23-23l-11.8,11.8L288.5,146.1z M297.2,134.2l-8.7,8.7L268.6,123l8.7-8.7
							L297.2,134.2z"/>
						<path class="st8" d="M770.5,91l-11.8-11.8l-36.5,36.5l11.8,11.8L770.5,91z M758.7,82.3l8.7,8.7L734,124.4l-8.7-8.7L758.7,82.3
							z"/>
						<path class="st8" d="M825.3,372.1l-11.8,11.8l11.8,11.8l11.8-11.8L825.3,372.1z M816.5,383.9l8.7-8.7l8.7,8.7l-8.7,8.7
							L816.5,383.9z"/>
						<path class="st8" d="M733.3,364.6l-11.8-11.8l-11.8,11.8l11.8,11.8L733.3,364.6z M721.5,355.9l8.7,8.7l-8.7,8.7l-8.7-8.7
							L721.5,355.9z"/>
						<path class="st8" d="M649.1,390.5l11.8,11.8l11.8-11.8l-11.8-11.8L649.1,390.5z M660.9,399.3l-8.7-8.7l8.7-8.7l8.7,8.7
							L660.9,399.3z"/>
						<path class="st8" d="M562.8,325L551,313.2L539.2,325l11.8,11.8L562.8,325z M550.9,316.3l8.7,8.7l-8.7,8.7l-8.7-8.7
							L550.9,316.3z"/>
						<path class="st8" d="M480.9,423l-23.8-23.8L445.3,411l23.8,23.8L480.9,423z M457.1,402.3l20.7,20.7l-8.7,8.7L448.4,411
							L457.1,402.3L457.1,402.3z"/>
						<path class="st8" d="M841.1,472.2l11.8-11.8l-11.8-11.8l-11.8,11.8L841.1,472.2z M849.9,460.4l-8.7,8.7l-8.7-8.7l8.7-8.7
							L849.9,460.4z"/>
						<path class="st8" d="M857.2,427.6l11.8-11.8l-22.1-22.1l-11.8,11.8L857.2,427.6z M865.9,415.8l-8.7,8.7l-19-19l8.7-8.7
							L865.9,415.8z"/>
						<path class="st8" d="M734.4-88.6l-11.8,11.8l23.5,23.5l11.8-11.8L734.4-88.6z M725.7-76.8l8.7-8.7l20.4,20.4l-8.7,8.7
							L725.7-76.8z"/>
						<path class="st8" d="M923.8,185.9l11.8-11.8l-11.8-11.8L912,174.1L923.8,185.9z M932.5,174.1l-8.7,8.7l-8.7-8.7l8.7-8.7
							L932.5,174.1z"/>
						<path class="st8" d="M871.8,253.2L860,241.4l-11.8,11.8L860,265L871.8,253.2z M860,244.5l8.7,8.7l-8.7,8.7l-8.7-8.7L860,244.5
							z"/>
						<path class="st8" d="M620.1-23.3l-11.8-11.8l-11.8,11.8l11.8,11.8L620.1-23.3z M608.3-32.1l8.7,8.7l-8.7,8.7l-8.7-8.7
							L608.3-32.1z"/>
						<path class="st8" d="M636,140.5l-11.8,11.8l11.8,11.8l11.8-11.8L636,140.5z M627.2,152.3l8.7-8.7l8.7,8.7l-8.7,8.7
							L627.2,152.3z"/>
						<path class="st8" d="M880.2,48.2L868.4,60l19.1,19.1l11.8-11.8L880.2,48.2z M871.5,60.1l8.7-8.7l16,16l-8.7,8.7L871.5,60.1z"
							/>
						<path class="st8" d="M887.1,322.6L868,341.7l11.8,11.8l19.1-19.1L887.1,322.6z M871.1,341.7l16-16l8.7,8.7l-16,16L871.1,341.7
							z"/>
						<path class="st8" d="M851.8-205.5L840-193.7l11.8,11.8l11.8-11.8L851.8-205.5z M843.1-193.7l8.7-8.7l8.7,8.7l-8.7,8.7
							L843.1-193.7z"/>
						<path class="st8" d="M503.1,43.9l11.8-11.8l-10.7-10.7l19-19l72,72l53-53L622.4-4.4L610.6,7.4l13.9,13.9l-29.3,29.3l-72-72
							l-42.7,42.7L503.1,43.9L503.1,43.9z M523.3-18.3l72,72l32.4-32.4L613.8,7.4l8.7-8.7l22.7,22.7l-49.9,49.9l-72-72l-22.1,22.1
							l10.7,10.7l-8.7,8.7l-19.4-19.4L523.3-18.3L523.3-18.3z"/>
						<path class="st8" d="M805.7,198.2l-39.3,39.3l11.8,11.8l27.4-27.4l19,19l-73.3,73.3l32.4,32.4l32.4-32.4l-11.8-11.8L783.7,323
							l-8.7-8.7l73.3-73.3L805.7,198.2L805.7,198.2z M783.9,326l20.6-20.6l8.7,8.7l-29.3,29.3l-29.3-29.3l73.3-73.3l-22.2-22
							l-27.4,27.4l-8.7-8.7l36.2-36.2l39.6,39.6l-73.3,73.3L783.9,326L783.9,326z"/>
						<path class="st8" d="M966.2,47.7L923.5,5l-32.4,32.4l11.8,11.8l20.6-20.6l19,19l-35.1,35.1l32.4,32.4l24.7-24.7l-11.8-11.8
							l-12.9,12.9l-8.7-8.7L966.2,47.7L966.2,47.7z M952.7,81.7l8.7,8.7L939.8,112l-29.3-29.3l35.1-35.1l-22.1-22.1l-20.6,20.6
							l-8.7-8.7l29.3-29.3l39.6,39.6l-35.1,35l11.8,11.8L952.7,81.7L952.7,81.7z"/>
						<path class="st8" d="M361.1-149.6l-11.8-11.8l-22.1,22.1l32.4,32.4l42.7-42.7l-11.8-11.8l-30.9,30.9l-8.7-8.7L361.1-149.6
							L361.1-149.6z M390.4-158.3l8.7,8.7L359.5-110l-29.2-29.3l19-19l8.7,8.7l-10.2,10.3l11.8,11.8L390.4-158.3L390.4-158.3z"/>
						<path class="st8" d="M413.3,135.9l8.7-8.7l10.3,10.3l11.8-11.8L422,103.5l-32.4,32.4l42.7,42.7l11.8-11.8L413.3,135.9
							L413.3,135.9z M392.7,135.9l29.3-29.3l19,19l-8.7,8.7L422,124.1l-11.8,11.8l30.9,30.9l-8.7,8.7L392.7,135.9L392.7,135.9z"/>
						<path class="st8" d="M766,178.7l-11.8-11.9L725,196l32.4,32.4l42.7-42.7l-11.8-11.8l-30.9,30.9l-8.7-8.7L766,178.7L766,178.7z
							 M788.3,177l8.7,8.7l-39.6,39.6L728.1,196l26.1-26.1l8.7,8.7l-17.3,17.3l11.8,11.8L788.3,177L788.3,177z"/>
						<path class="st8" d="M606-144.2l11.8,11.8l30.9-30.9l8.7,8.7l-10.3,10.3l11.9,11.9l22.1-22.1l-32.4-32.4L606-144.2L606-144.2z
							 M659-135.5l-8.8-8.7l10.3-10.3l-11.8-11.8l-30.9,30.9l-8.7-8.8l39.6-39.6l29.3,29.3L659-135.5L659-135.5z"/>
						<path class="st8" d="M370.8,26.6L355.4,42l24.7,24.7l11.8-11.8L379,42l15.4-15.4L333-34.9l-11.8,11.8L370.8,26.6L370.8,26.6z
							 M391.4,26.6L376,42l12.9,12.9l-8.7,8.7L358.6,42L374,26.6L324.4-23l8.7-8.7L391.4,26.6L391.4,26.6z"/>
						<path class="st8" d="M510.2,195.7l43.9,43.9l11.8-11.8l-32-32l15.4-15.4l-24.7-24.7l-11.8,11.8l12.9,12.9L510.2,195.7
							L510.2,195.7z M524.6,158.7l21.6,21.6l-15.4,15.4l32,32l-8.7,8.7l-40.8-40.8l15.4-15.4l-12.9-12.9L524.6,158.7L524.6,158.7z"
							/>
						<path class="st8" d="M528.3,43.5l-11.8,11.8l12.9,12.9l-37.7,37.6l58.5,58.5l11.8-11.8l-46.6-46.7L553,68.2L528.3,43.5
							L528.3,43.5z M559,152.5l-8.7,8.7l-55.5-55.4l37.6-37.6l-12.9-12.9l8.7-8.7l21.6,21.6l-37.5,37.6L559,152.5L559,152.5z"/>
						<path class="st8" d="M490.4-18.9l30.5-30.5l19.8,19.8l29.7-29.7l-11.8-11.8l-17.9,17.9L520.9-73l-42.4,42.4L490.4-18.9
							L490.4-18.9z M540.7-50.2l17.9-17.9l8.7,8.7l-26.6,26.6l-19.8-19.8l-30.5,30.5l-8.7-8.7L521-70.1L540.7-50.2L540.7-50.2z"/>
						<path class="st8" d="M650.5,279.4l-11.8,11.8l52.3,52.3l-21.2,21.2l27.4,27.4l11.8-11.8l-15.6-15.6l21.2-21.2L650.5,279.4z
							 M690.4,364.6l15.6,15.6l-8.7,8.7L673,364.6l21.2-21.2l-52.3-52.3l8.7-8.7l61,61L690.4,364.6L690.4,364.6z"/>
						<path class="st8" d="M821.6,455.5l-11.8-11.8l-6.2,6.2l-15.4-15.4L765.7,457l11.8,11.8l10.7-10.7l15.4,15.4L821.6,455.5z
							 M777.4,465.8l-8.7-8.7l19.4-19.4l15.4,15.4l6.2-6.2l8.7,8.7l-15,15L788,455.2L777.4,465.8z"/>
						<path class="st8" d="M986.7,90l-36,36l35,35l11.8-11.8l-23.1-23.1l36-36l-35-35l-11.8,11.8L986.7,90z M1007.3,90l-36,36
							l23.1,23.1l-8.7,8.7l-31.9-31.9l36-36l-23.1-23.1l8.7-8.7L1007.3,90z"/>
						<path class="st8" d="M232.9-4.3L221,7.6l42.7,42.7l11.8-11.8L232.9-4.3L232.9-4.3z M224.1,7.6l8.7-8.7l39.6,39.6l-8.7,8.7
							L224.1,7.6L224.1,7.6z"/>
						<path class="st8" d="M244,269.4l19-19l10.3,10.3l32.4-32.4l-11.8-11.8l-20.6,20.6l-8.7-8.7l36-36l-11.8-11.8l-36,36l-8.7-8.7
							l20.6-20.6l-32.4-32.4l-11.8,11.8l20.6,20.6l-8.7,8.7l-13.6-13.6L207,194.2l23.9,23.9l-20.6,20.6l11.8,11.8l20.6-20.6l8.7,8.7
							l-30.9,30.9l27.3,27.3l11.8-11.8L244,269.4L244,269.4z M223.4,269.4l30.9-30.9l-11.8-11.8l-20.6,20.6l-8.7-8.7l20.6-20.6
							l-23.9-23.9l8.7-8.7l13.6,13.6l11.8-11.8l-20.6-20.6l8.7-8.7l29.3,29.3l-20.6,20.6l11.8,11.8l36-36l8.7,8.7l-36,36l11.8,11.8
							l20.6-20.6l8.7,8.7l-29.3,29.3L263,247.3l-22.1,22.1l15.4,15.4l-8.7,8.7L223.4,269.4L223.4,269.4z"/>
						<path class="st8" d="M219.2-103.1l24.2-24.2l12.3,12.3l-12.9,12.9l11.8,11.9l24.7-24.7l-36-36l-47.8,47.8l30,30l11.8-11.8
							L219.2-103.1L219.2-103.1z M198.6-103.1l44.7-44.7l32.9,32.9l-21.6,21.6l-8.7-8.7l12.9-12.9l-15.4-15.4L216.1-103l18.2,18.2
							l-8.7,8.7L198.6-103.1L198.6-103.1z"/>
						<path class="st8" d="M288.7-33.6L246-76.3l-11.8,11.8l30.9,30.9l-8.7,8.7l-30.9-30.9L213.7-44l42.7,42.7L288.7-33.6
							L288.7-33.6z M225.5-52.6l30.9,30.9l11.8-11.8l-30.9-30.9l8.7-8.8l39.6,39.6L256.3-4.3l-39.6-39.6L225.5-52.6L225.5-52.6z"/>
						<path class="st8" d="M292.6-173.3l-36.4-36.4l-36.4,36.4l11.8,11.8l24.5-24.5l24.5,24.5L292.6-173.3L292.6-173.3z
							 M231.7-164.6l-8.7-8.7l33.3-33.3l33.3,33.3l-8.7,8.7l-24.5-24.5L231.7-164.6L231.7-164.6z"/>
						<path class="st8" d="M270.2,149.2l-23.1-23.1l36-36l-35-35l-11.8,11.8L259.4,90l-36,36l35,35L270.2,149.2z M262.5,90
							l-23.1-23.1l8.7-8.7L280,90.1l-36,36l23.1,23.1l-8.7,8.7L226.5,126L262.5,90L262.5,90z"/>
						<path class="st8" d="M566.1,534.4l11.8-11.8l-42.7-42.7l-11.8,11.8L566.1,534.4z M574.9,522.6l-8.7,8.7l-39.6-39.6l8.7-8.7
							L574.9,522.6z"/>
						<path class="st8" d="M492.3,561.5l-30.9-30.9l8.7-8.7l30.9,30.9l32.4-32.4l-11.8-11.8L501,529.1l-19-19l39.3-39.3L509.5,459
							l-49.6,49.6L429,477.7l-11.8,11.8l30.9,30.9l-8.7,8.7l-30.9-30.9l-32.4,32.4l11.8,11.8l20.6-20.6l19,19l-10.3,10.3l42.7,42.7
							l11.8-11.8l-30.9-30.9l8.7-8.7l30.9,30.9L492.3,561.5L492.3,561.5z M437.8,551.2l30.9,30.9l-8.7,8.7l-39.6-39.6l10.3-10.3
							l-22.2-22.1l-20.6,20.6l-8.7-8.7l29.3-29.3l30.9,30.9l11.8-11.8l-30.9-30.9l8.7-8.7l30.9,30.9l49.6-49.6l8.7,8.7l-39.3,39.3
							l22.1,22.1l20.6-20.6l8.7,8.7L501,549.7l-30.8-30.9l-11.8,11.8l30.9,30.9l-8.7,8.7l-30.9-30.9L437.8,551.2L437.8,551.2z"/>
						<path class="st8" d="M607,493.5l10.7-10.7L605.9,471l-32.4,32.4l11.8,11.8l10.7-10.7l28.3,28.3l11-11L607,493.5z M596,501.5
							l-10.7,10.7l-8.7-8.7l29.3-29.3l8.7,8.7l-10.7,10.7l28.3,28.3l-7.9,7.9L596,501.5L596,501.5z"/>
						<path class="st8" d="M885.8,512.2l-36.3-36.4l-36.4,36.4l11.8,11.8l24.5-24.5l24.5,24.5L885.8,512.2z M825,520.9l-8.7-8.7
							l33.3-33.3l33.3,33.3l-8.7,8.7l-24.5-24.5L825,520.9z"/>
						<path class="st8" d="M905.8,532.2l72-72l-42.7-42.7l-32.4,32.4l11.8,11.8l20.6-20.6l19,19l-72,72l32.4,32.4l32.4-32.4
							l-11.8-11.8l-20.6,20.6L905.8,532.2L905.8,532.2z M935.1,523.4l8.7,8.7l-29.3,29.3l-29.3-29.3l72-72L935.1,438l-20.6,20.6
							l-8.7-8.7l29.3-29.3l39.6,39.6l-72,72l11.8,11.8L935.1,523.4L935.1,523.4z"/>
						<path class="st8" d="M889.1-27.2l24.7,24.7l10.3-10.3l10.3,10.3l11.8-11.8l-22.1-22.1l-10.3,10.2l-12.9-12.9L889.1-27.2
							L889.1-27.2z M924.1-33.4l19,19l-8.7,8.7L924.1-16L913.8-5.7l-21.6-21.5l8.7-8.7L913.8-23L924.1-33.4L924.1-33.4z"/>
						<path class="st8" d="M882.3,448.7l10.3-10.3l-11.8-11.8l-22.1,22.1l21.6,21.6l-7.7,7.7l11.8,11.8l19.5-19.5L882.3,448.7
							L882.3,448.7z M875.5,478l7.7-7.7l-21.6-21.6l19-19l8.7,8.7L879,448.7l21.6,21.6l-16.5,16.5L875.5,478L875.5,478z"/>
						<path class="st8" d="M659.9-121.4l-11.8,11.8L668.7-89l-34,34l-10.3-10.2l-11.8,11.8l22.1,22.1L692.4-89L659.9-121.4
							L659.9-121.4z M615.6-53.4l8.7-8.7l10.3,10.3l37.1-37.1l-20.6-20.6l8.7-8.7l29.3,29.3l-54.6,54.6L615.6-53.4L615.6-53.4z"/>
						<path class="st8" d="M455.9,119L507,67.8l-32.4-32.4l-11.8,11.8l20.6,20.6l-8.7,8.7l-20.6-20.6l-11.9,11.9l20.6,20.6
							l-18.7,18.7L455.9,119L455.9,119z M445.3,67.8l8.7-8.7l20.6,20.6l11.8-11.8l-20.6-20.6l8.7-8.7l29.3,29.3L455.7,116l-8.7-8.7
							l18.7-18.7L445.3,67.8L445.3,67.8z"/>
						<path class="st8" d="M669.1,344l-11.8-11.8l-20.6,20.6l-8.7-8.7l20.6-20.6l-11.8-11.8l-20.6,20.6l-43.5-43.5l-11.8,11.8
							l75.9,75.9L669.1,344L669.1,344z M572.7,291.8l43.5,43.5l20.6-20.6l8.7,8.7L624.9,344l11.8,11.8l20.6-20.6l8.7,8.7l-29.3,29.3
							L564,300.6L572.7,291.8L572.7,291.8z"/>
						<path class="st8" d="M571.5,77l-32.4,32.4l11.8,11.8l20.6-20.6l8.7,8.7l-20.6,20.6l11.8,11.8l20.6-20.6l21.2,21.2l11.8-11.8
							L571.5,77L571.5,77z M592,118.2l-20.6,20.6l-8.7-8.7l20.6-20.6l-11.8-11.8l-20.6,20.6l-8.7-8.7l29.3-29.3l50.5,50.5l-8.7,8.7
							L592,118.2L592,118.2z"/>
						<path class="st8" d="M694.8-111.8l20.6-20.6l8.7,8.7l-20.6,20.6l11.8,11.8l20.7-20.6L749.9-98l11.8-11.8l-46.3-46.3L683-123.7
							L694.8-111.8L694.8-111.8z M758.6-109.7l-8.7,8.7L736-114.9l-20.6,20.6l-8.7-8.7l20.6-20.6l-11.8-11.8l-20.6,20.6l-8.7-8.7
							l29.3-29.3L758.6-109.7L758.6-109.7z"/>
						<path class="st8" d="M924.7,295.2l15.4,15.4l-8.7,8.7L916,303.9l-11.8,11.8l15.4,15.4l-35,35l11.8,11.8l67.4-67.4l-27.3-27.3
							L924.7,295.2L924.7,295.2z M896.4,374.9l-8.7-8.7l35-35l-15.4-15.4l8.7-8.7l15.4,15.4l11.8-11.8l-15.4-15.4l8.7-8.7l24.2,24.2
							L896.4,374.9L896.4,374.9z"/>
						<path class="st8" d="M837.9-18.9L869,12.2l-8.7,8.7l-31.1-31.1L817.4,1.6l31.1,31.1l-30.9,30.9l11.8,11.8l63.3-63.3
							l-42.9-42.9L837.9-18.9L837.9-18.9z M829.4,72.3l-8.7-8.7l30.9-30.9L820.5,1.6l8.7-8.7L860.3,24l11.8-11.8L841-18.9l8.7-8.7
							l39.8,39.8L829.4,72.3L829.4,72.3z"/>
						<path class="st8" d="M830.2-122.2l-76.5,76.5l11.8,11.8l76.5-76.5L830.2-122.2L830.2-122.2z M756.8-45.7l73.4-73.4l8.7,8.7
							L765.5-37L756.8-45.7z"/>
						<path class="st8" d="M763.4,475.1l-11.8,11.8l42.7,42.7l11.8-11.8L763.4,475.1z M754.7,486.9l8.7-8.7l39.6,39.6l-8.7,8.7
							L754.7,486.9z"/>
						<path class="st8" d="M361.6,468.7l11.8-11.8l-28.6-28.6L333,440.1L361.6,468.7z M370.4,456.9l-8.7,8.7l-25.5-25.5l8.7-8.7
							L370.4,456.9z"/>
						<path class="st8" d="M391.7,94.7L461.4,25l-11.8-11.8l-69.7,69.7L391.7,94.7z M458.3,25.1l-66.6,66.6L383,83l66.6-66.6
							L458.3,25.1L458.3,25.1z"/>
						<path class="st8" d="M390.5,489.4l56.7-56.7l-11.8-11.8l-56.7,56.7L390.5,489.4z M444.2,432.7l-53.6,53.6l-8.7-8.7l53.6-53.6
							L444.2,432.7z"/>
						<path class="st8" d="M630.1-78.1l11.8-11.8l-98.2-98.3l-11.8,11.8L630.1-78.1L630.1-78.1z M638.9-90l-8.7,8.7L535-176.4
							l8.7-8.7L638.9-90L638.9-90z"/>
						<path class="st8" d="M415.1,206l11.8-11.8l-92.8-92.8l-11.8,11.8L415.1,206z M423.8,194.1l-8.7,8.7l-89.7-89.7l8.7-8.7
							L423.8,194.1z"/>
						<path class="st8" d="M687.7,404.6l-63.3,63.3l11.8,11.8l63.3-63.3L687.7,404.6L687.7,404.6z M627.5,467.9l60.2-60.2l8.7,8.7
							l-60.2,60.2L627.5,467.9z"/>
						<path class="st8" d="M781,414.9l-41.6-41.6l-29.8,29.8l22.1,22.1l11.8-11.8l-10.3-10.3l6.2-6.2l29.8,29.8L781,414.9L781,414.9
							z M730.2,403.2l10.3,10.3l-8.7,8.7l-19-19l26.7-26.7L778,415l-8.7,8.7l-29.8-29.8L730.2,403.2L730.2,403.2z"/>
						<path class="st8" d="M627.3,279.7l11.8-11.8l-10.3-10.3l29.5-29.5l29.8,29.8l11.8-11.8l-41.6-41.6l-53.2,53.2L627.3,279.7
							L627.3,279.7z M696.9,246l-8.7,8.7l-29.8-29.8l-32.6,32.6l10.3,10.3l-8.7,8.7l-19-19l50.1-50.1L696.9,246L696.9,246z"/>
						<path class="st8" d="M785.8,372.4l-46.3-46.3l-11.8,11.8l104.4,104.4l11.8-11.8l-46.3-46.3l29.3-29.3l46.3,46.3l11.8-11.8
							l-58.1-58.1L785.8,372.4L785.8,372.4z M873.2,398.1l-46.3-46.3l-32.4,32.4l46.3,46.3l-8.7,8.7L730.8,337.9l8.7-8.7l46.3,46.3
							l41.1-41.1l55,55L873.2,398.1L873.2,398.1z"/>
						<path class="st8" d="M925.6,376.7l94.1,94.1l32.4-32.4l-22.1-22.1l-11.8,11.8l10.3,10.3l-8.7,8.7L970.7,398l10.3-10.3
							l-12-11.8l-10.3,10.3l-21.3-21.4L925.6,376.7L925.6,376.7z M969,379l8.7,8.7L967.4,398l52.2,52.2l11.8-11.8l-10.3-10.3
							l8.7-8.7l19,19l-29.3,29.3l-91-91l8.7-8.7l21.3,21.3L969,379L969,379z"/>
						<path class="st8" d="M302.7,416.3l-11.8,11.8l10.3,10.3l-8.7,8.7L243.4,398l10.3-10.3l-11.8-11.8l-10.3,10.3l-21.5-21.4
							l-11.8,11.8l94.1,94.1l32.4-32.4L302.7,416.3L302.7,416.3z M201.4,376.7l8.7-8.7l21.3,21.3l10.3-10.3l8.7,8.7L240.1,398
							l52.2,52.2l11.8-11.8l-10.3-10.3l8.7-8.7l19,19l-29.3,29.3L201.4,376.7L201.4,376.7z"/>
						<path class="st8" d="M759.8-92.1l11.8,11.8l37.5-37.5l-11.8-11.8L759.8-92.1z M771.6-83.4l-8.7-8.7l34.5-34.5l8.7,8.7
							L771.6-83.4z"/>
						<path class="st8" d="M917.1,114.2L905.3,126l35,35l11.8-11.8L917.1,114.2z M908.3,126l8.7-8.7l31.9,31.9l-8.7,8.7L908.3,126z"
							/>
						<path class="st8" d="M550.9,291.4l21.1-21.1l43.4,43.4l11.8-11.8l-43.4-43.4l15.4-15.4l-11.8-11.8l-48.3,48.3L550.9,291.4z
							 M596.2,243.1l-15.4,15.4l43.4,43.4l-8.7,8.7l-43.4-43.4L551,288.3l-8.7-8.7l45.2-45.2L596.2,243.1z"/>
					</g>
				</g>
			</g>
		</g>
	</g>
</g>
</svg>
