<?xml version="1.0" encoding="UTF-8"?>
<svg id="Layer_1" data-name="Layer 1" xmlns="http://www.w3.org/2000/svg" xmlns:xlink="http://www.w3.org/1999/xlink" viewBox="0 0 961.03 646.04">
  <defs>
    <style>
      .cls-1 {
        fill-rule: evenodd;
      }

      .cls-1, .cls-2, .cls-3, .cls-4 {
        stroke-width: 0px;
      }

      .cls-1, .cls-5, .cls-6, .cls-4 {
        fill: #fff;
      }

      .cls-7 {
        fill: #3d7ea2;
      }

      .cls-7, .cls-8 {
        stroke: #54b4d6;
        stroke-miterlimit: 10;
        stroke-width: .75px;
      }

      .cls-2 {
        fill: #4b9cbf;
      }

      .cls-5 {
        font-family: Tajawal-Bold, Tajawal;
        font-size: 20.19px;
        font-weight: 700;
      }

      .cls-3, .cls-8 {
        fill: none;
      }

      .cls-6 {
        font-family: Tajawal-Regular, Tajawal;
        font-size: 28.18px;
      }

      .cls-9 {
        opacity: .4;
      }

      .cls-10 {
        clip-path: url(#clippath);
      }
    </style>
    <clipPath id="clippath">
      <rect class="cls-3" x="574" y="-140.67" width="96.87" height="677.2" transform="translate(424.51 820.36) rotate(-90)"/>
    </clipPath>
  </defs>
  <g>
    <path class="cls-2" d="M27.09,252.31l-.39-.23c-7.53-4.62-25.18-17.11-26.58-33.22-.85-9.98,3.15-20.7,7.01-31.07,4.53-12.13,8.8-23.6,4.94-32.68-.01-.01-.05-.07-.09-.12l-.04-.06-.18-.26c-1-1.35-2.15-2.9-3.42-4.52l-1.25-1.6,1.73,1.05c.37.22,36.62,22.61,40.03,54.32,1.77,16.46-5.49,32.57-21.58,47.9,0,.02-.01.04-.02.05l-.15.43ZM12.85,155.09c3.78,9.35-.5,20.83-5.03,32.97C3.98,198.34.01,208.98.85,218.8c1.35,15.56,18.34,27.76,25.93,32.46,15.89-15.16,23.06-31.05,21.32-47.26-2.93-27.25-30.47-47.59-37.86-52.59.84,1.1,1.61,2.14,2.3,3.08l.43.59h-.12Z"/>
    <path class="cls-2" d="M25.49,238.21c-7.53-5.82-14.15-13.23-14.76-20.28-.32-3.76.41-8.03,1.65-12.52,1.24-4.48,2.99-9.18,4.72-13.8,2.03-5.46,4.09-10.98,5.48-16.5,7.43,8.01,14.44,18.44,15.67,30.06,1.15,10.96-3.14,22.05-12.76,33.04"/>
  </g>
  <g>
    <g>
      <g>
        <g>
          <path class="cls-4" d="M131.68,215.22c-6.92,0-12.55-5.63-12.55-12.55s5.63-12.55,12.55-12.55c.85,0,1.7.09,2.52.25.45.09.9.21,1.35.35.22.07.34.31.27.53-.07.22-.31.34-.53.27-.41-.13-.83-.24-1.25-.33-.77-.16-1.56-.24-2.35-.24-6.45,0-11.7,5.25-11.7,11.7s5.25,11.7,11.7,11.7,11.7-5.25,11.7-11.7c0-1.92-.48-3.83-1.37-5.51-.11-.21-.03-.46.17-.57.2-.11.46-.03.57.17.96,1.8,1.47,3.85,1.47,5.91,0,6.92-5.63,12.55-12.55,12.55Z"/>
          <path class="cls-4" d="M140.18,194.44c-.11,0-.21-.04-.3-.12-.3-.29-.62-.57-.95-.84-.25-.2-.52-.39-.78-.57-.19-.13-.25-.39-.12-.58.13-.19.39-.25.58-.12.29.19.57.4.84.61.35.28.69.58,1.01.9.17.16.17.43,0,.6-.08.08-.19.13-.3.13Z"/>
        </g>
        <path class="cls-4" d="M134.18,196.36h-5.03c-2.1,0-3.8,1.7-3.8,3.8v5.03c0,2.1,1.7,3.8,3.8,3.8h5.03c2.1,0,3.8-1.7,3.8-3.8v-5.03c0-2.1-1.7-3.8-3.8-3.8ZM131.68,205.97c-1.82,0-3.3-1.48-3.3-3.3s1.48-3.3,3.3-3.3,3.3,1.48,3.3,3.3-1.48,3.3-3.3,3.3ZM134.98,200.18c-.44,0-.79-.35-.79-.79s.35-.79.79-.79.79.35.79.79-.35.79-.79.79Z"/>
      </g>
      <g>
        <path class="cls-1" d="M106.35,202.54l-3.13,1.69v-3.39l1.41.77,1.72.94ZM110.02,200.37s-.12-.84-.47-1.2c-.45-.48-.95-.48-1.18-.51-1.64-.12-4.1-.12-4.1-.12h0s-2.46,0-4.1.12c-.23.03-.73.03-1.18.51-.35.37-.46,1.2-.46,1.2,0,0-.12.97-.12,1.95v.92c0,.98.12,1.95.12,1.95,0,0,.11.83.46,1.2.45.48,1.04.47,1.3.52.94.09,3.99.12,3.99.12,0,0,2.46,0,4.1-.12.23-.03.73-.03,1.18-.51.35-.37.47-1.2.47-1.2,0,0,.12-.97.12-1.95v-.92c0-.98-.12-1.95-.12-1.95h0Z"/>
        <g>
          <path class="cls-4" d="M104.41,215.22c-6.92,0-12.55-5.63-12.55-12.55s5.63-12.55,12.55-12.55c.85,0,1.7.09,2.52.25.45.09.91.21,1.35.35.22.07.34.31.27.53-.07.22-.31.34-.53.27-.41-.13-.83-.24-1.25-.33-.77-.16-1.56-.24-2.35-.24-6.45,0-11.7,5.25-11.7,11.7s5.25,11.7,11.7,11.7,11.7-5.25,11.7-11.7c0-1.92-.48-3.83-1.37-5.51-.11-.21-.03-.46.17-.57.2-.11.46-.03.57.17.96,1.8,1.47,3.85,1.47,5.91,0,6.92-5.63,12.55-12.55,12.55Z"/>
          <path class="cls-4" d="M112.91,194.44c-.11,0-.21-.04-.3-.12-.3-.29-.62-.58-.95-.84-.25-.2-.52-.39-.78-.57-.19-.13-.25-.39-.12-.58.13-.19.39-.25.58-.12.29.19.57.4.84.61.35.28.69.58,1.01.9.17.16.17.43,0,.6-.08.08-.19.13-.3.13Z"/>
        </g>
      </g>
      <g>
        <path class="cls-1" d="M165.45,198.68c-.48.21-.99.35-1.53.42.55-.33.98-.84,1.18-1.46-.52.3-1.09.52-1.7.64-.49-.51-1.19-.83-1.96-.83-1.48,0-2.68,1.18-2.68,2.63,0,.21.02.41.07.6-2.23-.11-4.2-1.16-5.52-2.76-.23.39-.36.84-.36,1.33,0,.92.47,1.72,1.19,2.19-.44-.01-.85-.13-1.22-.33v.03c0,.34.07.66.18.95.33.83,1.07,1.46,1.97,1.63-.23.06-.46.09-.71.09-.17,0-.34-.02-.5-.04.34,1.05,1.33,1.81,2.5,1.83-.91.71-2.07,1.13-3.33,1.13-.22,0-.43-.02-.64-.04,1.19.75,2.6,1.18,4.11,1.18,4.18,0,6.76-2.9,7.44-5.91.12-.54.18-1.07.18-1.6,0-.11,0-.23,0-.34.52-.37.98-.84,1.33-1.37h0Z"/>
        <g>
          <path class="cls-4" d="M158.95,215.22c-6.92,0-12.55-5.63-12.55-12.55s5.63-12.55,12.55-12.55c.85,0,1.7.09,2.52.25.45.09.9.21,1.35.35.22.07.34.31.27.53-.07.22-.31.34-.53.27-.41-.13-.83-.24-1.25-.33-.77-.16-1.56-.24-2.35-.24-6.45,0-11.7,5.25-11.7,11.7s5.25,11.7,11.7,11.7,11.7-5.25,11.7-11.7c0-1.92-.48-3.83-1.37-5.51-.11-.21-.03-.46.17-.57.2-.11.46-.03.57.17.96,1.8,1.47,3.85,1.47,5.91,0,6.92-5.63,12.55-12.55,12.55Z"/>
          <path class="cls-4" d="M167.45,194.44c-.11,0-.21-.04-.3-.12-.3-.29-.62-.58-.95-.84-.25-.2-.52-.39-.78-.57-.19-.13-.25-.39-.12-.58.13-.19.39-.25.58-.12.29.19.57.4.84.61.35.28.69.58,1.01.9.17.16.17.43,0,.6-.08.08-.19.13-.3.13Z"/>
        </g>
      </g>
      <g>
        <path class="cls-1" d="M78.14,200.04v-1.17c0-.51.34-.63.58-.63h1.52v-2.1h-2.04c-2.26-.01-2.77,1.56-2.77,2.57v1.34h-1.2v2.71h1.2v6.61h2.4v-6.61h2.11l.09-1.1.15-1.6h-2.05Z"/>
        <g>
          <path class="cls-4" d="M77.14,215.22c-6.92,0-12.55-5.63-12.55-12.55s5.63-12.55,12.55-12.55c.85,0,1.7.09,2.52.25.45.09.91.21,1.35.35.22.07.34.31.27.53-.07.22-.31.34-.53.27-.41-.13-.83-.24-1.25-.33-.77-.16-1.56-.24-2.35-.24-6.45,0-11.7,5.25-11.7,11.7s5.25,11.7,11.7,11.7,11.7-5.25,11.7-11.7c0-1.92-.48-3.83-1.37-5.51-.11-.21-.03-.46.17-.57.2-.11.46-.03.57.17.96,1.8,1.47,3.85,1.47,5.91,0,6.92-5.63,12.55-12.55,12.55Z"/>
          <path class="cls-4" d="M85.64,194.44c-.11,0-.21-.04-.3-.12-.3-.29-.62-.58-.95-.84-.25-.2-.52-.39-.79-.57-.19-.13-.25-.39-.12-.58.13-.19.39-.25.58-.12.29.19.57.4.84.61.35.28.69.58,1.01.9.17.16.17.43,0,.6-.08.08-.19.13-.3.13Z"/>
        </g>
      </g>
      <text class="cls-6" transform="translate(67.01 244.93)"><tspan x="0" y="0">kftalmajed</tspan></text>
      <g>
        <path class="cls-4" d="M193.3,206.57c-2-.33-2.9-2.41-2.93-2.5,0,0,0-.01,0-.02-.1-.21-.13-.38-.07-.51.11-.26.53-.39.8-.48.08-.03.16-.05.22-.07.27-.11.47-.23.6-.36.15-.16.18-.31.18-.41,0-.24-.19-.46-.48-.56-.1-.04-.21-.06-.32-.06-.08,0-.19.01-.3.06-.23.11-.44.17-.62.18-.1,0-.16-.03-.21-.05,0-.09.01-.19.02-.29v-.04c.07-1.03.15-2.3-.19-3.06-.23-.52-.54-.96-.91-1.33-.32-.3-.68-.55-1.09-.73-.71-.32-1.37-.37-1.71-.37h-.04c-.09,0-.24,0-.26,0-.33,0-1,.05-1.71.37-.41.18-.77.43-1.09.73-.38.36-.68.81-.91,1.32-.33.76-.25,2.03-.19,3.06h0c0,.11.01.23.02.34-.05.02-.13.05-.24.05-.19,0-.41-.06-.67-.18-.07-.04-.16-.05-.25-.05-.15,0-.31.04-.45.13-.17.1-.29.25-.32.41-.02.11-.02.32.21.53.13.12.31.23.56.32.06.03.14.05.22.07.28.09.7.22.8.48.06.13.03.3-.07.51,0,0,0,.01,0,.02-.03.06-.26.6-.75,1.18-.28.33-.58.6-.91.81-.39.26-.81.42-1.26.5-.14.02-.27.12-.3.26-.02.09-.01.18.03.27h0c.07.17.24.31.51.44.33.15.82.28,1.46.39.03.06.07.22.09.33.02.11.05.23.09.35.04.13.14.3.4.3.1,0,.21-.02.34-.05.19-.04.46-.09.78-.09.18,0,.37.02.56.05.37.06.68.29,1.05.55.53.38,1.14.82,2.06.82.03,0,.05,0,.08,0,.03,0,.07,0,.11,0,.92,0,1.53-.43,2.06-.81h0c.37-.26.68-.49,1.05-.55.19-.03.38-.05.56-.05.31,0,.56.04.78.08.14.03.26.04.34.04h.02c.19,0,.33-.11.38-.29.04-.12.06-.24.09-.35.02-.1.06-.26.09-.32.64-.1,1.13-.23,1.46-.39.27-.13.43-.27.51-.44.02-.05.03-.1.04-.16.01-.18-.12-.34-.29-.37Z"/>
        <g>
          <path class="cls-4" d="M186.21,215.79c-7.08,0-12.84-5.76-12.84-12.84s5.76-12.84,12.84-12.84c.87,0,1.74.09,2.58.26.46.09.93.22,1.38.36.23.07.35.32.28.54-.07.23-.32.35-.54.28-.42-.14-.85-.25-1.28-.34-.79-.16-1.6-.24-2.41-.24-6.6,0-11.97,5.37-11.97,11.97s5.37,11.97,11.97,11.97,11.97-5.37,11.97-11.97c0-1.97-.49-3.91-1.41-5.64-.11-.21-.03-.47.18-.58.21-.11.47-.03.58.18.99,1.85,1.51,3.94,1.51,6.04,0,7.08-5.76,12.84-12.84,12.84Z"/>
          <path class="cls-4" d="M194.91,194.54c-.11,0-.22-.04-.3-.12-.31-.3-.63-.59-.97-.85-.26-.2-.53-.4-.8-.58-.2-.13-.25-.4-.12-.6.13-.2.4-.25.6-.12.29.2.58.41.86.63.36.28.71.59,1.04.92.17.17.17.44,0,.61-.08.09-.2.13-.31.13Z"/>
        </g>
      </g>
      <g>
        <g>
          <path class="cls-4" d="M213.48,215.79c-7.08,0-12.84-5.76-12.84-12.84s5.76-12.84,12.84-12.84c.87,0,1.74.09,2.58.26.46.09.93.22,1.38.36.23.07.35.32.28.54-.07.23-.32.35-.54.28-.42-.14-.85-.25-1.28-.34-.79-.16-1.6-.24-2.41-.24-6.6,0-11.97,5.37-11.97,11.97s5.37,11.97,11.97,11.97,11.97-5.37,11.97-11.97c0-1.97-.49-3.91-1.41-5.63-.11-.21-.03-.47.18-.58.21-.11.47-.03.58.18.99,1.85,1.51,3.93,1.51,6.04,0,7.08-5.76,12.84-12.84,12.84Z"/>
          <path class="cls-4" d="M222.18,194.54c-.11,0-.22-.04-.3-.12-.31-.3-.63-.59-.97-.85-.26-.2-.53-.4-.8-.58-.2-.13-.25-.4-.12-.6.13-.2.4-.25.6-.12.29.2.58.41.86.63.36.29.71.59,1.04.92.17.17.17.44,0,.61-.08.09-.2.13-.31.13Z"/>
        </g>
        <path class="cls-4" d="M220.44,197.8c-.14-.17-.36-.23-.57-.15l-12.83,4.63c-.26.09-.44.32-.47.59-.03.27.09.53.31.68l1.75,1.19c.23.16.53.18.78.04l1.88-.99c.19-.1.36.17.19.3l-1.21.9c-.19.14-.3.37-.3.61v2.05c0,.22.12.42.32.53.2.11.43.09.62-.03l1.29-.86c.06-.04.14-.04.2,0l1.27.87c.12.08.26.13.41.13.05,0,.1,0,.15-.02.19-.04.36-.16.47-.33l5.8-9.57c.11-.18.1-.42-.04-.59Z"/>
      </g>
      <g>
        <g>
          <path class="cls-4" d="M240.75,215.73c-7.04,0-12.77-5.73-12.77-12.77s5.73-12.77,12.77-12.77c.86,0,1.73.09,2.57.26.46.09.92.21,1.37.36.23.07.35.31.28.54-.07.23-.32.35-.54.28-.42-.14-.85-.25-1.28-.34-.78-.16-1.59-.24-2.39-.24-6.57,0-11.91,5.34-11.91,11.91s5.34,11.91,11.91,11.91,11.91-5.34,11.91-11.91c0-1.95-.48-3.89-1.4-5.61-.11-.21-.03-.47.18-.58.21-.11.47-.03.58.18.98,1.84,1.5,3.91,1.5,6.01,0,7.04-5.73,12.77-12.77,12.77Z"/>
          <path class="cls-4" d="M249.4,194.59c-.11,0-.22-.04-.3-.12-.3-.3-.63-.58-.96-.85-.26-.2-.53-.4-.8-.58-.2-.13-.25-.4-.12-.6.13-.2.4-.25.6-.12.29.19.58.4.86.62.36.29.71.59,1.03.91.17.17.17.44,0,.61-.08.09-.2.13-.31.13Z"/>
        </g>
        <path id="Dribbble" class="cls-4" d="M240.75,197.11c-3.23,0-5.84,2.62-5.84,5.84s2.62,5.84,5.84,5.84,5.84-2.62,5.84-5.84c0-3.23-2.62-5.84-5.84-5.84ZM244.33,200.28c.57.72.93,1.62.97,2.6-.66-.14-1.28-.21-1.86-.21h0s0,0,0,0c-.47,0-.91.04-1.32.12-.1-.25-.2-.48-.31-.71.92-.4,1.81-.98,2.52-1.8ZM240.75,198.4c1.08,0,2.06.38,2.84,1-.6.72-1.39,1.23-2.24,1.6-.6-1.16-1.18-1.99-1.57-2.49.31-.07.64-.11.97-.11ZM238.74,198.77c.32.37.95,1.2,1.63,2.48-1.38.41-2.76.51-3.6.51-.02,0-.05,0-.07,0h0c-.14,0-.26,0-.36,0,.33-1.31,1.22-2.39,2.41-2.98ZM236.19,202.97h0c.13,0,.3,0,.5,0h0c.92,0,2.52-.08,4.14-.59.09.19.18.39.26.6-1.08.36-1.94.94-2.57,1.51-.61.55-1.02,1.1-1.26,1.47-.68-.81-1.09-1.85-1.08-3ZM240.75,207.52c-1.01,0-1.95-.34-2.71-.9.16-.27.51-.78,1.06-1.3.57-.54,1.35-1.1,2.37-1.43.35.97.66,2.08.9,3.34-.5.19-1.05.3-1.62.3ZM243.33,206.72c-.23-1.13-.52-2.15-.84-3.06.3-.04.61-.07.93-.07h.01c.54,0,1.14.07,1.79.21-.22,1.21-.92,2.24-1.9,2.91Z"/>
      </g>
    </g>
    <g>
      <g>
        <path class="cls-1" d="M79.56,168.01c-.16-.08-.89-.44-1.03-.49-.14-.05-.24-.08-.34.08-.1.15-.39.49-.48.58-.09.1-.17.11-.33.04-.15-.08-.63-.23-1.21-.74-.45-.4-.75-.89-.84-1.04-.09-.15,0-.23.07-.31.06-.06.15-.17.23-.26.02-.02.04-.05.05-.07.04-.06.06-.11.1-.18.05-.1.03-.19-.01-.26-.04-.08-.34-.81-.47-1.11-.13-.3-.25-.25-.34-.25-.09,0-.19-.02-.29-.02s-.26.04-.4.19c-.13.15-.53.51-.53,1.25,0,.18.03.35.07.51.16.53.48.96.54,1.04.07.1,1.04,1.66,2.58,2.26,1.53.6,1.53.4,1.81.38.28-.02.9-.36,1.02-.71.13-.35.13-.65.09-.71-.04-.06-.14-.1-.29-.17h0ZM82.92,166.62c-.09-3.3-2.81-5.96-6.16-5.96s-6.01,2.59-6.15,5.85c0,.09,0,.18,0,.27,0,1.15.32,2.24.88,3.16l-1.11,3.27,3.41-1.08c.88.49,1.9.76,2.97.76,3.4,0,6.16-2.73,6.16-6.11v-.16h0Z"/>
        <g>
          <path class="cls-4" d="M76.62,179.87c-7.13,0-12.94-5.8-12.94-12.94s5.8-12.94,12.94-12.94c.88,0,1.75.09,2.6.26.47.09.93.22,1.39.36.23.07.35.32.28.55-.07.23-.32.35-.55.28-.42-.14-.86-.25-1.29-.34-.79-.16-1.61-.24-2.43-.24-6.65,0-12.07,5.41-12.07,12.07s5.41,12.07,12.07,12.07,12.07-5.41,12.07-12.07c0-1.98-.49-3.94-1.42-5.68-.11-.21-.03-.48.18-.59.21-.11.48-.03.59.18.99,1.86,1.52,3.97,1.52,6.09,0,7.13-5.8,12.94-12.94,12.94Z"/>
          <path class="cls-4" d="M85.39,158.45c-.11,0-.22-.04-.3-.12-.31-.3-.64-.59-.98-.86-.26-.21-.53-.4-.81-.59-.2-.13-.25-.4-.12-.6.13-.2.4-.25.6-.12.3.2.59.41.87.63.36.29.72.6,1.05.92.17.17.17.44,0,.61-.08.09-.2.13-.31.13Z"/>
        </g>
      </g>
      <text class="cls-5" transform="translate(96.71 169.89)"><tspan x="0" y="0">+966- 55 0166 400</tspan></text>
    </g>
  </g>
  <g class="cls-9">
    <g class="cls-10">
      <g>
        <rect class="cls-8" x="620.04" y="122.45" width="80.12" height="9.54" transform="translate(103.39 504.02) rotate(-45)"/>
        <rect class="cls-8" x="259.73" y="234.22" width="9.54" height="9.54" transform="translate(-91.52 257.03) rotate(-45)"/>
        <polygon class="cls-8" points="675.81 41.64 648.87 68.59 655.61 75.33 675.81 55.13 684.94 64.25 669.07 80.12 675.81 86.86 698.42 64.25 675.81 41.64"/>
        <polygon class="cls-8" points="651.49 232.75 644.74 239.5 659.95 254.7 630.77 283.88 637.51 290.62 673.43 254.7 651.49 232.75"/>
        <polygon class="cls-8" points="695.9 130.52 705.82 120.61 699.08 113.86 682.42 130.52 697.09 145.2 703.84 138.46 695.9 130.52"/>
        <rect class="cls-8" x="602.11" y="262.35" width="36.48" height="9.54" transform="translate(-7.18 516.89) rotate(-45)"/>
        <polygon class="cls-8" points="581.81 167.56 554.98 194.4 561.72 201.14 581.81 181.05 590.93 190.17 539.73 241.38 554.41 256.06 561.15 249.31 553.22 241.38 597.68 196.92 623.86 223.1 601.65 245.31 592.52 236.19 604.42 224.29 597.68 217.54 579.03 236.19 601.64 258.8 637.35 223.1 581.81 167.56"/>
        <polygon class="cls-8" points="656.35 169.83 679.24 146.95 672.49 140.2 642.86 169.83 660.59 187.56 667.34 180.82 656.35 169.83"/>
        <polygon class="cls-8" points="618.85 295.32 594.53 319.64 585.41 310.51 601.71 294.21 594.97 287.47 578.67 303.77 569.54 294.65 593.34 270.85 574.7 252.2 567.96 258.95 579.86 270.85 562.8 287.9 520.6 245.7 513.85 252.44 563.99 302.58 540.19 326.38 546.93 333.12 570.73 309.32 579.86 318.45 563.99 334.31 626.38 396.71 633.13 389.96 577.48 334.31 586.6 325.19 594.53 333.12 625.59 302.07 618.85 295.32"/>
        <rect class="cls-8" x="610.91" y="121.53" width="9.54" height="22.3" transform="translate(86.51 474.21) rotate(-45)"/>
        <polygon class="cls-8" points="469.66 409.81 485.95 393.52 519.39 426.96 526.13 420.21 492.69 386.78 504.53 374.94 497.79 368.19 462.92 403.07 469.66 409.81"/>
        <polygon class="cls-8" points="485.49 249.2 462.88 271.81 469.63 278.55 485.49 262.69 494.62 271.81 478.75 287.68 485.49 294.42 501.36 278.55 517.7 294.89 524.44 288.15 485.49 249.2"/>
        <polygon class="cls-8" points="422.94 170.46 446.48 146.92 461.75 162.19 482.29 141.65 475.55 134.91 461.75 148.7 446.48 133.43 416.19 163.72 422.94 170.46"/>
        <polygon class="cls-8" points="521.67 321.39 505.01 304.73 479.63 330.12 514.14 364.63 534.91 343.86 528.16 337.12 514.14 351.15 493.11 330.12 505.01 318.22 514.93 328.14 521.67 321.39"/>
        <rect class="cls-8" x="530.46" y="300.1" width="9.54" height="9.54" transform="translate(-58.81 467.77) rotate(-45)"/>
        <rect class="cls-8" x="492.63" y="32.78" width="9.54" height="103.81" transform="translate(85.8 376.52) rotate(-45)"/>
        <polygon class="cls-8" points="528.53 400.77 535.27 394.03 527.34 386.09 552.51 360.93 575.46 383.89 582.21 377.14 552.51 347.44 513.85 386.09 528.53 400.77"/>
        <polygon class="cls-8" points="439.52 212.11 431.27 203.86 448.32 186.8 503.86 242.33 542.33 203.86 524.84 186.38 518.1 193.12 528.84 203.86 503.86 228.85 448.32 173.31 417.78 203.86 432.78 218.86 439.52 212.11"/>
        <rect class="cls-8" x="496.08" y="116.1" width="9.54" height="24.02" transform="translate(56.11 391.68) rotate(-45)"/>
        <polygon class="cls-8" points="553.72 96.15 546.98 102.9 562.84 118.77 534.21 147.4 526.27 139.47 519.53 146.21 534.21 160.89 576.33 118.77 553.72 96.15"/>
        <rect class="cls-8" x="452.7" y="107.66" width="33.92" height="9.54" transform="translate(58.06 365.03) rotate(-45)"/>
        <rect class="cls-8" x="497.3" y="39.38" width="9.54" height="21.68" transform="translate(111.54 369.72) rotate(-45)"/>
        <polygon class="cls-8" points="514.5 76.15 521.24 82.9 545.04 59.1 554.16 68.22 546.23 76.15 552.97 82.9 567.65 68.22 545.04 45.61 514.5 76.15"/>
        <polygon class="cls-8" points="440.63 338.36 472.08 369.82 478.83 363.08 454.11 338.36 466.01 326.46 449.35 309.8 442.61 316.54 452.53 326.46 440.63 338.36"/>
        <polygon class="cls-8" points="594.24 388.74 587.49 395.48 605.06 413.05 595.94 422.17 555.68 381.91 548.94 388.66 595.94 435.66 618.55 413.05 594.24 388.74"/>
        <polygon class="cls-8" points="361.1 292.21 370.23 283.09 378.16 291.02 384.9 284.28 370.23 269.6 347.61 292.21 378.16 322.75 384.9 316.01 361.1 292.21"/>
        <polygon class="cls-8" points="558.45 452.77 551.7 446.02 535.84 461.89 526.71 452.77 542.58 436.9 535.84 430.16 519.97 446.02 486.45 412.51 479.71 419.25 535.84 475.38 558.45 452.77"/>
        <rect class="cls-8" x="464.89" y="433.31" width="9.54" height="9.54" transform="translate(-172.21 460.38) rotate(-45)"/>
        <polygon class="cls-8" points="435.34 303.94 409.68 278.28 388.39 299.57 395.13 306.31 409.68 291.77 428.6 310.69 435.34 303.94"/>
        <polygon class="cls-8" points="452.17 223.32 445.42 230.06 455.34 239.98 426.34 268.98 469.11 311.74 475.85 305 439.83 268.98 468.83 239.98 452.17 223.32"/>
        <rect class="cls-8" x="329.78" y="267.4" width="9.54" height="9.54" transform="translate(-94.46 316.28) rotate(-45)"/>
        <rect class="cls-8" x="332.8" y="224.27" width="72.65" height="9.54" transform="translate(-53.84 328.1) rotate(-45)"/>
        <rect class="cls-8" x="328.88" y="256.99" width="9.54" height="97.85" transform="translate(-118.59 325.51) rotate(-45)"/>
        <polygon class="cls-8" points="396.33 276.8 433.4 239.73 410.79 217.12 404.05 223.86 419.91 239.73 410.79 248.85 394.92 232.99 388.18 239.73 404.05 255.6 389.58 270.06 396.33 276.8"/>
        <rect class="cls-8" x="278.8" y="33.07" width="9.54" height="9.54" transform="translate(56.29 211.59) rotate(-45)"/>
        <rect class="cls-8" x="318.78" y="34.9" width="9.54" height="24.02" transform="translate(61.6 242.53) rotate(-45)"/>
        <polygon class="cls-8" points="313.18 129.46 319.92 122.72 277.1 79.9 302.16 54.84 295.41 48.1 263.62 79.9 313.18 129.46"/>
        <polygon class="cls-8" points="333.12 207.91 321.22 219.81 337.88 236.47 344.62 229.72 334.7 219.81 346.6 207.91 301.59 162.89 294.85 169.64 333.12 207.91"/>
        <rect class="cls-8" x="630.99" y="101.66" width="37.59" height="9.54" transform="translate(115.06 490.64) rotate(-45)"/>
        <rect class="cls-8" x="391.12" y="45.37" width="8.67" height="21.63" transform="translate(76.1 296.09) rotate(-45)"/>
        <polygon class="cls-8" points="389.68 44.28 382.36 36.97 382.98 36.35 376.23 29.61 369.49 36.35 376.81 43.67 376.19 44.28 382.94 51.03 389.68 44.28"/>
        <polygon class="cls-8" points="384.74 36.97 390.87 43.09 391.49 42.48 415.29 66.28 422.03 59.54 415.9 53.41 415.29 54.02 391.49 30.22 384.74 36.97"/>
        <polygon class="cls-8" points="368.88 51.6 399.42 82.15 406.16 75.4 400.03 69.27 399.42 69.89 375 45.47 368.88 51.6"/>
        <rect class="cls-8" x="406.99" y="29.5" width="8.67" height="21.63" transform="translate(91.96 302.65) rotate(-45)"/>
        <polygon class="cls-8" points="398.23 21.1 398.84 20.48 392.1 13.74 385.36 20.48 392.68 27.8 392.06 28.42 398.81 35.16 405.55 28.42 398.23 21.1"/>
        <polygon class="cls-8" points="295.12 145.98 273.31 124.16 281.54 115.93 274.8 109.18 252.19 131.79 258.93 138.54 267.17 130.3 288.99 152.12 295.12 145.98"/>
        <polygon class="cls-8" points="286.79 327.19 293.53 333.94 313.54 313.93 290.93 291.32 270.92 311.33 277.67 318.07 290.93 304.81 300.06 313.93 286.79 327.19"/>
        <polygon class="cls-8" points="267.92 217.5 284.58 234.16 309.97 208.77 275.46 174.26 254.69 195.03 261.43 201.78 275.46 187.75 296.48 208.77 284.58 220.67 274.67 210.76 267.92 217.5"/>
        <polygon class="cls-8" points="407.35 14.35 400.61 21.1 406.74 27.23 407.35 26.61 431.15 50.41 453.76 27.8 447.63 21.67 431.15 38.16 407.35 14.35"/>
        <polygon class="cls-8" points="328.22 165 334.96 171.75 358.76 147.95 367.88 157.07 344.08 180.87 366.69 203.48 373.44 196.74 357.57 180.87 374.63 163.81 404.93 194.12 411.67 187.37 373.44 149.14 390.56 132.01 383.82 125.27 366.69 142.39 357.57 133.27 381.37 109.47 358.76 86.86 352.02 93.6 367.88 109.47 350.83 126.53 342.89 118.59 312.35 149.14 319.09 155.88 342.89 132.08 352.02 141.2 328.22 165"/>
        <polygon class="cls-8" points="359.75 14.35 343.88 30.22 343.27 29.61 337.14 35.74 343.88 42.48 359.75 26.61 368.3 35.16 374.43 29.03 359.75 14.35"/>
        <rect class="cls-8" x="409.9" y="7.78" width="9.54" height="9.54" transform="translate(112.58 296.89) rotate(-45)"/>
        <rect class="cls-8" x="518.3" y="1.26" width="8.67" height="18.82" transform="translate(145.54 372.69) rotate(-45)"/>
        <polygon class="cls-8" points="431.15 34.55 447.02 18.68 447.63 19.29 453.76 13.16 447.02 6.42 431.15 22.29 422.61 13.74 416.48 19.87 431.15 34.55"/>
        <polygon class="cls-8" points="343.57 519.8 314.86 491.08 337.54 468.39 345.48 476.33 376.02 445.78 369.28 439.04 345.48 462.84 336.35 453.72 360.15 429.92 353.41 423.17 329.61 446.97 320.49 437.85 344.29 414.05 321.68 391.44 314.93 398.18 330.8 414.05 313.74 431.11 289.39 406.75 282.65 413.5 314.93 445.78 291.13 469.58 297.88 476.33 321.68 452.53 330.8 461.65 301.37 491.08 336.83 526.54 343.57 519.8"/>
        <polygon class="cls-8" points="490.5 14.88 490.05 15.33 496.17 21.45 504.41 13.21 526.22 35.03 532.36 28.89 526.23 22.76 526.22 22.77 504.41 .95 496.17 9.19 495.55 8.58 489.87 14.26 490.5 14.88"/>
        <polygon class="cls-8" points="740.2 69.72 717.59 47.11 710.85 53.86 718.78 61.79 694.98 85.59 701.72 92.34 725.52 68.53 733.46 76.47 740.2 69.72"/>
        <polygon class="cls-8" points="732.89 166.39 749.55 183.05 757.48 175.11 765.42 183.05 772.16 176.3 757.48 161.63 749.55 169.56 739.63 159.64 732.89 166.39"/>
        <rect class="cls-8" x="752.46" y="316.91" width="9.54" height="9.54" transform="translate(-5.68 629.64) rotate(-45)"/>
        <polygon class="cls-8" points="704.9 259.24 729.34 283.69 744.02 269.01 737.28 262.27 729.34 270.2 704.9 245.76 649.36 301.29 685.06 336.99 707.67 314.38 687.05 293.75 680.3 300.5 694.19 314.38 685.06 323.5 662.85 301.29 689.03 275.11 728.3 314.38 712.43 330.25 719.18 336.99 741.79 314.38 695.77 268.37 704.9 259.24"/>
        <polygon class="cls-8" points="787.56 224.17 757.02 193.62 734.41 216.23 741.15 222.98 757.02 207.11 774.08 224.17 747.03 251.22 769.64 273.83 786.32 257.15 779.57 250.4 769.64 260.34 760.51 251.22 787.56 224.17"/>
        <polygon class="cls-8" points="290.57 493.81 270.38 473.62 263.64 480.36 269.46 486.18 253.54 502.1 259.68 508.23 275.59 492.32 283.83 500.56 290.57 493.81"/>
        <polygon class="cls-8" points="749.22 485.11 742.47 491.85 746.44 495.82 732.56 509.7 739.3 516.44 759.93 495.82 749.22 485.11"/>
        <rect class="cls-8" x="697.13" y="493.79" width="9.54" height="20.76" transform="translate(-150.92 644.01) rotate(-45)"/>
        <rect class="cls-8" x="676.48" y="478.74" width="9.54" height="9.54" transform="translate(-142.37 623.31) rotate(-45)"/>
        <polygon class="cls-8" points="650.79 477.02 615.09 441.32 608.35 448.07 686.49 526.21 693.23 519.47 657.53 483.77 682.52 458.78 718.23 494.48 724.97 487.73 682.52 445.29 650.79 477.02"/>
        <polygon class="cls-8" points="759.9 365.42 753.16 358.67 719.35 392.48 741.96 415.09 764.57 392.48 757.83 385.74 741.96 401.61 732.84 392.48 759.9 365.42"/>
        <polygon class="cls-8" points="543.75 504.34 487.37 447.96 464.76 470.57 500.24 506.04 506.98 499.3 478.25 470.57 487.37 461.44 530.27 504.34 504.09 530.52 444.13 470.57 460 454.7 453.26 447.96 430.65 470.57 497.34 537.26 488.22 546.39 461.59 519.76 446.91 534.43 453.66 541.18 461.59 533.24 488.22 559.87 543.75 504.34"/>
        <rect class="cls-8" x="640.7" y="553.28" width="9.54" height="43.2" transform="translate(-217.45 624.81) rotate(-45)"/>
        <polygon class="cls-8" points="725.59 582.46 699.93 556.79 674.26 582.46 681.01 589.2 699.93 570.28 718.84 589.2 725.59 582.46"/>
        <polygon class="cls-8" points="722.83 533.5 730.77 525.57 724.02 518.82 709.35 533.5 725.98 550.14 720.03 556.09 726.78 562.83 739.47 550.14 722.83 533.5"/>
        <polygon class="cls-8" points="676.01 538.75 669.27 532.01 664.47 536.81 652.57 524.91 637.57 539.91 644.32 546.65 652.57 538.39 664.47 550.29 676.01 538.75"/>
        <rect class="cls-8" x="688.71" y="537.76" width="9.54" height="9.54" transform="translate(-180.51 649.25) rotate(-45)"/>
        <polygon class="cls-8" points="611.01 169.87 661.62 220.49 676.3 205.81 669.55 199.07 661.62 207 617.75 163.13 611.01 169.87"/>
        <polygon class="cls-8" points="539.74 412 580.06 452.32 563.73 468.65 582.48 487.4 589.22 480.65 577.22 468.65 593.54 452.32 546.48 405.26 539.74 412"/>
        <polygon class="cls-8" points="666.19 342.67 638.3 370.57 645.04 377.31 666.19 356.16 683.25 373.22 626.75 429.72 649.36 452.33 671.97 429.72 665.22 422.98 649.36 438.84 640.23 429.72 696.74 373.22 666.19 342.67"/>
        <rect class="cls-8" x="703.27" y="377.95" width="9.54" height="9.54" transform="translate(-63.25 612.74) rotate(-45)"/>
        <polygon class="cls-8" points="633.17 325.21 626.42 318.47 606.31 338.58 628.92 361.19 659.47 330.64 652.72 323.9 628.92 347.7 619.8 338.58 633.17 325.21"/>
        <polygon class="cls-8" points="612.16 49.21 606.03 55.34 612.78 62.09 639.24 35.62 633.12 29.49 612.78 49.83 612.16 49.21"/>
        <rect class="cls-8" x="620.41" y="23.53" width="9.54" height="9.54" transform="translate(163.1 450.36) rotate(-45)"/>
        <rect class="cls-8" x="606.77" y="33.83" width="15.86" height="8.67" transform="translate(153.06 445.84) rotate(-45)"/>
        <polygon class="cls-8" points="648.57 84.1 633.98 69.51 652.9 50.59 646.16 43.85 620.5 69.51 641.83 90.84 648.57 84.1"/>
        <polygon class="cls-8" points="580.63 98.76 596.5 82.89 605.62 92.01 589.76 107.88 596.5 114.62 612.37 98.76 623.12 109.51 629.86 102.76 596.5 69.4 573.89 92.01 580.63 98.76"/>
        <rect class="cls-8" x="375.2" y="72.68" width="9.54" height="24.02" transform="translate(51.4 293.48) rotate(-45)"/>
        <polygon class="cls-8" points="493.24 152.13 471.82 173.54 497.48 199.21 504.23 192.46 485.31 173.54 499.98 158.87 493.24 152.13"/>
        <polygon class="cls-8" points="607.71 153.08 585.26 130.64 537.19 178.71 543.94 185.45 585.26 144.13 600.96 159.83 607.71 153.08"/>
        <polygon class="cls-8" points="421.84 420.4 415.1 413.66 394.28 434.48 419.66 459.87 458.33 421.2 437.56 400.43 430.82 407.17 444.85 421.2 419.66 446.38 407.76 434.48 421.84 420.4"/>
        <rect class="cls-8" x="596.41" y="463.87" width="9.54" height="9.54" transform="translate(-155.3 562.34) rotate(-45)"/>
        <rect class="cls-8" x="549.73" y="483.86" width="9.54" height="9.54" transform="translate(-183.1 535.19) rotate(-45)"/>
        <polygon class="cls-8" points="403.96 150.3 468.28 85.98 445.67 63.37 412.92 96.13 419.66 102.87 445.67 76.86 454.8 85.98 397.22 143.56 403.96 150.3"/>
        <rect class="cls-8" x="396.8" y="109.17" width="9.54" height="9.54" transform="translate(37.06 317.33) rotate(-45)"/>
        <polygon class="cls-8" points="320.87 72.03 314.13 65.29 299.45 79.97 322.06 102.58 352.61 72.03 345.86 65.29 322.06 89.09 312.94 79.97 320.87 72.03"/>
        <rect class="cls-8" x="548.18" y="2.51" width="9.54" height="9.54" transform="translate(156.81 393.12) rotate(-45)"/>
        <rect class="cls-8" x="509.1" y="164.65" width="9.54" height="9.54" transform="translate(30.71 412.99) rotate(-45)"/>
        <rect class="cls-8" x="586.3" y="23.53" width="9.54" height="9.54" transform="translate(153.11 426.24) rotate(-45)"/>
        <rect class="cls-8" x="576.2" y="10.37" width="8.67" height="16.02" transform="translate(157.03 415.87) rotate(-45)"/>
        <polygon class="cls-8" points="545.02 8.46 538.89 14.59 582.52 58.23 605.13 35.62 599 29.49 582.52 45.97 545.02 8.46"/>
        <polygon class="cls-8" points="582.52 42.36 589.26 35.62 583.13 29.49 582.52 30.1 560.88 8.46 554.75 14.59 582.52 42.36"/>
        <polygon class="cls-8" points="288.36 4.45 282.23 10.58 304.84 33.19 327.46 10.58 321.33 4.45 304.84 20.93 288.36 4.45"/>
        <polygon class="cls-8" points="265.01 161.51 234.47 130.96 227.73 137.71 251.53 161.51 242.4 170.63 218.6 146.83 211.86 153.57 242.4 184.12 265.01 161.51"/>
        <rect class="cls-8" x="696.94" y="33.23" width="9.54" height="9.54" transform="translate(178.65 507.31) rotate(-45)"/>
        <rect class="cls-8" x="231.45" y="183.54" width="9.54" height="43.2" transform="translate(-75.87 227.12) rotate(-45)"/>
        <polygon class="cls-8" points="230.51 395.2 247.57 378.15 255.5 386.08 278.11 363.47 271.37 356.72 255.5 372.59 246.38 363.47 274.15 335.7 267.4 328.96 239.64 356.72 230.51 347.6 246.38 331.73 223.77 309.12 217.03 315.87 232.89 331.73 223.77 340.86 213.3 330.39 206.56 337.13 224.96 355.54 209.09 371.4 215.84 378.15 231.7 362.28 240.83 371.4 217.03 395.2 235.67 413.85 242.41 407.1 230.51 395.2"/>
        <polygon class="cls-8" points="250.76 302.46 232.91 284.61 260.68 256.84 236.09 232.25 229.34 238.99 247.19 256.84 219.42 284.61 244.02 309.2 250.76 302.46"/>
        <polygon class="cls-8" points="271.2 21.43 265.07 15.3 264.45 15.91 253.02 4.48 246.89 10.61 264.45 28.17 271.2 21.43"/>
        <polygon class="cls-8" points="268 53.73 242.34 28.07 216.67 53.73 223.42 60.48 242.34 41.56 261.26 60.48 268 53.73"/>
        <polygon class="cls-8" points="255.65 466.29 262.39 459.55 236.73 433.89 211.06 459.55 217.81 466.29 236.73 447.37 255.65 466.29"/>
        <polygon class="cls-8" points="211.36 107.88 232.38 86.85 244.28 98.75 234.37 108.67 241.11 115.41 257.77 98.75 232.38 73.36 197.87 107.88 218.64 128.64 225.39 121.9 211.36 107.88"/>
        <polygon class="cls-8" points="749.49 30.78 743.36 36.91 750.11 43.65 772.01 21.74 772.63 22.36 772.72 22.27 765.98 15.52 750.11 31.39 749.49 30.78"/>
        <rect class="cls-8" x="736.79" y="24.82" width="9.54" height="9.54" transform="translate(196.29 533.04) rotate(-45)"/>
        <polygon class="cls-8" points="733.63 30.78 727.5 36.91 750.11 59.52 778.76 30.87 772.63 24.74 750.11 47.26 733.63 30.78"/>
        <polygon class="cls-8" points="808.17 256.84 780.41 284.61 805 309.2 811.74 302.46 793.89 284.61 821.66 256.84 797.07 232.25 790.32 238.99 808.17 256.84"/>
        <rect class="cls-8" x="785.67" y="566.83" width="9.54" height="9.54" transform="translate(-172.66 726.37) rotate(-45)"/>
        <polygon class="cls-8" points="761 477.95 831.21 548.16 853.82 525.55 839.14 510.87 832.4 517.61 840.33 525.55 831.21 534.67 790.94 494.41 798.88 486.47 792.13 479.73 784.2 487.66 767.74 471.2 761 477.95"/>
        <polygon class="cls-8" points="760.32 415.09 772.22 426.99 763.1 436.11 751.2 424.21 744.46 430.95 756.36 442.85 729.38 469.83 736.12 476.57 785.71 426.99 767.07 408.34 760.32 415.09"/>
        <polygon class="cls-8" points="791.5 347.6 807.36 331.73 784.75 309.12 778.01 315.87 793.88 331.73 784.75 340.86 774.28 330.39 767.54 337.13 785.94 355.53 770.08 371.4 776.82 378.15 792.69 362.28 801.81 371.4 778.01 395.2 796.65 413.85 803.4 407.1 791.5 395.2 808.55 378.15 816.49 386.08 839.1 363.47 832.35 356.72 816.49 372.59 807.36 363.47 835.13 335.7 828.39 328.96 800.62 356.72 791.5 347.6"/>
        <polygon class="cls-8" points="740.98 597.89 796.52 542.35 765.98 511.81 743.36 534.42 750.11 541.16 765.98 525.3 783.03 542.35 727.5 597.89 750.11 620.5 772.72 597.89 765.98 591.14 750.11 607.01 740.98 597.89"/>
        <polygon class="cls-8" points="778.79 466.29 797.71 447.37 816.63 466.29 823.37 459.55 797.71 433.89 772.05 459.55 778.79 466.29"/>
        <polygon class="cls-8" points="304.84 548.95 298.1 555.69 313.97 571.56 304.84 580.68 288.98 564.82 282.23 571.56 304.84 594.17 327.46 571.56 304.84 548.95"/>
        <polygon class="cls-8" points="578.55 549.4 625.76 596.6 606.03 616.33 612.78 623.07 639.25 596.6 585.3 542.65 594.42 533.53 608.3 547.41 622.98 532.74 616.24 525.99 608.3 533.93 594.42 520.04 538.89 575.58 582.52 619.21 605.13 596.6 578.55 570.02 571.81 576.77 591.64 596.6 582.52 605.72 552.37 575.58 578.55 549.4"/>
        <rect class="cls-8" x="254.28" y="564.59" width="9.54" height="24.84" transform="translate(-332.13 352.17) rotate(-45)"/>
        <polygon class="cls-8" points="422.03 620.52 398.23 596.72 407.35 587.6 431.15 611.4 453.76 588.79 447.02 582.04 431.15 597.91 414.1 580.85 444.4 550.55 437.66 543.81 399.42 582.04 375.62 558.24 368.88 564.99 392.68 588.79 383.55 597.91 359.75 574.11 337.14 596.72 343.88 603.46 359.75 587.6 376.81 604.65 368.88 612.59 399.42 643.13 406.16 636.39 382.36 612.59 391.49 603.46 415.29 627.26 422.03 620.52"/>
        <polygon class="cls-8" points="784.4 60.48 803.32 41.56 822.24 60.48 828.98 53.73 803.32 28.07 777.66 53.73 784.4 60.48"/>
        <polygon class="cls-8" points="783.69 10.61 790.44 17.36 797.18 10.61 791.05 4.48 790.44 5.1 789.82 4.48 783.69 10.61"/>
        <polygon class="cls-8" points="278.16 510.87 271.41 517.61 279.35 525.55 270.22 534.67 229.96 494.41 237.89 486.47 231.15 479.73 223.22 487.66 206.76 471.2 200.01 477.95 270.22 548.16 292.83 525.55 278.16 510.87"/>
        <polygon class="cls-8" points="812.51 161.51 803.39 170.63 779.59 146.83 772.84 153.57 803.39 184.12 826 161.51 795.45 130.96 788.71 137.71 812.51 161.51"/>
        <rect class="cls-8" x="738.91" y="75.13" width="38.66" height="9.54" transform="translate(165.59 559.55) rotate(-45)"/>
        <rect class="cls-8" x="792.43" y="183.54" width="9.54" height="43.2" transform="translate(88.44 623.79) rotate(-45)"/>
        <polygon class="cls-8" points="779.63 128.64 786.37 121.9 772.34 107.88 793.37 86.85 805.27 98.75 795.35 108.67 802.09 115.41 818.75 98.75 793.37 73.36 758.86 107.88 779.63 128.64"/>
        <polygon class="cls-8" points="446.36 512.58 392.67 458.88 352.06 499.49 358.81 506.23 392.67 472.37 432.87 512.58 401.14 544.31 391.22 534.39 384.48 541.14 401.14 557.8 446.36 512.58"/>
        <polygon class="cls-8" points="721 122.22 714.26 128.96 725.72 140.43 710.2 155.95 716.94 162.69 739.21 140.43 721 122.22"/>
        <rect class="cls-8" x="717.42" y="443.4" width="17.47" height="9.54" transform="translate(-104.22 644.75) rotate(-45)"/>
        <rect class="cls-8" x="756.22" y="276.14" width="9.54" height="34.78" transform="translate(15.34 624.09) rotate(-45)"/>
        <polygon class="cls-8" points="644.76 507.46 615.06 477.76 594.44 498.39 609.11 513.06 615.86 506.32 607.92 498.39 615.06 491.25 638.02 514.2 644.76 507.46"/>
        <rect class="cls-8" x="333.98" y="533.71" width="58.51" height="9.54" transform="translate(-274.37 414.56) rotate(-45)"/>
        <polygon class="cls-8" points="693.38 172.81 717.37 196.8 708.25 205.92 684.26 181.94 677.51 188.68 701.5 212.67 677.7 236.47 684.45 243.21 730.86 196.8 700.13 166.07 693.38 172.81"/>
        <polygon class="cls-8" points="697 393.2 690.26 399.95 713.3 422.99 704.18 432.12 691.2 419.14 684.46 425.88 704.18 445.6 726.79 422.99 697 393.2"/>
        <rect class="cls-8" x="721.68" y="227.8" width="9.54" height="17.47" transform="translate(45.52 582.95) rotate(-45)"/>
        <rect class="cls-8" x="312.38" y="519.41" width="9.54" height="27.87" transform="translate(-284.24 380.47) rotate(-45)"/>
        <polygon class="cls-8" points="744.92 334.15 720.33 358.74 701.41 339.82 694.67 346.57 720.33 372.23 751.67 340.89 744.92 334.15"/>
        <polygon class="cls-8" points="510.54 568.06 518.78 559.82 512.03 553.08 489.42 575.69 496.17 582.43 504.41 574.19 526.22 596.01 532.36 589.88 510.54 568.06"/>
        <polygon class="cls-8" points="722.66 90.32 715.32 97.66 707.98 104.99 714.72 111.74 722.66 103.8 764.59 145.74 771.33 138.99 722.66 90.32"/>
        <rect class="cls-8" x="307.36" y="341.51" width="9.54" height="19.45" transform="translate(-156.94 323.6) rotate(-45)"/>
        <polygon class="cls-8" points="275.6 442.03 282.34 435.28 262.17 415.12 306.68 370.61 299.94 363.87 248.69 415.12 275.6 442.03"/>
        <polygon class="cls-8" points="327.48 367.79 383.02 423.32 426.65 379.69 404.04 357.08 377.47 383.66 384.21 390.4 404.04 370.57 413.17 379.69 383.02 409.84 356.84 383.66 404.04 336.45 455.57 387.98 462.32 381.24 404.04 322.96 350.09 376.91 340.97 367.79 354.86 353.91 326.5 325.55 319.76 332.3 341.37 353.91 327.48 367.79"/>
        <polygon class="cls-8" points="279.66 270.98 307.25 243.39 316.82 252.96 323.56 246.21 307.25 229.9 272.92 264.23 279.66 270.98"/>
        <rect class="cls-8" x="397.12" y="497.75" width="9.54" height="22.58" transform="translate(-242.24 433.27) rotate(-45)"/>
        <rect class="cls-8" x="522.48" y="523.69" width="65.64" height="9.54" transform="translate(-211.03 547.44) rotate(-45)"/>
        <rect class="cls-8" x="332.7" y="488.59" width="9.54" height="9.54" transform="translate(-250.02 383.15) rotate(-45)"/>
        <rect class="cls-8" x="464.7" y="557" width="9.54" height="43.2" transform="translate(-271.63 501.44) rotate(-45)"/>
        <rect class="cls-8" x="258.14" y="275.81" width="9.54" height="21.68" transform="translate(-125.69 269.87) rotate(-45)"/>
        <path class="cls-7" d="M742.58,69.72l-24.99-24.99-9.12,9.12,7.93,7.93-23.8,23.8,9.12,9.12,23.8-23.8,7.93,7.93,9.12-9.12ZM701.72,92.34l-6.74-6.74,23.8-23.8-7.93-7.93,6.74-6.74,22.61,22.61-6.74,6.74-7.93-7.93-23.8,23.8Z"/>
        <path class="cls-7" d="M738.82,90.19l9.12,9.12,29.72-29.72-9.12-9.12-29.72,29.72ZM747.94,96.94l-6.74-6.74,27.34-27.34,6.74,6.74-27.34,27.34Z"/>
        <path class="cls-7" d="M776.18,193.24l32.92,32.92,9.12-9.12-32.92-32.92-9.12,9.12ZM809.1,223.78l-30.54-30.54,6.74-6.74,30.54,30.54-6.74,6.74Z"/>
        <path class="cls-7" d="M345.95,519.8l-28.71-28.71,20.31-20.31,7.93,7.93,32.92-32.92-9.12-9.12-23.8,23.8-6.74-6.74,23.8-23.8-9.12-9.12-23.8,23.8-6.74-6.74,23.8-23.8-24.99-24.99-9.12,9.12,15.87,15.87-14.68,14.68-24.35-24.35-9.12,9.12,32.29,32.29-23.8,23.8,9.12,9.12,23.8-23.8,6.74,6.74-29.43,29.43,37.84,37.84,9.12-9.12ZM330.8,461.65l-9.12-9.12-23.8,23.8-6.74-6.74,23.8-23.8-32.29-32.29,6.74-6.74,24.35,24.35,17.06-17.06-15.87-15.87,6.74-6.74,22.61,22.61-23.8,23.8,9.12,9.12,23.8-23.8,6.74,6.74-23.8,23.8,9.12,9.12,23.8-23.8,6.74,6.74-30.54,30.54-7.93-7.93-22.69,22.69,28.71,28.71-6.74,6.74-35.46-35.46,29.43-29.43Z"/>
        <path class="cls-7" d="M325.84,165l9.12,9.12,23.8-23.8,6.74,6.74-23.8,23.8,24.99,24.99,9.12-9.12-15.87-15.87,14.68-14.68,30.3,30.3,9.12-9.12-38.24-38.24,17.13-17.13-9.12-9.12-17.13,17.13-6.74-6.74,23.8-23.8-24.99-24.99-9.12,9.12,15.87,15.87-14.68,14.68-7.93-7.93-32.92,32.92,9.12,9.12,23.8-23.8,6.74,6.74-23.8,23.8ZM319.09,155.88l-6.74-6.74,30.54-30.54,7.93,7.93,17.06-17.06-15.87-15.87,6.74-6.74,22.61,22.61-23.8,23.8,9.12,9.12,17.13-17.13,6.74,6.74-17.13,17.13,38.24,38.24-6.74,6.74-30.3-30.3-17.06,17.06,15.87,15.87-6.74,6.74-22.61-22.61,23.8-23.8-9.12-9.12-23.8,23.8-6.74-6.74,23.8-23.8-9.12-9.12-23.8,23.8Z"/>
        <path class="cls-7" d="M618.85,292.94l-24.31,24.31-6.74-6.74,16.3-16.3-9.12-9.12-16.3,16.3-6.74-6.74,23.8-23.8-21.02-21.02-9.12,9.12,11.9,11.9-14.68,14.68-42.2-42.2-9.12,9.12,50.14,50.14-23.8,23.8,9.12,9.12,23.8-23.8,6.74,6.74-15.87,15.87,64.77,64.77,9.12-9.12-55.65-55.65,6.74-6.74,7.93,7.93,33.44-33.44-9.12-9.12ZM586.6,325.19l-9.12,9.12,55.65,55.65-6.74,6.74-62.39-62.39,15.87-15.87-9.12-9.12-23.8,23.8-6.74-6.74,23.8-23.8-50.14-50.14,6.74-6.74,42.2,42.2,17.06-17.06-11.9-11.9,6.74-6.74,18.64,18.64-23.8,23.8,9.12,9.12,16.3-16.3,6.74,6.74-16.3,16.3,9.12,9.12,24.31-24.31,6.74,6.74-31.06,31.06-7.93-7.93Z"/>
        <path class="cls-7" d="M793.88,347.6l15.87-15.87-24.99-24.99-9.12,9.12,15.87,15.87-6.74,6.74-10.47-10.47-9.12,9.12,18.4,18.4-15.87,15.87,9.12,9.12,15.87-15.87,6.74,6.74-23.8,23.8,21.02,21.02,9.12-9.12-11.9-11.9,14.68-14.68,7.93,7.93,24.99-24.99-9.12-9.12-15.87,15.87-6.74-6.74,27.77-27.77-9.12-9.12-27.77,27.77-6.74-6.74ZM828.39,328.96l6.74,6.74-27.77,27.77,9.12,9.12,15.87-15.87,6.74,6.74-22.61,22.61-7.93-7.93-17.06,17.06,11.9,11.9-6.74,6.74-18.64-18.64,23.8-23.8-9.12-9.12-15.87,15.87-6.74-6.74,15.87-15.87-18.4-18.4,6.74-6.74,10.47,10.47,9.12-9.12-15.87-15.87,6.74-6.74,22.61,22.61-15.87,15.87,9.12,9.12,27.77-27.77Z"/>
        <path class="cls-7" d="M265.54,217.5l19.04,19.04,27.77-27.77-36.89-36.89-23.15,23.15,9.12,9.12,14.03-14.03,18.64,18.64-9.52,9.52-9.92-9.92-9.12,9.12ZM296.48,208.77l-21.02-21.02-14.03,14.03-6.74-6.74,20.77-20.77,34.51,34.51-25.39,25.39-16.66-16.66,6.74-6.74,9.92,9.92,11.9-11.9Z"/>
        <path class="cls-7" d="M424.22,420.4l-9.12-9.12-23.2,23.2,27.77,27.77,41.05-41.05-23.15-23.15-9.12,9.12,14.03,14.03-22.8,22.8-9.52-9.52,14.08-14.08ZM444.85,421.2l-14.03-14.03,6.74-6.74,20.77,20.77-38.67,38.67-25.39-25.39,20.82-20.82,6.74,6.74-14.08,14.08,11.9,11.9,25.18-25.18Z"/>
        <path class="cls-7" d="M448.74,512.58l-56.08-56.08-42.98,42.98,9.12,9.12,33.86-33.86,37.83,37.83-29.35,29.35-9.92-9.92-9.12,9.12,19.04,19.04,47.6-47.6ZM391.22,534.39l9.92,9.92,31.73-31.73-40.21-40.21-33.86,33.86-6.74-6.74,40.6-40.6,53.7,53.7-45.22,45.22-16.66-16.66,6.74-6.74Z"/>
        <path class="cls-7" d="M524.05,321.39l-19.04-19.04-27.77,27.77,36.89,36.89,23.15-23.15-9.12-9.12-14.03,14.03-18.64-18.64,9.52-9.52,9.92,9.92,9.12-9.12ZM493.11,330.12l21.02,21.02,14.03-14.03,6.74,6.74-20.77,20.77-34.51-34.51,25.39-25.39,16.66,16.66-6.74,6.74-9.92-9.92-11.9,11.9Z"/>
        <path class="cls-7" d="M779.63,131.02l9.12-9.12-14.03-14.03,18.64-18.64,9.52,9.52-9.92,9.92,9.12,9.12,19.04-19.04-27.77-27.77-36.89,36.89,23.15,23.15ZM818.75,98.75l-16.66,16.66-6.74-6.74,9.92-9.92-11.9-11.9-21.02,21.02,14.03,14.03-6.74,6.74-20.77-20.77,34.51-34.51,25.39,25.39Z"/>
        <path class="cls-7" d="M304.84,546.57l-9.12,9.12,15.87,15.87-6.74,6.74-15.87-15.87-9.12,9.12,24.99,24.99,24.99-24.99-24.99-24.99ZM282.23,571.56l6.74-6.74,15.87,15.87,9.12-9.12-15.87-15.87,6.74-6.74,22.61,22.61-22.61,22.61-22.61-22.61Z"/>
        <path class="cls-7" d="M284.41,327.19l9.12,9.12,22.39-22.39-24.99-24.99-22.39,22.39,9.12,9.12,13.27-13.27,6.74,6.74-13.27,13.27ZM277.67,318.07l-6.74-6.74,20.01-20.01,22.61,22.61-20.01,20.01-6.74-6.74,13.27-13.27-9.12-9.12-13.27,13.27Z"/>
        <path class="cls-7" d="M403.96,152.68l66.7-66.7-24.99-24.99-35.13,35.13,9.12,9.12,26.01-26.01,6.74,6.74-57.58,57.58,9.12,9.12ZM445.67,76.86l-26.01,26.01-6.74-6.74,32.75-32.75,22.61,22.61-64.32,64.32-6.74-6.74,57.58-57.58-9.12-9.12Z"/>
        <path class="cls-7" d="M594.24,386.36l-9.12,9.12,17.57,17.57-6.74,6.74-40.26-40.26-9.12,9.12,49.38,49.38,24.99-24.99-26.69-26.69ZM548.94,388.66l6.74-6.74,40.26,40.26,9.12-9.12-17.57-17.57,6.74-6.74,24.31,24.31-22.61,22.61-47-47Z"/>
        <path class="cls-7" d="M697,390.82l-9.12,9.12,23.05,23.05-6.74,6.74-12.98-12.98-9.12,9.12,22.1,22.1,24.99-24.99-32.17-32.17ZM684.46,425.88l6.74-6.74,12.98,12.98,9.12-9.12-23.05-23.05,6.74-6.74,29.79,29.79-22.61,22.61-19.72-19.72Z"/>
        <path class="cls-7" d="M762.28,365.42l-9.12-9.12-36.19,36.19,24.99,24.99,24.99-24.99-9.12-9.12-15.87,15.87-6.74-6.74,27.07-27.07ZM757.83,385.74l6.74,6.74-22.61,22.61-22.61-22.61,33.81-33.81,6.74,6.74-27.07,27.07,9.12,9.12,15.87-15.87Z"/>
        <path class="cls-7" d="M675.81,39.26l-29.32,29.32,9.12,9.12,20.2-20.2,6.74,6.74-15.87,15.87,9.12,9.12,24.99-24.99-24.99-24.99ZM669.07,80.12l15.87-15.87-9.12-9.12-20.2,20.2-6.74-6.74,26.94-26.94,22.61,22.61-22.61,22.61-6.74-6.74Z"/>
        <path class="cls-7" d="M810.13,161.51l-6.74,6.74-23.8-23.8-9.12,9.12,32.92,32.92,24.99-24.99-32.92-32.92-9.12,9.12,23.8,23.8ZM826,161.51l-22.61,22.61-30.54-30.54,6.74-6.74,23.8,23.8,9.12-9.12-23.8-23.8,6.74-6.74,30.54,30.54Z"/>
        <path class="cls-7" d="M292.95,493.81l-22.57-22.57-9.12,9.12,5.82,5.82-15.91,15.91,8.51,8.51,15.91-15.91,8.24,8.24,9.12-9.12ZM259.68,508.23l-6.13-6.13,15.91-15.91-5.82-5.82,6.74-6.74,20.19,20.19-6.74,6.74-8.24-8.24-15.91,15.91Z"/>
        <path class="cls-7" d="M297.5,145.98l-21.82-21.82,8.24-8.24-9.12-9.12-24.99,24.99,9.12,9.12,8.24-8.24,21.82,21.82,8.51-8.51ZM258.93,138.54l-6.74-6.74,22.61-22.61,6.74,6.74-8.24,8.24,21.82,21.82-6.13,6.13-21.82-21.82-8.24,8.24Z"/>
        <path class="cls-7" d="M279.66,273.36l27.59-27.59,9.57,9.57,9.12-9.12-18.69-18.69-36.71,36.71,9.12,9.12ZM323.56,246.21l-6.74,6.74-9.57-9.57-27.59,27.59-6.74-6.74,34.33-34.33,16.31,16.31Z"/>
        <path class="cls-7" d="M651.49,230.37l-9.12,9.12,15.2,15.2-29.18,29.18,9.12,9.12,38.3-38.3-24.33-24.33ZM630.77,283.88l29.18-29.18-15.2-15.2,6.74-6.74,21.95,21.95-35.92,35.92-6.74-6.74Z"/>
        <path class="cls-7" d="M610.09,153.08l-24.82-24.82-50.45,50.45,9.12,9.12,41.32-41.32,15.7,15.7,9.12-9.12ZM543.94,185.45l-6.74-6.74,48.07-48.07,22.44,22.44-6.74,6.74-15.7-15.7-41.32,41.32Z"/>
        <path class="cls-7" d="M749.22,482.73l-9.12,9.12,3.97,3.97-13.88,13.88,9.12,9.12,23.01-23.01-13.09-13.09ZM732.56,509.7l13.88-13.88-3.97-3.97,6.74-6.74,10.71,10.71-20.63,20.63-6.74-6.74Z"/>
        <path class="cls-7" d="M698.28,130.52l9.92-9.92-9.12-9.12-19.04,19.04,17.06,17.06,9.12-9.12-7.93-7.93ZM682.42,130.52l16.66-16.66,6.74,6.74-9.92,9.92,7.93,7.93-6.74,6.74-14.68-14.68Z"/>
        <path class="cls-7" d="M608.63,169.87l53,53,17.06-17.06-9.12-9.12-7.93,7.93-43.87-43.87-9.12,9.12ZM669.55,199.07l6.74,6.74-14.68,14.68-50.62-50.62,6.74-6.74,43.87,43.87,7.93-7.93Z"/>
        <path class="cls-7" d="M721,119.84l-9.12,9.12,11.46,11.46-15.52,15.52,9.12,9.12,24.64-24.64-20.59-20.59ZM710.2,155.95l15.52-15.52-11.46-11.46,6.74-6.74,18.21,18.21-22.26,22.26-6.74-6.74Z"/>
        <path class="cls-7" d="M325.11,367.79l57.91,57.91,46.01-46.01-24.99-24.99-28.96,28.96,9.12,9.12,19.83-19.83,6.74,6.74-27.77,27.77-23.8-23.8,44.82-44.82,51.53,51.53,9.12-9.12-60.65-60.65-53.95,53.95-6.74-6.74,13.88-13.88-30.73-30.73-9.12,9.12,21.61,21.61-13.88,13.88ZM326.5,325.55l28.35,28.35-13.88,13.88,9.12,9.12,53.95-53.95,58.27,58.27-6.74,6.74-51.53-51.53-47.2,47.2,26.18,26.18,30.15-30.15-9.12-9.12-19.83,19.83-6.74-6.74,26.58-26.58,22.61,22.61-43.63,43.63-55.53-55.53,13.88-13.88-21.61-21.61,6.74-6.74Z"/>
        <path class="cls-7" d="M546.13,504.34l-58.76-58.76-24.99,24.99,37.86,37.86,9.12-9.12-28.73-28.73,6.74-6.74,40.51,40.51-23.8,23.8-57.57-57.57,15.87-15.87-9.12-9.12-24.99,24.99,66.69,66.69-6.74,6.74-26.63-26.63-17.06,17.06,9.12,9.12,7.93-7.93,26.63,26.63,57.91-57.91ZM453.66,541.18l-6.74-6.74,14.68-14.68,26.63,26.63,9.12-9.12-66.7-66.69,22.61-22.61,6.74,6.74-15.87,15.87,59.95,59.95,26.18-26.18-42.89-42.89-9.12,9.12,28.73,28.73-6.74,6.74-35.48-35.48,22.61-22.61,56.38,56.38-55.53,55.53-26.63-26.63-7.93,7.93Z"/>
        <path class="cls-7" d="M581.81,165.18l-29.21,29.21,9.12,9.12,20.09-20.09,6.74,6.74-51.2,51.2,17.06,17.06,9.12-9.12-7.93-7.93,42.08-42.08,23.8,23.8-19.83,19.83-6.74-6.74,11.9-11.9-9.12-9.12-21.02,21.02,24.99,24.99,38.08-38.08-57.91-57.91ZM579.03,236.19l18.64-18.64,6.74,6.74-11.9,11.9,9.12,9.12,22.21-22.21-26.18-26.18-44.46,44.46,7.93,7.93-6.74,6.74-14.68-14.68,51.2-51.2-9.12-9.12-20.09,20.09-6.74-6.74,26.83-26.83,55.53,55.53-35.7,35.7-22.61-22.61Z"/>
        <path class="cls-7" d="M704.9,261.62l24.45,24.45,17.06-17.06-9.12-9.12-7.93,7.93-24.45-24.45-57.91,57.91,38.08,38.08,24.99-24.99-23.01-23.01-9.12,9.12,13.88,13.88-6.74,6.74-19.83-19.83,23.8-23.8,36.89,36.89-15.87,15.87,9.12,9.12,24.99-24.99-46.01-46.01,6.74-6.74ZM719.18,336.99l-6.74-6.74,15.87-15.87-39.27-39.27-26.18,26.18,22.21,22.21,9.12-9.12-13.88-13.88,6.74-6.74,20.63,20.63-22.61,22.61-35.7-35.7,55.53-55.53,24.45,24.45,7.93-7.93,6.74,6.74-14.68,14.68-24.45-24.45-9.12,9.12,46.01,46.01-22.61,22.61Z"/>
        <path class="cls-7" d="M578.55,551.78l44.82,44.82-19.73,19.73,9.12,9.12,28.85-28.85-53.95-53.95,6.74-6.74,13.88,13.88,17.06-17.06-9.12-9.12-7.93,7.93-13.88-13.88-57.91,57.91,46.01,46.01,24.99-24.99-28.96-28.96-9.12,9.12,19.83,19.83-6.74,6.74-27.77-27.77,23.8-23.8ZM591.64,596.6l-19.83-19.83,6.74-6.74,26.58,26.58-22.61,22.61-43.63-43.63,55.53-55.53,13.88,13.88,7.93-7.93,6.74,6.74-14.68,14.68-13.88-13.88-9.12,9.12,53.95,53.95-26.47,26.47-6.74-6.74,19.73-19.73-47.2-47.2-26.18,26.18,30.15,30.15,9.12-9.12Z"/>
        <path class="cls-7" d="M722.66,87.94l-17.06,17.06,9.12,9.12,7.93-7.93,41.93,41.93,9.12-9.12-51.06-51.06ZM722.66,103.8l-7.93,7.93-6.74-6.74,7.34-7.34,7.34-7.34,48.68,48.68-6.74,6.74-41.93-41.93Z"/>
        <path class="cls-7" d="M778.79,468.67l18.92-18.92,18.92,18.92,9.12-9.12-28.04-28.04-28.04,28.04,9.12,9.12ZM823.37,459.55l-6.74,6.74-18.92-18.92-18.92,18.92-6.74-6.74,25.66-25.66,25.66,25.66Z"/>
        <path class="cls-7" d="M658.73,169.83l22.89-22.89-9.12-9.12-32.01,32.01,20.11,20.11,9.12-9.12-10.99-10.99ZM642.86,169.83l29.63-29.63,6.74,6.74-22.89,22.89,10.99,10.99-6.74,6.74-17.73-17.73Z"/>
        <path class="cls-7" d="M255.65,468.67l9.12-9.12-28.04-28.04-28.04,28.04,9.12,9.12,18.92-18.92,18.92,18.92ZM217.81,466.29l-6.74-6.74,25.66-25.66,25.66,25.66-6.74,6.74-18.92-18.92-18.92,18.92Z"/>
        <path class="cls-7" d="M275.6,444.41l9.12-9.12-20.17-20.17,44.51-44.51-9.12-9.12-53.63,53.63,29.29,29.29ZM306.68,370.61l-44.51,44.51,20.17,20.17-6.74,6.74-26.91-26.91,51.25-51.25,6.74,6.74Z"/>
        <path class="cls-7" d="M313.18,131.84l9.12-9.12-42.82-42.82,25.05-25.05-9.12-9.12-34.17,34.17,51.94,51.94ZM302.16,54.84l-25.05,25.05,42.82,42.82-6.74,6.74-49.56-49.56,31.79-31.79,6.74,6.74Z"/>
        <path class="cls-7" d="M437.72,303.94l-28.04-28.04-23.67,23.67,9.12,9.12,14.54-14.54,18.92,18.92,9.12-9.12ZM395.13,306.31l-6.74-6.74,21.29-21.29,25.66,25.66-6.74,6.74-18.92-18.92-14.54,14.54Z"/>
        <path class="cls-7" d="M493.24,149.75l-23.8,23.79,28.04,28.04,9.12-9.12-18.92-18.92,14.67-14.67-9.12-9.12ZM504.23,192.46l-6.74,6.74-25.66-25.66,21.42-21.41,6.74,6.74-14.67,14.67,18.92,18.92Z"/>
        <path class="cls-7" d="M744.92,331.77l-24.59,24.59-18.92-18.92-9.12,9.12,28.04,28.04,33.72-33.72-9.12-9.12ZM694.67,346.57l6.74-6.74,18.92,18.92,24.59-24.59,6.74,6.74-31.34,31.34-25.66-25.66Z"/>
        <path class="cls-7" d="M650.95,84.1l-14.59-14.59,18.92-18.92-9.12-9.12-28.04,28.04,23.71,23.71,9.12-9.12ZM646.16,43.85l6.74,6.74-18.92,18.92,14.59,14.59-6.74,6.74-21.33-21.33,25.66-25.66Z"/>
        <path class="cls-7" d="M784.4,62.86l18.92-18.92,18.92,18.92,9.12-9.12-28.04-28.04-28.04,28.04,9.12,9.12ZM828.98,53.73l-6.74,6.74-18.92-18.92-18.92,18.92-6.74-6.74,25.66-25.66,25.66,25.66Z"/>
        <path class="cls-7" d="M790.44,580.72l9.12-9.12-9.12-9.12-9.12,9.12,9.12,9.12ZM797.18,571.6l-6.74,6.74-6.74-6.74,6.74-6.74,6.74,6.74Z"/>
        <path class="cls-7" d="M392.45,113.94l9.12,9.12,9.12-9.12-9.12-9.12-9.12,9.12ZM401.57,120.68l-6.74-6.74,6.74-6.74,6.74,6.74-6.74,6.74Z"/>
        <path class="cls-7" d="M264.49,248.11l9.12-9.12-9.12-9.12-9.12,9.12,9.12,9.12ZM271.24,238.99l-6.74,6.74-6.74-6.74,6.74-6.74,6.74,6.74Z"/>
        <path class="cls-7" d="M343.67,272.17l-9.12-9.12-9.12,9.12,9.12,9.12,9.12-9.12ZM334.55,265.42l6.74,6.74-6.74,6.74-6.74-6.74,6.74-6.74Z"/>
        <path class="cls-7" d="M337.47,502.49l9.12-9.12-9.12-9.12-9.12,9.12,9.12,9.12ZM344.22,493.36l-6.74,6.74-6.74-6.74,6.74-6.74,6.74,6.74Z"/>
        <path class="cls-7" d="M274.44,37.84l9.12,9.12,9.12-9.12-9.12-9.12-9.12,9.12ZM283.57,44.58l-6.74-6.74,6.74-6.74,6.74,6.74-6.74,6.74Z"/>
        <path class="cls-7" d="M478.28,94.68l-26.36,26.36,9.12,9.12,26.36-26.36-9.12-9.12ZM454.3,121.04l23.98-23.98,6.74,6.74-23.98,23.98-6.74-6.74Z"/>
        <path class="cls-7" d="M515.09,133.22l-19.36-19.36-9.12,9.12,19.36,19.36,9.12-9.12ZM495.73,116.24l16.98,16.98-6.74,6.74-16.98-16.98,6.74-6.74Z"/>
        <path class="cls-7" d="M315.63,363.87l9.12-9.12-16.14-16.14-9.12,9.12,16.14,16.14ZM322.38,354.74l-6.74,6.74-13.76-13.76,6.74-6.74,13.76,13.76Z"/>
        <path class="cls-7" d="M328.66,61.16l9.12-9.12-19.36-19.36-9.12,9.12,19.36,19.36ZM335.41,52.03l-6.74,6.74-16.98-16.98,6.74-6.74,16.98,16.98Z"/>
        <path class="cls-7" d="M394.21,89.81l-19.36-19.36-9.12,9.12,19.36,19.36,9.12-9.12ZM374.85,72.83l16.98,16.98-6.74,6.74-16.98-16.98,6.74-6.74Z"/>
        <path class="cls-7" d="M488.66,45.92l17.71,17.71,9.12-9.12-17.71-17.71-9.12,9.12ZM506.36,61.25l-15.33-15.33,6.74-6.74,15.33,15.33-6.74,6.74Z"/>
        <path class="cls-7" d="M253.64,562.47l-9.12,9.12,19.94,19.94,9.12-9.12-19.94-19.94ZM246.89,571.59l6.74-6.74,17.56,17.56-6.74,6.74-17.56-17.56Z"/>
        <path class="cls-7" d="M267.2,300.06l9.12-9.12-17.71-17.71-9.12,9.12,17.71,17.71ZM273.94,290.94l-6.74,6.74-15.33-15.33,6.74-6.74,15.33,15.33Z"/>
        <path class="cls-7" d="M638.99,257.59l-9.12-9.12-28.17,28.17,9.12,9.12,28.17-28.17ZM629.87,250.85l6.74,6.74-25.79,25.79-6.74-6.74,25.79-25.79Z"/>
        <path class="cls-7" d="M681.25,474.39l-9.12,9.12,9.12,9.12,9.12-9.12-9.12-9.12ZM674.5,483.51l6.74-6.74,6.74,6.74-6.74,6.74-6.74-6.74Z"/>
        <path class="cls-7" d="M610.3,468.64l-9.12-9.12-9.12,9.12,9.12,9.12,9.12-9.12ZM601.18,461.89l6.74,6.74-6.74,6.74-6.74-6.74,6.74-6.74Z"/>
        <path class="cls-7" d="M545.38,488.63l9.12,9.12,9.12-9.12-9.12-9.12-9.12,9.12ZM554.5,495.37l-6.74-6.74,6.74-6.74,6.74,6.74-6.74,6.74Z"/>
        <path class="cls-7" d="M478.78,438.08l-9.12-9.12-9.12,9.12,9.12,9.12,9.12-9.12ZM469.66,431.34l6.74,6.74-6.74,6.74-6.74-6.74,6.74-6.74Z"/>
        <path class="cls-7" d="M415.62,513.65l-18.34-18.34-9.12,9.12,18.34,18.34,9.12-9.12ZM397.28,497.69l15.96,15.96-6.74,6.74-15.96-15.96,6.74-6.74Z"/>
        <path class="cls-7" d="M693.48,551.65l9.12-9.12-9.12-9.12-9.12,9.12,9.12,9.12ZM700.22,542.53l-6.74,6.74-6.74-6.74,6.74-6.74,6.74,6.74Z"/>
        <path class="cls-7" d="M705.87,517.26l9.12-9.12-17.06-17.06-9.12,9.12,17.06,17.06ZM712.61,508.14l-6.74,6.74-14.68-14.68,6.74-6.74,14.68,14.68Z"/>
        <path class="cls-7" d="M611.16,119.04l-9.12,9.12,18.15,18.15,9.12-9.12-18.15-18.15ZM604.42,128.17l6.74-6.74,15.77,15.77-6.74,6.74-15.77-15.77Z"/>
        <path class="cls-7" d="M757.23,330.8l9.12-9.12-9.12-9.12-9.12,9.12,9.12,9.12ZM763.97,321.68l-6.74,6.74-6.74-6.74,6.74-6.74,6.74,6.74Z"/>
        <path class="cls-7" d="M717.17,382.72l-9.12-9.12-9.12,9.12,9.12,9.12,9.12-9.12ZM708.04,375.97l6.74,6.74-6.74,6.74-6.74-6.74,6.74-6.74Z"/>
        <path class="cls-7" d="M522.99,169.42l-9.12-9.12-9.12,9.12,9.12,9.12,9.12-9.12ZM513.87,162.68l6.74,6.74-6.74,6.74-6.74-6.74,6.74-6.74Z"/>
        <path class="cls-7" d="M535.23,295.75l-9.12,9.12,9.12,9.12,9.12-9.12-9.12-9.12ZM528.48,304.87l6.74-6.74,6.74,6.74-6.74,6.74-6.74-6.74Z"/>
        <path class="cls-7" d="M723.64,224.6l-9.12,9.12,14.73,14.73,9.12-9.12-14.73-14.73ZM716.9,233.73l6.74-6.74,12.35,12.35-6.74,6.74-12.35-12.35Z"/>
        <path class="cls-7" d="M728.96,436.24l-14.73,14.73,9.12,9.12,14.73-14.73-9.12-9.12ZM716.61,450.98l12.35-12.35,6.74,6.74-12.35,12.35-6.74-6.74Z"/>
        <path class="cls-7" d="M701.71,28.88l-9.12,9.12,9.12,9.12,9.12-9.12-9.12-9.12ZM694.97,38l6.74-6.74,6.74,6.74-6.74,6.74-6.74-6.74Z"/>
        <path class="cls-7" d="M432.78,221.23l9.12-9.12-8.26-8.26,14.68-14.68,55.53,55.53,40.85-40.85-19.87-19.87-9.12,9.12,10.74,10.74-22.6,22.6-55.53-55.53-32.92,32.92,17.38,17.38ZM448.32,173.31l55.53,55.53,24.98-24.98-10.74-10.74,6.74-6.74,17.49,17.49-38.47,38.47-55.53-55.53-17.06,17.06,8.26,8.26-6.74,6.74-15-15,30.54-30.54Z"/>
        <path class="cls-7" d="M666.19,340.29l-30.28,30.28,9.12,9.12,21.15-21.15,14.68,14.68-56.5,56.5,24.99,24.99,24.99-24.99-9.12-9.12-15.87,15.87-6.74-6.74,56.5-56.5-32.92-32.92ZM649.36,438.84l15.87-15.87,6.74,6.74-22.61,22.61-22.61-22.61,56.5-56.5-17.06-17.06-21.15,21.15-6.74-6.74,27.9-27.9,30.54,30.54-56.5,56.5,9.12,9.12Z"/>
        <path class="cls-7" d="M789.94,224.17l-32.92-32.92-24.99,24.99,9.12,9.12,15.87-15.87,14.68,14.68-27.05,27.05,24.99,24.99,19.06-19.06-9.12-9.12-9.94,9.94-6.74-6.74,27.05-27.05ZM779.57,250.4l6.74,6.74-16.68,16.68-22.61-22.61,27.05-27.05-17.06-17.06-15.87,15.87-6.74-6.74,22.61-22.61,30.54,30.54-27.05,27.05,9.12,9.12,9.94-9.94Z"/>
        <path class="cls-7" d="M323.25,72.03l-9.12-9.12-17.06,17.06,24.99,24.99,32.92-32.92-9.12-9.12-23.8,23.8-6.74-6.74,7.93-7.93ZM345.86,65.29l6.74,6.74-30.54,30.54-22.61-22.61,14.68-14.68,6.74,6.74-7.93,7.93,9.12,9.12,23.8-23.8Z"/>
        <path class="cls-7" d="M363.48,292.21l6.74-6.74,7.93,7.93,9.12-9.12-17.06-17.06-24.99,24.99,32.92,32.92,9.12-9.12-23.8-23.8ZM347.61,292.21l22.61-22.61,14.68,14.68-6.74,6.74-7.93-7.93-9.12,9.12,23.8,23.8-6.74,6.74-30.54-30.54Z"/>
        <path class="cls-7" d="M635.55,325.21l-9.12-9.12-22.49,22.49,24.99,24.99,32.92-32.92-9.12-9.12-23.8,23.8-6.74-6.74,13.37-13.37ZM652.72,323.9l6.74,6.74-30.54,30.54-22.61-22.61,20.11-20.11,6.74,6.74-13.37,13.37,9.12,9.12,23.8-23.8Z"/>
        <path class="cls-7" d="M512.12,76.15l9.12,9.12,23.8-23.8,6.74,6.74-7.93,7.93,9.12,9.12,17.06-17.06-24.99-24.99-32.92,32.92ZM552.97,82.9l-6.74-6.74,7.93-7.93-9.12-9.12-23.8,23.8-6.74-6.74,30.54-30.54,22.61,22.61-14.68,14.68Z"/>
        <path class="cls-7" d="M330.74,207.91l-11.9,11.9,19.04,19.04,9.12-9.12-9.92-9.92,11.9-11.9-47.39-47.39-9.12,9.12,38.27,38.27ZM346.6,207.91l-11.9,11.9,9.92,9.92-6.74,6.74-16.66-16.66,11.9-11.9-38.27-38.27,6.74-6.74,45.01,45.01Z"/>
        <path class="cls-7" d="M438.25,338.36l33.84,33.84,9.12-9.12-24.71-24.71,11.9-11.9-19.04-19.04-9.12,9.12,9.92,9.92-11.9,11.9ZM449.35,309.8l16.66,16.66-11.9,11.9,24.71,24.71-6.74,6.74-31.46-31.46,11.9-11.9-9.92-9.92,6.74-6.74Z"/>
        <path class="cls-7" d="M452.17,220.94l-9.12,9.12,9.92,9.92-29,29,45.14,45.14,9.12-9.12-36.02-36.02,29-29-19.04-19.04ZM475.85,305l-6.74,6.74-42.76-42.76,29-29-9.92-9.92,6.74-6.74,16.66,16.66-29,29,36.02,36.02Z"/>
        <path class="cls-7" d="M422.94,172.84l23.54-23.54,15.27,15.27,22.92-22.92-9.12-9.12-13.8,13.8-15.27-15.27-32.67,32.67,9.12,9.12ZM461.75,148.7l13.8-13.8,6.74,6.74-20.54,20.54-15.27-15.27-23.54,23.54-6.74-6.74,30.29-30.29,15.27,15.27Z"/>
        <path class="cls-7" d="M546.48,402.88l-9.12,9.12,40.32,40.32-16.33,16.33,21.13,21.13,9.12-9.12-12.01-12.01,16.33-16.33-49.44-49.44ZM577.22,468.65l12,12.01-6.74,6.74-18.75-18.75,16.33-16.33-40.32-40.32,6.74-6.74,47.06,47.07-16.33,16.33Z"/>
        <path class="cls-7" d="M678.4,538.75l-9.12-9.12-4.8,4.8-11.9-11.9-17.38,17.38,9.12,9.12,8.26-8.26,11.9,11.9,13.92-13.92ZM644.32,546.65l-6.74-6.74,15-15,11.9,11.9,4.8-4.8,6.74,6.74-11.54,11.54-11.9-11.9-8.26,8.26Z"/>
        <path class="cls-7" d="M805.79,256.84l-27.77,27.77,26.97,26.97,9.12-9.12-17.85-17.85,27.77-27.77-26.97-26.97-9.12,9.12,17.85,17.85ZM821.66,256.84l-27.77,27.77,17.85,17.85-6.74,6.74-24.59-24.59,27.77-27.77-17.85-17.85,6.74-6.74,24.59,24.59Z"/>
        <path class="cls-7" d="M224.32,184.12l-9.12,9.12,32.92,32.92,9.12-9.12-32.92-32.92ZM217.57,193.24l6.74-6.74,30.54,30.54-6.74,6.74-30.54-30.54Z"/>
        <path class="cls-7" d="M232.89,395.2l14.68-14.68,7.93,7.93,24.99-24.99-9.12-9.12-15.87,15.87-6.74-6.74,27.77-27.77-9.12-9.12-27.77,27.77-6.74-6.74,15.87-15.87-24.99-24.99-9.12,9.12,15.87,15.87-6.74,6.74-10.47-10.47-9.12,9.12,18.4,18.4-15.87,15.87,9.12,9.12,15.87-15.87,6.74,6.74-23.8,23.8,21.02,21.02,9.12-9.12-11.9-11.9ZM217.03,395.2l23.8-23.8-9.12-9.12-15.87,15.87-6.74-6.74,15.87-15.87-18.4-18.4,6.74-6.74,10.47,10.47,9.12-9.12-15.87-15.87,6.74-6.74,22.61,22.61-15.87,15.87,9.12,9.12,27.77-27.77,6.74,6.74-27.77,27.77,9.12,9.12,15.87-15.87,6.74,6.74-22.61,22.61-7.93-7.93-17.06,17.06,11.9,11.9-6.74,6.74-18.64-18.64Z"/>
        <path class="cls-7" d="M213.74,107.88l18.64-18.64,9.52,9.52-9.92,9.92,9.12,9.12,19.04-19.04-27.77-27.77-36.89,36.89,23.15,23.15,9.12-9.12-14.03-14.03ZM197.87,107.88l34.51-34.51,25.39,25.39-16.66,16.66-6.74-6.74,9.92-9.92-11.9-11.9-21.02,21.02,14.03,14.03-6.74,6.74-20.77-20.77Z"/>
        <path class="cls-7" d="M267.39,161.51l-32.92-32.92-9.12,9.12,23.8,23.8-6.74,6.74-23.8-23.8-9.12,9.12,32.92,32.92,24.99-24.99ZM218.6,146.83l23.8,23.8,9.12-9.12-23.8-23.8,6.74-6.74,30.54,30.54-22.61,22.61-30.54-30.54,6.74-6.74Z"/>
        <path class="cls-7" d="M270.38,53.73l-28.04-28.04-28.04,28.04,9.12,9.12,18.92-18.92,18.92,18.92,9.12-9.12ZM223.42,60.48l-6.74-6.74,25.66-25.66,25.66,25.66-6.74,6.74-18.92-18.92-18.92,18.92Z"/>
        <path class="cls-7" d="M253.14,302.46l-17.85-17.85,27.77-27.77-26.97-26.97-9.12,9.12,17.85,17.85-27.77,27.77,26.97,26.97,9.12-9.12ZM247.19,256.84l-17.85-17.85,6.74-6.74,24.59,24.59-27.77,27.77,17.85,17.85-6.74,6.74-24.59-24.59,27.77-27.77Z"/>
        <path class="cls-7" d="M481.37,599.62l9.12-9.12-32.92-32.92-9.12,9.12,32.92,32.92ZM488.12,590.5l-6.74,6.74-30.54-30.54,6.74-6.74,30.54,30.54Z"/>
        <path class="cls-7" d="M424.41,620.52l-23.8-23.8,6.74-6.74,23.8,23.8,24.99-24.99-9.12-9.12-15.87,15.87-14.68-14.68,30.3-30.3-9.12-9.12-38.24,38.24-23.8-23.8-9.12,9.12,23.8,23.8-6.74,6.74-23.8-23.8-24.99,24.99,9.12,9.12,15.87-15.87,14.68,14.68-7.93,7.93,32.92,32.92,9.12-9.12-23.8-23.8,6.74-6.74,23.8,23.8,9.12-9.12ZM382.36,612.59l23.8,23.8-6.74,6.74-30.54-30.54,7.93-7.93-17.06-17.06-15.87,15.87-6.74-6.74,22.61-22.61,23.8,23.8,9.12-9.12-23.8-23.8,6.74-6.74,23.8,23.8,38.24-38.24,6.74,6.74-30.3,30.3,17.06,17.06,15.87-15.87,6.74,6.74-22.61,22.61-23.8-23.8-9.12,9.12,23.8,23.8-6.74,6.74-23.8-23.8-9.12,9.12Z"/>
        <path class="cls-7" d="M512.92,568.06l8.24-8.24-9.12-9.12-24.99,24.99,9.12,9.12,8.24-8.24,21.82,21.82,8.51-8.51-21.82-21.82ZM504.41,574.19l-8.24,8.24-6.74-6.74,22.61-22.61,6.74,6.74-8.24,8.24,21.82,21.82-6.13,6.13-21.82-21.82Z"/>
        <path class="cls-7" d="M727.97,582.46l-28.04-28.04-28.04,28.04,9.12,9.12,18.92-18.92,18.92,18.92,9.12-9.12ZM681.01,589.2l-6.74-6.74,25.66-25.66,25.66,25.66-6.74,6.74-18.92-18.92-18.92,18.92Z"/>
        <path class="cls-7" d="M743.36,597.89l55.53-55.53-32.92-32.92-24.99,24.99,9.12,9.12,15.87-15.87,14.68,14.68-55.53,55.53,24.99,24.99,24.99-24.99-9.12-9.12-15.87,15.87-6.74-6.74ZM765.98,591.14l6.74,6.74-22.61,22.61-22.61-22.61,55.53-55.53-17.06-17.06-15.87,15.87-6.74-6.74,22.61-22.61,30.54,30.54-55.53,55.53,9.12,9.12,15.87-15.87Z"/>
        <path class="cls-7" d="M730.51,166.39l19.04,19.04,7.93-7.93,7.93,7.93,9.12-9.12-17.06-17.06-7.93,7.93-9.92-9.92-9.12,9.12ZM757.48,161.63l14.68,14.68-6.74,6.74-7.93-7.93-7.93,7.93-16.66-16.66,6.74-6.74,9.92,9.92,7.93-7.93Z"/>
        <path class="cls-7" d="M725.21,533.5l7.93-7.93-9.12-9.12-17.06,17.06,16.64,16.64-5.95,5.95,9.12,9.12,15.07-15.07-16.64-16.64ZM720.03,556.09l5.95-5.95-16.64-16.64,14.68-14.68,6.74,6.74-7.93,7.93,16.64,16.64-12.69,12.69-6.74-6.74Z"/>
        <path class="cls-7" d="M553.72,93.77l-9.12,9.12,15.87,15.87-26.26,26.26-7.93-7.93-9.12,9.12,17.06,17.06,44.5-44.5-24.99-24.99ZM519.53,146.21l6.74-6.74,7.93,7.93,28.64-28.64-15.87-15.87,6.74-6.74,22.61,22.61-42.12,42.12-14.68-14.68Z"/>
        <path class="cls-7" d="M396.33,279.18l39.45-39.45-24.99-24.99-9.12,9.12,15.87,15.87-6.74,6.74-15.87-15.87-9.12,9.12,15.87,15.87-14.46,14.46,9.12,9.12ZM388.18,239.73l6.74-6.74,15.87,15.87,9.12-9.12-15.87-15.87,6.74-6.74,22.61,22.61-37.07,37.07-6.74-6.74,14.46-14.46-15.87-15.87Z"/>
        <path class="cls-7" d="M560.83,452.77l-9.12-9.12-15.87,15.87-6.74-6.74,15.87-15.87-9.12-9.12-15.87,15.87-33.52-33.52-9.12,9.12,58.51,58.51,24.99-24.99ZM486.45,412.51l33.52,33.52,15.87-15.87,6.74,6.74-15.87,15.87,9.12,9.12,15.87-15.87,6.74,6.74-22.61,22.61-56.13-56.13,6.74-6.74Z"/>
        <path class="cls-7" d="M485.49,246.82l-24.99,24.99,9.12,9.12,15.87-15.87,6.74,6.74-15.87,15.87,9.12,9.12,15.87-15.87,16.34,16.34,9.12-9.12-41.33-41.33ZM501.36,278.55l-15.87,15.87-6.74-6.74,15.87-15.87-9.12-9.12-15.87,15.87-6.74-6.74,22.61-22.61,38.95,38.95-6.74,6.74-16.34-16.34Z"/>
        <path class="cls-7" d="M580.63,101.14l15.87-15.87,6.74,6.74-15.87,15.87,9.12,9.12,15.87-15.87,10.75,10.75,9.12-9.12-35.74-35.74-24.99,24.99,9.12,9.12ZM629.86,102.76l-6.74,6.74-10.75-10.75-15.87,15.87-6.74-6.74,15.87-15.87-9.12-9.12-15.87,15.87-6.74-6.74,22.61-22.61,33.36,33.36Z"/>
        <path class="cls-7" d="M757.94,415.09l11.9,11.9-6.74,6.74-11.9-11.9-9.12,9.12,11.9,11.9-26.98,26.98,9.12,9.12,51.97-51.97-21.02-21.02-9.12,9.12ZM736.12,476.57l-6.74-6.74,26.98-26.98-11.9-11.9,6.74-6.74,11.9,11.9,9.12-9.12-11.9-11.9,6.74-6.74,18.64,18.64-49.59,49.59Z"/>
        <path class="cls-7" d="M691,172.81l23.99,23.99-6.74,6.74-23.99-23.99-9.12,9.12,23.99,23.99-23.8,23.8,9.12,9.12,48.79-48.79-33.11-33.11-9.12,9.12ZM684.45,243.21l-6.74-6.74,23.8-23.8-23.99-23.99,6.74-6.74,23.99,23.99,9.12-9.12-23.99-23.99,6.74-6.74,30.73,30.73-46.41,46.41Z"/>
        <path class="cls-7" d="M685.05,93.14l-59.03,59.03,9.12,9.12,59.03-59.03-9.12-9.12ZM628.4,152.17l56.65-56.65,6.74,6.74-56.65,56.65-6.74-6.74Z"/>
        <path class="cls-7" d="M633.56,553.85l-9.12,9.12,32.92,32.92,9.12-9.12-32.92-32.92ZM626.82,562.98l6.74-6.74,30.54,30.54-6.74,6.74-30.54-30.54Z"/>
        <path class="cls-7" d="M323.63,548.95l9.12-9.12-22.08-22.08-9.12,9.12,22.08,22.08ZM330.37,539.83l-6.74,6.74-19.7-19.7,6.74-6.74,19.7,19.7Z"/>
        <path class="cls-7" d="M346.81,260.48l53.75-53.75-9.12-9.12-53.75,53.75,9.12,9.12ZM398.19,206.73l-51.37,51.37-6.74-6.74,51.37-51.37,6.74,6.74Z"/>
        <path class="cls-7" d="M345.92,564.91l43.75-43.75-9.12-9.12-43.75,43.75,9.12,9.12ZM387.29,521.16l-41.37,41.37-6.74-6.74,41.37-41.37,6.74,6.74Z"/>
        <path class="cls-7" d="M530.72,127.14l9.12-9.12-75.78-75.79-9.12,9.12,75.78,75.78ZM537.47,118.02l-6.74,6.74-73.4-73.4,6.74-6.74,73.41,73.4Z"/>
        <path class="cls-7" d="M364.87,346.26l9.12-9.12-71.57-71.57-9.12,9.12,71.57,71.57ZM371.62,337.13l-6.74,6.74-69.19-69.19,6.74-6.74,69.19,69.19Z"/>
        <path class="cls-7" d="M575.14,499.5l-48.79,48.79,9.12,9.12,48.79-48.79-9.12-9.12ZM528.73,548.29l46.41-46.41,6.74,6.74-46.41,46.41-6.74-6.74Z"/>
        <path class="cls-7" d="M647.14,507.46l-32.08-32.08-23.01,23.01,17.06,17.06,9.12-9.12-7.93-7.93,4.76-4.76,22.96,22.96,9.12-9.12ZM607.92,498.39l7.93,7.93-6.74,6.74-14.68-14.68,20.63-20.63,29.7,29.7-6.74,6.74-22.96-22.96-7.14,7.14Z"/>
        <path class="cls-7" d="M528.53,403.15l9.12-9.12-7.93-7.93,22.79-22.79,22.96,22.96,9.12-9.12-32.08-32.08-41.03,41.03,17.06,17.06ZM582.21,377.14l-6.74,6.74-22.96-22.96-25.17,25.16,7.93,7.93-6.74,6.74-14.68-14.68,38.65-38.65,29.7,29.7Z"/>
        <path class="cls-7" d="M650.79,474.64l-35.7-35.7-9.12,9.12,80.52,80.52,9.12-9.12-35.7-35.7,22.61-22.61,35.7,35.7,9.12-9.12-44.82-44.82-31.73,31.73ZM718.23,494.48l-35.7-35.7-24.99,24.99,35.7,35.7-6.74,6.74-78.15-78.14,6.74-6.74,35.7,35.7,31.73-31.73,42.44,42.44-6.74,6.74Z"/>
        <path class="cls-7" d="M758.62,477.95l72.59,72.59,24.99-24.99-17.06-17.06-9.12,9.12,7.93,7.93-6.74,6.74-37.88-37.88,7.93-7.93-9.12-9.12-7.93,7.93-16.46-16.46-9.12,9.12ZM792.13,479.73l6.74,6.74-7.93,7.93,40.26,40.26,9.12-9.12-7.93-7.93,6.74-6.74,14.68,14.68-22.61,22.61-70.21-70.21,6.74-6.74,16.46,16.46,7.93-7.93Z"/>
        <path class="cls-7" d="M278.16,508.49l-9.12,9.12,7.93,7.93-6.74,6.74-37.88-37.88,7.93-7.93-9.12-9.12-7.93,7.93-16.46-16.46-9.12,9.12,72.59,72.59,24.99-24.99-17.06-17.06ZM200.01,477.95l6.74-6.74,16.46,16.46,7.93-7.93,6.74,6.74-7.93,7.93,40.26,40.26,9.12-9.12-7.93-7.93,6.74-6.74,14.68,14.68-22.61,22.61-70.21-70.21Z"/>
        <path class="cls-7" d="M630.75,116.35l9.12,9.12,28.96-28.96-9.12-9.12-28.96,28.96ZM639.87,123.09l-6.74-6.74,26.58-26.58,6.74,6.74-26.58,26.58Z"/>
        <path class="cls-7" d="M752.06,275.48l-9.12,9.12,26.97,26.97,9.12-9.12-26.97-26.97ZM745.32,284.61l6.74-6.74,24.59,24.59-6.74,6.74-24.59-24.59Z"/>
        <path class="cls-7" d="M469.66,412.19l16.29-16.29,33.44,33.44,9.12-9.12-33.44-33.44,11.84-11.84-9.12-9.12-37.25,37.25,9.12,9.12ZM504.53,374.94l-11.84,11.84,33.44,33.44-6.74,6.74-33.44-33.44-16.29,16.29-6.74-6.74,34.87-34.87,6.74,6.74Z"/>
      </g>
    </g>
  </g>
</svg>