<svg width="1523" height="1496" viewBox="0 0 1523 1496" fill="none" xmlns="http://www.w3.org/2000/svg">
<path d="M882.667 1021.5C882.667 1028.86 888.636 1034.83 896 1034.83C903.364 1034.83 909.333 1028.86 909.333 1021.5C909.333 1014.14 903.364 1008.17 896 1008.17C888.636 1008.17 882.667 1014.14 882.667 1021.5ZM389 281.5H316V286.5H389V281.5ZM213.5 384V1111H218.5V384H213.5ZM316 1213.5H796V1208.5H316V1213.5ZM898.5 1111V1021.5H893.5V1111H898.5ZM796 1213.5C852.609 1213.5 898.5 1167.61 898.5 1111H893.5C893.5 1164.85 849.848 1208.5 796 1208.5V1213.5ZM213.5 1111C213.5 1167.61 259.391 1213.5 316 1213.5V1208.5C262.152 1208.5 218.5 1164.85 218.5 1111H213.5ZM316 281.5C259.391 281.5 213.5 327.391 213.5 384H218.5C218.5 330.152 262.152 286.5 316 286.5V281.5Z" fill="white"/>
<rect x="430.5" y="181.5" width="897" height="199" rx="99.5" fill="url(#paint0_linear_2052_117)" stroke="black"/>
<g opacity="0.8">
<path d="M896.89 911.608C914.589 908.794 930.705 899.759 942.339 886.127C953.974 872.495 960.366 855.161 960.365 837.239V806.662C960.641 806.656 960.913 806.593 961.165 806.478C961.416 806.362 961.64 806.196 961.825 805.99C962.009 805.785 962.15 805.543 962.237 805.281C962.325 805.018 962.357 804.741 962.333 804.466V802.427C962.333 801.845 962.102 801.286 961.69 800.874C961.278 800.462 960.719 800.23 960.136 800.23H951.438C951.15 800.23 950.865 800.287 950.6 800.398C950.334 800.509 950.093 800.671 949.89 800.875C949.688 801.079 949.528 801.321 949.419 801.588C949.311 801.854 949.256 802.139 949.258 802.427V804.466C949.256 804.753 949.311 805.038 949.419 805.305C949.528 805.571 949.688 805.814 949.89 806.018C950.093 806.222 950.334 806.384 950.6 806.495C950.865 806.605 951.15 806.662 951.438 806.662H951.701V836.027C951.696 854.023 944.544 871.281 931.817 884.005C919.089 896.728 901.83 903.876 883.833 903.876C874.922 903.876 866.099 902.121 857.867 898.711C849.635 895.302 842.155 890.304 835.855 884.004C829.554 877.703 824.557 870.224 821.147 861.992C817.737 853.76 815.982 844.937 815.982 836.027V806.662C816.265 806.66 816.545 806.601 816.804 806.489C817.064 806.376 817.298 806.212 817.493 806.008C817.689 805.803 817.841 805.56 817.94 805.295C818.04 805.031 818.085 804.748 818.073 804.466V802.427C818.075 802.139 818.021 801.854 817.912 801.588C817.804 801.321 817.644 801.079 817.441 800.875C817.239 800.671 816.998 800.509 816.732 800.398C816.466 800.287 816.182 800.23 815.894 800.23H807.107C806.525 800.23 805.966 800.462 805.554 800.874C805.142 801.286 804.911 801.845 804.911 802.427V804.466C804.911 805.048 805.142 805.607 805.554 806.019C805.966 806.431 806.525 806.662 807.107 806.662H807.23V837.239C807.233 855.123 813.6 872.422 825.191 886.041C836.782 899.66 852.841 908.711 870.495 911.573" fill="#F9F5F4"/>
<path d="M872.305 915.017C873.351 915.182 874.349 915.569 875.234 916.15C876.119 916.732 876.87 917.496 877.436 918.391L877.981 919.269C878.719 920.436 879.109 921.79 879.105 923.17V935.472C879.105 936.874 878.706 938.247 877.957 939.432C877.207 940.617 876.137 941.566 874.87 942.167L872.392 943.327C869.687 944.596 866.735 945.256 863.746 945.26H841.885C839.233 945.26 836.69 946.313 834.814 948.188C832.939 950.064 831.886 952.607 831.886 955.259V956.7H941.386V955.259C941.386 952.607 940.332 950.064 938.457 948.188C936.582 946.313 934.038 945.26 931.386 945.26H909.42C906.436 945.256 903.491 944.596 900.791 943.327L898.313 942.167C897.044 941.566 895.972 940.619 895.219 939.434C894.467 938.249 894.065 936.875 894.06 935.472V922.977C894.066 921.681 894.411 920.408 895.062 919.287L895.484 918.566C896.025 917.637 896.766 916.839 897.654 916.232C898.541 915.624 899.553 915.221 900.615 915.052" fill="#F9F5F4"/>
<path d="M698.644 778.545C697.147 778.541 695.712 777.942 694.655 776.882C693.597 775.821 693.003 774.384 693.003 772.887V764.821C693.003 763.325 693.598 761.89 694.656 760.832C695.714 759.774 697.148 759.18 698.644 759.18C700.142 759.18 701.579 759.773 702.64 760.831C703.7 761.888 704.298 763.323 704.303 764.821V772.939C704.289 774.431 703.687 775.857 702.627 776.907C701.567 777.956 700.136 778.545 698.644 778.545Z" fill="#F9F5F4"/>
<path d="M718.08 801.056C716.58 801.056 715.14 800.459 714.079 799.398C713.018 798.337 712.422 796.898 712.422 795.397V742.256C712.422 740.755 713.018 739.316 714.079 738.255C715.14 737.194 716.58 736.598 718.08 736.598C719.581 736.598 721.021 737.194 722.082 738.255C723.143 739.316 723.739 740.755 723.739 742.256V795.397C723.739 796.898 723.143 798.337 722.082 799.398C721.021 800.459 719.581 801.056 718.08 801.056Z" fill="#F9F5F4"/>
<path d="M743.597 710.871C743.597 707.746 741.064 705.213 737.938 705.213C734.813 705.213 732.28 707.746 732.28 710.871V826.783C732.28 829.908 734.813 832.442 737.938 832.442C741.064 832.442 743.597 829.908 743.597 826.783V710.871Z" fill="#F9F5F4"/>
<path d="M757.919 819.596C756.419 819.596 754.979 818.999 753.918 817.938C752.857 816.877 752.261 815.438 752.261 813.937V723.717C752.261 722.216 752.857 720.777 753.918 719.716C754.979 718.655 756.419 718.059 757.919 718.059C759.42 718.059 760.859 718.655 761.921 719.716C762.982 720.777 763.578 722.216 763.578 723.717V814.025C763.555 815.51 762.949 816.927 761.89 817.969C760.831 819.012 759.405 819.596 757.919 819.596Z" fill="#F9F5F4"/>
<path d="M1059.44 778.545C1060.19 778.545 1060.92 778.399 1061.61 778.114C1062.3 777.83 1062.92 777.413 1063.45 776.888C1063.97 776.362 1064.39 775.739 1064.67 775.052C1064.96 774.366 1065.1 773.63 1065.1 772.887V764.821C1065.1 763.323 1064.5 761.888 1063.44 760.831C1062.38 759.773 1060.94 759.18 1059.44 759.18C1057.96 759.198 1056.54 759.8 1055.49 760.855C1054.45 761.911 1053.86 763.335 1053.86 764.821V772.939C1053.87 774.419 1054.46 775.834 1055.51 776.882C1056.55 777.93 1057.96 778.527 1059.44 778.545Z" fill="#F9F5F4"/>
<path d="M1040.01 801.056C1040.75 801.056 1041.49 800.909 1042.17 800.625C1042.86 800.34 1043.48 799.924 1044.01 799.398C1044.53 798.873 1044.95 798.249 1045.24 797.562C1045.52 796.876 1045.67 796.14 1045.67 795.397V742.256C1045.67 741.513 1045.52 740.777 1045.24 740.091C1044.95 739.404 1044.53 738.78 1044.01 738.255C1043.48 737.73 1042.86 737.313 1042.17 737.028C1041.49 736.744 1040.75 736.598 1040.01 736.598C1038.51 736.602 1037.07 737.201 1036.02 738.261C1034.96 739.322 1034.37 740.758 1034.37 742.256V795.397C1034.37 796.895 1034.96 798.331 1036.02 799.392C1037.07 800.453 1038.51 801.051 1040.01 801.056Z" fill="#F9F5F4"/>
<path d="M1020.17 832.442C1021.66 832.437 1023.1 831.839 1024.16 830.778C1025.21 829.717 1025.81 828.281 1025.81 826.783V710.801C1025.81 709.303 1025.21 707.867 1024.16 706.806C1023.1 705.745 1021.66 705.147 1020.17 705.143C1018.67 705.143 1017.23 705.739 1016.17 706.8C1015.1 707.861 1014.51 709.3 1014.51 710.801V826.783C1014.51 828.284 1015.1 829.723 1016.17 830.784C1017.23 831.845 1018.67 832.442 1020.17 832.442Z" fill="#F9F5F4"/>
<path d="M1000.17 819.596C1001.67 819.596 1003.11 818.999 1004.17 817.938C1005.23 816.877 1005.83 815.438 1005.83 813.937V723.717C1005.83 722.216 1005.23 720.777 1004.17 719.716C1003.11 718.655 1001.67 718.059 1000.17 718.059C998.671 718.063 997.236 718.661 996.178 719.722C995.121 720.783 994.527 722.219 994.527 723.717V814.025C994.55 815.507 995.154 816.922 996.209 817.963C997.264 819.005 998.686 819.591 1000.17 819.596Z" fill="#F9F5F4"/>
<path d="M910.175 841.035H856.612L849.354 827.346H910.175V841.035Z" fill="#F9F5F4"/>
<path d="M916.678 815.571H903.48C901.982 813.171 900.84 810.567 900.088 807.839C896.697 809.554 892.94 810.423 889.14 810.37C881.847 810.37 876.329 808.155 872.551 803.674C869.761 800.343 868.226 796.14 868.21 791.795V791.18C868.173 788.433 868.736 785.711 869.859 783.205C870.982 780.698 872.638 778.466 874.712 776.665H887.26C882.925 781.562 880.758 785.961 880.758 789.862V790.512C881.203 794.683 883.874 796.762 888.771 796.751C892.19 796.812 895.501 795.553 898.015 793.236L897.733 789.282C897.345 782.953 895.296 776.837 891.794 771.551H904.236C908.195 776.893 910.175 784.186 910.175 793.429C909.941 801.312 912.218 809.066 916.678 815.571Z" fill="#F9F5F4"/>
<path d="M910.175 740.587C910.312 743.122 909.884 745.657 908.92 748.006C907.957 750.356 906.482 752.462 904.604 754.171C900.211 758.037 894.429 758.318 892.075 758.423C879.105 758.933 867.577 757.334 858.123 757.562C850.953 757.765 843.85 759.002 837.035 761.235L849.336 744.734H891.512C892.265 744.904 893.048 744.881 893.79 744.667C894.531 744.453 895.206 744.054 895.752 743.509C896.298 742.963 896.696 742.288 896.911 741.546C897.125 740.805 897.148 740.022 896.978 739.269V730.025H910.175V740.587Z" fill="#F9F5F4"/>
<path d="M910.175 735.122H896.978V719.131H910.175V735.122Z" fill="#F9F5F4"/>
<path d="M910.175 724.192H896.978V708.253H910.175V724.192Z" fill="#F9F5F4"/>
<path d="M910.175 713.243H896.978V697.305H910.175V713.243Z" fill="#F9F5F4"/>
<path d="M860.671 671.191C860.728 672.129 860.584 673.068 860.251 673.947C859.918 674.825 859.402 675.623 858.738 676.287C858.073 676.951 857.276 677.467 856.397 677.8C855.519 678.134 854.58 678.277 853.642 678.22C852.705 678.264 851.77 678.115 850.893 677.782C850.017 677.45 849.218 676.941 848.546 676.287C847.906 675.601 847.409 674.793 847.086 673.912C846.763 673.031 846.62 672.094 846.665 671.156C846.626 670.238 846.772 669.321 847.095 668.46C847.418 667.6 847.912 666.813 848.546 666.148C849.228 665.512 850.03 665.018 850.905 664.695C851.78 664.373 852.71 664.227 853.642 664.267C854.582 664.22 855.523 664.362 856.407 664.685C857.292 665.008 858.102 665.505 858.791 666.148C859.435 666.814 859.934 667.606 860.257 668.473C860.581 669.341 860.722 670.266 860.671 671.191ZM910.176 702.313H896.978V688.255C894.235 689.664 891.187 690.376 888.103 690.328C881.074 690.328 875.544 688.413 871.514 684.582C869.693 682.834 868.264 680.719 867.322 678.377C866.379 676.035 865.946 673.52 866.049 670.998C865.911 668.501 866.33 666.004 867.275 663.688C868.221 661.372 869.668 659.295 871.514 657.607C874.942 654.709 879.33 653.199 883.815 653.372H892.18C894.583 653.268 896.981 653.649 899.234 654.491C901.486 655.333 903.546 656.62 905.29 658.275C906.962 659.968 908.261 661.991 909.106 664.215C909.95 666.44 910.32 668.816 910.193 671.191L910.176 702.313ZM883.482 667.167C880.406 667.167 878.86 668.485 878.86 671.121C878.86 675.022 881.789 676.973 887.646 676.973C893.867 676.973 896.978 675.087 896.978 671.314C896.978 668.555 895.467 667.167 892.444 667.167H883.482Z" fill="#F9F5F4"/>
<path d="M876.136 877.745C875.066 877.794 873.997 877.62 872.999 877.232C872 876.845 871.093 876.254 870.336 875.496C869.599 874.72 869.026 873.804 868.651 872.801C868.277 871.798 868.109 870.731 868.157 869.661C868.108 868.621 868.277 867.582 868.652 866.611C869.027 865.64 869.601 864.758 870.336 864.021C871.11 863.294 872.023 862.732 873.019 862.366C874.016 862.001 875.076 861.84 876.136 861.894C877.172 861.83 878.209 861.986 879.18 862.354C880.151 862.722 881.032 863.292 881.765 864.027C882.498 864.762 883.067 865.644 883.432 866.616C883.798 867.587 883.952 868.626 883.885 869.661C883.943 870.738 883.784 871.815 883.419 872.829C883.053 873.843 882.489 874.773 881.759 875.566C881.023 876.298 880.143 876.869 879.175 877.244C878.207 877.619 877.173 877.79 876.136 877.745ZM893.885 877.745C892.815 877.791 891.748 877.615 890.749 877.228C889.751 876.841 888.844 876.251 888.085 875.496C887.351 874.718 886.78 873.801 886.406 872.799C886.032 871.797 885.862 870.73 885.906 869.661C885.862 868.622 886.032 867.584 886.407 866.613C886.782 865.643 887.353 864.76 888.085 864.021C888.861 863.297 889.774 862.736 890.77 862.371C891.766 862.005 892.825 861.843 893.885 861.894C894.922 861.827 895.962 861.982 896.935 862.349C897.908 862.715 898.791 863.285 899.526 864.02C900.261 864.755 900.831 865.639 901.198 866.611C901.564 867.584 901.719 868.624 901.652 869.661C901.709 870.738 901.551 871.815 901.185 872.829C900.82 873.843 900.256 874.773 899.526 875.566C898.791 876.29 897.917 876.856 896.956 877.231C895.995 877.605 894.968 877.78 893.937 877.745H893.885Z" fill="#F9F5F4"/>
<path d="M885.889 904.86C898.666 904.814 911.144 900.993 921.756 893.877C932.342 886.782 940.653 876.78 945.691 865.075C946.92 862.161 947.947 859.167 948.766 856.113C949.572 853.054 950.159 849.941 950.524 846.799C950.843 843.652 950.978 840.49 950.928 837.327V827.803V789.722L951.279 790.056H935.867H934.989L934.092 789.915C932.922 789.646 931.824 789.124 930.876 788.386C929.683 787.455 928.779 786.203 928.272 784.777C927.765 783.351 927.675 781.81 928.012 780.334C928.35 778.858 929.101 777.51 930.178 776.446C931.255 775.382 932.613 774.647 934.092 774.328L934.971 774.17H935.867H951.279L950.857 774.574V762.958L951.297 763.397H935.885H934.989C934.687 763.368 934.388 763.321 934.092 763.257C932.91 762.991 931.8 762.469 930.841 761.728C929.648 760.786 928.747 759.524 928.242 758.09C927.738 756.656 927.651 755.108 927.991 753.626C928.332 752.145 929.086 750.79 930.166 749.72C931.246 748.65 932.608 747.908 934.092 747.582L934.989 747.441H935.885H951.297L950.857 747.863V736.177L951.279 736.581H935.867H934.971C934.676 736.55 934.383 736.503 934.092 736.44C932.608 736.127 931.245 735.396 930.163 734.332C929.081 733.269 928.327 731.918 927.989 730.44C927.65 728.961 927.743 727.416 928.254 725.988C928.766 724.561 929.676 723.309 930.876 722.382C931.824 721.644 932.922 721.122 934.092 720.853L934.989 720.713H935.867H951.279L950.928 721.046V709.431L951.262 709.747H935.85H934.971L934.092 709.606C932.935 709.339 931.85 708.824 930.912 708.095C929.986 707.359 929.238 706.424 928.724 705.359C928.21 704.294 927.943 703.127 927.943 701.945C927.943 700.762 928.21 699.595 928.724 698.53C929.238 697.465 929.986 696.53 930.912 695.794C931.841 695.052 932.93 694.534 934.092 694.283C934.671 694.163 935.26 694.104 935.85 694.107H951.262L950.998 694.371V682.737L951.244 682.983H936.026C934.981 683.011 933.942 682.832 932.968 682.456C931.993 682.08 931.105 681.511 930.356 680.783C929.607 680.056 929.013 679.184 928.61 678.221C928.209 677.263 928.003 676.236 928.003 675.198C928.003 674.161 928.209 673.133 928.61 672.176C929.236 670.748 930.275 669.54 931.594 668.707C932.912 667.874 934.449 667.454 936.008 667.501H945.129V667.66C942.252 664.772 940.279 661.107 939.452 657.116C938.656 653.152 938.947 649.047 940.296 645.236C938.977 649.049 938.716 653.149 939.54 657.098C940.406 661.032 942.389 664.632 945.252 667.466L945.392 667.607H936.061C935.059 667.59 934.063 667.763 933.126 668.116C931.724 668.65 930.517 669.597 929.665 670.832C928.814 672.067 928.358 673.531 928.358 675.031C928.358 676.532 928.814 677.996 929.665 679.231C930.517 680.466 931.724 681.413 933.126 681.946C934.06 682.286 935.049 682.452 936.043 682.438H951.49V694.529H937.554C936.433 694.479 935.308 694.538 934.198 694.704C932.846 694.997 931.606 695.669 930.623 696.642C929.64 697.614 928.954 698.846 928.646 700.194C928.338 701.542 928.421 702.95 928.884 704.253C929.348 705.556 930.173 706.7 931.263 707.55C932.129 708.221 933.13 708.694 934.198 708.939C935.308 709.108 936.433 709.161 937.554 709.097H951.613V721.398H935.797H934.989L934.18 721.521C933.12 721.769 932.125 722.242 931.263 722.909C930.408 723.583 929.716 724.443 929.241 725.423C928.765 726.403 928.518 727.478 928.518 728.568C928.518 729.657 928.765 730.732 929.241 731.712C929.716 732.692 930.408 733.552 931.263 734.226C932.113 734.897 933.105 735.366 934.163 735.597L934.971 735.72H935.779H951.596V748.179H935.779H934.971L934.18 748.32C933.127 748.55 932.141 749.019 931.298 749.69C930.453 750.358 929.771 751.209 929.301 752.178C928.832 753.147 928.588 754.21 928.588 755.287C928.588 756.364 928.832 757.427 929.301 758.397C929.771 759.366 930.453 760.217 931.298 760.884C932.15 761.542 933.133 762.009 934.18 762.255L934.971 762.378H935.779H951.596V774.837H935.779H934.971L934.163 774.96C933.105 775.191 932.113 775.66 931.263 776.331C930.187 777.172 929.373 778.302 928.915 779.588C928.458 780.875 928.377 782.265 928.681 783.596C928.985 784.928 929.662 786.145 930.633 787.105C931.604 788.065 932.828 788.729 934.163 789.019C934.426 789.019 934.69 789.019 934.971 789.159H935.779H951.596V789.511V827.592V837.116C951.633 840.303 951.487 843.489 951.156 846.658C950.79 849.824 950.203 852.959 949.399 856.042C948.559 859.114 947.514 862.126 946.271 865.057C941.175 876.831 932.745 886.855 922.02 893.895C911.326 901.043 898.752 904.859 885.889 904.86Z" fill="#F9F5F4"/>
<path d="M944.9 609.246C943.173 599.69 940.059 590.436 935.657 581.78C933.899 577.632 934.55 578.827 929.488 570.199C927.344 566.526 925.183 562.238 921.949 559.392C920.425 558.144 918.613 557.298 916.677 556.931C911.3 555.631 905.887 554.26 900.457 553.294C898.611 553.027 896.727 553.274 895.012 554.009C893.298 554.744 891.819 555.938 890.739 557.459C887.98 561.079 887.347 565.858 887.224 570.269C887.13 575.166 887.442 580.062 888.156 584.908C889.702 597.103 892.971 617.629 882.48 625.958C879.636 628.134 876.182 629.363 872.603 629.473C870.807 629.484 869.023 629.18 867.331 628.577C864.669 627.601 862.141 626.29 859.81 624.675C857.789 623.252 850.039 618.437 845.242 603.588C842.114 593.958 841.27 583.484 836.016 574.61C833.915 570.873 830.965 567.683 827.405 565.296C825.716 564.244 823.88 563.451 821.957 562.941C817.317 561.676 812.573 560.657 807.898 559.673C807.018 559.417 806.119 559.229 805.209 559.11L804.63 558.987C804.366 558.987 802.767 558.566 803.698 558.847C804.63 559.128 805.086 559.233 805.807 559.409L806.422 559.62C806.703 559.743 807.002 559.848 807.283 559.989C807.947 560.278 808.592 560.607 809.216 560.973C810.47 561.729 811.648 562.606 812.731 563.592C814.946 565.64 816.842 568.01 818.354 570.621C821.764 576.402 823.345 582.922 824.874 589.371C826.526 596.4 828.248 603.324 832.044 609.475C835.449 615.003 840.109 619.651 845.646 623.041C854.239 628.313 864.678 629.772 874.326 631.828C881.039 633.269 888.525 634.604 895.238 632.548C909.806 628.137 908.418 608.122 906.924 596.313C905.923 588.211 904.446 580.022 905.167 571.833C905.45 568.001 906.721 564.308 908.857 561.114C909.349 561.905 909.806 562.695 910.281 563.469C912.953 567.814 915.399 572.296 917.609 576.894C918.593 578.933 919.542 580.989 920.421 583.062L924.638 592.218C926.536 597.138 928.258 602.147 929.787 607.138C933.84 620.326 936.692 633.854 938.31 647.556L938.943 652.933L941.175 647.995C946.113 636.941 947.466 623.516 944.9 609.246Z" fill="#F9F5F4"/>
<path d="M817.546 758.213L817.388 758.353L817.247 758.511C814.188 761.465 811.735 764.987 810.024 768.879C810.024 768.879 810.024 769.02 809.936 769.09C807.77 773.931 806.661 779.179 806.685 784.482C806.71 789.785 807.866 795.023 810.077 799.843C810.2 800.107 810.323 800.353 810.464 800.616C810.552 800.335 810.639 800.054 810.745 799.773C814.681 788.526 818.688 776.489 826.983 768.141C828.648 766.504 830.473 765.038 832.43 763.766L832.571 763.678C833.985 762.787 835.446 761.971 836.947 761.235L859.564 745.42C855.744 744.687 851.849 744.428 847.965 744.646C847.965 744.646 830.374 745.753 817.546 758.213Z" fill="#F9F5F4"/>
</g>
<path d="M613.44 303C609.44 303 605.947 302.44 602.96 301.32C600.027 300.147 597.6 298.573 595.68 296.6C593.76 294.627 592.32 292.387 591.36 289.88C590.453 287.373 590 284.76 590 282.04C590 279.48 590.373 276.92 591.12 274.36C591.867 271.8 592.987 269.373 594.48 267.08L601.12 270.04C600.053 272.173 599.28 274.2 598.8 276.12C598.32 277.987 598.08 279.747 598.08 281.4C598.08 284.12 598.667 286.413 599.84 288.28C601.013 290.093 602.747 291.48 605.04 292.44C607.333 293.347 610.133 293.8 613.44 293.8H644.16V264.44H652.24V303H613.44ZM626.8 262.6C625.413 262.6 624.24 262.147 623.28 261.24C622.373 260.28 621.92 259.107 621.92 257.72C621.92 256.28 622.373 255.107 623.28 254.2C624.24 253.293 625.413 252.84 626.8 252.84C628.187 252.84 629.333 253.293 630.24 254.2C631.2 255.107 631.68 256.28 631.68 257.72C631.68 259.107 631.2 260.28 630.24 261.24C629.333 262.147 628.187 262.6 626.8 262.6ZM615.44 262.6C614.053 262.6 612.88 262.147 611.92 261.24C611.013 260.28 610.56 259.107 610.56 257.72C610.56 256.28 611.013 255.107 611.92 254.2C612.88 253.293 614.053 252.84 615.44 252.84C616.827 252.84 617.973 253.293 618.88 254.2C619.84 255.107 620.32 256.28 620.32 257.72C620.32 259.107 619.84 260.28 618.88 261.24C617.973 262.147 616.827 262.6 615.44 262.6ZM685.475 300.12C681.368 300.12 677.608 299.587 674.195 298.52C670.835 297.453 668.142 295.8 666.115 293.56C664.088 291.267 663.075 288.36 663.075 284.84C663.075 282.12 663.662 279.72 664.835 277.64C666.062 275.56 667.715 273.853 669.795 272.52C671.875 271.133 674.222 270.093 676.835 269.4C679.502 268.707 682.275 268.36 685.155 268.36C687.555 268.36 689.928 268.6 692.275 269.08C694.675 269.56 696.835 270.253 698.755 271.16L695.555 278.84C694.168 278.413 692.542 278.093 690.675 277.88C688.808 277.613 687.022 277.48 685.315 277.48C682.435 277.48 679.875 277.827 677.635 278.52C675.395 279.213 673.635 280.173 672.355 281.4C671.075 282.573 670.435 283.96 670.435 285.56C670.435 287.107 671.075 288.52 672.355 289.8C673.688 291.027 675.475 292.013 677.715 292.76C680.008 293.453 682.595 293.8 685.475 293.8V300.12ZM661.075 303V293.8H700.675V303H661.075ZM718.371 303V293.8H727.891V303H718.371ZM710.291 303V237.4H718.371V303H710.291ZM727.891 303V293.8C728.477 293.8 728.877 294.227 729.091 295.08C729.357 295.88 729.491 296.973 729.491 298.36C729.491 299.747 729.357 300.867 729.091 301.72C728.877 302.573 728.477 303 727.891 303ZM727.875 303V293.8C730.702 293.8 733.395 293.72 735.955 293.56C738.568 293.4 740.995 293.16 743.235 292.84C743.502 292.787 743.742 292.947 743.955 293.32C744.168 293.64 744.382 293.96 744.595 294.28C744.862 294.547 745.102 294.68 745.315 294.68C749.422 293.88 752.888 292.813 755.715 291.48C758.542 290.147 760.702 288.6 762.195 286.84C763.688 285.08 764.435 283.133 764.435 281C764.435 279.08 763.982 277.373 763.075 275.88C762.168 274.387 760.915 273.213 759.315 272.36C757.715 271.507 755.848 271.08 753.715 271.08C751.635 271.08 749.768 271.507 748.115 272.36C746.515 273.213 745.262 274.387 744.355 275.88C743.448 277.32 742.995 279 742.995 280.92C742.995 283.053 743.768 285.053 745.315 286.92C746.915 288.733 749.208 290.307 752.195 291.64C755.182 292.973 758.835 294.013 763.155 294.76C763.422 294.813 763.662 294.68 763.875 294.36C764.088 294.04 764.302 293.72 764.515 293.4C764.782 293.027 765.022 292.867 765.235 292.92C767.368 293.187 769.608 293.4 771.955 293.56C774.355 293.72 776.862 293.8 779.475 293.8V303C772.968 303 766.995 302.547 761.555 301.64C756.115 300.733 751.395 299.373 747.395 297.56C743.448 295.693 740.382 293.32 738.195 290.44C736.008 287.507 734.915 284.04 734.915 280.04C734.915 276.467 735.742 273.32 737.395 270.6C739.102 267.88 741.368 265.747 744.195 264.2C747.075 262.653 750.248 261.88 753.715 261.88C757.182 261.88 760.328 262.653 763.155 264.2C765.982 265.693 768.248 267.827 769.955 270.6C771.662 273.32 772.515 276.493 772.515 280.12C772.515 283.747 771.635 286.867 769.875 289.48C768.168 292.093 765.822 294.28 762.835 296.04C759.902 297.747 756.515 299.133 752.675 300.2C748.835 301.213 744.782 301.933 740.515 302.36C736.302 302.787 732.088 303 727.875 303ZM779.475 303V293.8C780.062 293.8 780.462 294.227 780.675 295.08C780.942 295.88 781.075 296.973 781.075 298.36C781.075 299.747 780.942 300.867 780.675 301.72C780.462 302.573 780.062 303 779.475 303ZM727.875 303C727.288 303 726.888 302.573 726.675 301.72C726.408 300.867 726.275 299.72 726.275 298.28C726.275 296.893 726.408 295.8 726.675 295C726.888 294.2 727.288 293.8 727.875 293.8V303ZM753.715 251.16C752.222 251.16 750.942 250.653 749.875 249.64C748.862 248.573 748.355 247.293 748.355 245.8C748.355 244.253 748.862 242.973 749.875 241.96C750.942 240.947 752.222 240.44 753.715 240.44C755.262 240.44 756.542 240.947 757.555 241.96C758.568 242.973 759.075 244.253 759.075 245.8C759.075 247.293 758.568 248.573 757.555 249.64C756.542 250.653 755.262 251.16 753.715 251.16ZM779.438 303V293.8H793.358C795.918 293.8 798.078 293.507 799.838 292.92C801.651 292.28 803.011 291.453 803.918 290.44C804.878 289.373 805.358 288.2 805.358 286.92C805.358 286.067 805.118 285.187 804.638 284.28C804.211 283.373 803.331 282.28 801.998 281C800.718 279.72 798.798 278.093 796.238 276.12C793.678 274.093 790.264 271.56 785.998 268.52L781.998 265.48L787.358 258.52L792.958 262.68C796.424 265.24 799.438 267.533 801.998 269.56C804.611 271.533 806.744 273.427 808.398 275.24C810.104 277.053 811.358 278.893 812.158 280.76C813.011 282.627 813.438 284.68 813.438 286.92C813.438 290.333 812.558 293.24 810.798 295.64C809.038 298.04 806.638 299.88 803.598 301.16C800.558 302.387 797.144 303 793.358 303H779.438ZM781.998 265.48V255.56L816.638 239.56V249.56L781.998 265.48ZM779.438 303C778.851 303 778.451 302.573 778.237 301.72C777.971 300.867 777.837 299.72 777.837 298.28C777.837 296.893 777.971 295.8 778.237 295C778.451 294.2 778.851 293.8 779.438 293.8V303ZM870.471 303.08C866.471 303.08 862.978 302.52 859.991 301.4C857.058 300.227 854.631 298.653 852.711 296.68C850.791 294.707 849.351 292.467 848.391 289.96C847.485 287.453 847.031 284.84 847.031 282.12C847.031 279.56 847.405 277 848.151 274.44C848.898 271.88 850.018 269.453 851.511 267.16L858.151 270.12C857.085 272.253 856.311 274.28 855.831 276.2C855.351 278.067 855.111 279.827 855.111 281.48C855.111 284.2 855.698 286.493 856.871 288.36C858.045 290.173 859.778 291.56 862.071 292.52C864.365 293.427 867.165 293.88 870.471 293.88L893.271 293.8C895.565 293.8 897.271 293.64 898.391 293.32C899.511 292.947 900.258 292.28 900.631 291.32C901.005 290.36 901.191 288.973 901.191 287.16V264.44H909.271V287.16C909.271 290.733 908.711 293.693 907.591 296.04C906.471 298.387 904.738 300.147 902.391 301.32C900.045 302.44 897.005 303 893.271 303L870.471 303.08ZM917.191 303C913.458 303 910.418 302.44 908.071 301.32C905.725 300.147 903.991 298.387 902.871 296.04C901.751 293.693 901.191 290.733 901.191 287.16H909.271C909.271 288.973 909.458 290.36 909.831 291.32C910.205 292.28 910.951 292.947 912.071 293.32C913.245 293.64 914.951 293.8 917.191 293.8H919.031V303H917.191ZM919.031 303V293.8C919.618 293.8 920.018 294.227 920.231 295.08C920.498 295.88 920.631 296.973 920.631 298.36C920.631 299.747 920.498 300.867 920.231 301.72C920.018 302.573 919.618 303 919.031 303ZM883.831 262.6C882.445 262.6 881.271 262.147 880.311 261.24C879.405 260.28 878.951 259.107 878.951 257.72C878.951 256.28 879.405 255.107 880.311 254.2C881.271 253.293 882.445 252.84 883.831 252.84C885.218 252.84 886.365 253.293 887.271 254.2C888.231 255.107 888.711 256.28 888.711 257.72C888.711 259.107 888.231 260.28 887.271 261.24C886.365 262.147 885.218 262.6 883.831 262.6ZM872.471 262.6C871.085 262.6 869.911 262.147 868.951 261.24C868.045 260.28 867.591 259.107 867.591 257.72C867.591 256.28 868.045 255.107 868.951 254.2C869.911 253.293 871.085 252.84 872.471 252.84C873.858 252.84 875.005 253.293 875.911 254.2C876.871 255.107 877.351 256.28 877.351 257.72C877.351 259.107 876.871 260.28 875.911 261.24C875.005 262.147 873.858 262.6 872.471 262.6ZM967.767 303C966.007 303 964.274 302.68 962.567 302.04C960.914 301.4 959.394 300.387 958.007 299C956.62 297.56 955.527 295.747 954.727 293.56L960.087 289.88C960.567 291.267 961.42 292.333 962.647 293.08C963.927 293.827 965.26 294.2 966.647 294.2C968.354 294.2 969.9 293.64 971.287 292.52C972.674 291.347 973.367 289.56 973.367 287.16V264.44H981.447V287.16C981.447 290.733 980.78 293.693 979.447 296.04C978.114 298.387 976.407 300.147 974.327 301.32C972.247 302.44 970.06 303 967.767 303ZM919.047 303V293.8H923.047C925.34 293.8 927.047 293.64 928.167 293.32C929.287 292.947 930.034 292.28 930.407 291.32C930.78 290.36 930.967 288.973 930.967 287.16V272.36H939.047V287.16C939.047 290.733 938.487 293.693 937.367 296.04C936.247 298.387 934.514 300.147 932.167 301.32C929.82 302.44 926.78 303 923.047 303H919.047ZM946.567 303C944.807 303 943.074 302.68 941.367 302.04C939.714 301.4 938.194 300.387 936.807 299C935.42 297.56 934.327 295.747 933.527 293.56L938.887 289.88C939.367 291.267 940.22 292.333 941.447 293.08C942.727 293.827 944.06 294.2 945.447 294.2C947.154 294.2 948.7 293.64 950.087 292.52C951.474 291.347 952.167 289.56 952.167 287.16V268.36H960.247V287.16C960.247 290.733 959.58 293.693 958.247 296.04C956.914 298.387 955.207 300.147 953.127 301.32C951.047 302.44 948.86 303 946.567 303ZM919.047 303C918.46 303 918.06 302.573 917.847 301.72C917.58 300.867 917.447 299.72 917.447 298.28C917.447 296.893 917.58 295.8 917.847 295C918.06 294.2 918.46 293.8 919.047 293.8V303ZM1000.71 303V293.8H1010.23V303H1000.71ZM992.634 303V237.4H1000.71V303H992.634ZM1010.23 303V293.8C1010.82 293.8 1011.22 294.227 1011.43 295.08C1011.7 295.88 1011.83 296.973 1011.83 298.36C1011.83 299.747 1011.7 300.867 1011.43 301.72C1011.22 302.573 1010.82 303 1010.23 303ZM1010.22 303V293.8H1024.14C1026.7 293.8 1028.86 293.507 1030.62 292.92C1032.43 292.28 1033.79 291.453 1034.7 290.44C1035.66 289.373 1036.14 288.2 1036.14 286.92C1036.14 286.067 1035.9 285.187 1035.42 284.28C1034.99 283.373 1034.11 282.28 1032.78 281C1031.5 279.72 1029.58 278.093 1027.02 276.12C1024.46 274.093 1021.05 271.56 1016.78 268.52L1012.78 265.48L1018.14 258.52L1023.74 262.68C1027.21 265.24 1030.22 267.533 1032.78 269.56C1035.39 271.533 1037.53 273.427 1039.18 275.24C1040.89 277.053 1042.14 278.893 1042.94 280.76C1043.79 282.627 1044.22 284.68 1044.22 286.92C1044.22 290.333 1043.34 293.24 1041.58 295.64C1039.82 298.04 1037.42 299.88 1034.38 301.16C1031.34 302.387 1027.93 303 1024.14 303H1010.22ZM1012.78 265.48V255.56L1047.42 239.56V249.56L1012.78 265.48ZM1010.22 303C1009.63 303 1009.23 302.573 1009.02 301.72C1008.75 300.867 1008.62 299.72 1008.62 298.28C1008.62 296.893 1008.75 295.8 1009.02 295C1009.23 294.2 1009.63 293.8 1010.22 293.8V303ZM1086.89 303C1086.84 297.293 1085.82 292.2 1083.85 287.72C1081.88 283.24 1079.05 279.507 1075.37 276.52C1071.74 273.533 1067.37 271.453 1062.25 270.28L1064.09 261.32C1070.38 262.76 1075.82 265.427 1080.41 269.32C1085 273.16 1088.54 277.96 1091.05 283.72C1093.61 289.427 1094.92 295.853 1094.97 303H1086.89ZM1055.45 303V293.8H1093.29V303H1055.45ZM1136.17 303V293.8H1147.85V303H1136.17ZM1147.85 303V293.8C1148.44 293.8 1148.84 294.227 1149.05 295.08C1149.32 295.88 1149.45 296.973 1149.45 298.36C1149.45 299.747 1149.32 300.867 1149.05 301.72C1148.84 302.573 1148.44 303 1147.85 303ZM1105.37 324.28V315.08H1120.97C1124.28 315.08 1126.65 314.413 1128.09 313.08C1129.53 311.747 1130.25 309.613 1130.25 306.68V266.12H1138.33V306.68C1138.33 310.413 1137.61 313.587 1136.17 316.2C1134.78 318.867 1132.78 320.867 1130.17 322.2C1127.61 323.587 1124.54 324.28 1120.97 324.28H1105.37ZM1122.73 303C1118.57 303 1114.94 302.093 1111.85 300.28C1108.81 298.467 1106.44 296.04 1104.73 293C1103.02 289.907 1102.17 286.52 1102.17 282.84C1102.17 279.853 1102.7 277.107 1103.77 274.6C1104.84 272.04 1106.33 269.827 1108.25 267.96C1110.17 266.04 1112.38 264.547 1114.89 263.48C1117.4 262.413 1120.09 261.88 1122.97 261.88C1125.8 261.88 1128.54 262.333 1131.21 263.24C1133.88 264.093 1136.25 265.053 1138.33 266.12L1134.73 274.36C1130.36 272.173 1126.44 271.08 1122.97 271.08C1120.57 271.08 1118.41 271.613 1116.49 272.68C1114.57 273.693 1113.05 275.08 1111.93 276.84C1110.81 278.6 1110.25 280.6 1110.25 282.84C1110.25 284.973 1110.76 286.867 1111.77 288.52C1112.84 290.173 1114.3 291.48 1116.17 292.44C1118.04 293.347 1120.22 293.8 1122.73 293.8H1134.25V303H1122.73ZM1159.08 264.44H1167.16V303H1147.88V293.8H1159.08V264.44ZM1147.88 303C1147.29 303 1146.89 302.573 1146.67 301.72C1146.41 300.867 1146.27 299.72 1146.27 298.28C1146.27 296.893 1146.41 295.8 1146.67 295C1146.89 294.2 1147.29 293.8 1147.88 293.8V303ZM1160.04 324.44C1158.54 324.44 1157.26 323.907 1156.2 322.84C1155.18 321.827 1154.68 320.573 1154.68 319.08C1154.68 317.533 1155.18 316.253 1156.2 315.24C1157.26 314.227 1158.54 313.72 1160.04 313.72C1161.58 313.72 1162.86 314.227 1163.88 315.24C1164.89 316.253 1165.4 317.533 1165.4 319.08C1165.4 320.573 1164.89 321.827 1163.88 322.84C1162.86 323.907 1161.58 324.44 1160.04 324.44Z" fill="white"/>
<defs>
<linearGradient id="paint0_linear_2052_117" x1="430" y1="281" x2="1328" y2="281" gradientUnits="userSpaceOnUse">
<stop offset="0.21" stop-color="#9B8153"/>
<stop offset="0.57" stop-color="#005380"/>
</linearGradient>
</defs>
</svg>
