<?xml version="1.0" encoding="UTF-8"?>
<svg id="Layer_1" data-name="Layer 1" xmlns="http://www.w3.org/2000/svg" xmlns:xlink="http://www.w3.org/1999/xlink" viewBox="0 0 1158.4 868.8">
  <defs>
    <style>
      .cls-1 {
        fill: #52a3a3;
      }

      .cls-1, .cls-2, .cls-3, .cls-4, .cls-5, .cls-6, .cls-7, .cls-8, .cls-9 {
        stroke-width: 0px;
      }

      .cls-2 {
        fill: url(#linear-gradient);
      }

      .cls-10 {
        stroke: url(#linear-gradient-2);
        stroke-width: 13px;
      }

      .cls-10, .cls-11 {
        fill: none;
        stroke-miterlimit: 10;
      }

      .cls-3 {
        fill: #b78f5e;
      }

      .cls-4 {
        fill: #c69f47;
      }

      .cls-5 {
        fill: #4d9cc4;
      }

      .cls-11 {
        stroke: #fff;
      }

      .cls-6 {
        fill: #bdbdbd;
      }

      .cls-7, .cls-12 {
        fill: #8eced6;
      }

      .cls-13 {
        clip-path: url(#clippath);
      }

      .cls-8 {
        fill: url(#radial-gradient);
      }

      .cls-9 {
        fill: #fff;
      }
    </style>
    <clipPath id="clippath">
      <circle class="cls-7" cx="567.26" cy="467.02" r="121.27"/>
    </clipPath>
    <linearGradient id="linear-gradient" x1="506.61" y1="572.06" x2="627.9" y2="361.98" gradientUnits="userSpaceOnUse">
      <stop offset=".06" stop-color="#9b8153" stop-opacity=".7"/>
      <stop offset=".07" stop-color="rgba(151, 127, 83, .7)" stop-opacity=".7"/>
      <stop offset=".24" stop-color="rgba(104, 113, 97, .66)" stop-opacity=".66"/>
      <stop offset=".42" stop-color="rgba(67, 101, 107, .64)" stop-opacity=".64"/>
      <stop offset=".61" stop-color="rgba(40, 93, 115, .62)" stop-opacity=".62"/>
      <stop offset=".79" stop-color="rgba(25, 88, 119, .6)" stop-opacity=".6"/>
      <stop offset=".99" stop-color="#145779" stop-opacity=".6"/>
    </linearGradient>
    <linearGradient id="linear-gradient-2" x1="439.49" y1="467.02" x2="695.02" y2="467.02" gradientUnits="userSpaceOnUse">
      <stop offset=".06" stop-color="#9b8153"/>
      <stop offset=".07" stop-color="#967f53"/>
      <stop offset=".22" stop-color="#6d6e56"/>
      <stop offset=".36" stop-color="#4b6059"/>
      <stop offset=".51" stop-color="#30555b"/>
      <stop offset=".67" stop-color="#1d4e5c"/>
      <stop offset=".83" stop-color="#12495d"/>
      <stop offset=".99" stop-color="#0f485e"/>
    </linearGradient>
    <radialGradient id="radial-gradient" cx="532.32" cy="645.01" fx="532.32" fy="645.01" r="102.52" gradientTransform="translate(-246.99 236.74) scale(1.53 .63)" gradientUnits="userSpaceOnUse">
      <stop offset=".06" stop-color="#bf9758"/>
      <stop offset=".16" stop-color="rgba(185, 148, 88, .96)" stop-opacity=".96"/>
      <stop offset=".31" stop-color="rgba(169, 142, 90, .85)" stop-opacity=".85"/>
      <stop offset=".49" stop-color="rgba(143, 132, 93, .66)" stop-opacity=".66"/>
      <stop offset=".71" stop-color="rgba(107, 118, 98, .41)" stop-opacity=".41"/>
      <stop offset=".94" stop-color="rgba(62, 100, 103, .09)" stop-opacity=".09"/>
      <stop offset=".99" stop-color="#326069" stop-opacity="0"/>
    </radialGradient>
  </defs>
  <g>
    <g>
      <circle class="cls-12" cx="567.26" cy="467.02" r="121.27"/>
      <g class="cls-13">
        <image width="4032" height="3024" transform="scale(.29)" xlink:href="../../../../أخرى/مجلة كفاءات/مجلة كفاءات العدد الخامس 2023م/البرامج والمناشط/2. برنامج قارئ/معرض الكتاب/IMG_5847.JPG"/>
      </g>
    </g>
    <circle class="cls-2" cx="567.26" cy="467.02" r="121.27"/>
    <circle class="cls-10" cx="567.26" cy="467.02" r="121.27"/>
    <path class="cls-11" d="M571.76,329.14c76.28,0,138.11,61.84,138.11,138.11s-61.84,138.11-138.11,138.11"/>
    <circle class="cls-4" cx="570.58" cy="327.48" r="8.07"/>
    <circle class="cls-3" cx="570.82" cy="604.42" r="8.07"/>
    <polygon class="cls-1" points="663.37 349.55 647.19 351.54 665.29 365.63 663.37 349.55"/>
    <rect class="cls-9" x="703.29" y="458.58" width="11.87" height="21.83"/>
    <rect class="cls-5" x="666.21" y="550.02" width="11.87" height="21.83" transform="translate(593.51 -310.99) rotate(45)"/>
    <path class="cls-6" d="M591.57,466.33c.07,10.63-8.73,19.52-19.35,19.55-10.82.03-19.6-8.61-19.68-19.35-.08-10.76,8.63-19.61,19.35-19.68,10.83-.07,19.61,8.62,19.68,19.49ZM565.95,466.36c0,2.73-.05,5.45.03,8.18.02.64.29,1.51.76,1.84.36.25,1.29-.05,1.81-.36,4.18-2.55,8.34-5.16,12.49-7.76,1.66-1.04,1.69-1.82.09-2.92-4.19-2.88-8.38-5.76-12.6-8.59-.5-.33-1.37-.61-1.8-.39-.43.22-.73,1.09-.74,1.69-.08,2.77-.03,5.54-.04,8.31Z"/>
  </g>
  <rect class="cls-8" x="349.03" y="628.02" width="442" height="33.98"/>
  <g>
    <path class="cls-9" d="M492.78,654.08c-1.12,0-2.01-.39-2.65-1.17-.64-.78-.96-1.83-.96-3.17,0-.63.05-1.19.15-1.69s.26-1.02.48-1.54h1.49c-.13.33-.24.65-.31.96-.07.31-.12.6-.15.89-.03.29-.04.71-.04,1.28,0,.97.2,1.72.6,2.25.4.53.98.79,1.74.79h3.34c.85,0,1.56-.16,2.12-.48.56-.32.84-.7.84-1.15,0-.25-.11-.46-.33-.63-.22-.18-.56-.33-1.01-.46-.91-.26-1.53-.48-1.86-.68-.34-.19-.59-.43-.77-.72-.18-.29-.27-.62-.27-1.02,0-.69.21-1.36.62-2,.41-.64.95-1.17,1.6-1.57.66-.4,1.31-.6,1.97-.6.4,0,.76.07,1.07.22.31.15.61.36.88.64.27.28.62.74,1.03,1.38.51.83.9,1.39,1.14,1.68.25.29.46.5.64.64s.36.24.55.32c.19.07.4.11.63.11h.1c.06,0,.09.02.09.07v1.25c0,.06-.03.09-.09.09h-.1c-.5,0-.99-.11-1.45-.34-.46-.22-.94-.6-1.43-1.12-.14-.15-.45-.56-.92-1.24-.58-.82-1.04-1.37-1.38-1.65-.34-.28-.66-.42-.96-.42-.33,0-.68.13-1.05.38-.37.25-.69.57-.94.94-.25.38-.38.72-.38,1.02,0,.2.11.38.32.54.21.16.56.31,1.03.45.86.25,1.47.47,1.83.66.36.19.63.41.82.66.18.25.28.54.28.87,0,2.37-1.54,3.56-4.61,3.56h-3.68ZM493.33,657.67c-.28,0-.52-.08-.71-.25-.2-.17-.29-.44-.29-.82s.1-.66.29-.83c.2-.17.43-.25.71-.25.3,0,.55.09.73.28.18.18.27.45.27.8s-.09.61-.27.8c-.18.19-.42.28-.73.28ZM496.44,657.67c-.31,0-.56-.09-.74-.28-.18-.19-.27-.45-.27-.8s.09-.61.27-.8c.18-.19.43-.28.74-.28s.57.1.75.29c.18.2.26.46.26.79s-.09.59-.26.78c-.18.2-.42.29-.75.29Z"/>
    <path class="cls-9" d="M505.23,649.77c-.06,0-.09-.03-.09-.09v-1.25s.03-.07.09-.07h2.73c-.3-.34-.54-.76-.69-1.25s-.24-.98-.24-1.46c0-1.43.44-2.55,1.33-3.37.89-.82,2.08-1.23,3.59-1.23h2.35v7.31h1.9s.06.01.08.04v.04s0,1.25,0,1.25c0,.05-.03.07-.09.07h-10.97ZM512.77,648.36v-5.91h-.77c-1.07,0-1.9.28-2.49.85-.59.56-.89,1.35-.89,2.36,0,1.81.82,2.71,2.46,2.71h1.69ZM511.04,639.35c-.31,0-.56-.09-.74-.28-.18-.19-.27-.45-.27-.8s.09-.61.27-.8c.18-.19.42-.28.74-.28s.57.1.75.29c.18.2.26.46.26.79s-.09.59-.26.79c-.17.2-.42.29-.75.29Z"/>
    <path class="cls-9" d="M516.02,649.77c-.06,0-.09-.03-.09-.09v-1.25s.03-.07.09-.07h3.45v-7.31h1.6v8.71h-5.04ZM517.19,653.36c-.28,0-.52-.08-.71-.25-.2-.17-.29-.44-.29-.82s.1-.66.29-.82c.2-.17.43-.25.71-.25.3,0,.55.09.73.28.18.18.27.45.27.8s-.09.61-.27.8c-.18.19-.42.28-.73.28ZM520.3,653.36c-.31,0-.56-.09-.74-.28-.18-.19-.27-.45-.27-.8s.09-.61.27-.8c.18-.19.42-.28.74-.28s.57.1.75.29c.18.2.26.46.26.79s-.09.59-.26.79c-.17.2-.42.29-.75.29Z"/>
    <path class="cls-9" d="M527.15,649.77v.43c0,1.21-.27,2.16-.82,2.85-.55.69-1.34,1.03-2.38,1.03-.57,0-1.18-.17-1.83-.51l.47-1.2c.29.13.53.21.72.25s.39.06.61.06c.54,0,.96-.22,1.26-.66.3-.44.46-1.02.46-1.74v-9.23h1.52v7.31h2.22c.06,0,.1.02.1.07v1.25c0,.06-.03.09-.1.09h-2.22Z"/>
    <path class="cls-9" d="M537.94,649.77c-.5,0-1.04-.07-1.62-.22s-1.15-.37-1.7-.67c-1.05.6-2.17.89-3.34.89h-2.08c-.06,0-.09-.03-.09-.09v-1.25s.03-.07.09-.07h2.06c.86,0,1.57-.12,2.14-.36-.46-.33-.93-.81-1.42-1.44s-.89-1.31-1.23-2.04c-.34-.73-.56-1.42-.66-2.08.66-.61,1.39-1.1,2.22-1.45.82-.35,1.66-.53,2.51-.53.75,0,1.51.12,2.28.36.77.24,1.44.56,2.01.96,0,1.24-.29,2.41-.86,3.51s-1.36,1.99-2.37,2.68c.67.25,1.33.38,1.99.38h2.18c.06,0,.09.02.09.07v1.25c0,.06-.03.09-.09.09h-2.11ZM534.63,647.2c.92-.63,1.61-1.31,2.06-2.06.45-.75.71-1.61.76-2.59-.84-.44-1.7-.67-2.59-.67-1.02,0-2.04.35-3.05,1.04.18.82.52,1.6,1.02,2.35.5.75,1.1,1.39,1.8,1.92Z"/>
    <path class="cls-9" d="M539.87,649.77c-.06,0-.09-.03-.09-.09v-1.25s.03-.07.09-.07h2.91v-7.31h1.6v7.31h2.69c.06,0,.09.02.09.07v1.25c0,.06-.03.09-.09.09h-7.2ZM542.01,639.35c-.28,0-.52-.08-.71-.25-.2-.17-.29-.44-.29-.82s.1-.66.29-.83c.2-.17.43-.25.71-.25.3,0,.55.09.73.28.18.18.27.45.27.8s-.09.61-.27.8c-.18.19-.42.28-.73.28ZM545.11,639.35c-.31,0-.56-.09-.74-.28-.18-.19-.27-.45-.27-.8s.09-.61.27-.8c.18-.19.42-.28.74-.28s.57.1.75.29c.18.2.26.46.26.79s-.09.59-.26.79c-.17.2-.42.29-.75.29Z"/>
    <path class="cls-9" d="M546.89,649.77c-.06,0-.09-.03-.09-.09v-1.25s.03-.07.09-.07h2.37v-12.25h1.6v13.65h-3.96Z"/>
    <path class="cls-9" d="M554.46,636.12h1.6v13.65h-1.6v-13.65Z"/>
    <path class="cls-9" d="M567.91,649.77c-.85,0-1.28.44-1.28,1.32v4.43h-1.51v-4.7c0-.52.1-.96.29-1.32.19-.36.46-.64.79-.83.33-.19.7-.29,1.12-.29h.12c-.44-1.14-.66-2.16-.66-3.07,0-1.06.21-2.02.64-2.86.44-.37.95-.66,1.52-.88.57-.22,1.16-.32,1.77-.32.75,0,1.41.17,1.97.5.57.33,1,.8,1.31,1.41s.46,1.3.46,2.07-.13,1.47-.38,2.11c.26.4.56.68.88.82.32.15.74.22,1.25.22h.09c.06,0,.09.02.09.07v1.25c0,.06-.03.09-.09.09h-.09c-.64,0-1.18-.09-1.63-.26-.45-.18-.88-.48-1.3-.9-.38.4-.82.69-1.33.88-.51.19-1.03.29-1.58.29h-2.44ZM568.4,644.99c0,.56.05,1.1.14,1.64.1.54.28,1.12.54,1.74h1.27c.8,0,1.42-.27,1.84-.82s.64-1.33.64-2.36c0-.75-.21-1.37-.62-1.85s-.91-.72-1.5-.72c-.75,0-1.46.25-2.11.74-.1.25-.16.51-.18.77-.02.26-.03.55-.03.86Z"/>
    <path class="cls-9" d="M576.11,649.77c-.06,0-.09-.03-.09-.09v-1.25s.03-.07.09-.07h2.37v-12.25h1.6v12.25h2.34c.06,0,.09.02.09.07v1.25c0,.06-.03.09-.09.09h-6.31Z"/>
    <path class="cls-9" d="M582.23,649.77c-.06,0-.09-.03-.09-.09v-1.25s.03-.07.09-.07h2.91v-7.31h1.6v7.31h2.69c.06,0,.09.02.09.07v1.25c0,.06-.03.09-.09.09h-7.2ZM584.44,653.36c-.28,0-.52-.08-.71-.25-.2-.17-.29-.44-.29-.82s.1-.66.29-.82c.2-.17.43-.25.71-.25.3,0,.55.09.73.28.18.18.27.45.27.8s-.09.61-.27.8c-.18.19-.42.28-.73.28ZM587.55,653.36c-.31,0-.56-.09-.74-.28-.18-.19-.27-.45-.27-.8s.09-.61.27-.8c.18-.19.42-.28.74-.28s.57.1.75.29c.18.2.26.46.26.79s-.09.59-.26.79c-.17.2-.42.29-.75.29Z"/>
    <path class="cls-9" d="M589.26,649.77c-.06,0-.09-.03-.09-.09v-1.25s.03-.07.09-.07h2.73c-.3-.34-.54-.76-.69-1.25s-.24-.98-.24-1.46c0-1.43.44-2.55,1.33-3.37.89-.82,2.08-1.23,3.59-1.23h2.35v7.31h1.9s.06.01.08.04v.04s0,1.25,0,1.25c0,.05-.03.07-.09.07h-10.97ZM596.8,648.36v-5.91h-.77c-1.07,0-1.9.28-2.49.85-.59.56-.89,1.35-.89,2.36,0,1.81.82,2.71,2.46,2.71h1.69ZM595.07,639.35c-.31,0-.56-.09-.74-.28-.18-.19-.27-.45-.27-.8s.09-.61.27-.8c.18-.19.42-.28.74-.28s.57.1.75.29c.18.2.26.46.26.79s-.09.59-.26.79c-.17.2-.42.29-.75.29Z"/>
    <path class="cls-9" d="M600.05,649.77c-.06,0-.09-.03-.09-.09v-1.25s.03-.07.09-.07h2.37v-12.25h1.6v13.65h-3.96Z"/>
    <path class="cls-9" d="M607.61,636.12h1.6v13.65h-1.6v-13.65Z"/>
    <path class="cls-9" d="M617.92,648.36h5.98c-.23-1.61-.68-2.98-1.34-4.11-.66-1.13-1.6-2.11-2.82-2.93l.58-1.36c1.38.73,2.5,1.8,3.37,3.22.87,1.42,1.45,3.14,1.74,5.18h2c.06,0,.09.02.09.07v1.25c0,.06-.03.09-.09.09h-9.51v-1.4Z"/>
    <path class="cls-9" d="M627.25,649.77c-.06,0-.09-.03-.09-.09v-1.25s.03-.07.09-.07h2.78c-.38-.24-.68-.59-.91-1.04-.23-.46-.34-.96-.34-1.53,0-.73.16-1.37.48-1.93s.76-.98,1.31-1.28c.55-.3,1.16-.45,1.81-.45,2.33,0,3.49,1.29,3.49,3.86v2.37h2.35v-3.52c0-1.63-.37-2.83-1.1-3.61-.74-.77-1.9-1.16-3.47-1.16-1.16,0-2.27.18-3.33.53l-.41-1.39c1.12-.37,2.37-.56,3.74-.56,1.95,0,3.46.53,4.52,1.58,1.06,1.06,1.59,2.54,1.59,4.45v5.07h-12.5ZM634.34,648.36v-2.1c0-.88-.17-1.53-.51-1.94-.34-.41-.85-.61-1.52-.61-.61,0-1.08.19-1.43.56-.34.37-.51.9-.51,1.58,0,.77.23,1.38.69,1.83.46.45,1.06.68,1.81.68h1.47Z"/>
    <path class="cls-9" d="M643.07,636.12h1.6v12.25h2.37c.06,0,.1.02.1.07v1.25c0,.06-.03.09-.1.09h-3.97v-13.65Z"/>
    <path class="cls-9" d="M658.57,649.77c-.54,0-1.03-.09-1.49-.27s-.92-.51-1.41-.99c-.26.37-.61.67-1.05.9-.44.23-.96.35-1.57.35h-6.19c-.06,0-.09-.03-.09-.09v-1.25s.03-.07.09-.07h2.57v-5.91h1.53v5.91h1.94c.58,0,1.03-.19,1.35-.58.32-.38.48-.88.48-1.5v-3.83h1.53v4.32l-.02.2c.3.51.62.88.98,1.08s.81.31,1.36.31h1.1v-7.31h1.53v8.71h-2.62ZM653.92,639.35c-.28,0-.52-.08-.71-.25s-.29-.44-.29-.82.1-.66.29-.83c.2-.17.43-.25.71-.25.32,0,.57.1.75.29.17.2.26.46.26.79s-.09.59-.26.79c-.18.2-.42.29-.75.29ZM655.47,636.92c-.27,0-.49-.08-.67-.23-.17-.15-.26-.41-.26-.76s.09-.6.26-.75c.18-.16.4-.24.67-.24.25,0,.47.08.65.24.18.16.28.41.28.75s-.09.6-.28.76c-.18.16-.4.23-.65.23ZM657.03,639.35c-.31,0-.56-.09-.74-.28-.18-.19-.27-.45-.27-.8s.09-.61.27-.8c.18-.19.43-.28.74-.28s.57.1.75.29c.17.2.26.46.26.79s-.09.59-.26.79c-.18.2-.42.29-.75.29Z"/>
  </g>
</svg>