<svg width="54" height="55" viewBox="0 0 54 55" fill="none" xmlns="http://www.w3.org/2000/svg">
<path d="M46.0417 7.8814C43.5583 5.37377 40.6007 3.38547 37.3412 2.03238C34.0817 0.679284 30.5854 -0.0115461 27.0562 0.000145966C12.2687 0.000145966 0.216667 12.0522 0.216667 26.8397C0.216667 31.5793 1.4625 36.1835 3.79167 40.246L0 54.1668L14.2187 50.4293C18.1458 52.5689 22.5604 53.7064 27.0562 53.7064C41.8437 53.7064 53.8958 41.6543 53.8958 26.8668C53.8958 19.6897 51.1062 12.946 46.0417 7.8814ZM27.0562 49.1564C23.0479 49.1564 19.1208 48.0731 15.6812 46.0418L14.8687 45.5543L6.41875 47.7751L8.66667 39.5418L8.125 38.7022C5.89752 35.1463 4.715 31.0357 4.7125 26.8397C4.7125 14.5439 14.7333 4.52306 27.0292 4.52306C32.9875 4.52306 38.5937 6.85223 42.7917 11.0772C44.8706 13.146 46.5181 15.607 47.6386 18.3175C48.759 21.028 49.3301 23.9339 49.3188 26.8668C49.3729 39.1626 39.3521 49.1564 27.0562 49.1564ZM39.2979 32.4731C38.6208 32.1481 35.3167 30.5231 34.7208 30.2793C34.0979 30.0626 33.6646 29.9543 33.2042 30.6043C32.7437 31.2814 31.4708 32.7981 31.0917 33.2314C30.7125 33.6918 30.3062 33.746 29.6292 33.3939C28.9521 33.0689 26.7854 32.3376 24.2396 30.0626C22.2354 28.2751 20.9083 26.0814 20.5021 25.4043C20.1229 24.7272 20.4479 24.3751 20.8 24.0231C21.0979 23.7251 21.4771 23.2376 21.8021 22.8585C22.1271 22.4793 22.2625 22.1814 22.4792 21.7481C22.6958 21.2876 22.5875 20.9085 22.425 20.5835C22.2625 20.2585 20.9083 16.9543 20.3667 15.6001C19.825 14.3001 19.2562 14.4626 18.85 14.4356H17.55C17.0896 14.4356 16.3854 14.5981 15.7625 15.2751C15.1667 15.9522 13.4333 17.5772 13.4333 20.8814C13.4333 24.1856 15.8438 27.3814 16.1688 27.8147C16.4938 28.2751 20.9083 35.046 27.625 37.9439C29.2229 38.6481 30.4687 39.0543 31.4437 39.3522C33.0417 39.8668 34.5042 39.7856 35.6687 39.6231C36.9687 39.4335 39.65 37.9981 40.1917 36.4272C40.7604 34.8564 40.7604 33.5293 40.5708 33.2314C40.3813 32.9335 39.975 32.7981 39.2979 32.4731Z" fill="#005380"/>
</svg>
