<?xml version="1.0" encoding="utf-8"?>
<!-- Generator: Adobe Illustrator 28.1.0, SVG Export Plug-In . SVG Version: 6.00 Build 0)  -->
<svg version="1.1" id="Layer_1" xmlns="http://www.w3.org/2000/svg" xmlns:xlink="http://www.w3.org/1999/xlink" x="0px" y="0px"
	 viewBox="0 0 58 38" style="enable-background:new 0 0 58 38;" xml:space="preserve">
<style type="text/css">
	.st0{fill:#047AA3;}
</style>
<g>
	<g>
		<polygon class="st0" points="0,19 19.74,37.85 36.81,37.85 26.15,27.67 17.07,19 26.15,10.33 36.81,0.15 19.74,0.15 		"/>
	</g>
	<g>
		<g>
			<polygon class="st0" points="41.93,23.04 24.72,23.04 21.4,19.87 38.61,19.87 			"/>
		</g>
		<g>
			<polygon class="st0" points="46.78,10.33 43.76,13.22 26.54,13.22 29.86,10.05 47.08,10.05 			"/>
		</g>
		<g>
			<polygon class="st0" points="46.78,27.67 47.08,27.95 29.86,27.95 26.54,24.78 43.76,24.78 			"/>
		</g>
		<g>
			<polygon class="st0" points="38.61,18.13 21.4,18.13 24.72,14.96 41.93,14.96 			"/>
		</g>
		<g>
			<polygon class="st0" points="52.22,5.13 48.9,8.31 31.68,8.31 35,5.13 			"/>
		</g>
		<g>
			<polygon class="st0" points="57.44,37.85 40.22,37.85 36.83,34.61 54.05,34.61 			"/>
		</g>
		<g>
			<polygon class="st0" points="52.22,32.86 35,32.86 31.68,29.69 48.9,29.69 			"/>
		</g>
		<g>
			<polygon class="st0" points="40.22,0.15 57.44,0.15 54.05,3.39 36.83,3.39 			"/>
		</g>
	</g>
</g>
</svg>
