<svg width="62" height="63" viewBox="0 0 62 63" fill="none" xmlns="http://www.w3.org/2000/svg">
<path d="M11.5675 31.6182C10.4904 32.1782 9.45484 32.8123 8.48242 33.5252C9.85744 34.9366 11.4354 36.1179 13.1402 37.0568C12.8827 35.737 12.7513 34.3828 12.7609 33.0075C12.763 32.8543 12.7714 32.7034 12.7759 32.5509C12.2947 32.3511 11.8849 32.023 11.5675 31.6182Z" fill="white"/>
<path d="M10.5557 21.1543L5.93047 21.1569C5.64814 22.4298 4.55674 23.3856 3.22461 23.4848C3.85688 26.7592 5.29101 29.806 7.47068 32.4077C8.57185 31.5928 9.74385 30.8685 10.968 30.2372C10.9447 30.0866 10.9225 29.9354 10.9225 29.778C10.9225 28.9731 11.2419 28.2458 11.7583 27.707C11.0845 25.5978 10.6773 23.4038 10.5557 21.1543Z" fill="white"/>
<path d="M13.079 26.9084C13.3113 26.8401 13.5526 26.7952 13.805 26.7855C14.4919 24.7431 15.4961 22.8448 16.7632 21.1514L12.0566 21.1539C12.1698 23.1254 12.5165 25.0504 13.079 26.9084Z" fill="white"/>
<path d="M21.9182 29.123C21.4701 30.3602 21.208 31.6851 21.1975 33.0712C21.1879 34.5107 21.4434 35.9084 21.9182 37.2229V29.123Z" fill="white"/>
<path d="M7.79297 6.61515C9.25912 7.77618 10.852 8.76419 12.5353 9.55842C14.0353 5.98331 16.3723 2.75448 19.3284 0.162109C14.8717 0.922593 10.8085 3.19029 7.79297 6.61515Z" fill="white"/>
<path d="M12.0098 19.6535L18.0028 19.6503C19.16 18.3793 20.4751 17.2593 21.9179 16.3162V13.3701C18.9688 13.2497 16.0952 12.6399 13.3724 11.5576C12.4729 14.1505 12.0143 16.8728 12.0098 19.6535Z" fill="white"/>
<path d="M3.00194 17.4997C4.36525 17.4997 5.50156 18.4133 5.86848 19.6563L10.5087 19.6534C10.5125 16.6633 11.0114 13.7403 11.9903 10.9593C10.1625 10.1073 8.43366 9.03726 6.84402 7.77734C4.67283 10.6507 3.36542 13.9764 2.97852 17.5023L3.00194 17.4997Z" fill="white"/>
<path d="M25.7324 39.2817C30.0741 38.6068 34.0822 36.4887 37.1118 33.2661C35.6067 32.2049 33.9716 31.3171 32.2453 30.6221C30.7233 33.9376 28.5352 36.8467 25.7324 39.2817Z" fill="white"/>
<path d="M32.8203 29.2394C34.6942 29.995 36.4699 30.9663 38.1019 32.1306C39.8268 29.9939 41.0561 27.5639 41.7703 24.9667C39.9029 22.9965 37.3766 21.6595 34.54 21.3223C34.3761 24.061 33.8031 26.7218 32.8203 29.2394Z" fill="white"/>
<path d="M41.9861 15.2433C41.3955 12.6783 40.3001 10.2532 38.7222 8.08008C37.6548 8.89247 36.5218 9.61061 35.3465 10.2477C35.4668 10.5723 35.541 10.919 35.541 11.2855C35.541 11.9951 35.2854 12.6385 34.873 13.1523C37.4135 13.4055 39.813 14.1327 41.9861 15.2433Z" fill="white"/>
<path d="M21.9177 11.8685V0C18.3533 2.64364 15.5915 6.14695 13.9121 10.1546C16.4671 11.1735 19.1598 11.7491 21.9177 11.8685Z" fill="white"/>
<path d="M23.4199 0.170898V11.8863C25.5097 11.8492 27.5665 11.5431 29.564 10.9854C29.6466 10.1656 30.0524 9.4491 30.6613 8.95902C28.9975 5.53448 26.5245 2.52812 23.4199 0.170898Z" fill="white"/>
<path d="M32.0214 8.33569C32.1906 8.30646 32.3617 8.28368 32.5378 8.28368C33.2833 8.28368 33.9565 8.56472 34.4808 9.01385C35.636 8.39824 36.7489 7.6973 37.7974 6.90092C34.6909 3.23446 30.4371 0.845966 25.7305 0.117188C28.3739 2.42002 30.5164 5.22659 32.0214 8.33569Z" fill="white"/>
<path d="M23.4199 15.4227C25.5097 14.3017 27.8188 13.5442 30.2606 13.2249C30.0714 13.0021 29.9055 12.7582 29.7871 12.4863C27.7135 13.0499 25.5814 13.3527 23.4199 13.3891V15.4227Z" fill="white"/>
<path d="M23.4199 39.2297C26.6213 36.7994 29.173 33.6555 30.8271 30.1037C28.4427 29.3115 25.9534 28.8887 23.4199 28.8438V39.2297Z" fill="white"/>
<path d="M23.4199 26.2603V27.3465C26.1563 27.3907 28.8413 27.8523 31.4138 28.7189C32.3439 26.3386 32.8903 23.8247 33.0477 21.2363C29.0872 21.2615 25.5749 23.2433 23.4199 26.2603Z" fill="white"/>
<path d="M32.5369 8.2832C32.3606 8.2832 32.1895 8.30599 32.0205 8.33522C31.5105 8.42399 31.0487 8.6455 30.661 8.95867C30.0523 9.44875 29.6464 10.1653 29.5637 10.9851C29.5533 11.0853 29.5332 11.1825 29.5332 11.2856C29.5332 11.7132 29.6262 12.1179 29.7868 12.486C29.9053 12.7579 30.0711 13.0017 30.2604 13.2245C31.1144 13.113 31.982 13.0492 32.8647 13.0492L33.0169 13.0495C33.6426 13.0541 34.2618 13.0915 34.872 13.1523C35.2843 12.6385 35.5399 11.9951 35.5399 11.2855C35.5399 10.919 35.4657 10.5723 35.3454 10.2477C35.1659 9.76279 34.8654 9.343 34.4797 9.01316C33.9554 8.56425 33.2823 8.2832 32.5369 8.2832Z" fill="#EFEFEF"/>
<path d="M3.00292 17.5L2.9796 17.5026C1.33074 17.5156 0 18.8542 0 20.5037C0 22.1633 1.34374 23.5073 3.00303 23.5073L3.22485 23.4849C4.55699 23.3857 5.64827 22.4299 5.93071 21.157C5.97617 20.9459 6.00681 20.7287 6.00681 20.5037C6.00681 20.2074 5.94898 19.927 5.86956 19.6565C5.50254 18.4136 4.36622 17.5 3.00292 17.5Z" fill="white"/>
<path d="M10.9219 29.7784C10.9219 29.9359 10.944 30.087 10.9673 30.2376C11.0474 30.7551 11.2582 31.2237 11.5664 31.6186C11.8839 32.0234 12.2936 32.3515 12.7749 32.5513C12.8361 30.5431 13.1912 28.6074 13.8053 26.7861C13.5529 26.7959 13.3116 26.8407 13.0793 26.9091C12.5693 27.0597 12.1141 27.3329 11.7577 27.7075C11.2413 28.2464 10.9219 28.9735 10.9219 29.7784Z" fill="#EFEFEF"/>
<path d="M59.0285 54.1997L48.9344 44.1065C51.1244 40.9021 52.2965 37.1787 52.3251 33.3024C52.4044 22.5737 43.7406 13.7799 33.0123 13.6995L32.8653 13.6992C22.2176 13.6992 13.49 22.363 13.4107 33.0129C13.3717 38.2095 15.3588 43.1103 19.0064 46.8123C22.6541 50.5145 27.5246 52.5745 32.7235 52.6133L32.8705 52.6138C36.4877 52.6138 40.0019 51.6164 43.0661 49.7243L53.1707 59.8248L52.5976 59.2515L58.3833 53.5543L59.0285 54.1997ZM33.1274 45.7345L33.0292 45.7342C29.6703 45.7092 26.5235 44.3781 24.1664 41.9854C21.8085 39.5927 20.5253 36.4248 20.5486 33.066C20.6012 26.1834 26.2412 20.5838 33.1222 20.5838L33.2171 20.5841C40.1508 20.6351 45.7504 26.3186 45.6997 33.2536C45.647 40.1356 40.0071 45.7345 33.1274 45.7345Z" fill="white"/>
<path d="M54.2344 60.8903L55.614 62.2888C56.0153 62.697 56.5733 62.9126 57.2258 62.9126C58.2762 62.9126 59.4769 62.3467 60.4389 61.398C62.0605 59.7993 62.4833 57.6863 61.4009 56.5881L59.5595 54.7207L59.5543 54.7247L59.5765 54.7457L59.5797 54.7438L60.4695 55.6466L54.6871 61.3435L54.2344 60.8903Z" fill="#EFEFEF"/>
<path d="M54.2066 60.8603L53.7695 60.4238V60.4245L54.2066 60.8603Z" fill="#EFEFEF"/>
<path d="M59.5547 54.7242L59.0287 54.199L58.3833 53.5537L52.5977 59.2509L53.1707 59.8243L53.7691 60.424L54.2062 60.8604L54.2349 60.89L54.6876 61.3431L60.47 55.6461L59.5801 54.7433L59.5769 54.7453L59.5547 54.7242Z" fill="white"/>
</svg>
