<svg width="62" height="62" viewBox="0 0 62 62" fill="none" xmlns="http://www.w3.org/2000/svg">
<path fill-rule="evenodd" clip-rule="evenodd" d="M14.8333 58.6753C14.4734 56.1046 17.2933 48.521 19.141 46.7634C20.3192 45.6427 21.9967 44.444 23.3549 43.5398L20.9073 41.0922L18.4597 38.6445C17.5555 40.0028 16.3567 41.6803 15.2361 42.8585C13.4785 44.7062 5.89489 47.526 3.32422 47.1662C5.53316 48.4122 11.4569 46.5214 13.9769 48.0226C15.4781 50.5426 13.5873 56.4663 14.8333 58.6753Z" fill="#226894"/>
<path fill-rule="evenodd" clip-rule="evenodd" d="M10.6346 51.3657C9.85879 50.5901 9.85879 49.3323 10.6346 48.5565C11.4103 47.7807 12.668 47.7807 13.4439 48.5565C14.2197 49.3323 14.2197 50.5901 13.4439 51.3657C12.668 52.1416 11.4103 52.1416 10.6346 51.3657Z" fill="#226894"/>
<path fill-rule="evenodd" clip-rule="evenodd" d="M22.8613 0C24.9336 1.56318 28.302 8.91967 28.2384 11.469C28.2173 12.312 28.1161 13.265 27.9788 14.2103C28.9592 14.035 29.9687 13.9436 30.9995 13.9436C32.0304 13.9436 33.0398 14.035 34.0203 14.2103C33.8829 13.265 33.7818 12.312 33.7607 11.469C33.697 8.91965 37.0655 1.56318 39.1377 0C36.6947 0.680976 33.843 6.20671 30.9995 6.927C28.1561 6.20671 25.3043 0.680996 22.8613 0Z" fill="#226894"/>
<path fill-rule="evenodd" clip-rule="evenodd" d="M31.0002 2.19824C32.0972 2.19824 32.9867 3.08746 32.9867 4.18469C32.9867 5.28182 32.0972 6.17121 31.0002 6.17121C29.9031 6.17121 29.0137 5.28182 29.0137 4.18469C29.0137 3.08746 29.9031 2.19824 31.0002 2.19824Z" fill="#226894"/>
<path fill-rule="evenodd" clip-rule="evenodd" d="M36.9775 4.26172C37.7364 5.56903 37.8819 10.2788 37.2714 11.6327C36.8822 12.496 36.2409 13.5112 35.707 14.2972L37.5649 15.0794L39.4228 15.8617C39.6119 14.9305 39.8899 13.7624 40.2354 12.8808C40.7775 11.498 44.2481 8.31093 45.7134 7.94015C44.2483 7.75347 41.469 10.0749 39.78 9.81888C38.4165 8.78959 38.1348 5.17929 36.9775 4.26172Z" fill="#226894"/>
<path fill-rule="evenodd" clip-rule="evenodd" d="M40.8483 7.28136C41.4371 7.52941 41.7136 8.20768 41.4657 8.79668C41.2176 9.38544 40.5392 9.6618 39.9505 9.41391C39.3617 9.16594 39.0852 8.48755 39.3331 7.89868C39.5811 7.3098 40.2594 7.03348 40.8483 7.28136Z" fill="#226894"/>
<path fill-rule="evenodd" clip-rule="evenodd" d="M54.1332 16.3203C53.7455 17.7814 50.5181 21.2146 49.129 21.7403C48.2434 22.0756 47.0721 22.34 46.1387 22.5183L46.8994 24.3851L47.6599 26.2519C48.4521 25.7271 49.4748 25.0977 50.3423 24.7187C51.7034 24.1243 56.4111 24.3246 57.7095 25.0988C56.8055 23.9307 53.1987 23.6069 52.1854 22.2316C51.949 20.5396 54.3027 17.7876 54.1332 16.3203Z" fill="#226894"/>
<path fill-rule="evenodd" clip-rule="evenodd" d="M54.7363 21.1924C54.9774 21.7842 54.6933 22.4593 54.1015 22.7004C53.5097 22.9414 52.8346 22.6571 52.5936 22.0654C52.3526 21.4738 52.6367 20.7987 53.2286 20.5575C53.8203 20.3164 54.4953 20.6007 54.7363 21.1924Z" fill="#226894"/>
<path fill-rule="evenodd" clip-rule="evenodd" d="M57.7389 36.9775C56.4313 37.7364 51.7216 37.8819 50.3676 37.2714C49.5044 36.8822 48.4892 36.241 47.7032 35.707L46.9209 37.5649L46.1387 39.4228C47.0699 39.6119 48.238 39.8899 49.1196 40.2354C50.5024 40.7775 53.6895 44.2481 54.0603 45.7134C54.2469 44.2483 51.9255 41.469 52.1815 39.78C53.2108 38.4165 56.8211 38.1348 57.7389 36.9775Z" fill="#226894"/>
<path fill-rule="evenodd" clip-rule="evenodd" d="M54.7196 40.8493C54.4715 41.4381 53.7932 41.7145 53.2043 41.4667C52.6155 41.2186 52.3391 40.5402 52.587 39.9514C52.8351 39.3626 53.5134 39.0862 54.1022 39.3341C54.6911 39.582 54.9675 40.2604 54.7196 40.8493Z" fill="#226894"/>
<path fill-rule="evenodd" clip-rule="evenodd" d="M45.6796 54.1342C44.2186 53.7464 40.7854 50.519 40.2597 49.13C39.9244 48.2443 39.66 47.0731 39.4817 46.1396L37.6148 46.9004L35.748 47.6609C36.2728 48.453 36.9022 49.4758 37.2813 50.3433C37.8757 51.7044 37.6753 56.4121 36.9012 57.7104C38.0692 56.8065 38.3931 53.1996 39.7683 52.1864C41.4603 51.95 44.2124 54.3037 45.6796 54.1342Z" fill="#226894"/>
<path fill-rule="evenodd" clip-rule="evenodd" d="M40.8086 54.7364C40.2169 54.9774 39.5417 54.6933 39.3006 54.1015C39.0596 53.5097 39.3439 52.8347 39.9356 52.5936C40.5272 52.3526 41.2024 52.6367 41.4435 53.2286C41.6846 53.8203 41.4003 54.4953 40.8086 54.7364Z" fill="#226894"/>
<path fill-rule="evenodd" clip-rule="evenodd" d="M25.0231 57.7389C24.2642 56.4314 24.1187 51.7216 24.7291 50.3676C25.1183 49.5044 25.7595 48.4892 26.2936 47.7032L24.4356 46.9209L22.5778 46.1387C22.3886 47.0699 22.1106 48.2381 21.7651 49.1196C21.2231 50.5024 17.7525 53.6895 16.2871 54.0602C17.7522 54.2469 20.5315 51.9255 22.2205 52.1815C23.584 53.2108 23.8658 56.8211 25.0231 57.7389Z" fill="#226894"/>
<path fill-rule="evenodd" clip-rule="evenodd" d="M21.1516 54.7186C20.5629 54.4706 20.2864 53.7923 20.5343 53.2033C20.7823 52.6145 21.4607 52.3382 22.0495 52.5861C22.6383 52.8341 22.9148 53.5124 22.6669 54.1013C22.4189 54.6902 21.7405 54.9665 21.1516 54.7186Z" fill="#226894"/>
<path fill-rule="evenodd" clip-rule="evenodd" d="M7.86722 45.6796C8.25499 44.2185 11.4824 40.7854 12.8714 40.2597C13.7571 39.9243 14.9283 39.66 15.8618 39.4817L15.1011 37.6148L14.3406 35.748C13.5484 36.2728 12.5257 36.9022 11.6581 37.2813C10.297 37.8757 5.58934 37.6753 4.29102 36.9012C5.19495 38.0692 8.80182 38.3931 9.81503 39.7683C10.0514 41.4603 7.69777 44.2124 7.86722 45.6796Z" fill="#226894"/>
<path fill-rule="evenodd" clip-rule="evenodd" d="M7.26356 40.8077C7.02251 40.2159 7.30657 39.5408 7.89836 39.2996C8.49022 39.0587 9.16523 39.3429 9.40631 39.9346C9.64727 40.5263 9.36318 41.2014 8.77132 41.4425C8.17963 41.6836 7.50464 41.3994 7.26356 40.8077Z" fill="#226894"/>
<path fill-rule="evenodd" clip-rule="evenodd" d="M4.26172 25.0221C5.56923 24.2632 10.279 24.1177 11.6329 24.7281C12.4962 25.1173 13.5114 25.7586 14.2974 26.2926L15.0796 24.4346L15.8619 22.5768C14.9307 22.3876 13.7625 22.1096 12.881 21.7641C11.4982 21.2221 8.31113 17.7515 7.94031 16.2861C7.75367 17.7512 10.0751 20.5306 9.81906 22.2196C8.78978 23.583 5.17948 23.8648 4.26172 25.0221Z" fill="#226894"/>
<path fill-rule="evenodd" clip-rule="evenodd" d="M7.28038 21.1506C7.52843 20.5619 8.2067 20.2854 8.7957 20.5333C9.38447 20.7814 9.66082 21.4597 9.41295 22.0486C9.1649 22.6373 8.48659 22.9138 7.89773 22.6659C7.30883 22.4179 7.03251 21.7395 7.28038 21.1506Z" fill="#226894"/>
<path fill-rule="evenodd" clip-rule="evenodd" d="M16.3203 7.86624C17.7814 8.25401 21.2146 11.4814 21.7403 12.8705C22.0756 13.7561 22.34 14.9274 22.5182 15.8608L24.3851 15.1001L26.2519 14.3396C25.7272 13.5475 25.0978 12.5247 24.7187 11.6572C24.1243 10.2961 24.3246 5.58836 25.0988 4.29004C23.9307 5.19398 23.6069 8.80084 22.2316 9.81406C20.5396 10.0505 17.7876 7.6968 16.3203 7.86624Z" fill="#226894"/>
<path fill-rule="evenodd" clip-rule="evenodd" d="M21.1914 7.26356C21.7832 7.02251 22.4583 7.30657 22.6994 7.89836C22.9404 8.49022 22.6561 9.16523 22.0645 9.40631C21.4728 9.64727 20.7977 9.3632 20.5565 8.77132C20.3154 8.17965 20.5997 7.50464 21.1914 7.26356Z" fill="#226894"/>
<path fill-rule="evenodd" clip-rule="evenodd" d="M47.1663 3.3252C47.5262 5.89587 44.7063 13.4795 42.8585 15.2371C42.247 15.8189 41.5006 16.4216 40.7344 16.9935C42.3994 18.1528 43.8477 19.6012 45.0071 21.2662C45.579 20.4999 46.1817 19.7536 46.7635 19.142C48.5211 17.2943 56.1047 14.4743 58.6754 14.8342C56.4664 13.5883 50.5427 15.4792 48.0228 13.9777C46.5213 11.4579 48.4122 5.53413 47.1663 3.3252Z" fill="#226894"/>
<path fill-rule="evenodd" clip-rule="evenodd" d="M51.3656 10.6346C52.1415 11.4103 52.1416 12.668 51.3657 13.4438C50.59 14.2196 49.3322 14.2196 48.5565 13.4438C47.7807 12.6681 47.7807 11.4103 48.5565 10.6345C49.3323 9.85875 50.59 9.85881 51.3656 10.6346Z" fill="#226894"/>
<path fill-rule="evenodd" clip-rule="evenodd" d="M61.9993 22.8623C60.4362 24.9345 53.0797 28.303 50.5303 28.2394C49.6873 28.2183 48.7343 28.1171 47.7891 27.9796C47.9643 28.9601 48.0558 29.9696 48.0558 31.0005C48.0558 32.0314 47.9643 33.0409 47.7891 34.0214C48.7344 33.8839 49.6873 33.7827 50.5303 33.7616C53.0797 33.698 60.4362 37.0665 61.9993 39.1387C61.3184 36.6957 55.7926 33.8439 55.0724 31.0005C55.7926 28.157 61.3184 25.3053 61.9993 22.8623Z" fill="#226894"/>
<path fill-rule="evenodd" clip-rule="evenodd" d="M59.801 31.0002C59.8011 32.0972 58.9119 32.9867 57.8146 32.9867C56.7175 32.9867 55.8281 32.0972 55.8281 31.0002C55.8281 29.9031 56.7175 29.0137 57.8146 29.0137C58.9119 29.0137 59.8011 29.9031 59.801 31.0002Z" fill="#226894"/>
<path fill-rule="evenodd" clip-rule="evenodd" d="M58.6754 47.1654C56.1047 47.5252 48.5211 44.7053 46.7635 42.8576C46.1817 42.246 45.579 41.4997 45.0071 40.7334C43.8478 42.3984 42.3993 43.8467 40.7344 45.0061C41.5007 45.578 42.247 46.1807 42.8585 46.7625C44.7063 48.5201 47.5262 56.1037 47.1663 58.6744C48.4122 56.4655 46.5214 50.5417 48.0228 48.0218C50.5427 46.5204 56.4664 48.4113 58.6754 47.1654Z" fill="#226894"/>
<path fill-rule="evenodd" clip-rule="evenodd" d="M51.3656 51.3656C50.59 52.1415 49.3323 52.1416 48.5565 51.3657C47.7807 50.59 47.7807 49.3322 48.5565 48.5565C49.3322 47.7807 50.59 47.7807 51.3657 48.5565C52.1416 49.3323 52.1415 50.59 51.3656 51.3656Z" fill="#226894"/>
<path fill-rule="evenodd" clip-rule="evenodd" d="M39.1377 62.0003C37.0655 60.4371 33.697 53.0806 33.7607 50.5313C33.7818 49.6883 33.8829 48.7353 34.0204 47.79C33.0399 47.9653 32.0304 48.0568 30.9995 48.0568C29.9687 48.0568 28.9591 47.9653 27.9787 47.79C28.1161 48.7353 28.2173 49.6883 28.2384 50.5313C28.302 53.0807 24.9336 60.4371 22.8613 62.0003C25.3043 61.3193 28.1561 55.7936 30.9995 55.0734C33.8429 55.7936 36.6947 61.3193 39.1377 62.0003Z" fill="#226894"/>
<path fill-rule="evenodd" clip-rule="evenodd" d="M31.0002 59.801C29.9031 59.8011 29.0137 58.9119 29.0137 57.8146C29.0137 56.7175 29.9031 55.8281 31.0002 55.8281C32.0972 55.8281 32.9867 56.7175 32.9867 57.8146C32.9867 58.9119 32.0972 59.8011 31.0002 59.801Z" fill="#226894"/>
<path fill-rule="evenodd" clip-rule="evenodd" d="M0 39.1387C1.56318 37.0665 8.91967 33.698 11.469 33.7616C12.312 33.7827 13.265 33.8839 14.2103 34.0214C14.035 33.0409 13.9436 32.0314 13.9436 31.0005C13.9436 29.9696 14.035 28.9601 14.2103 27.9796C13.265 28.1171 12.312 28.2183 11.469 28.2394C8.91965 28.303 1.56318 24.9345 0 22.8623C0.680976 25.3053 6.20671 28.157 6.9269 31.0005C6.20671 33.8439 0.680996 36.6957 0 39.1387Z" fill="#226894"/>
<path fill-rule="evenodd" clip-rule="evenodd" d="M2.19922 31.0002C2.19912 29.9031 3.08834 29.0137 4.18557 29.0137C5.2827 29.0137 6.17208 29.9031 6.17208 31.0002C6.17208 32.0972 5.2827 32.9867 4.18557 32.9867C3.08834 32.9867 2.19912 32.0972 2.19922 31.0002Z" fill="#226894"/>
<path fill-rule="evenodd" clip-rule="evenodd" d="M3.32422 14.8342C5.89489 14.4743 13.4785 17.2943 15.2361 19.142C15.8179 19.7536 16.4206 20.4999 16.9925 21.2662C18.1518 19.6012 19.6003 18.1529 21.2652 16.9935C20.4989 16.4216 19.7526 15.8189 19.141 15.2371C17.2933 13.4795 14.4733 5.89587 14.8332 3.3252C13.5873 5.53413 15.4782 11.4579 13.9768 13.9777C11.4569 15.4792 5.53318 13.5883 3.32422 14.8342Z" fill="#226894"/>
<path fill-rule="evenodd" clip-rule="evenodd" d="M10.6346 10.6346C11.4103 9.85881 12.668 9.85875 13.4438 10.6345C14.2196 11.4103 14.2196 12.6681 13.4438 13.4438C12.6681 14.2196 11.4103 14.2196 10.6345 13.4438C9.85875 12.668 9.85881 11.4103 10.6346 10.6346Z" fill="#226894"/>
<path fill-rule="evenodd" clip-rule="evenodd" d="M30.9994 14.4008C40.167 14.4008 47.5989 21.8327 47.5989 31.0003C47.5989 40.168 40.167 47.5998 30.9994 47.5998C21.8317 47.5998 14.3999 40.168 14.3999 31.0003C14.3999 21.8327 21.8317 14.4008 30.9994 14.4008ZM30.9994 13.3584C40.7428 13.3584 48.6413 21.257 48.6413 31.0004C48.6413 40.7437 40.7428 48.6423 30.9994 48.6423C21.256 48.6423 13.3574 40.7437 13.3574 31.0004C13.3574 21.257 21.256 13.3584 30.9994 13.3584Z" fill="#226894"/>
<path fill-rule="evenodd" clip-rule="evenodd" d="M27.3231 47.5524C20.7885 46.1074 15.6709 40.8924 14.3691 34.3048C16.5667 33.4577 19.6794 32.8911 22.3511 34.7837C27.0685 38.1251 27.6629 39.271 28.1495 43.5305C28.3344 45.1479 27.8402 46.4579 27.3231 47.5524Z" fill="#226894"/>
<path fill-rule="evenodd" clip-rule="evenodd" d="M14.1172 29.4657C14.7034 22.9338 18.9938 17.4695 24.8729 15.1895C25.4668 16.6552 25.9901 18.51 25.6937 20.0419C25.104 23.0886 22.4506 22.3023 22.6471 26.1352C22.8436 29.9681 23.4332 33.4079 20.2883 30.0664C18.1217 27.7643 15.7219 28.1212 14.1172 29.4657Z" fill="#226894"/>
<path fill-rule="evenodd" clip-rule="evenodd" d="M31.0008 14.0469C38.1843 14.0469 44.3237 18.5149 46.793 24.8232C46.171 25.0343 45.7774 25.4771 45.7427 26.2332C45.5894 29.5689 45.841 31.2454 42.0081 27.904C38.1752 24.5625 33.2613 28.1005 29.9198 25.6436C26.5783 23.1866 28.7404 20.2382 30.1164 18.0761C30.7255 17.1189 30.9107 15.526 30.9281 14.0478C30.9524 14.0477 30.9766 14.0469 31.0008 14.0469Z" fill="#226894"/>
<path fill-rule="evenodd" clip-rule="evenodd" d="M29.6234 28.69C29.6234 28.69 26.9699 31.3927 27.8543 34.0463C28.7389 36.6999 32.0312 41.2208 35.127 40.4345C38.2228 39.6482 38.1246 40.0904 38.5177 42.7439C38.9108 45.3974 44.218 44.3164 42.6455 39.3041C41.073 34.2919 38.3212 33.4074 40.5817 31.6384C42.842 29.8694 37.5349 28.8866 34.8814 30.9505C32.2279 33.0143 32.0805 26.9702 29.6234 28.69Z" fill="#226894"/>
</svg>
