<svg width="62" height="74" viewBox="0 0 62 74" fill="none" xmlns="http://www.w3.org/2000/svg">
<path d="M19.9298 59.7236H0V73.192H19.9298V59.7236Z" fill="#226894"/>
<path d="M62.0002 59.7236H42.0703V73.192H62.0002V59.7236Z" fill="#226894"/>
<path d="M21.0352 52.9268V73.193H40.965V52.9268H21.0352ZM34.9394 68.9765H27.0604V66.9157H29.5494V60.6777H27.0604V58.7517C27.441 58.7517 27.8056 58.7294 28.1542 58.6843C28.5028 58.6396 28.7936 58.5612 29.0263 58.4503C29.3007 58.3184 29.5069 58.1468 29.6443 57.9352C29.7817 57.724 29.8609 57.4598 29.882 57.1428H32.5055V66.9157H34.939V68.9765H34.9394Z" fill="#226894"/>
<path d="M54.9678 17.2067C56.8251 15.3494 56.8251 12.3381 54.9678 10.4808C53.1105 8.62346 50.0992 8.62346 48.2419 10.4808C46.3846 12.3381 46.3846 15.3494 48.2419 17.2067C50.0992 19.064 53.1105 19.064 54.9678 17.2067Z" fill="#226894"/>
<path d="M59.4986 19.6992H43.7181C43.2106 19.6992 42.7988 20.1106 42.7988 20.6186V36.7632C42.7988 37.2707 43.2102 37.6825 43.7181 37.6825C43.7181 37.6825 45.0244 37.7533 45.317 37.6774V22.7312H45.7098C45.7098 22.7312 45.7098 38.5403 45.7098 38.6018V58.0018C45.7098 58.5093 46.1212 58.9212 46.6292 58.9212H49.7699C50.2774 58.9212 50.6892 58.5097 50.6892 58.0018V44.2616C50.6892 43.754 51.1006 43.3422 51.6086 43.3422C52.1161 43.3422 52.5279 43.7536 52.5279 44.2616V58.0018C52.5279 58.5093 52.9393 58.9212 53.4473 58.9212H56.588C57.0955 58.9212 57.5073 58.5097 57.5073 58.0018V38.6018C57.5073 38.5403 57.5073 22.7312 57.5073 22.7312H57.9002V37.6774C58.1931 37.7537 59.499 37.6825 59.499 37.6825C60.0065 37.6825 60.4183 37.2711 60.4183 36.7632V20.6186C60.4179 20.1106 60.0061 19.6992 59.4986 19.6992Z" fill="#226894"/>
<path d="M34.3584 10.0886C36.2157 8.23123 36.2157 5.21993 34.3584 3.36261C32.5011 1.5053 29.4898 1.50531 27.6325 3.36262C25.7752 5.21994 25.7752 8.23123 27.6325 10.0885C29.4898 11.9459 32.5011 11.9459 34.3584 10.0886Z" fill="#226894"/>
<path d="M38.8892 12.5801H23.1088C22.6013 12.5801 22.1895 12.9915 22.1895 13.4994V29.644C22.1895 30.1515 22.6009 30.5633 23.1088 30.5633C23.1088 30.5633 24.4151 30.6342 24.7076 30.5583V15.6121H25.1005C25.1005 15.6121 25.1005 31.4211 25.1005 31.4827V50.8827C25.1005 51.3902 25.5119 51.802 26.0198 51.802H29.1605C29.668 51.802 30.0799 51.3906 30.0799 50.8827V37.1424C30.0799 36.6345 30.4913 36.2231 30.9992 36.2231C31.5067 36.2231 31.9185 36.6345 31.9185 37.1424V50.8827C31.9185 51.3902 32.3299 51.802 32.8379 51.802H35.9786C36.4861 51.802 36.8979 51.3906 36.8979 50.8827V31.4827C36.8979 31.4211 36.8979 15.6121 36.8979 15.6121H37.2908V30.5583C37.5838 30.6342 38.8896 30.5633 38.8896 30.5633C39.3971 30.5633 39.809 30.1519 39.809 29.644V13.4994C39.8085 12.9915 39.3967 12.5801 38.8892 12.5801Z" fill="#226894"/>
<path d="M13.751 17.2077C15.6083 15.3504 15.6083 12.3391 13.751 10.4818C11.8937 8.62445 8.88239 8.62445 7.02507 10.4818C5.16776 12.3391 5.16777 15.3504 7.02508 17.2077C8.8824 19.065 11.8937 19.065 13.751 17.2077Z" fill="#226894"/>
<path d="M18.2818 19.7002H2.50136C1.99386 19.7002 1.58203 20.1116 1.58203 20.6195V36.7641C1.58203 37.2716 1.99343 37.6835 2.50136 37.6835C2.50136 37.6835 3.80765 37.7543 4.10019 37.6784V22.7322H4.49304C4.49304 22.7322 4.49304 38.5413 4.49304 38.6028V58.0028C4.49304 58.5103 4.90445 58.9221 5.41238 58.9221H8.55311C9.06062 58.9221 9.47245 58.5107 9.47245 58.0028V44.2625C9.47245 43.755 9.88385 43.3432 10.3918 43.3432C10.8997 43.3432 11.3111 43.7546 11.3111 44.2625V58.0028C11.3111 58.5103 11.7225 58.9221 12.2305 58.9221H15.3712C15.8787 58.9221 16.2905 58.5107 16.2905 58.0028V38.6028C16.2905 38.5413 16.2905 22.7322 16.2905 22.7322H16.6834V37.6784C16.9759 37.7547 18.2822 37.6835 18.2822 37.6835C18.7897 37.6835 19.2015 37.2721 19.2015 36.7641V20.6195C19.2011 20.1116 18.7897 19.7002 18.2818 19.7002Z" fill="#226894"/>
</svg>
