<svg width="62" height="62" viewBox="0 0 62 62" fill="none" xmlns="http://www.w3.org/2000/svg">
<path d="M7.76562 9.78613C7.94768 13.665 8.95989 18.3082 10.6895 18.3082H15.9726C15.024 15.4339 14.4686 12.4487 14.1492 9.78613H7.76562Z" fill="white"/>
<path d="M46.0371 18.3082H50.8829C52.6125 18.3082 53.6252 13.665 53.8067 9.78613H47.86C47.5405 12.4487 46.9852 15.4339 46.0371 18.3082Z" fill="white"/>
<path d="M48.2688 2.35015C48.2636 1.62444 48.2396 1.16752 48.2344 1.06225L48.1852 0H13.8291L13.7747 1.06225C13.7696 1.16808 13.745 1.62444 13.7404 2.35015H0L0.00515418 3.4656C0.0148869 5.74856 0.358965 25.7442 9.34746 25.7442H19.8004C20.1394 26.172 20.4983 26.5808 20.8768 26.97C21.8793 28.0031 22.9848 28.8492 24.1791 29.5032L18.4831 52.5507H43.5266L37.8307 29.5077C39.025 28.8542 40.1259 28.0081 41.133 26.97C41.5114 26.5808 41.8704 26.172 42.2093 25.7442H52.6525C61.641 25.7442 61.9851 5.74856 61.9948 3.4656L62 2.35015H48.2688ZM10.6883 18.3085C8.95815 18.3085 7.94595 13.6653 7.76446 9.78644H14.148C14.4675 12.4491 15.0228 15.4342 15.9715 18.3085H10.6883ZM35.0454 16.1286L36.0009 21.5775L30.9977 19.0051L25.9945 21.5775L26.95 16.1286L22.9023 12.2699L28.4958 11.4747L30.9971 6.51738L33.4985 11.4747L39.0919 12.2699L35.0454 16.1286ZM50.8829 18.3085H46.0371C46.9858 15.4342 47.5411 12.4491 47.8606 9.78644H53.8067C53.6252 13.6653 52.613 18.3085 50.8829 18.3085Z" fill="white"/>
<path d="M46.9071 53.6846H15.1016V62H46.9071V53.6846Z" fill="white"/>
</svg>
