<svg width="1182" height="400" viewBox="0 0 1182 400" fill="none" xmlns="http://www.w3.org/2000/svg">
<rect width="1182" height="400" rx="20" fill="#E9E9E9"/>
<path d="M792.835 122.954C811.198 122.954 826.084 109.964 826.084 93.9398C826.084 77.9158 811.198 64.9258 792.835 64.9258C774.472 64.9258 759.586 77.9158 759.586 93.9398C759.586 109.964 774.472 122.954 792.835 122.954Z" fill="white"/>
<path d="M766.915 107.902C766.915 107.902 762.248 114.095 757.243 117.138C756.362 117.674 756.609 119.008 757.62 119.21C761.815 120.049 769.658 120.882 777.442 117.802L766.915 107.902Z" fill="white"/>
<path d="M997.834 64.686L1003.04 66.375L997.834 68.064C995.71 68.753 994.046 70.417 993.357 72.541L991.668 77.75L989.979 72.541C989.29 70.417 987.626 68.753 985.502 68.064L980.293 66.375L985.502 64.686C987.626 63.997 989.29 62.333 989.979 60.209L991.668 55L993.357 60.209C994.045 62.332 995.71 63.997 997.834 64.686Z" fill="white"/>
<path d="M656.541 354.717L661.75 356.406L656.541 358.095C654.418 358.784 652.753 360.448 652.064 362.572L650.375 367.781L648.686 362.572C647.997 360.448 646.333 358.784 644.209 358.095L639 356.406L644.209 354.717C646.333 354.028 647.997 352.364 648.686 350.24L650.375 345.031L652.064 350.24C652.752 352.364 654.417 354.029 656.541 354.717Z" fill="white"/>
<path d="M847.924 218.366L852.197 219.752L847.924 221.138C846.182 221.703 844.816 223.068 844.252 224.811L842.866 229.084L841.48 224.811C840.915 223.069 839.55 221.703 837.808 221.138L833.535 219.752L837.808 218.366C839.55 217.801 840.916 216.436 841.48 214.693L842.866 210.42L844.252 214.693C844.817 216.435 846.182 217.801 847.924 218.366Z" fill="white"/>
<path d="M1037.56 366.275L1041.84 367.661L1037.56 369.047C1035.82 369.612 1034.45 370.978 1033.89 372.719L1032.5 376.992L1031.12 372.719C1030.55 370.977 1029.19 369.611 1027.45 369.047L1023.17 367.661L1027.45 366.275C1029.19 365.71 1030.55 364.345 1031.12 362.603L1032.5 358.33L1033.89 362.603C1034.46 364.345 1035.82 365.711 1037.56 366.275Z" fill="white"/>
<path d="M1016.4 79.9039L1018.75 80.6639L1016.4 81.4239C1015.45 81.7339 1014.7 82.4829 1014.39 83.4379L1013.63 85.7809L1012.87 83.4379C1012.56 82.4829 1011.81 81.7339 1010.86 81.4239L1008.51 80.6639L1010.86 79.9039C1011.81 79.5939 1012.56 78.8449 1012.87 77.8899L1013.63 75.5469L1014.39 77.8899C1014.7 78.8449 1015.45 79.5939 1016.4 79.9039Z" fill="white"/>
<path d="M704.149 68.3511L706.492 69.1111L704.149 69.8711C703.194 70.1811 702.445 70.9301 702.135 71.8851L701.375 74.2281L700.615 71.8851C700.305 70.9301 699.556 70.1811 698.601 69.8711L696.258 69.1111L698.601 68.3511C699.556 68.0411 700.305 67.2921 700.615 66.3371L701.375 63.9941L702.135 66.3371C702.445 67.2921 703.194 68.0411 704.149 68.3511Z" fill="white"/>
<path d="M712.075 161.15C732.551 161.15 749.15 144.551 749.15 124.075C749.15 103.599 732.551 87 712.075 87C691.599 87 675 103.599 675 124.075C675 144.551 691.599 161.15 712.075 161.15Z" fill="#BFA972" fill-opacity="0.35"/>
<path d="M710.121 83.0873C709.968 82.4697 710.044 81.9091 710.348 81.4053C710.646 80.8778 711.103 80.5375 711.721 80.3847C712.695 80.1436 713.538 79.7835 714.252 79.3044C714.959 78.8015 715.456 78.1617 715.743 77.3849C716.053 76.6022 716.073 75.6645 715.803 74.5718C715.603 73.7642 715.225 73.1016 714.668 72.5839C714.135 72.0604 713.48 71.7058 712.703 71.52C711.95 71.3284 711.145 71.3384 710.29 71.5501C709.625 71.7147 709.025 71.9893 708.49 72.3738C707.979 72.7525 707.536 73.2026 707.16 73.724C706.863 74.1506 706.461 74.5147 705.956 74.8162C705.469 75.0881 704.902 75.0898 704.256 74.8212C703.58 74.5348 703.144 74.1005 702.95 73.5184C702.755 72.9363 702.846 72.3341 703.221 71.7118C703.859 70.6212 704.689 69.6973 705.711 68.94C706.752 68.153 707.925 67.5978 709.232 67.2744C710.871 66.8687 712.438 66.8842 713.932 67.3209C715.445 67.7279 716.749 68.4639 717.844 69.5288C718.94 70.5937 719.684 71.9219 720.078 73.5134C720.372 74.701 720.456 75.8022 720.329 76.8168C720.196 77.8076 719.88 78.7179 719.379 79.5477C718.896 80.3478 718.266 81.0585 717.487 81.6799C716.726 82.2717 715.855 82.7771 714.875 83.1962C714.833 83.2317 714.792 83.2673 714.75 83.3028C714.732 83.3324 714.729 83.371 714.741 83.4185L715.067 84.7368C715.22 85.3544 715.148 85.927 714.85 86.4545C714.546 86.9583 714.085 87.2866 713.467 87.4395C712.85 87.5924 712.289 87.5169 711.785 87.213C711.276 86.8854 710.944 86.4128 710.792 85.7953L710.121 83.0873ZM714.868 93.8614C714.179 94.032 713.601 93.9861 713.132 93.7239C712.682 93.432 712.372 92.9417 712.201 92.2528L712.051 91.6471C711.881 90.9583 711.929 90.3916 712.197 89.9471C712.483 89.4729 712.971 89.1506 713.66 88.9801L714.123 88.8654C714.812 88.6949 715.381 88.7555 715.832 89.0474C716.3 89.3096 716.619 89.7851 716.79 90.474L716.94 91.0797C717.11 91.7686 717.053 92.3501 716.767 92.8242C716.499 93.2687 716.02 93.5762 715.331 93.7468L714.868 93.8614Z" fill="#064268" fill-opacity="0.38"/>
<path d="M693.069 96.9072C692.702 96.483 692.537 96.0122 692.574 95.4947C692.597 94.9609 692.82 94.5104 693.245 94.1431C693.914 93.5639 694.432 92.9433 694.801 92.2814C695.156 91.6031 695.291 90.9014 695.205 90.1762C695.136 89.4368 694.776 88.6919 694.126 87.9415C693.646 87.3868 693.084 87.0174 692.439 86.8334C691.811 86.6352 691.154 86.6186 690.469 86.7836C689.8 86.9344 689.172 87.2641 688.585 87.7726C688.128 88.1682 687.767 88.6241 687.5 89.1404C687.25 89.6426 687.081 90.1736 686.995 90.7335C686.932 91.1879 686.762 91.6347 686.486 92.0738C686.212 92.4824 685.767 92.7105 685.152 92.7581C684.506 92.8035 683.99 92.6363 683.604 92.2567C683.218 91.8771 683.048 91.3677 683.094 90.7284C683.159 89.6162 683.442 88.558 683.942 87.5536C684.445 86.5188 685.145 85.6129 686.042 84.836C687.168 83.8613 688.406 83.2465 689.755 82.9916C691.106 82.7063 692.426 82.7629 693.713 83.1614C695 83.5599 696.117 84.3056 697.063 85.3987C697.769 86.2145 698.276 87.0464 698.582 87.8946C698.874 88.7264 698.989 89.5685 698.928 90.4209C698.869 91.2428 698.658 92.0537 698.294 92.8538C697.933 93.6233 697.451 94.3689 696.848 95.0906C696.83 95.1351 696.811 95.1797 696.793 95.2243C696.791 95.2547 696.804 95.2863 696.832 95.3189L697.616 96.2243C697.983 96.6485 698.155 97.1275 698.132 97.6613C698.095 98.1788 697.864 98.6212 697.44 98.9885C697.016 99.3558 696.545 99.5208 696.028 99.4836C695.496 99.4301 695.047 99.1913 694.679 98.7671L693.069 96.9072ZM701.111 103.475C700.638 103.885 700.165 104.08 699.692 104.061C699.221 104.012 698.781 103.751 698.371 103.278L698.011 102.862C697.601 102.389 697.413 101.924 697.446 101.467C697.481 100.98 697.735 100.532 698.208 100.122L698.526 99.8468C698.999 99.4371 699.471 99.2569 699.942 99.306C700.415 99.3247 700.856 99.5706 701.266 100.044L701.626 100.46C702.036 100.933 702.223 101.413 702.188 101.9C702.155 102.357 701.902 102.79 701.429 103.199L701.111 103.475Z" fill="#064268" fill-opacity="0.38"/>
<path d="M732.44 86.2618C732.674 85.7518 733.034 85.4065 733.52 85.2259C734.016 85.0257 734.518 85.0425 735.028 85.2764C735.833 85.6452 736.612 85.8603 737.368 85.9217C738.132 85.9635 738.826 85.7952 739.451 85.4169C740.095 85.0475 740.624 84.4117 741.038 83.5093C741.344 82.8423 741.447 82.1774 741.347 81.5145C741.267 80.8605 741.01 80.256 740.576 79.7009C740.162 79.1548 739.602 78.7199 738.895 78.3961C738.346 78.1442 737.781 78.004 737.201 77.9753C736.64 77.9555 736.087 78.0225 735.542 78.1761C735.102 78.3068 734.625 78.3374 734.111 78.2678C733.626 78.1876 733.234 77.8773 732.935 77.337C732.627 76.768 732.565 76.2293 732.751 75.721C732.936 75.2126 733.329 74.8468 733.93 74.6238C734.969 74.2218 736.049 74.0405 737.171 74.0799C738.321 74.1087 739.436 74.3704 740.514 74.8651C741.868 75.4858 742.94 76.3573 743.731 77.4797C744.551 78.5915 745.046 79.8157 745.217 81.1522C745.387 82.4886 745.171 83.814 744.569 85.1283C744.119 86.1091 743.572 86.9146 742.927 87.5447C742.291 88.1552 741.572 88.6092 740.771 88.9066C739.998 89.1934 739.173 89.3371 738.294 89.3378C737.444 89.3279 736.566 89.1982 735.659 88.9487C735.611 88.9503 735.563 88.952 735.515 88.9536C735.486 88.9642 735.463 88.9891 735.445 89.0284L734.945 90.1171C734.712 90.6271 734.347 90.9822 733.852 91.1824C733.365 91.363 732.867 91.3363 732.357 91.1024C731.847 90.8686 731.502 90.5085 731.321 90.0221C731.15 89.5161 731.181 89.0081 731.415 88.498L732.44 86.2618ZM729.795 96.302C729.226 96.0411 728.852 95.6916 728.673 95.2535C728.523 94.8047 728.578 94.2959 728.839 93.727L729.068 93.2268C729.329 92.6579 729.674 92.2938 730.103 92.1345C730.561 91.9645 731.074 92.01 731.643 92.2708L732.026 92.4462C732.595 92.7071 732.954 93.0619 733.105 93.5106C733.283 93.9488 733.243 94.4523 732.982 95.0212L732.752 95.5214C732.491 96.0903 732.132 96.4597 731.674 96.6296C731.245 96.789 730.746 96.7382 730.177 96.4774L729.795 96.302Z" fill="#064268" fill-opacity="0.38"/>
<path d="M472.637 244.274C521.038 244.274 560.274 205.038 560.274 156.637C560.274 108.236 521.038 69 472.637 69C424.236 69 385 108.236 385 156.637C385 205.038 424.236 244.274 472.637 244.274Z" fill="#BFA972" fill-opacity="0.34"/>
<path d="M649.772 348.553C736.907 348.553 807.544 343.952 807.544 338.276C807.544 332.601 736.907 328 649.772 328C562.637 328 492 332.601 492 338.276C492 343.952 562.637 348.553 649.772 348.553Z" fill="#064268"/>
<path d="M595.135 29.338L598.543 30.4436L595.135 31.5484C593.745 31.9989 592.656 33.088 592.205 34.4777L591.1 37.8864L589.994 34.4777C589.544 33.088 588.455 31.9989 587.065 31.5484L583.656 30.4436L587.065 29.338C588.455 28.8876 589.544 27.7984 589.994 26.4087L591.1 23L592.205 26.4087C592.656 27.7984 593.745 28.8876 595.135 29.338Z" fill="white"/>
<path d="M804.161 250.32L807.57 251.426L804.161 252.532C802.772 252.982 801.682 254.071 801.232 255.461L800.127 258.87L799.022 255.461C798.571 254.071 797.482 252.982 796.092 252.532L792.684 251.426L796.092 250.32C797.482 249.87 798.571 248.781 799.022 247.391L800.127 243.982L801.232 247.391C801.682 248.78 802.772 249.869 804.161 250.32Z" fill="white"/>
<path d="M508.478 221.043L511.886 222.149L508.478 223.254C507.088 223.705 505.999 224.794 505.548 226.184L504.443 229.592L503.338 226.184C502.888 224.794 501.798 223.705 500.409 223.254L497 222.149L500.409 221.043C501.798 220.593 502.888 219.503 503.338 218.114L504.443 214.705L505.548 218.114C505.999 219.503 507.088 220.593 508.478 221.043Z" fill="white"/>
<path d="M661.587 117.362L663.566 118.004L661.587 118.646C660.78 118.907 660.148 119.539 659.886 120.346L659.244 122.325L658.602 120.346C658.341 119.539 657.708 118.907 656.901 118.646L654.922 118.004L656.901 117.362C657.708 117.101 658.34 116.468 658.602 115.661L659.244 113.682L659.886 115.661C660.148 116.468 660.78 117.101 661.587 117.362Z" fill="white"/>
<path d="M540.739 74.7661L542.718 75.408L540.739 76.0499C539.933 76.3112 539.3 76.9437 539.038 77.7503L538.396 79.7293L537.754 77.7503C537.493 76.9437 536.861 76.3112 536.053 76.0499L534.074 75.408L536.053 74.7661C536.86 74.5048 537.492 73.8724 537.754 73.0649L538.396 71.0859L539.038 73.0649C539.3 73.8716 539.933 74.5041 540.739 74.7661Z" fill="white"/>
<path d="M515.845 203.813L517.824 204.455L515.845 205.097C515.038 205.358 514.406 205.991 514.144 206.798L513.502 208.777L512.86 206.798C512.599 205.991 511.966 205.359 511.159 205.097L509.18 204.455L511.159 203.813C511.965 203.552 512.598 202.919 512.86 202.112L513.502 200.133L514.144 202.112C514.406 202.918 515.038 203.551 515.845 203.813Z" fill="white"/>
<path d="M534.457 204.578H590.409C592.272 204.578 594.036 205.31 595.205 206.57L603.104 215.079C603.883 215.918 605.059 216.407 606.301 216.407H693.645C696.739 216.407 699.247 218.583 699.247 221.268V327.297C699.247 333.088 693.836 337.784 687.161 337.784H537.217C532.543 337.784 528.754 334.496 528.754 330.441V209.527C528.755 206.794 531.307 204.578 534.457 204.578Z" fill="#BFA972"/>
<path d="M575.481 141.254L551.941 164.794V254.999H667.334V141.254H575.481Z" fill="white"/>
<path d="M575.481 164.794V141.254L551.941 164.794H575.481Z" fill="#064268"/>
<path d="M514.829 231.156H669.867C673.521 231.156 676.656 233.414 677.331 236.53L697.558 329.978C698.436 334.034 694.85 337.785 690.094 337.785H535.057C531.403 337.785 528.267 335.527 527.592 332.411L507.365 238.963C506.487 234.906 510.073 231.156 514.829 231.156Z" fill="#BFA972"/>
<path d="M519.146 148.905H518.135C517.978 148.421 517.784 147.954 517.554 147.507L518.27 146.791C518.947 146.114 518.947 145.017 518.27 144.34L516.563 142.633C515.886 141.956 514.789 141.956 514.113 142.633L513.397 143.348C512.95 143.12 512.483 142.924 511.999 142.768V141.757C511.999 140.799 511.223 140.023 510.265 140.023H507.851C506.894 140.023 506.117 140.799 506.117 141.757V142.768C505.633 142.924 505.166 143.119 504.719 143.348L504.004 142.633C503.327 141.956 502.229 141.956 501.553 142.633L499.845 144.34C499.169 145.017 499.169 146.114 499.845 146.791L500.561 147.507C500.332 147.954 500.137 148.42 499.98 148.905H498.97C498.012 148.905 497.236 149.681 497.236 150.639V153.053C497.236 154.011 498.012 154.787 498.97 154.787H499.98C500.137 155.271 500.332 155.738 500.561 156.185L499.845 156.901C499.169 157.578 499.169 158.675 499.845 159.351L501.553 161.059C502.229 161.735 503.327 161.735 504.004 161.059L504.719 160.343C505.166 160.571 505.633 160.767 506.117 160.924V161.934C506.117 162.892 506.894 163.668 507.851 163.668H510.265C511.223 163.668 511.999 162.892 511.999 161.934V160.924C512.483 160.767 512.95 160.572 513.397 160.343L514.113 161.059C514.79 161.735 515.887 161.735 516.563 161.059L518.27 159.351C518.947 158.674 518.947 157.577 518.27 156.901L517.554 156.185C517.783 155.738 517.978 155.272 518.135 154.787H519.146C520.103 154.787 520.879 154.011 520.879 153.053V150.639C520.878 149.681 520.102 148.905 519.146 148.905ZM509.058 157.911C505.709 157.911 502.993 155.195 502.993 151.846C502.993 148.497 505.708 145.781 509.058 145.781C512.408 145.781 515.123 148.496 515.123 151.846C515.123 155.195 512.407 157.911 509.058 157.911Z" fill="#BFA972" fill-opacity="0.81"/>
<path d="M715.63 189.879H714.619C714.462 189.395 714.267 188.928 714.038 188.481L714.754 187.765C715.43 187.088 715.43 185.991 714.754 185.314L713.047 183.607C712.369 182.93 711.272 182.93 710.595 183.607L709.88 184.323C709.432 184.094 708.966 183.899 708.481 183.742V182.731C708.481 181.774 707.705 180.998 706.748 180.998H704.333C703.376 180.998 702.6 181.774 702.6 182.731V183.742C702.116 183.899 701.649 184.094 701.202 184.323L700.486 183.607C699.81 182.93 698.712 182.93 698.035 183.607L696.328 185.314C695.651 185.991 695.651 187.088 696.328 187.765L697.043 188.481C696.814 188.928 696.62 189.395 696.463 189.879H695.452C694.495 189.879 693.719 190.655 693.719 191.613V194.027C693.719 194.984 694.495 195.76 695.452 195.76H696.463C696.62 196.245 696.814 196.712 697.043 197.159L696.328 197.874C695.651 198.552 695.651 199.649 696.328 200.326L698.035 202.033C698.712 202.71 699.81 202.71 700.486 202.033L701.202 201.318C701.649 201.547 702.116 201.741 702.6 201.898V202.909C702.6 203.866 703.376 204.642 704.333 204.642H706.748C707.705 204.642 708.481 203.866 708.481 202.909V201.898C708.965 201.741 709.432 201.547 709.88 201.318L710.595 202.033C711.272 202.71 712.369 202.71 713.047 202.033L714.754 200.326C715.43 199.649 715.43 198.552 714.754 197.874L714.038 197.159C714.267 196.712 714.462 196.245 714.619 195.76H715.63C716.587 195.76 717.363 194.984 717.363 194.027V191.613C717.362 190.654 716.587 189.879 715.63 189.879ZM705.542 198.884C702.193 198.884 699.477 196.169 699.477 192.819C699.477 189.469 702.192 186.754 705.542 186.754C708.892 186.754 711.607 189.469 711.607 192.819C711.607 196.169 708.891 198.884 705.542 198.884Z" fill="#BFA972" fill-opacity="0.54"/>
<path d="M546.386 130.978L545.055 130.474C545.09 129.757 545.066 129.045 544.988 128.342L546.288 127.756C547.518 127.202 548.065 125.756 547.511 124.527L546.114 121.426C545.56 120.196 544.114 119.648 542.885 120.202L541.585 120.788C541.11 120.264 540.592 119.775 540.032 119.326L540.537 117.994C541.015 116.733 540.379 115.323 539.118 114.846L535.937 113.641C534.676 113.164 533.267 113.799 532.789 115.06L532.284 116.392C531.568 116.356 530.856 116.381 530.152 116.458L529.566 115.158C529.012 113.929 527.566 113.381 526.337 113.935L523.236 115.332C522.007 115.886 521.459 117.332 522.013 118.561L522.599 119.862C522.075 120.336 521.584 120.854 521.136 121.414L519.805 120.909C518.544 120.431 517.134 121.067 516.656 122.328L515.452 125.509C514.974 126.77 515.61 128.18 516.871 128.657L518.202 129.162C518.167 129.878 518.191 130.591 518.269 131.294L516.969 131.88C515.739 132.434 515.191 133.879 515.745 135.109L517.143 138.21C517.697 139.44 519.142 139.987 520.372 139.434L521.672 138.847C522.147 139.372 522.665 139.862 523.224 140.31L522.72 141.642C522.242 142.903 522.878 144.312 524.139 144.79L527.32 145.994C528.581 146.472 529.99 145.837 530.468 144.576L530.972 143.244C531.689 143.279 532.401 143.255 533.104 143.177L533.691 144.478C534.245 145.707 535.69 146.255 536.92 145.701L540.021 144.303C541.25 143.749 541.798 142.304 541.244 141.074L540.658 139.774C541.182 139.299 541.673 138.781 542.121 138.222L543.452 138.727C544.713 139.204 546.122 138.569 546.6 137.308L547.805 134.127C548.282 132.866 547.647 131.456 546.386 130.978ZM528.601 137.808C524.188 136.137 521.966 131.204 523.637 126.791C525.309 122.378 530.241 120.156 534.654 121.827C539.067 123.499 541.29 128.431 539.618 132.844C537.947 137.257 533.014 139.48 528.601 137.808Z" fill="#BFA972" fill-opacity="0.81"/>
<path d="M602.966 184.771C602.658 184.176 602.382 183.567 602.139 182.947" stroke="white" stroke-linecap="round" stroke-linejoin="round"/>
<path d="M601.061 179.137C599.689 171.548 602.471 163.166 608.509 158.283C615.633 152.523 625.49 151.925 634.643 151.557C644.058 151.178 653.529 150.77 662.728 148.729C668.904 147.359 675.059 145.178 679.916 141.126C684.773 137.074 688.167 130.888 687.638 124.585C687.11 118.281 681.956 112.313 675.637 112.022C669.318 111.731 663.328 118.388 665.236 124.419C666.337 127.899 669.618 130.417 673.175 131.232C676.732 132.047 680.502 131.348 683.871 129.946C691.138 126.923 696.918 120.526 699.191 112.99C700.478 108.721 700.678 104.19 700.405 99.7403C700.077 94.3913 699.034 88.9643 696.308 84.3503C692.719 78.2763 686.468 74.1183 679.795 71.8283C674.373 69.9683 668.651 69.2283 662.915 68.8613" stroke="white" stroke-linecap="round" stroke-linejoin="round" stroke-dasharray="3.96 3.96"/>
<path d="M660.949 68.7492C660.282 68.7152 659.615 68.6852 658.949 68.6582" stroke="white" stroke-linecap="round" stroke-linejoin="round"/>
<path d="M524.242 183.464C508.875 187.824 491.558 185.492 478.366 176.486C465.174 167.48 456.597 151.759 457.015 135.791C457.433 119.823 467.212 104.246 481.769 97.671C487.294 95.175 493.821 93.981 499.382 96.396C504.943 98.811 508.714 105.759 506.11 111.234C503.511 116.698 495.57 118.12 490.476 114.855C485.382 111.59 483.182 104.958 483.885 98.949C484.588 92.939 487.74 87.482 491.422 82.681C502.603 68.1 519.461 57.992 537.591 55" stroke="white" stroke-miterlimit="10" stroke-linecap="round" stroke-linejoin="round" stroke-dasharray="4 4"/>
</svg>
